<?xml version="1.0" standalone="no"?><!DOCTYPE svg PUBLIC "-//W3C//DTD SVG 1.1//EN" "http://www.w3.org/Graphics/SVG/1.1/DTD/svg11.dtd" ><svg version="1.1" xmlns="http://www.w3.org/2000/svg"><defs><font horiz-adv-x="0" id="font"><font-face ascent="700" bbox="0 -223 646 830" cap-height="580" descent="-300" font-family="bt_mono Regular" font-stretch="normal" font-style="normal" font-weight="600" units-per-em="1000" x-height="426" /><missing-glyph d="M526 580V0H54V580ZM146 420V160L237 290ZM198 85H381L290 215ZM434 160V420L342 290ZM290 365 381 495H199Z" horiz-adv-x="580" /><glyph glyph-name=".null" horiz-adv-x="0" /><glyph d="M454 40 403 195H174L123 40H208V0H17V40H77L257 580H323L503 40H563V0H370V40ZM187 235H390L289 541Z" glyph-name="A" horiz-adv-x="580" unicode="A" /><glyph d="M52 40 219 540H160V580H543V404H501V540H341V317H419V366H459V228H419V277H341V40H510V162H552V0H239V40H296V195H149L97 40H154V0H18V40ZM263 540 162 235H296V540Z" glyph-name="AE" horiz-adv-x="580" unicode="&#198;" /><glyph d="M390 765 233 644 208 672 349 812ZM454 40 403 195H174L123 40H208V0H17V40H77L257 580H323L503 40H563V0H370V40ZM187 235H390L289 541Z" glyph-name="Aacute" horiz-adv-x="580" unicode="&#193;" /><glyph d="M454 40 403 195H174L123 40H208V0H17V40H77L257 580H323L503 40H563V0H370V40ZM187 235H390L289 541ZM290 657Q239 657 206.5 688Q174 719 171 767L214 772Q217 742 237 719.5Q257 697 290 697Q323 697 343 719.5Q363 742 366 772L409 767Q406 719 373.5 688Q341 657 290 657Z" glyph-name="Abreve" horiz-adv-x="580" unicode="&#258;" /><glyph d="M454 40 403 195H174L123 40H208V0H17V40H77L257 580H323L503 40H563V0H370V40ZM187 235H390L289 541ZM290 797 408 677 379 647 290 738 201 647 172 677Z" glyph-name="Acircumflex" horiz-adv-x="580" unicode="&#194;" /><glyph d="M240 709Q240 688 226 674.5Q212 661 192 661Q172 661 158 674.5Q144 688 144 709Q144 730 158 743.5Q172 757 192 757Q212 757 226 743.5Q240 730 240 709ZM436 709Q436 688 422 674.5Q408 661 388 661Q368 661 354 674.5Q340 688 340 709Q340 730 354 743.5Q368 757 388 757Q408 757 422 743.5Q436 730 436 709ZM454 40 403 195H174L123 40H208V0H17V40H77L257 580H323L503 40H563V0H370V40ZM187 235H390L289 541Z" glyph-name="Adieresis" horiz-adv-x="580" unicode="&#196;" /><glyph d="M230 812 371 673 346 644 189 765ZM454 40 403 195H174L123 40H208V0H17V40H77L257 580H323L503 40H563V0H370V40ZM187 235H390L289 541Z" glyph-name="Agrave" horiz-adv-x="580" unicode="&#192;" /><glyph d="M454 40 403 195H174L123 40H208V0H17V40H77L257 580H323L503 40H563V0H370V40ZM187 235H390L289 541ZM171 706H409V665H171Z" glyph-name="Amacron" horiz-adv-x="580" unicode="&#256;" /><glyph d="M370 0V40H454L403 195H174L123 40H208V0H17V40H77L257 580H323L503 40H563V0H507Q452 -31 422.5 -60.5Q393 -90 393 -119Q393 -137 404 -150Q415 -163 436 -163Q454 -163 473.5 -152.5Q493 -142 513 -122L537 -151Q514 -173 488.5 -187.5Q463 -202 432 -202Q393 -202 371 -179.5Q349 -157 349 -122Q349 -88 370.5 -58.5Q392 -29 437 0ZM187 235H390L289 541Z" glyph-name="Aogonek" horiz-adv-x="580" unicode="&#260;" /><glyph d="M454 40 403 195H174L123 40H208V0H17V40H77L257 580H323L503 40H563V0H370V40ZM187 235H390L289 541ZM385 731Q385 691 357.5 663Q330 635 290 635Q250 635 222.5 663Q195 691 195 731Q195 772 222.5 799.5Q250 827 290 827Q330 827 357.5 799.5Q385 772 385 731ZM344 731Q344 754 329 771Q314 788 290 788Q266 788 251 771Q236 754 236 731Q236 708 251 691Q266 674 290 674Q314 674 329 691Q344 708 344 731Z" glyph-name="Aring" horiz-adv-x="580" unicode="&#197;" /><glyph d="M454 40 403 195H174L123 40H208V0H17V40H77L257 580H323L503 40H563V0H370V40ZM187 235H390L289 541ZM429 719Q428 708 422 695.5Q416 683 405.5 672.5Q395 662 380 655Q365 648 347 648Q326 648 310.5 655.5Q295 663 282.5 672.5Q270 682 258 689.5Q246 697 232 697Q211 697 200.5 683.5Q190 670 187 655L149 666Q150 677 156 689.5Q162 702 172.5 712.5Q183 723 198 730Q213 737 231 737Q252 737 267.5 729.5Q283 722 295.5 712.5Q308 703 320 695.5Q332 688 346 688Q367 688 377.5 701.5Q388 715 391 730Z" glyph-name="Atilde" horiz-adv-x="580" unicode="&#195;" /><glyph d="M491 430Q491 379 465 346Q439 313 399 300Q456 288 491 251Q526 214 526 157Q526 76 469 38Q412 0 309 0H47V40H126V540H47V580H296Q386 580 438.5 542.5Q491 505 491 430ZM171 40H300Q393 40 436 68.5Q479 97 479 157Q479 217 431 247Q383 277 293 277H171ZM171 317H284Q444 317 444 429Q444 485 405 512.5Q366 540 285 540H171Z" glyph-name="B" horiz-adv-x="580" unicode="B" /><glyph d="M306 594Q359 594 403 571Q447 548 466 513V580H508V395H471Q469 428 455.5 457Q442 486 420 507Q398 528 368.5 540Q339 552 306 552Q258 552 221.5 532Q185 512 160.5 476.5Q136 441 123.5 393.5Q111 346 111 291Q111 237 123.5 189.5Q136 142 161 106Q186 70 223.5 49Q261 28 312 28Q350 28 377.5 38.5Q405 49 425 65Q445 81 458 99.5Q471 118 480 134L519 111Q509 91 491.5 69Q474 47 448.5 28.5Q423 10 389 -2Q355 -14 311 -14Q255 -14 209 8Q163 30 130.5 70.5Q98 111 80.5 167.5Q63 224 63 292Q63 360 80.5 415.5Q98 471 130 511Q162 551 206.5 572.5Q251 594 306 594Z" glyph-name="C" horiz-adv-x="580" unicode="C" /><glyph d="M399 765 242 644 217 672 358 812ZM306 594Q359 594 403 571Q447 548 466 513V580H508V395H471Q469 428 455.5 457Q442 486 420 507Q398 528 368.5 540Q339 552 306 552Q258 552 221.5 532Q185 512 160.5 476.5Q136 441 123.5 393.5Q111 346 111 291Q111 237 123.5 189.5Q136 142 161 106Q186 70 223.5 49Q261 28 312 28Q350 28 377.5 38.5Q405 49 425 65Q445 81 458 99.5Q471 118 480 134L519 111Q509 91 491.5 69Q474 47 448.5 28.5Q423 10 389 -2Q355 -14 311 -14Q255 -14 209 8Q163 30 130.5 70.5Q98 111 80.5 167.5Q63 224 63 292Q63 360 80.5 415.5Q98 471 130 511Q162 551 206.5 572.5Q251 594 306 594Z" glyph-name="Cacute" horiz-adv-x="580" unicode="&#262;" /><glyph d="M191 767 220 797 309 706 398 797 427 767 309 647ZM306 594Q359 594 403 571Q447 548 466 513V580H508V395H471Q469 428 455.5 457Q442 486 420 507Q398 528 368.5 540Q339 552 306 552Q258 552 221.5 532Q185 512 160.5 476.5Q136 441 123.5 393.5Q111 346 111 291Q111 237 123.5 189.5Q136 142 161 106Q186 70 223.5 49Q261 28 312 28Q350 28 377.5 38.5Q405 49 425 65Q445 81 458 99.5Q471 118 480 134L519 111Q509 91 491.5 69Q474 47 448.5 28.5Q423 10 389 -2Q355 -14 311 -14Q255 -14 209 8Q163 30 130.5 70.5Q98 111 80.5 167.5Q63 224 63 292Q63 360 80.5 415.5Q98 471 130 511Q162 551 206.5 572.5Q251 594 306 594Z" glyph-name="Ccaron" horiz-adv-x="580" unicode="&#268;" /><glyph d="M224 -146Q239 -165 253.5 -176Q268 -187 292 -187Q318 -187 332.5 -175Q347 -163 347 -139Q347 -119 332.5 -106Q318 -93 298 -93Q282 -93 268 -100L240 -80L270 -11Q222 -4 184 21.5Q146 47 119 86.5Q92 126 77.5 178Q63 230 63 292Q63 360 80.5 415.5Q98 471 130 511Q162 551 206.5 572.5Q251 594 306 594Q359 594 403 571Q447 548 466 513V580H508V395H471Q469 428 455.5 457Q442 486 420 507Q398 528 368.5 540Q339 552 306 552Q258 552 221.5 532Q185 512 160.5 476.5Q136 441 123.5 393.5Q111 346 111 291Q111 237 123.5 189.5Q136 142 161 106Q186 70 223.5 49Q261 28 312 28Q350 28 377.5 38.5Q405 49 425 65Q445 81 458 99.5Q471 118 480 134L519 111Q509 91 491.5 69Q474 47 448.5 28.5Q423 10 389 -2Q355 -14 311 -14H304L284 -62Q293 -59 305 -59Q338 -59 362.5 -82Q387 -105 387 -138Q387 -179 358.5 -201Q330 -223 292 -223Q257 -223 231.5 -206.5Q206 -190 194 -168Z" glyph-name="Ccedilla" horiz-adv-x="580" unicode="&#199;" /><glyph d="M309 797 427 677 398 647 309 738 220 647 191 677ZM306 594Q359 594 403 571Q447 548 466 513V580H508V395H471Q469 428 455.5 457Q442 486 420 507Q398 528 368.5 540Q339 552 306 552Q258 552 221.5 532Q185 512 160.5 476.5Q136 441 123.5 393.5Q111 346 111 291Q111 237 123.5 189.5Q136 142 161 106Q186 70 223.5 49Q261 28 312 28Q350 28 377.5 38.5Q405 49 425 65Q445 81 458 99.5Q471 118 480 134L519 111Q509 91 491.5 69Q474 47 448.5 28.5Q423 10 389 -2Q355 -14 311 -14Q255 -14 209 8Q163 30 130.5 70.5Q98 111 80.5 167.5Q63 224 63 292Q63 360 80.5 415.5Q98 471 130 511Q162 551 206.5 572.5Q251 594 306 594Z" glyph-name="Ccircumflex" horiz-adv-x="580" unicode="&#264;" /><glyph d="M361 709Q361 686 346 671.5Q331 657 309 657Q287 657 272 671.5Q257 686 257 709Q257 732 272 746.5Q287 761 309 761Q331 761 346 746.5Q361 732 361 709ZM306 594Q359 594 403 571Q447 548 466 513V580H508V395H471Q469 428 455.5 457Q442 486 420 507Q398 528 368.5 540Q339 552 306 552Q258 552 221.5 532Q185 512 160.5 476.5Q136 441 123.5 393.5Q111 346 111 291Q111 237 123.5 189.5Q136 142 161 106Q186 70 223.5 49Q261 28 312 28Q350 28 377.5 38.5Q405 49 425 65Q445 81 458 99.5Q471 118 480 134L519 111Q509 91 491.5 69Q474 47 448.5 28.5Q423 10 389 -2Q355 -14 311 -14Q255 -14 209 8Q163 30 130.5 70.5Q98 111 80.5 167.5Q63 224 63 292Q63 360 80.5 415.5Q98 471 130 511Q162 551 206.5 572.5Q251 594 306 594Z" glyph-name="Cdotaccent" horiz-adv-x="580" unicode="&#266;" /><glyph d="M242 580Q313 580 367 559.5Q421 539 457.5 501Q494 463 512.5 409.5Q531 356 531 290Q531 224 512.5 170.5Q494 117 457.5 79Q421 41 367 20.5Q313 0 242 0H48V40H114V540H48V580ZM159 540V40H242Q305 40 350.5 59Q396 78 425.5 112Q455 146 469 191.5Q483 237 483 290Q483 343 469 388.5Q455 434 425.5 468Q396 502 350.5 521Q305 540 242 540Z" glyph-name="D" horiz-adv-x="580" unicode="D" /><glyph d="M242 580Q313 580 367 559.5Q421 539 457.5 501Q494 463 512.5 409.5Q531 356 531 290Q531 224 512.5 170.5Q494 117 457.5 79Q421 41 367 20.5Q313 0 242 0H48V40H114V540H48V580ZM159 540V40H242Q305 40 350.5 59Q396 78 425.5 112Q455 146 469 191.5Q483 237 483 290Q483 343 469 388.5Q455 434 425.5 468Q396 502 350.5 521Q305 540 242 540ZM154 767 183 797 272 706 361 797 390 767 272 647Z" glyph-name="Dcaron" horiz-adv-x="580" unicode="&#270;" /><glyph d="M247 580Q318 580 372 559.5Q426 539 462.5 501Q499 463 517.5 409.5Q536 356 536 290Q536 224 517.5 170.5Q499 117 462.5 79Q426 41 372 20.5Q318 0 247 0H53V40H119V285H50V325H119V540H53V580ZM322 285H164V40H247Q310 40 355.5 59Q401 78 430.5 112Q460 146 474 191.5Q488 237 488 290Q488 343 474 388.5Q460 434 430.5 468Q401 502 355.5 521Q310 540 247 540H164V325H322Z" glyph-name="Dcroat" horiz-adv-x="580" unicode="&#272;" /><glyph d="M257 580H323L518 0H61ZM122 40H457L290 538Z" glyph-name="Delta" horiz-adv-x="580" unicode="&#8710;" /><glyph d="M370 208H330V277H179V40H478V164H520V0H55V40H134V540H55V580H510V402H468V540H179V317H330V386H370Z" glyph-name="E" horiz-adv-x="580" unicode="E" /><glyph d="M370 208H330V277H179V40H478V164H520V0H55V40H134V540H55V580H510V402H468V540H179V317H330V386H370ZM409 765 252 644 227 672 368 812Z" glyph-name="Eacute" horiz-adv-x="580" unicode="&#201;" /><glyph d="M370 208H330V277H179V40H478V164H520V0H55V40H134V540H55V580H510V402H468V540H179V317H330V386H370ZM302 657Q251 657 218.5 688Q186 719 183 767L226 772Q229 742 249 719.5Q269 697 302 697Q335 697 355 719.5Q375 742 378 772L421 767Q418 719 385.5 688Q353 657 302 657Z" glyph-name="Ebreve" horiz-adv-x="580" unicode="&#276;" /><glyph d="M370 208H330V277H179V40H478V164H520V0H55V40H134V540H55V580H510V402H468V540H179V317H330V386H370ZM185 767 214 797 303 706 392 797 421 767 303 647Z" glyph-name="Ecaron" horiz-adv-x="580" unicode="&#282;" /><glyph d="M370 208H330V277H179V40H478V164H520V0H55V40H134V540H55V580H510V402H468V540H179V317H330V386H370ZM303 797 421 677 392 647 303 738 214 647 185 677Z" glyph-name="Ecircumflex" horiz-adv-x="580" unicode="&#202;" /><glyph d="M370 208H330V277H179V40H478V164H520V0H55V40H134V540H55V580H510V402H468V540H179V317H330V386H370ZM253 709Q253 688 239 674.5Q225 661 205 661Q185 661 171 674.5Q157 688 157 709Q157 730 171 743.5Q185 757 205 757Q225 757 239 743.5Q253 730 253 709ZM449 709Q449 688 435 674.5Q421 661 401 661Q381 661 367 674.5Q353 688 353 709Q353 730 367 743.5Q381 757 401 757Q421 757 435 743.5Q449 730 449 709Z" glyph-name="Edieresis" horiz-adv-x="580" unicode="&#203;" /><glyph d="M370 208H330V277H179V40H478V164H520V0H55V40H134V540H55V580H510V402H468V540H179V317H330V386H370ZM355 709Q355 686 340 671.5Q325 657 303 657Q281 657 266 671.5Q251 686 251 709Q251 732 266 746.5Q281 761 303 761Q325 761 340 746.5Q355 732 355 709Z" glyph-name="Edotaccent" horiz-adv-x="580" unicode="&#278;" /><glyph d="M370 208H330V277H179V40H478V164H520V0H55V40H134V540H55V580H510V402H468V540H179V317H330V386H370ZM245 812 386 673 361 644 204 765Z" glyph-name="Egrave" horiz-adv-x="580" unicode="&#200;" /><glyph d="M370 208H330V277H179V40H478V164H520V0H55V40H134V540H55V580H510V402H468V540H179V317H330V386H370ZM184 706H422V665H184Z" glyph-name="Emacron" horiz-adv-x="580" unicode="&#274;" /><glyph d="M484 -50Q484 -83 473.5 -110.5Q463 -138 444 -158.5Q425 -179 399 -190.5Q373 -202 342 -202Q295 -202 258 -176Q221 -150 208 -104L248 -90Q261 -126 286.5 -144Q312 -162 342 -162Q386 -162 413 -128Q440 -94 440 -45V-16L139 521V40H229V0H36V40H95V540H36V580H155L440 70V540H357V580H544V540H484Z" glyph-name="Eng" horiz-adv-x="580" unicode="&#330;" /><glyph d="M55 0V40H134V540H55V580H510V402H468V540H179V317H330V386H370V208H330V277H179V40H478V164H520V0H476Q421 -31 391.5 -60.5Q362 -90 362 -119Q362 -137 373 -150Q384 -163 405 -163Q423 -163 442.5 -152.5Q462 -142 482 -122L506 -151Q483 -173 457.5 -187.5Q432 -202 401 -202Q362 -202 340 -179.5Q318 -157 318 -122Q318 -88 339.5 -58.5Q361 -29 406 0Z" glyph-name="Eogonek" horiz-adv-x="580" unicode="&#280;" /><glyph d="M247 580Q318 580 372 559.5Q426 539 462.5 501Q499 463 517.5 409.5Q536 356 536 290Q536 224 517.5 170.5Q499 117 462.5 79Q426 41 372 20.5Q318 0 247 0H53V40H119V285H50V325H119V540H53V580ZM322 285H164V40H247Q310 40 355.5 59Q401 78 430.5 112Q460 146 474 191.5Q488 237 488 290Q488 343 474 388.5Q460 434 430.5 468Q401 502 355.5 521Q310 540 247 540H164V325H322Z" glyph-name="Eth" horiz-adv-x="580" unicode="&#208;" /><glyph d="M93 366Q101 418 121 460Q141 502 170.5 532Q200 562 238.5 578Q277 594 322 594Q373 594 415 572.5Q457 551 475 517V580H517V405H480Q478 438 464.5 465Q451 492 430 511.5Q409 531 381 541.5Q353 552 322 552Q285 552 254.5 538Q224 524 201.5 499.5Q179 475 164 441Q149 407 142 366H369L358 326H137Q136 317 136 308.5Q136 300 136 291Q136 280 136.5 270.5Q137 261 138 251H341L330 211H143Q151 172 166 138.5Q181 105 204 80.5Q227 56 258 42Q289 28 328 28Q365 28 392 39Q419 50 438 66.5Q457 83 469.5 101Q482 119 489 134L528 111Q519 92 502.5 70.5Q486 49 461.5 30Q437 11 403.5 -1.5Q370 -14 327 -14Q281 -14 242 2Q203 18 173 47Q143 76 123 118Q103 160 94 211H32V251H89Q88 261 88 271Q88 281 88 292Q88 300 88 309Q88 318 89 326H32V366Z" glyph-name="Euro" horiz-adv-x="580" unicode="&#8364;" /><glyph d="M379 208H339V277H180V40H335V0H53V40H135V540H53V580H530V402H488V540H180V317H339V386H379Z" glyph-name="F" horiz-adv-x="580" unicode="F" /><glyph d="M290 552Q242 552 205.5 531.5Q169 511 144.5 476Q120 441 107.5 393Q95 345 95 291Q95 237 106.5 189.5Q118 142 142 106Q166 70 202 49Q238 28 287 28Q322 28 351.5 41Q381 54 403.5 76Q426 98 438.5 126.5Q451 155 451 185V237H343V277H553V237H495V0H451V74Q437 39 393 12.5Q349 -14 286 -14Q232 -14 187.5 8Q143 30 112 70.5Q81 111 64 167Q47 223 47 291Q47 359 64.5 415Q82 471 114 511Q146 551 191 572.5Q236 594 290 594Q346 594 390 570.5Q434 547 451 516V580H493V403H456Q454 437 440 464.5Q426 492 404 511.5Q382 531 352.5 541.5Q323 552 290 552Z" glyph-name="G" horiz-adv-x="580" unicode="G" /><glyph d="M290 657Q239 657 206.5 688Q174 719 171 767L214 772Q217 742 237 719.5Q257 697 290 697Q323 697 343 719.5Q363 742 366 772L409 767Q406 719 373.5 688Q341 657 290 657ZM290 552Q242 552 205.5 531.5Q169 511 144.5 476Q120 441 107.5 393Q95 345 95 291Q95 237 106.5 189.5Q118 142 142 106Q166 70 202 49Q238 28 287 28Q322 28 351.5 41Q381 54 403.5 76Q426 98 438.5 126.5Q451 155 451 185V237H343V277H553V237H495V0H451V74Q437 39 393 12.5Q349 -14 286 -14Q232 -14 187.5 8Q143 30 112 70.5Q81 111 64 167Q47 223 47 291Q47 359 64.5 415Q82 471 114 511Q146 551 191 572.5Q236 594 290 594Q346 594 390 570.5Q434 547 451 516V580H493V403H456Q454 437 440 464.5Q426 492 404 511.5Q382 531 352.5 541.5Q323 552 290 552Z" glyph-name="Gbreve" horiz-adv-x="580" unicode="&#286;" /><glyph d="M290 797 408 677 379 647 290 738 201 647 172 677ZM290 552Q242 552 205.5 531.5Q169 511 144.5 476Q120 441 107.5 393Q95 345 95 291Q95 237 106.5 189.5Q118 142 142 106Q166 70 202 49Q238 28 287 28Q322 28 351.5 41Q381 54 403.5 76Q426 98 438.5 126.5Q451 155 451 185V237H343V277H553V237H495V0H451V74Q437 39 393 12.5Q349 -14 286 -14Q232 -14 187.5 8Q143 30 112 70.5Q81 111 64 167Q47 223 47 291Q47 359 64.5 415Q82 471 114 511Q146 551 191 572.5Q236 594 290 594Q346 594 390 570.5Q434 547 451 516V580H493V403H456Q454 437 440 464.5Q426 492 404 511.5Q382 531 352.5 541.5Q323 552 290 552Z" glyph-name="Gcircumflex" horiz-adv-x="580" unicode="&#284;" /><glyph d="M328 -62 272 -216H226L258 -62ZM290 552Q242 552 205.5 531.5Q169 511 144.5 476Q120 441 107.5 393Q95 345 95 291Q95 237 106.5 189.5Q118 142 142 106Q166 70 202 49Q238 28 287 28Q322 28 351.5 41Q381 54 403.5 76Q426 98 438.5 126.5Q451 155 451 185V237H343V277H553V237H495V0H451V74Q437 39 393 12.5Q349 -14 286 -14Q232 -14 187.5 8Q143 30 112 70.5Q81 111 64 167Q47 223 47 291Q47 359 64.5 415Q82 471 114 511Q146 551 191 572.5Q236 594 290 594Q346 594 390 570.5Q434 547 451 516V580H493V403H456Q454 437 440 464.5Q426 492 404 511.5Q382 531 352.5 541.5Q323 552 290 552Z" glyph-name="Gcommaaccent" horiz-adv-x="580" unicode="&#290;" /><glyph d="M343 709Q343 686 328 671.5Q313 657 291 657Q269 657 254 671.5Q239 686 239 709Q239 732 254 746.5Q269 761 291 761Q313 761 328 746.5Q343 732 343 709ZM290 552Q242 552 205.5 531.5Q169 511 144.5 476Q120 441 107.5 393Q95 345 95 291Q95 237 106.5 189.5Q118 142 142 106Q166 70 202 49Q238 28 287 28Q322 28 351.5 41Q381 54 403.5 76Q426 98 438.5 126.5Q451 155 451 185V237H343V277H553V237H495V0H451V74Q437 39 393 12.5Q349 -14 286 -14Q232 -14 187.5 8Q143 30 112 70.5Q81 111 64 167Q47 223 47 291Q47 359 64.5 415Q82 471 114 511Q146 551 191 572.5Q236 594 290 594Q346 594 390 570.5Q434 547 451 516V580H493V403H456Q454 437 440 464.5Q426 492 404 511.5Q382 531 352.5 541.5Q323 552 290 552Z" glyph-name="Gdotaccent" horiz-adv-x="580" unicode="&#288;" /><glyph d="M230 580V540H153V317H427V540H350V580H542V540H472V40H542V0H350V40H427V277H153V40H230V0H38V40H108V540H38V580Z" glyph-name="H" horiz-adv-x="580" unicode="H" /><glyph d="M542 406H472V40H542V0H350V40H427V267H153V40H230V0H38V40H108V406H38V446H108V540H38V580H230V540H153V446H427V540H350V580H542V540H472V446H542ZM427 307V406H153V307Z" glyph-name="Hbar" horiz-adv-x="580" unicode="&#294;" /><glyph d="M230 580V540H153V317H427V540H350V580H542V540H472V40H542V0H350V40H427V277H153V40H230V0H38V40H108V540H38V580ZM290 797 408 677 379 647 290 738 201 647 172 677Z" glyph-name="Hcircumflex" horiz-adv-x="580" unicode="&#292;" /><glyph d="M480 580V540H313V40H480V0H100V40H267V540H100V580Z" glyph-name="I" horiz-adv-x="580" unicode="I" /><glyph d="M242 580V540H151V40H242V0H14V40H105V540H14V580ZM340 580H547V154Q547 117 536.5 86Q526 55 507 33Q488 11 461.5 -1.5Q435 -14 403 -14Q340 -14 304.5 27Q269 68 258 128L301 138Q312 87 336 57Q360 27 403 27Q446 27 473.5 61Q501 95 501 158V539H340Z" glyph-name="IJ" horiz-adv-x="580" unicode="&#306;" /><glyph d="M480 580V540H313V40H480V0H100V40H267V540H100V580ZM390 765 233 644 208 672 349 812Z" glyph-name="Iacute" horiz-adv-x="580" unicode="&#205;" /><glyph d="M480 580V540H313V40H480V0H100V40H267V540H100V580ZM290 657Q239 657 206.5 688Q174 719 171 767L214 772Q217 742 237 719.5Q257 697 290 697Q323 697 343 719.5Q363 742 366 772L409 767Q406 719 373.5 688Q341 657 290 657Z" glyph-name="Ibreve" horiz-adv-x="580" unicode="&#300;" /><glyph d="M480 580V540H313V40H480V0H100V40H267V540H100V580ZM290 797 408 677 379 647 290 738 201 647 172 677Z" glyph-name="Icircumflex" horiz-adv-x="580" unicode="&#206;" /><glyph d="M480 580V540H313V40H480V0H100V40H267V540H100V580ZM240 709Q240 688 226 674.5Q212 661 192 661Q172 661 158 674.5Q144 688 144 709Q144 730 158 743.5Q172 757 192 757Q212 757 226 743.5Q240 730 240 709ZM436 709Q436 688 422 674.5Q408 661 388 661Q368 661 354 674.5Q340 688 340 709Q340 730 354 743.5Q368 757 388 757Q408 757 422 743.5Q436 730 436 709Z" glyph-name="Idieresis" horiz-adv-x="580" unicode="&#207;" /><glyph d="M480 580V540H313V40H480V0H100V40H267V540H100V580ZM342 709Q342 686 327 671.5Q312 657 290 657Q268 657 253 671.5Q238 686 238 709Q238 732 253 746.5Q268 761 290 761Q312 761 327 746.5Q342 732 342 709Z" glyph-name="Idotaccent" horiz-adv-x="580" unicode="&#304;" /><glyph d="M480 580V540H313V40H480V0H100V40H267V540H100V580ZM229 812 370 673 345 644 188 765Z" glyph-name="Igrave" horiz-adv-x="580" unicode="&#204;" /><glyph d="M480 580V540H313V40H480V0H100V40H267V540H100V580ZM171 706H409V665H171Z" glyph-name="Imacron" horiz-adv-x="580" unicode="&#298;" /><glyph d="M100 0V40H267V540H100V580H480V540H313V40H480V0H436Q381 -31 351.5 -60.5Q322 -90 322 -119Q322 -137 333 -150Q344 -163 365 -163Q383 -163 402.5 -152.5Q422 -142 442 -122L466 -151Q443 -173 417.5 -187.5Q392 -202 361 -202Q322 -202 300 -179.5Q278 -157 278 -122Q278 -88 299.5 -58.5Q321 -29 366 0Z" glyph-name="Iogonek" horiz-adv-x="580" unicode="&#302;" /><glyph d="M480 580V540H313V40H480V0H100V40H267V540H100V580ZM429 719Q428 708 422 695.5Q416 683 405.5 672.5Q395 662 380 655Q365 648 347 648Q326 648 310.5 655.5Q295 663 282.5 672.5Q270 682 258 689.5Q246 697 232 697Q211 697 200.5 683.5Q190 670 187 655L149 666Q150 677 156 689.5Q162 702 172.5 712.5Q183 723 198 730Q213 737 231 737Q252 737 267.5 729.5Q283 722 295.5 712.5Q308 703 320 695.5Q332 688 346 688Q367 688 377.5 701.5Q388 715 391 730Z" glyph-name="Itilde" horiz-adv-x="580" unicode="&#296;" /><glyph d="M186 580H475V186Q475 141 459.5 104.5Q444 68 417.5 41.5Q391 15 356 0.5Q321 -14 282 -14Q251 -14 220 -4.5Q189 5 163 26Q137 47 117.5 79.5Q98 112 90 158L135 167Q148 98 186.5 62.5Q225 27 282 27Q312 27 338.5 39Q365 51 385.5 73Q406 95 417.5 124.5Q429 154 429 190V539H186Z" glyph-name="J" horiz-adv-x="580" unicode="J" /><glyph d="M186 580H475V186Q475 141 459.5 104.5Q444 68 417.5 41.5Q391 15 356 0.5Q321 -14 282 -14Q251 -14 220 -4.5Q189 5 163 26Q137 47 117.5 79.5Q98 112 90 158L135 167Q148 98 186.5 62.5Q225 27 282 27Q312 27 338.5 39Q365 51 385.5 73Q406 95 417.5 124.5Q429 154 429 190V539H186ZM445 797 563 677 534 647 445 738 356 647 327 677Z" glyph-name="Jcircumflex" horiz-adv-x="580" unicode="&#308;" /><glyph d="M443 40 257 318 151 214V40H223V0H40V40H106V540H40V580H223V540H151V270L424 540H351V580H538V540H484L289 350L495 40H555V0H362V40Z" glyph-name="K" horiz-adv-x="580" unicode="K" /><glyph d="M443 40 257 318 151 214V40H223V0H40V40H106V540H40V580H223V540H151V270L424 540H351V580H538V540H484L289 350L495 40H555V0H362V40ZM331 -62 275 -216H229L261 -62Z" glyph-name="Kcommaaccent" horiz-adv-x="580" unicode="&#310;" /><glyph d="M55 40H147V540H55V580H289V540H192V40H479V189H521V0H55Z" glyph-name="L" horiz-adv-x="580" unicode="L" /><glyph d="M55 40H147V540H55V580H289V540H192V40H479V189H521V0H55ZM331 765 174 644 149 672 290 812Z" glyph-name="Lacute" horiz-adv-x="580" unicode="&#313;" /><glyph d="M55 40H147V540H55V580H289V540H192V40H479V189H521V0H55ZM476 611 391 449 357 463 419 635Z" glyph-name="Lcaron" horiz-adv-x="580" unicode="&#317;" /><glyph d="M55 40H147V540H55V580H289V540H192V40H479V189H521V0H55ZM353 -62 297 -216H251L283 -62Z" glyph-name="Lcommaaccent" horiz-adv-x="580" unicode="&#315;" /><glyph d="M55 40H147V540H55V580H289V540H192V40H479V189H521V0H55ZM395 334Q395 311 380 296.5Q365 282 343 282Q321 282 306 296.5Q291 311 291 334Q291 357 306 371.5Q321 386 343 386Q365 386 380 371.5Q395 357 395 334Z" glyph-name="Ldot" horiz-adv-x="580" unicode="&#319;" /><glyph d="M53 257 147 311V540H55V580H289V540H192V337L331 417L352 381L192 289V40H479V189H521V0H55V40H147V263L74 221Z" glyph-name="Lslash" horiz-adv-x="580" unicode="&#321;" /><glyph d="M265 174 121 525V40H204V0H23V40H77V540H23V580H144L291 218L438 580H557V540H503V40H557V0H376V40H459V525L315 174Z" glyph-name="M" horiz-adv-x="580" unicode="M" /><glyph d="M431 0 139 521V40H229V0H36V40H95V540H36V580H155L440 70V540H357V580H544V540H484V0Z" glyph-name="N" horiz-adv-x="580" unicode="N" /><glyph d="M431 0 139 521V40H229V0H36V40H95V540H36V580H155L440 70V540H357V580H544V540H484V0ZM401 765 244 644 219 672 360 812Z" glyph-name="Nacute" horiz-adv-x="580" unicode="&#323;" /><glyph d="M431 0 139 521V40H229V0H36V40H95V540H36V580H155L440 70V540H357V580H544V540H484V0ZM172 767 201 797 290 706 379 797 408 767 290 647Z" glyph-name="Ncaron" horiz-adv-x="580" unicode="&#327;" /><glyph d="M431 0 139 521V40H229V0H36V40H95V540H36V580H155L440 70V540H357V580H544V540H484V0ZM341 -62 285 -216H239L271 -62Z" glyph-name="Ncommaaccent" horiz-adv-x="580" unicode="&#325;" /><glyph d="M431 0 139 521V40H229V0H36V40H95V540H36V580H155L440 70V540H357V580H544V540H484V0ZM435 719Q434 708 428 695.5Q422 683 411.5 672.5Q401 662 386 655Q371 648 353 648Q332 648 316.5 655.5Q301 663 288.5 672.5Q276 682 264 689.5Q252 697 238 697Q217 697 206.5 683.5Q196 670 193 655L155 666Q156 677 162 689.5Q168 702 178.5 712.5Q189 723 204 730Q219 737 237 737Q258 737 273.5 729.5Q289 722 301.5 712.5Q314 703 326 695.5Q338 688 352 688Q373 688 383.5 701.5Q394 715 397 730Z" glyph-name="Ntilde" horiz-adv-x="580" unicode="&#209;" /><glyph d="M47 290Q47 358 65 414Q83 470 115 510Q147 550 191.5 572Q236 594 290 594Q344 594 388.5 572Q433 550 465 510Q497 470 515 414Q533 358 533 290Q533 222 515 166Q497 110 465 70Q433 30 388.5 8Q344 -14 290 -14Q236 -14 191.5 8Q147 30 115 70Q83 110 65 166Q47 222 47 290ZM485 290Q485 344 472.5 391.5Q460 439 435.5 475Q411 511 374.5 531.5Q338 552 290 552Q242 552 205.5 531.5Q169 511 144.5 475Q120 439 107.5 391.5Q95 344 95 290Q95 236 107.5 188.5Q120 141 144.5 105Q169 69 205.5 48.5Q242 28 290 28Q338 28 374.5 48.5Q411 69 435.5 105Q460 141 472.5 188.5Q485 236 485 290Z" glyph-name="O" horiz-adv-x="580" unicode="O" /><glyph d="M28 290Q28 355 47 408.5Q66 462 99.5 500Q133 538 180 559Q227 580 283 580H543V404H501V540H340V317H419V366H459V228H419V277H340V40H510V162H552V0H283Q227 0 180 21Q133 42 99.5 80Q66 118 47 171.5Q28 225 28 290ZM295 540H285Q233 540 194 520.5Q155 501 129 467Q103 433 89.5 387.5Q76 342 76 290Q76 238 89.5 192.5Q103 147 129 113Q155 79 194 59.5Q233 40 285 40H295Z" glyph-name="OE" horiz-adv-x="580" unicode="&#338;" /><glyph d="M47 290Q47 358 65 414Q83 470 115 510Q147 550 191.5 572Q236 594 290 594Q344 594 388.5 572Q433 550 465 510Q497 470 515 414Q533 358 533 290Q533 222 515 166Q497 110 465 70Q433 30 388.5 8Q344 -14 290 -14Q236 -14 191.5 8Q147 30 115 70Q83 110 65 166Q47 222 47 290ZM485 290Q485 344 472.5 391.5Q460 439 435.5 475Q411 511 374.5 531.5Q338 552 290 552Q242 552 205.5 531.5Q169 511 144.5 475Q120 439 107.5 391.5Q95 344 95 290Q95 236 107.5 188.5Q120 141 144.5 105Q169 69 205.5 48.5Q242 28 290 28Q338 28 374.5 48.5Q411 69 435.5 105Q460 141 472.5 188.5Q485 236 485 290ZM384 765 227 644 202 672 343 812Z" glyph-name="Oacute" horiz-adv-x="580" unicode="&#211;" /><glyph d="M47 290Q47 358 65 414Q83 470 115 510Q147 550 191.5 572Q236 594 290 594Q344 594 388.5 572Q433 550 465 510Q497 470 515 414Q533 358 533 290Q533 222 515 166Q497 110 465 70Q433 30 388.5 8Q344 -14 290 -14Q236 -14 191.5 8Q147 30 115 70Q83 110 65 166Q47 222 47 290ZM485 290Q485 344 472.5 391.5Q460 439 435.5 475Q411 511 374.5 531.5Q338 552 290 552Q242 552 205.5 531.5Q169 511 144.5 475Q120 439 107.5 391.5Q95 344 95 290Q95 236 107.5 188.5Q120 141 144.5 105Q169 69 205.5 48.5Q242 28 290 28Q338 28 374.5 48.5Q411 69 435.5 105Q460 141 472.5 188.5Q485 236 485 290ZM290 657Q239 657 206.5 688Q174 719 171 767L214 772Q217 742 237 719.5Q257 697 290 697Q323 697 343 719.5Q363 742 366 772L409 767Q406 719 373.5 688Q341 657 290 657Z" glyph-name="Obreve" horiz-adv-x="580" unicode="&#334;" /><glyph d="M47 290Q47 358 65 414Q83 470 115 510Q147 550 191.5 572Q236 594 290 594Q344 594 388.5 572Q433 550 465 510Q497 470 515 414Q533 358 533 290Q533 222 515 166Q497 110 465 70Q433 30 388.5 8Q344 -14 290 -14Q236 -14 191.5 8Q147 30 115 70Q83 110 65 166Q47 222 47 290ZM485 290Q485 344 472.5 391.5Q460 439 435.5 475Q411 511 374.5 531.5Q338 552 290 552Q242 552 205.5 531.5Q169 511 144.5 475Q120 439 107.5 391.5Q95 344 95 290Q95 236 107.5 188.5Q120 141 144.5 105Q169 69 205.5 48.5Q242 28 290 28Q338 28 374.5 48.5Q411 69 435.5 105Q460 141 472.5 188.5Q485 236 485 290ZM290 797 408 677 379 647 290 738 201 647 172 677Z" glyph-name="Ocircumflex" horiz-adv-x="580" unicode="&#212;" /><glyph d="M47 290Q47 358 65 414Q83 470 115 510Q147 550 191.5 572Q236 594 290 594Q344 594 388.5 572Q433 550 465 510Q497 470 515 414Q533 358 533 290Q533 222 515 166Q497 110 465 70Q433 30 388.5 8Q344 -14 290 -14Q236 -14 191.5 8Q147 30 115 70Q83 110 65 166Q47 222 47 290ZM485 290Q485 344 472.5 391.5Q460 439 435.5 475Q411 511 374.5 531.5Q338 552 290 552Q242 552 205.5 531.5Q169 511 144.5 475Q120 439 107.5 391.5Q95 344 95 290Q95 236 107.5 188.5Q120 141 144.5 105Q169 69 205.5 48.5Q242 28 290 28Q338 28 374.5 48.5Q411 69 435.5 105Q460 141 472.5 188.5Q485 236 485 290ZM240 709Q240 688 226 674.5Q212 661 192 661Q172 661 158 674.5Q144 688 144 709Q144 730 158 743.5Q172 757 192 757Q212 757 226 743.5Q240 730 240 709ZM436 709Q436 688 422 674.5Q408 661 388 661Q368 661 354 674.5Q340 688 340 709Q340 730 354 743.5Q368 757 388 757Q408 757 422 743.5Q436 730 436 709Z" glyph-name="Odieresis" horiz-adv-x="580" unicode="&#214;" /><glyph d="M47 290Q47 358 65 414Q83 470 115 510Q147 550 191.5 572Q236 594 290 594Q344 594 388.5 572Q433 550 465 510Q497 470 515 414Q533 358 533 290Q533 222 515 166Q497 110 465 70Q433 30 388.5 8Q344 -14 290 -14Q236 -14 191.5 8Q147 30 115 70Q83 110 65 166Q47 222 47 290ZM485 290Q485 344 472.5 391.5Q460 439 435.5 475Q411 511 374.5 531.5Q338 552 290 552Q242 552 205.5 531.5Q169 511 144.5 475Q120 439 107.5 391.5Q95 344 95 290Q95 236 107.5 188.5Q120 141 144.5 105Q169 69 205.5 48.5Q242 28 290 28Q338 28 374.5 48.5Q411 69 435.5 105Q460 141 472.5 188.5Q485 236 485 290ZM237 812 378 673 353 644 196 765Z" glyph-name="Ograve" horiz-adv-x="580" unicode="&#210;" /><glyph d="M47 290Q47 358 65 414Q83 470 115 510Q147 550 191.5 572Q236 594 290 594Q344 594 388.5 572Q433 550 465 510Q497 470 515 414Q533 358 533 290Q533 222 515 166Q497 110 465 70Q433 30 388.5 8Q344 -14 290 -14Q236 -14 191.5 8Q147 30 115 70Q83 110 65 166Q47 222 47 290ZM485 290Q485 344 472.5 391.5Q460 439 435.5 475Q411 511 374.5 531.5Q338 552 290 552Q242 552 205.5 531.5Q169 511 144.5 475Q120 439 107.5 391.5Q95 344 95 290Q95 236 107.5 188.5Q120 141 144.5 105Q169 69 205.5 48.5Q242 28 290 28Q338 28 374.5 48.5Q411 69 435.5 105Q460 141 472.5 188.5Q485 236 485 290ZM361 765 204 644 179 672 320 812ZM521 765 364 644 339 672 480 812Z" glyph-name="Ohungarumlaut" horiz-adv-x="580" unicode="&#336;" /><glyph d="M47 290Q47 358 65 414Q83 470 115 510Q147 550 191.5 572Q236 594 290 594Q344 594 388.5 572Q433 550 465 510Q497 470 515 414Q533 358 533 290Q533 222 515 166Q497 110 465 70Q433 30 388.5 8Q344 -14 290 -14Q236 -14 191.5 8Q147 30 115 70Q83 110 65 166Q47 222 47 290ZM485 290Q485 344 472.5 391.5Q460 439 435.5 475Q411 511 374.5 531.5Q338 552 290 552Q242 552 205.5 531.5Q169 511 144.5 475Q120 439 107.5 391.5Q95 344 95 290Q95 236 107.5 188.5Q120 141 144.5 105Q169 69 205.5 48.5Q242 28 290 28Q338 28 374.5 48.5Q411 69 435.5 105Q460 141 472.5 188.5Q485 236 485 290ZM171 706H409V665H171Z" glyph-name="Omacron" horiz-adv-x="580" unicode="&#332;" /><glyph d="M459 516Q494 476 513.5 418.5Q533 361 533 290Q533 222 515 166Q497 110 465 70Q433 30 388.5 8Q344 -14 290 -14Q214 -14 158 27L100 -68L67 -47L129 54Q90 94 68.5 154Q47 214 47 290Q47 358 65 414Q83 470 115 510Q147 550 191.5 572Q236 594 290 594Q331 594 366 581Q401 568 430 545L486 635L519 613ZM95 290Q95 231 109.5 180Q124 129 153 93L407 507Q384 528 354.5 540Q325 552 290 552Q242 552 205.5 531.5Q169 511 144.5 475Q120 439 107.5 391.5Q95 344 95 290ZM485 290Q485 344 472.5 392Q460 440 434 476L181 64Q226 28 290 28Q338 28 374.5 48.5Q411 69 435.5 105Q460 141 472.5 188.5Q485 236 485 290Z" glyph-name="Oslash" horiz-adv-x="580" unicode="&#216;" /><glyph d="M47 290Q47 358 65 414Q83 470 115 510Q147 550 191.5 572Q236 594 290 594Q344 594 388.5 572Q433 550 465 510Q497 470 515 414Q533 358 533 290Q533 222 515 166Q497 110 465 70Q433 30 388.5 8Q344 -14 290 -14Q236 -14 191.5 8Q147 30 115 70Q83 110 65 166Q47 222 47 290ZM485 290Q485 344 472.5 391.5Q460 439 435.5 475Q411 511 374.5 531.5Q338 552 290 552Q242 552 205.5 531.5Q169 511 144.5 475Q120 439 107.5 391.5Q95 344 95 290Q95 236 107.5 188.5Q120 141 144.5 105Q169 69 205.5 48.5Q242 28 290 28Q338 28 374.5 48.5Q411 69 435.5 105Q460 141 472.5 188.5Q485 236 485 290ZM430 719Q429 708 423 695.5Q417 683 406.5 672.5Q396 662 381 655Q366 648 348 648Q327 648 311.5 655.5Q296 663 283.5 672.5Q271 682 259 689.5Q247 697 233 697Q212 697 201.5 683.5Q191 670 188 655L150 666Q151 677 157 689.5Q163 702 173.5 712.5Q184 723 199 730Q214 737 232 737Q253 737 268.5 729.5Q284 722 296.5 712.5Q309 703 321 695.5Q333 688 347 688Q368 688 378.5 701.5Q389 715 392 730Z" glyph-name="Otilde" horiz-adv-x="580" unicode="&#213;" /><glyph d="M181 40H336V0H57V40H136V540H57V580H316Q414 580 471 540.5Q528 501 528 419Q528 378 512.5 347.5Q497 317 469 297Q441 277 402 267Q363 257 316 257H181ZM181 297H303Q480 297 480 419Q480 480 437 510Q394 540 303 540H181Z" glyph-name="P" horiz-adv-x="580" unicode="P" /><glyph d="M536 -70Q507 -90 471 -90Q429 -90 406 -63.5Q383 -37 373 1Q353 -6 333 -10Q313 -14 290 -14Q236 -14 191.5 8Q147 30 115 70Q83 110 65 166Q47 222 47 290Q47 358 65 414Q83 470 115 510Q147 550 191.5 572Q236 594 290 594Q344 594 388.5 572Q433 550 465 510Q497 470 515 414Q533 358 533 290Q533 196 500.5 126.5Q468 57 411 21Q417 -5 430.5 -27Q444 -49 471 -49Q482 -49 493 -46Q504 -43 516 -35ZM485 290Q485 344 472.5 391.5Q460 439 435.5 475Q411 511 374.5 531.5Q338 552 290 552Q242 552 205.5 531.5Q169 511 144.5 475Q120 439 107.5 391.5Q95 344 95 290Q95 236 107.5 188.5Q120 141 144.5 105Q169 69 205.5 48.5Q242 28 290 28Q333 28 365 44Q362 57 357.5 71Q353 85 344.5 96Q336 107 324.5 114.5Q313 122 296 122Q282 122 273 117.5Q264 113 258 109L237 143Q249 152 265 158Q281 164 298 164Q340 164 366.5 136.5Q393 109 403 69Q444 104 464.5 162Q485 220 485 290Z" glyph-name="Q" horiz-adv-x="580" unicode="Q" /><glyph d="M290 263H155V40H242V0H38V40H110V540H38V580H288Q385 580 441.5 541.5Q498 503 498 422Q498 353 455 314.5Q412 276 340 266L477 40H563V0H448ZM155 303H275Q450 303 450 422Q450 540 275 540H155Z" glyph-name="R" horiz-adv-x="580" unicode="R" /><glyph d="M387 765 230 644 205 672 346 812ZM290 263H155V40H242V0H38V40H110V540H38V580H288Q385 580 441.5 541.5Q498 503 498 422Q498 353 455 314.5Q412 276 340 266L477 40H563V0H448ZM155 303H275Q450 303 450 422Q450 540 275 540H155Z" glyph-name="Racute" horiz-adv-x="580" unicode="&#340;" /><glyph d="M169 767 198 797 287 706 376 797 405 767 287 647ZM290 263H155V40H242V0H38V40H110V540H38V580H288Q385 580 441.5 541.5Q498 503 498 422Q498 353 455 314.5Q412 276 340 266L477 40H563V0H448ZM155 303H275Q450 303 450 422Q450 540 275 540H155Z" glyph-name="Rcaron" horiz-adv-x="580" unicode="&#344;" /><glyph d="M355 -62 299 -216H253L285 -62ZM290 263H155V40H242V0H38V40H110V540H38V580H288Q385 580 441.5 541.5Q498 503 498 422Q498 353 455 314.5Q412 276 340 266L477 40H563V0H448ZM155 303H275Q450 303 450 422Q450 540 275 540H155Z" glyph-name="Rcommaaccent" horiz-adv-x="580" unicode="&#342;" /><glyph d="M459 149Q459 181 447 201.5Q435 222 413.5 235.5Q392 249 361.5 258Q331 267 293 276Q256 285 221 296.5Q186 308 159 326.5Q132 345 116 372.5Q100 400 100 442Q100 482 115 511Q130 540 154.5 558.5Q179 577 211 585.5Q243 594 276 594Q332 594 374 573Q416 552 437 519V580H479V407H442Q440 440 426.5 467Q413 494 390.5 513Q368 532 339 542.5Q310 553 277 553Q253 553 230 547Q207 541 188.5 528Q170 515 158.5 494.5Q147 474 147 445Q147 414 159.5 394Q172 374 193.5 360.5Q215 347 243 338.5Q271 330 302 322Q342 312 379 301Q416 290 444 271.5Q472 253 489 224Q506 195 506 150Q506 71 453.5 28.5Q401 -14 317 -14Q254 -14 206.5 8.5Q159 31 136 66V0H94V180H131Q131 145 146.5 117Q162 89 188 69Q214 49 247.5 38Q281 27 317 27Q379 27 419 58Q459 89 459 149Z" glyph-name="S" horiz-adv-x="580" unicode="S" /><glyph d="M407 765 250 644 225 672 366 812ZM459 149Q459 181 447 201.5Q435 222 413.5 235.5Q392 249 361.5 258Q331 267 293 276Q256 285 221 296.5Q186 308 159 326.5Q132 345 116 372.5Q100 400 100 442Q100 482 115 511Q130 540 154.5 558.5Q179 577 211 585.5Q243 594 276 594Q332 594 374 573Q416 552 437 519V580H479V407H442Q440 440 426.5 467Q413 494 390.5 513Q368 532 339 542.5Q310 553 277 553Q253 553 230 547Q207 541 188.5 528Q170 515 158.5 494.5Q147 474 147 445Q147 414 159.5 394Q172 374 193.5 360.5Q215 347 243 338.5Q271 330 302 322Q342 312 379 301Q416 290 444 271.5Q472 253 489 224Q506 195 506 150Q506 71 453.5 28.5Q401 -14 317 -14Q254 -14 206.5 8.5Q159 31 136 66V0H94V180H131Q131 145 146.5 117Q162 89 188 69Q214 49 247.5 38Q281 27 317 27Q379 27 419 58Q459 89 459 149Z" glyph-name="Sacute" horiz-adv-x="580" unicode="&#346;" /><glyph d="M169 767 198 797 287 706 376 797 405 767 287 647ZM459 149Q459 181 447 201.5Q435 222 413.5 235.5Q392 249 361.5 258Q331 267 293 276Q256 285 221 296.5Q186 308 159 326.5Q132 345 116 372.5Q100 400 100 442Q100 482 115 511Q130 540 154.5 558.5Q179 577 211 585.5Q243 594 276 594Q332 594 374 573Q416 552 437 519V580H479V407H442Q440 440 426.5 467Q413 494 390.5 513Q368 532 339 542.5Q310 553 277 553Q253 553 230 547Q207 541 188.5 528Q170 515 158.5 494.5Q147 474 147 445Q147 414 159.5 394Q172 374 193.5 360.5Q215 347 243 338.5Q271 330 302 322Q342 312 379 301Q416 290 444 271.5Q472 253 489 224Q506 195 506 150Q506 71 453.5 28.5Q401 -14 317 -14Q254 -14 206.5 8.5Q159 31 136 66V0H94V180H131Q131 145 146.5 117Q162 89 188 69Q214 49 247.5 38Q281 27 317 27Q379 27 419 58Q459 89 459 149Z" glyph-name="Scaron" horiz-adv-x="580" unicode="&#352;" /><glyph d="M223 -146Q238 -165 252.5 -176Q267 -187 291 -187Q317 -187 331.5 -175Q346 -163 346 -139Q346 -119 331.5 -106Q317 -93 297 -93Q281 -93 267 -100L239 -80L269 -10Q223 -2 189 18Q155 38 136 66V0H94V180H131Q131 145 146.5 117Q162 89 188 69Q214 49 247.5 38Q281 27 317 27Q379 27 419 58Q459 89 459 149Q459 181 447 201.5Q435 222 413.5 235.5Q392 249 361.5 258Q331 267 293 276Q256 285 221 296.5Q186 308 159 326.5Q132 345 116 372.5Q100 400 100 442Q100 482 115 511Q130 540 154.5 558.5Q179 577 211 585.5Q243 594 276 594Q332 594 374 573Q416 552 437 519V580H479V407H442Q440 440 426.5 467Q413 494 390.5 513Q368 532 339 542.5Q310 553 277 553Q253 553 230 547Q207 541 188.5 528Q170 515 158.5 494.5Q147 474 147 445Q147 414 159.5 394Q172 374 193.5 360.5Q215 347 243 338.5Q271 330 302 322Q342 312 379 301Q416 290 444 271.5Q472 253 489 224Q506 195 506 150Q506 71 453.5 28.5Q401 -14 317 -14H303L283 -62Q292 -59 304 -59Q337 -59 361.5 -82Q386 -105 386 -138Q386 -179 357.5 -201Q329 -223 291 -223Q256 -223 230.5 -206.5Q205 -190 193 -168Z" glyph-name="Scedilla" horiz-adv-x="580" unicode="&#350;" /><glyph d="M287 797 405 677 376 647 287 738 198 647 169 677ZM459 149Q459 181 447 201.5Q435 222 413.5 235.5Q392 249 361.5 258Q331 267 293 276Q256 285 221 296.5Q186 308 159 326.5Q132 345 116 372.5Q100 400 100 442Q100 482 115 511Q130 540 154.5 558.5Q179 577 211 585.5Q243 594 276 594Q332 594 374 573Q416 552 437 519V580H479V407H442Q440 440 426.5 467Q413 494 390.5 513Q368 532 339 542.5Q310 553 277 553Q253 553 230 547Q207 541 188.5 528Q170 515 158.5 494.5Q147 474 147 445Q147 414 159.5 394Q172 374 193.5 360.5Q215 347 243 338.5Q271 330 302 322Q342 312 379 301Q416 290 444 271.5Q472 253 489 224Q506 195 506 150Q506 71 453.5 28.5Q401 -14 317 -14Q254 -14 206.5 8.5Q159 31 136 66V0H94V180H131Q131 145 146.5 117Q162 89 188 69Q214 49 247.5 38Q281 27 317 27Q379 27 419 58Q459 89 459 149Z" glyph-name="Scircumflex" horiz-adv-x="580" unicode="&#348;" /><glyph d="M347 -62 291 -216H245L277 -62ZM459 149Q459 181 447 201.5Q435 222 413.5 235.5Q392 249 361.5 258Q331 267 293 276Q256 285 221 296.5Q186 308 159 326.5Q132 345 116 372.5Q100 400 100 442Q100 482 115 511Q130 540 154.5 558.5Q179 577 211 585.5Q243 594 276 594Q332 594 374 573Q416 552 437 519V580H479V407H442Q440 440 426.5 467Q413 494 390.5 513Q368 532 339 542.5Q310 553 277 553Q253 553 230 547Q207 541 188.5 528Q170 515 158.5 494.5Q147 474 147 445Q147 414 159.5 394Q172 374 193.5 360.5Q215 347 243 338.5Q271 330 302 322Q342 312 379 301Q416 290 444 271.5Q472 253 489 224Q506 195 506 150Q506 71 453.5 28.5Q401 -14 317 -14Q254 -14 206.5 8.5Q159 31 136 66V0H94V180H131Q131 145 146.5 117Q162 89 188 69Q214 49 247.5 38Q281 27 317 27Q379 27 419 58Q459 89 459 149Z" glyph-name="Scommaaccent" horiz-adv-x="580" unicode="&#536;" /><glyph d="M483 394V540H312V40H446V0H133V40H267V540H96V394H54V580H525V394Z" glyph-name="T" horiz-adv-x="580" unicode="T" /><glyph d="M267 306V540H96V394H54V580H525V394H483V540H312V306H431V266H312V40H446V0H133V40H267V266H148V306Z" glyph-name="Tbar" horiz-adv-x="580" unicode="&#358;" /><glyph d="M483 394V540H312V40H446V0H133V40H267V540H96V394H54V580H525V394ZM171 767 200 797 289 706 378 797 407 767 289 647Z" glyph-name="Tcaron" horiz-adv-x="580" unicode="&#356;" /><glyph d="M483 394V540H312V40H446V0H133V40H267V540H96V394H54V580H525V394ZM328 -62 272 -216H226L258 -62Z" glyph-name="Tcommaaccent" horiz-adv-x="580" unicode="&#354;" /><glyph d="M181 452H316Q414 452 471 413.5Q528 375 528 295Q528 255 512.5 225Q497 195 469 175.5Q441 156 402 146.5Q363 137 316 137H181V40H336V0H57V40H136V540H57V580H336V540H181ZM181 412V177H303Q480 177 480 295Q480 354 437 383Q394 412 303 412Z" glyph-name="Thorn" horiz-adv-x="580" unicode="&#222;" /><glyph d="M24 580H216V540H139V180Q139 147 151 118.5Q163 90 183.5 70Q204 50 231.5 38.5Q259 27 290 27Q321 27 348.5 38.5Q376 50 396.5 70Q417 90 429 118.5Q441 147 441 180V540H364V580H556V540H486V178Q486 137 471 101.5Q456 66 429.5 40.5Q403 15 367.5 0.5Q332 -14 290 -14Q248 -14 212.5 0.5Q177 15 150.5 40.5Q124 66 109 101.5Q94 137 94 178V540H24Z" glyph-name="U" horiz-adv-x="580" unicode="U" /><glyph d="M24 580H216V540H139V180Q139 147 151 118.5Q163 90 183.5 70Q204 50 231.5 38.5Q259 27 290 27Q321 27 348.5 38.5Q376 50 396.5 70Q417 90 429 118.5Q441 147 441 180V540H364V580H556V540H486V178Q486 137 471 101.5Q456 66 429.5 40.5Q403 15 367.5 0.5Q332 -14 290 -14Q248 -14 212.5 0.5Q177 15 150.5 40.5Q124 66 109 101.5Q94 137 94 178V540H24ZM406 765 249 644 224 672 365 812Z" glyph-name="Uacute" horiz-adv-x="580" unicode="&#218;" /><glyph d="M24 580H216V540H139V180Q139 147 151 118.5Q163 90 183.5 70Q204 50 231.5 38.5Q259 27 290 27Q321 27 348.5 38.5Q376 50 396.5 70Q417 90 429 118.5Q441 147 441 180V540H364V580H556V540H486V178Q486 137 471 101.5Q456 66 429.5 40.5Q403 15 367.5 0.5Q332 -14 290 -14Q248 -14 212.5 0.5Q177 15 150.5 40.5Q124 66 109 101.5Q94 137 94 178V540H24ZM290 657Q239 657 206.5 688Q174 719 171 767L214 772Q217 742 237 719.5Q257 697 290 697Q323 697 343 719.5Q363 742 366 772L409 767Q406 719 373.5 688Q341 657 290 657Z" glyph-name="Ubreve" horiz-adv-x="580" unicode="&#364;" /><glyph d="M24 580H216V540H139V180Q139 147 151 118.5Q163 90 183.5 70Q204 50 231.5 38.5Q259 27 290 27Q321 27 348.5 38.5Q376 50 396.5 70Q417 90 429 118.5Q441 147 441 180V540H364V580H556V540H486V178Q486 137 471 101.5Q456 66 429.5 40.5Q403 15 367.5 0.5Q332 -14 290 -14Q248 -14 212.5 0.5Q177 15 150.5 40.5Q124 66 109 101.5Q94 137 94 178V540H24ZM290 797 408 677 379 647 290 738 201 647 172 677Z" glyph-name="Ucircumflex" horiz-adv-x="580" unicode="&#219;" /><glyph d="M24 580H216V540H139V180Q139 147 151 118.5Q163 90 183.5 70Q204 50 231.5 38.5Q259 27 290 27Q321 27 348.5 38.5Q376 50 396.5 70Q417 90 429 118.5Q441 147 441 180V540H364V580H556V540H486V178Q486 137 471 101.5Q456 66 429.5 40.5Q403 15 367.5 0.5Q332 -14 290 -14Q248 -14 212.5 0.5Q177 15 150.5 40.5Q124 66 109 101.5Q94 137 94 178V540H24ZM240 709Q240 688 226 674.5Q212 661 192 661Q172 661 158 674.5Q144 688 144 709Q144 730 158 743.5Q172 757 192 757Q212 757 226 743.5Q240 730 240 709ZM436 709Q436 688 422 674.5Q408 661 388 661Q368 661 354 674.5Q340 688 340 709Q340 730 354 743.5Q368 757 388 757Q408 757 422 743.5Q436 730 436 709Z" glyph-name="Udieresis" horiz-adv-x="580" unicode="&#220;" /><glyph d="M24 580H216V540H139V180Q139 147 151 118.5Q163 90 183.5 70Q204 50 231.5 38.5Q259 27 290 27Q321 27 348.5 38.5Q376 50 396.5 70Q417 90 429 118.5Q441 147 441 180V540H364V580H556V540H486V178Q486 137 471 101.5Q456 66 429.5 40.5Q403 15 367.5 0.5Q332 -14 290 -14Q248 -14 212.5 0.5Q177 15 150.5 40.5Q124 66 109 101.5Q94 137 94 178V540H24ZM217 812 358 673 333 644 176 765Z" glyph-name="Ugrave" horiz-adv-x="580" unicode="&#217;" /><glyph d="M24 580H216V540H139V180Q139 147 151 118.5Q163 90 183.5 70Q204 50 231.5 38.5Q259 27 290 27Q321 27 348.5 38.5Q376 50 396.5 70Q417 90 429 118.5Q441 147 441 180V540H364V580H556V540H486V178Q486 137 471 101.5Q456 66 429.5 40.5Q403 15 367.5 0.5Q332 -14 290 -14Q248 -14 212.5 0.5Q177 15 150.5 40.5Q124 66 109 101.5Q94 137 94 178V540H24ZM357 765 200 644 175 672 316 812ZM517 765 360 644 335 672 476 812Z" glyph-name="Uhungarumlaut" horiz-adv-x="580" unicode="&#368;" /><glyph d="M24 580H216V540H139V180Q139 147 151 118.5Q163 90 183.5 70Q204 50 231.5 38.5Q259 27 290 27Q321 27 348.5 38.5Q376 50 396.5 70Q417 90 429 118.5Q441 147 441 180V540H364V580H556V540H486V178Q486 137 471 101.5Q456 66 429.5 40.5Q403 15 367.5 0.5Q332 -14 290 -14Q248 -14 212.5 0.5Q177 15 150.5 40.5Q124 66 109 101.5Q94 137 94 178V540H24ZM171 706H409V665H171Z" glyph-name="Umacron" horiz-adv-x="580" unicode="&#362;" /><glyph d="M24 580H216V540H139V180Q139 147 151 118.5Q163 90 183.5 70Q204 50 231.5 38.5Q259 27 290 27Q321 27 348.5 38.5Q376 50 396.5 70Q417 90 429 118.5Q441 147 441 180V540H364V580H556V540H486V178Q486 115 454 70.5Q422 26 374 3Q314 -26 283 -58.5Q252 -91 252 -119Q252 -137 263 -150Q274 -163 295 -163Q313 -163 332.5 -152.5Q352 -142 372 -122L396 -151Q373 -173 347.5 -187.5Q322 -202 291 -202Q252 -202 230 -179.5Q208 -157 208 -122Q208 -65 276 -13Q239 -11 206 4Q173 19 148 44Q123 69 108.5 103Q94 137 94 178V540H24Z" glyph-name="Uogonek" horiz-adv-x="580" unicode="&#370;" /><glyph d="M24 580H216V540H139V180Q139 147 151 118.5Q163 90 183.5 70Q204 50 231.5 38.5Q259 27 290 27Q321 27 348.5 38.5Q376 50 396.5 70Q417 90 429 118.5Q441 147 441 180V540H364V580H556V540H486V178Q486 137 471 101.5Q456 66 429.5 40.5Q403 15 367.5 0.5Q332 -14 290 -14Q248 -14 212.5 0.5Q177 15 150.5 40.5Q124 66 109 101.5Q94 137 94 178V540H24ZM385 731Q385 691 357.5 663Q330 635 290 635Q250 635 222.5 663Q195 691 195 731Q195 772 222.5 799.5Q250 827 290 827Q330 827 357.5 799.5Q385 772 385 731ZM344 731Q344 754 329 771Q314 788 290 788Q266 788 251 771Q236 754 236 731Q236 708 251 691Q266 674 290 674Q314 674 329 691Q344 708 344 731Z" glyph-name="Uring" horiz-adv-x="580" unicode="&#366;" /><glyph d="M24 580H216V540H139V180Q139 147 151 118.5Q163 90 183.5 70Q204 50 231.5 38.5Q259 27 290 27Q321 27 348.5 38.5Q376 50 396.5 70Q417 90 429 118.5Q441 147 441 180V540H364V580H556V540H486V178Q486 137 471 101.5Q456 66 429.5 40.5Q403 15 367.5 0.5Q332 -14 290 -14Q248 -14 212.5 0.5Q177 15 150.5 40.5Q124 66 109 101.5Q94 137 94 178V540H24ZM430 719Q429 708 423 695.5Q417 683 406.5 672.5Q396 662 381 655Q366 648 348 648Q327 648 311.5 655.5Q296 663 283.5 672.5Q271 682 259 689.5Q247 697 233 697Q212 697 201.5 683.5Q191 670 188 655L150 666Q151 677 157 689.5Q163 702 173.5 712.5Q184 723 199 730Q214 737 232 737Q253 737 268.5 729.5Q284 722 296.5 712.5Q309 703 321 695.5Q333 688 347 688Q368 688 378.5 701.5Q389 715 392 730Z" glyph-name="Utilde" horiz-adv-x="580" unicode="&#360;" /><glyph d="M457 540H371V580H563V540H503L323 0H257L77 540H17V580H211V540H126L291 39Z" glyph-name="V" horiz-adv-x="580" unicode="V" /><glyph d="M399 0 290 373 181 0H120L60 540H14V580H192V540H106L157 60L265 428H317L424 60L476 540H388V580H566V540H520L460 0Z" glyph-name="W" horiz-adv-x="580" unicode="W" /><glyph d="M399 0 290 373 181 0H120L60 540H14V580H192V540H106L157 60L265 428H317L424 60L476 540H388V580H566V540H520L460 0ZM401 765 244 644 219 672 360 812Z" glyph-name="Wacute" horiz-adv-x="580" unicode="&#7810;" /><glyph d="M399 0 290 373 181 0H120L60 540H14V580H192V540H106L157 60L265 428H317L424 60L476 540H388V580H566V540H520L460 0ZM290 797 408 677 379 647 290 738 201 647 172 677Z" glyph-name="Wcircumflex" horiz-adv-x="580" unicode="&#372;" /><glyph d="M399 0 290 373 181 0H120L60 540H14V580H192V540H106L157 60L265 428H317L424 60L476 540H388V580H566V540H520L460 0ZM240 714Q240 693 226 679.5Q212 666 192 666Q172 666 158 679.5Q144 693 144 714Q144 735 158 748.5Q172 762 192 762Q212 762 226 748.5Q240 735 240 714ZM436 714Q436 693 422 679.5Q408 666 388 666Q368 666 354 679.5Q340 693 340 714Q340 735 354 748.5Q368 762 388 762Q408 762 422 748.5Q436 735 436 714Z" glyph-name="Wdieresis" horiz-adv-x="580" unicode="&#7812;" /><glyph d="M399 0 290 373 181 0H120L60 540H14V580H192V540H106L157 60L265 428H317L424 60L476 540H388V580H566V540H520L460 0ZM220 812 361 673 336 644 179 765Z" glyph-name="Wgrave" horiz-adv-x="580" unicode="&#7808;" /><glyph d="M22 0V40H73L262 299L86 540H35V580H216V540H141L291 335L442 540H368V580H546V540H495L317 300L508 40H559V0H371V40H453L288 264L126 40H207V0Z" glyph-name="X" horiz-adv-x="580" unicode="X" /><glyph d="M558 580V540H499L313 256V40H447V0H134V40H268V256L82 540H23V580H213V540H134L291 297L448 540H368V580Z" glyph-name="Y" horiz-adv-x="580" unicode="Y" /><glyph d="M558 580V540H499L313 256V40H447V0H134V40H268V256L82 540H23V580H213V540H134L291 297L448 540H368V580ZM411 755 254 634 229 662 370 802Z" glyph-name="Yacute" horiz-adv-x="580" unicode="&#221;" /><glyph d="M558 580V540H499L313 256V40H447V0H134V40H268V256L82 540H23V580H213V540H134L291 297L448 540H368V580ZM290 797 408 677 379 647 290 738 201 647 172 677Z" glyph-name="Ycircumflex" horiz-adv-x="580" unicode="&#374;" /><glyph d="M558 580V540H499L313 256V40H447V0H134V40H268V256L82 540H23V580H213V540H134L291 297L448 540H368V580ZM240 714Q240 693 226 679.5Q212 666 192 666Q172 666 158 679.5Q144 693 144 714Q144 735 158 748.5Q172 762 192 762Q212 762 226 748.5Q240 735 240 714ZM436 714Q436 693 422 679.5Q408 666 388 666Q368 666 354 679.5Q340 693 340 714Q340 735 354 748.5Q368 762 388 762Q408 762 422 748.5Q436 735 436 714Z" glyph-name="Ydieresis" horiz-adv-x="580" unicode="&#376;" /><glyph d="M80 0V50L445 540H143V409H100V580H491V529L127 40H459V178H502V0Z" glyph-name="Z" horiz-adv-x="580" unicode="Z" /><glyph d="M80 0V50L445 540H143V409H100V580H491V529L127 40H459V178H502V0ZM396 765 239 644 214 672 355 812Z" glyph-name="Zacute" horiz-adv-x="580" unicode="&#377;" /><glyph d="M80 0V50L445 540H143V409H100V580H491V529L127 40H459V178H502V0ZM177 767 206 797 295 706 384 797 413 767 295 647Z" glyph-name="Zcaron" horiz-adv-x="580" unicode="&#381;" /><glyph d="M80 0V50L445 540H143V409H100V580H491V529L127 40H459V178H502V0ZM347 714Q347 691 332 676.5Q317 662 295 662Q273 662 258 676.5Q243 691 243 714Q243 737 258 751.5Q273 766 295 766Q317 766 332 751.5Q347 737 347 714Z" glyph-name="Zdotaccent" horiz-adv-x="580" unicode="&#379;" /><glyph d="M449 40H520V0H405V65Q385 29 338 7.5Q291 -14 239 -14Q208 -14 180 -5.5Q152 3 131 19.5Q110 36 97.5 60.5Q85 85 85 117Q85 155 102 180.5Q119 206 146.5 221.5Q174 237 208 244Q242 251 276 251Q315 251 348 244.5Q381 238 405 232V283Q404 342 367 368Q330 394 280 394Q238 394 204.5 376Q171 358 145 329L114 358Q125 371 140.5 384.5Q156 398 177 409Q198 420 224 427Q250 434 281 434Q356 434 402.5 395.5Q449 357 449 281ZM405 189Q379 199 346 205Q313 211 278 211Q250 211 223 206Q196 201 176 190Q156 179 143.5 161.5Q131 144 131 118Q131 94 140 77Q149 60 164 48.5Q179 37 199 31.5Q219 26 240 26Q270 26 299.5 36Q329 46 352.5 64.5Q376 83 390.5 108.5Q405 134 405 165Z" glyph-name="a" horiz-adv-x="580" unicode="a" /><glyph d="M449 40H520V0H405V65Q385 29 338 7.5Q291 -14 239 -14Q208 -14 180 -5.5Q152 3 131 19.5Q110 36 97.5 60.5Q85 85 85 117Q85 155 102 180.5Q119 206 146.5 221.5Q174 237 208 244Q242 251 276 251Q315 251 348 244.5Q381 238 405 232V283Q404 342 367 368Q330 394 280 394Q238 394 204.5 376Q171 358 145 329L114 358Q125 371 140.5 384.5Q156 398 177 409Q198 420 224 427Q250 434 281 434Q356 434 402.5 395.5Q449 357 449 281ZM405 189Q379 199 346 205Q313 211 278 211Q250 211 223 206Q196 201 176 190Q156 179 143.5 161.5Q131 144 131 118Q131 94 140 77Q149 60 164 48.5Q179 37 199 31.5Q219 26 240 26Q270 26 299.5 36Q329 46 352.5 64.5Q376 83 390.5 108.5Q405 134 405 165ZM383 615 226 494 201 522 342 662Z" glyph-name="aacute" horiz-adv-x="580" unicode="&#225;" /><glyph d="M449 40H520V0H405V65Q385 29 338 7.5Q291 -14 239 -14Q208 -14 180 -5.5Q152 3 131 19.5Q110 36 97.5 60.5Q85 85 85 117Q85 155 102 180.5Q119 206 146.5 221.5Q174 237 208 244Q242 251 276 251Q315 251 348 244.5Q381 238 405 232V283Q404 342 367 368Q330 394 280 394Q238 394 204.5 376Q171 358 145 329L114 358Q125 371 140.5 384.5Q156 398 177 409Q198 420 224 427Q250 434 281 434Q356 434 402.5 395.5Q449 357 449 281ZM405 189Q379 199 346 205Q313 211 278 211Q250 211 223 206Q196 201 176 190Q156 179 143.5 161.5Q131 144 131 118Q131 94 140 77Q149 60 164 48.5Q179 37 199 31.5Q219 26 240 26Q270 26 299.5 36Q329 46 352.5 64.5Q376 83 390.5 108.5Q405 134 405 165ZM292 507Q241 507 208.5 538Q176 569 173 617L216 622Q219 592 239 569.5Q259 547 292 547Q325 547 345 569.5Q365 592 368 622L411 617Q408 569 375.5 538Q343 507 292 507Z" glyph-name="abreve" horiz-adv-x="580" unicode="&#259;" /><glyph d="M449 40H520V0H405V65Q385 29 338 7.5Q291 -14 239 -14Q208 -14 180 -5.5Q152 3 131 19.5Q110 36 97.5 60.5Q85 85 85 117Q85 155 102 180.5Q119 206 146.5 221.5Q174 237 208 244Q242 251 276 251Q315 251 348 244.5Q381 238 405 232V283Q404 342 367 368Q330 394 280 394Q238 394 204.5 376Q171 358 145 329L114 358Q125 371 140.5 384.5Q156 398 177 409Q198 420 224 427Q250 434 281 434Q356 434 402.5 395.5Q449 357 449 281ZM405 189Q379 199 346 205Q313 211 278 211Q250 211 223 206Q196 201 176 190Q156 179 143.5 161.5Q131 144 131 118Q131 94 140 77Q149 60 164 48.5Q179 37 199 31.5Q219 26 240 26Q270 26 299.5 36Q329 46 352.5 64.5Q376 83 390.5 108.5Q405 134 405 165ZM284 647 402 527 373 497 284 588 195 497 166 527Z" glyph-name="acircumflex" horiz-adv-x="580" unicode="&#226;" /><glyph d="M381 615 224 494 199 522 340 662Z" glyph-name="acute" horiz-adv-x="580" unicode="&#180;" /><glyph d="M449 40H520V0H405V65Q385 29 338 7.5Q291 -14 239 -14Q208 -14 180 -5.5Q152 3 131 19.5Q110 36 97.5 60.5Q85 85 85 117Q85 155 102 180.5Q119 206 146.5 221.5Q174 237 208 244Q242 251 276 251Q315 251 348 244.5Q381 238 405 232V283Q404 342 367 368Q330 394 280 394Q238 394 204.5 376Q171 358 145 329L114 358Q125 371 140.5 384.5Q156 398 177 409Q198 420 224 427Q250 434 281 434Q356 434 402.5 395.5Q449 357 449 281ZM405 189Q379 199 346 205Q313 211 278 211Q250 211 223 206Q196 201 176 190Q156 179 143.5 161.5Q131 144 131 118Q131 94 140 77Q149 60 164 48.5Q179 37 199 31.5Q219 26 240 26Q270 26 299.5 36Q329 46 352.5 64.5Q376 83 390.5 108.5Q405 134 405 165ZM229 564Q229 543 215 529.5Q201 516 181 516Q161 516 147 529.5Q133 543 133 564Q133 585 147 598.5Q161 612 181 612Q201 612 215 598.5Q229 585 229 564ZM425 564Q425 543 411 529.5Q397 516 377 516Q357 516 343 529.5Q329 543 329 564Q329 585 343 598.5Q357 612 377 612Q397 612 411 598.5Q425 585 425 564Z" glyph-name="adieresis" horiz-adv-x="580" unicode="&#228;" /><glyph d="M551 60Q532 30 499.5 8Q467 -14 423 -14Q373 -14 339.5 13.5Q306 41 287 91Q275 61 258 41Q241 21 221.5 9Q202 -3 181.5 -8.5Q161 -14 141 -14Q90 -14 55.5 18.5Q21 51 21 108Q21 145 35 170.5Q49 196 72 211.5Q95 227 123.5 233.5Q152 240 181 240H261V273Q259 331 235.5 362Q212 393 175 393Q145 393 121 377Q97 361 77 335L46 362Q65 388 96.5 411Q128 434 176 434Q218 434 248.5 410Q279 386 293 341Q313 386 344.5 410Q376 434 418 434Q452 434 478.5 416Q505 398 523 368Q541 338 550.5 298Q560 258 560 213V201H310Q312 163 321 131Q330 99 344.5 76Q359 53 379.5 40Q400 27 424 27Q455 27 477.5 43.5Q500 60 519 87ZM261 201H188Q164 201 141.5 196Q119 191 102 180Q85 169 75 151.5Q65 134 65 109Q65 71 87.5 48.5Q110 26 145 26Q166 26 186.5 36Q207 46 223.5 64.5Q240 83 250.5 108.5Q261 134 261 165ZM513 240Q511 272 503.5 300Q496 328 483.5 348.5Q471 369 454.5 381Q438 393 418 393Q397 393 379 381.5Q361 370 347 350Q333 330 324 301.5Q315 273 312 240Z" glyph-name="ae" horiz-adv-x="580" unicode="&#230;" /><glyph d="M449 40H520V0H405V65Q385 29 338 7.5Q291 -14 239 -14Q208 -14 180 -5.5Q152 3 131 19.5Q110 36 97.5 60.5Q85 85 85 117Q85 155 102 180.5Q119 206 146.5 221.5Q174 237 208 244Q242 251 276 251Q315 251 348 244.5Q381 238 405 232V283Q404 342 367 368Q330 394 280 394Q238 394 204.5 376Q171 358 145 329L114 358Q125 371 140.5 384.5Q156 398 177 409Q198 420 224 427Q250 434 281 434Q356 434 402.5 395.5Q449 357 449 281ZM405 189Q379 199 346 205Q313 211 278 211Q250 211 223 206Q196 201 176 190Q156 179 143.5 161.5Q131 144 131 118Q131 94 140 77Q149 60 164 48.5Q179 37 199 31.5Q219 26 240 26Q270 26 299.5 36Q329 46 352.5 64.5Q376 83 390.5 108.5Q405 134 405 165ZM241 662 382 523 357 494 200 615Z" glyph-name="agrave" horiz-adv-x="580" unicode="&#224;" /><glyph d="M449 40H520V0H405V65Q385 29 338 7.5Q291 -14 239 -14Q208 -14 180 -5.5Q152 3 131 19.5Q110 36 97.5 60.5Q85 85 85 117Q85 155 102 180.5Q119 206 146.5 221.5Q174 237 208 244Q242 251 276 251Q315 251 348 244.5Q381 238 405 232V283Q404 342 367 368Q330 394 280 394Q238 394 204.5 376Q171 358 145 329L114 358Q125 371 140.5 384.5Q156 398 177 409Q198 420 224 427Q250 434 281 434Q356 434 402.5 395.5Q449 357 449 281ZM405 189Q379 199 346 205Q313 211 278 211Q250 211 223 206Q196 201 176 190Q156 179 143.5 161.5Q131 144 131 118Q131 94 140 77Q149 60 164 48.5Q179 37 199 31.5Q219 26 240 26Q270 26 299.5 36Q329 46 352.5 64.5Q376 83 390.5 108.5Q405 134 405 165ZM164 556H402V515H164Z" glyph-name="amacron" horiz-adv-x="580" unicode="&#257;" /><glyph d="M370 281H539V242H475Q470 193 455.5 156.5Q441 120 422 94L467 40H560V0H445L392 63Q349 18 301.5 2Q254 -14 212 -14Q173 -14 139.5 -3Q106 8 81.5 29.5Q57 51 42.5 82Q28 113 28 153Q28 187 38.5 212.5Q49 238 68 258Q87 278 113.5 294Q140 310 171 326L149 353Q98 415 98 475Q98 529 133.5 561.5Q169 594 226 594Q254 594 278.5 586Q303 578 321.5 562Q340 546 350.5 523Q361 500 361 471Q361 441 351 417.5Q341 394 324 375.5Q307 357 284.5 342Q262 327 238 314L393 129Q424 181 431 242H370ZM212 27Q250 27 290.5 42.5Q331 58 364 96L199 293Q172 279 149 265Q126 251 109.5 235Q93 219 83.5 199Q74 179 74 152Q74 96 111.5 61.5Q149 27 212 27ZM144 475Q144 454 152.5 430.5Q161 407 181 383L211 347Q261 373 288.5 401.5Q316 430 316 472Q316 511 290.5 532Q265 553 228 553Q194 553 169 534Q144 515 144 475Z" glyph-name="ampersand" horiz-adv-x="580" unicode="&amp;" /><glyph d="M405 65Q385 29 338 7.5Q291 -14 239 -14Q208 -14 180 -5.5Q152 3 131 19.5Q110 36 97.5 60.5Q85 85 85 117Q85 155 102 180.5Q119 206 146.5 221.5Q174 237 208 244Q242 251 276 251Q315 251 348 244.5Q381 238 405 232V283Q404 342 367 368Q330 394 280 394Q238 394 204.5 376Q171 358 145 329L114 358Q125 371 140.5 384.5Q156 398 177 409Q198 420 224 427Q250 434 281 434Q356 434 402.5 395.5Q449 357 449 281V40H520V0H475Q420 -31 390.5 -60.5Q361 -90 361 -119Q361 -137 372 -150Q383 -163 404 -163Q422 -163 441.5 -152.5Q461 -142 481 -122L505 -151Q482 -173 456.5 -187.5Q431 -202 400 -202Q361 -202 339 -179.5Q317 -157 317 -122Q317 -88 338.5 -58.5Q360 -29 405 0ZM405 189Q379 199 346 205Q313 211 278 211Q250 211 223 206Q196 201 176 190Q156 179 143.5 161.5Q131 144 131 118Q131 94 140 77Q149 60 164 48.5Q179 37 199 31.5Q219 26 240 26Q270 26 299.5 36Q329 46 352.5 64.5Q376 83 390.5 108.5Q405 134 405 165Z" glyph-name="aogonek" horiz-adv-x="580" unicode="&#261;" /><glyph d="M500 390Q499 376 491.5 358.5Q484 341 469.5 326Q455 311 434 300.5Q413 290 385 290Q353 290 328.5 302.5Q304 315 283 330Q262 345 241 357.5Q220 370 194 370Q177 370 164 363.5Q151 357 142 347Q133 337 127.5 324.5Q122 312 120 301L80 313Q81 327 88.5 344.5Q96 362 110.5 377Q125 392 146 402.5Q167 413 195 413Q227 413 251.5 400.5Q276 388 297 373Q318 358 339 345.5Q360 333 386 333Q403 333 415.5 339.5Q428 346 437 356Q446 366 451.5 378.5Q457 391 459 402ZM500 240Q499 226 491.5 208.5Q484 191 469.5 176Q455 161 434 150.5Q413 140 385 140Q353 140 328.5 152.5Q304 165 283 180Q262 195 241 207.5Q220 220 194 220Q177 220 164 213.5Q151 207 142 197Q133 187 127.5 174.5Q122 162 120 151L80 163Q81 177 88.5 194.5Q96 212 110.5 227Q125 242 146 252.5Q167 263 195 263Q227 263 251.5 250.5Q276 238 297 223Q318 208 339 195.5Q360 183 386 183Q403 183 415.5 189.5Q428 196 437 206Q446 216 451.5 228.5Q457 241 459 252Z" glyph-name="approxequal" horiz-adv-x="580" unicode="&#8776;" /><glyph d="M449 40H520V0H405V65Q385 29 338 7.5Q291 -14 239 -14Q208 -14 180 -5.5Q152 3 131 19.5Q110 36 97.5 60.5Q85 85 85 117Q85 155 102 180.5Q119 206 146.5 221.5Q174 237 208 244Q242 251 276 251Q315 251 348 244.5Q381 238 405 232V283Q404 342 367 368Q330 394 280 394Q238 394 204.5 376Q171 358 145 329L114 358Q125 371 140.5 384.5Q156 398 177 409Q198 420 224 427Q250 434 281 434Q356 434 402.5 395.5Q449 357 449 281ZM405 189Q379 199 346 205Q313 211 278 211Q250 211 223 206Q196 201 176 190Q156 179 143.5 161.5Q131 144 131 118Q131 94 140 77Q149 60 164 48.5Q179 37 199 31.5Q219 26 240 26Q270 26 299.5 36Q329 46 352.5 64.5Q376 83 390.5 108.5Q405 134 405 165ZM382 581Q382 541 354.5 513Q327 485 287 485Q247 485 219.5 513Q192 541 192 581Q192 622 219.5 649.5Q247 677 287 677Q327 677 354.5 649.5Q382 622 382 581ZM341 581Q341 604 326 621Q311 638 287 638Q263 638 248 621Q233 604 233 581Q233 558 248 541Q263 524 287 524Q311 524 326 541Q341 558 341 581Z" glyph-name="aring" horiz-adv-x="580" unicode="&#229;" /><glyph d="M290 607 466 380 433 354 289 541 146 354 113 380Z" glyph-name="asciicircum" horiz-adv-x="580" unicode="^" /><glyph d="M500 309Q499 294 491.5 276Q484 258 469.5 242.5Q455 227 434 216Q413 205 385 205Q353 205 328.5 219Q304 233 283 249.5Q262 266 241 279.5Q220 293 194 293Q177 293 164 286Q151 279 142 268.5Q133 258 127.5 245Q122 232 120 220L80 232Q81 247 88.5 265Q96 283 110.5 298.5Q125 314 146 325Q167 336 195 336Q227 336 251.5 322.5Q276 309 297 292.5Q318 276 339 262Q360 248 386 248Q403 248 415.5 255Q428 262 437 272.5Q446 283 451.5 296Q457 309 459 321Z" glyph-name="asciitilde" horiz-adv-x="580" unicode="~" /><glyph d="M269 650H312V526L430 565L443 524L325 485L398 384L364 359L290 458L217 359L183 384L256 485L138 524L151 565L269 526Z" glyph-name="asterisk" horiz-adv-x="580" unicode="*" /><glyph d="M288 -41Q235 -41 195.5 -23Q156 -5 130 26.5Q104 58 91 102Q78 146 78 198V384Q78 437 91 482Q104 527 130.5 560Q157 593 196 611.5Q235 630 287 630Q338 630 375.5 612Q413 594 437.5 564Q462 534 473.5 495Q485 456 485 414V205H537V166H442V221Q426 191 395 174Q364 157 330 157Q276 157 240 190Q204 223 204 280Q204 315 217 340.5Q230 366 251.5 382Q273 398 300 405.5Q327 413 354 413Q377 413 401 406Q425 399 442 391V415Q442 448 433.5 479Q425 510 406 535Q387 560 357.5 575Q328 590 287 590Q245 590 213.5 574.5Q182 559 161.5 531.5Q141 504 131 466.5Q121 429 121 385V196Q121 154 131.5 118Q142 82 163 55.5Q184 29 215 14Q246 -1 288 -1Q333 -1 363.5 16Q394 33 420 64L453 37Q424 -1 383.5 -21Q343 -41 288 -41ZM442 350Q423 359 400.5 366.5Q378 374 354 374Q311 374 279.5 351.5Q248 329 248 281Q248 240 272.5 218Q297 196 333 196Q353 196 372 205Q391 214 407 231Q423 248 432.5 272.5Q442 297 442 328Z" glyph-name="at" horiz-adv-x="580" unicode="@" /><glyph d="M449 40H520V0H405V65Q385 29 338 7.5Q291 -14 239 -14Q208 -14 180 -5.5Q152 3 131 19.5Q110 36 97.5 60.5Q85 85 85 117Q85 155 102 180.5Q119 206 146.5 221.5Q174 237 208 244Q242 251 276 251Q315 251 348 244.5Q381 238 405 232V283Q404 342 367 368Q330 394 280 394Q238 394 204.5 376Q171 358 145 329L114 358Q125 371 140.5 384.5Q156 398 177 409Q198 420 224 427Q250 434 281 434Q356 434 402.5 395.5Q449 357 449 281ZM405 189Q379 199 346 205Q313 211 278 211Q250 211 223 206Q196 201 176 190Q156 179 143.5 161.5Q131 144 131 118Q131 94 140 77Q149 60 164 48.5Q179 37 199 31.5Q219 26 240 26Q270 26 299.5 36Q329 46 352.5 64.5Q376 83 390.5 108.5Q405 134 405 165ZM423 569Q422 558 416 545.5Q410 533 399.5 522.5Q389 512 374 505Q359 498 341 498Q320 498 304.5 505.5Q289 513 276.5 522.5Q264 532 252 539.5Q240 547 226 547Q205 547 194.5 533.5Q184 520 181 505L143 516Q144 527 150 539.5Q156 552 166.5 562.5Q177 573 192 580Q207 587 225 587Q246 587 261.5 579.5Q277 572 289.5 562.5Q302 553 314 545.5Q326 538 340 538Q361 538 371.5 551.5Q382 565 385 580Z" glyph-name="atilde" horiz-adv-x="580" unicode="&#227;" /><glyph d="M39 40H109V576H39V616H152V338Q172 379 217 406.5Q262 434 321 434Q365 434 403 417Q441 400 469 370Q497 340 512.5 299Q528 258 528 210Q528 162 512.5 121Q497 80 469 50Q441 20 403 3Q365 -14 321 -14Q262 -14 217 13.5Q172 41 152 82V0H39ZM482 210Q482 249 470 282Q458 315 437 340Q416 365 386.5 379Q357 393 321 393Q285 393 254 380Q223 367 200.5 344Q178 321 165 290Q152 259 152 224V196Q152 161 165 130Q178 99 200.5 76Q223 53 254 40Q285 27 321 27Q357 27 386.5 41Q416 55 437 80Q458 105 470 138Q482 171 482 210Z" glyph-name="b" horiz-adv-x="580" unicode="b" /><glyph d="M81 656 120 676 499 -97 460 -116Z" glyph-name="backslash" horiz-adv-x="580" unicode="\" /><glyph d="M312 657V-138H269V657Z" glyph-name="bar" horiz-adv-x="580" unicode="|" /><glyph d="M133 -96V10H52V50H133V530H52V570H133V670H176V570H273V670H316V569Q394 564 440 530Q486 496 486 430Q486 379 460.5 346Q435 313 397 300Q453 288 487 251Q521 214 521 157Q521 83 467 47.5Q413 12 316 10V-96H273V10H176V-96ZM176 50H298Q390 50 432.5 76.5Q475 103 475 157Q475 217 427.5 247Q380 277 291 277H176ZM176 317H283Q364 317 402 345Q440 373 440 429Q440 480 402.5 505Q365 530 284 530H176Z" glyph-name="bitcoin" horiz-adv-x="580" unicode="&#62136;" /><glyph d="M290 11Q290 -46 311 -72Q332 -98 376 -98H399V-138H373Q303 -138 275 -96.5Q247 -55 247 11V138Q247 230 163 234V286Q247 291 247 382V508Q247 574 275 615.5Q303 657 373 657H399V617H376Q332 617 311 591Q290 565 290 508V375Q290 330 270.5 299Q251 268 211 260Q251 252 270.5 221.5Q290 191 290 145Z" glyph-name="braceleft" horiz-adv-x="580" unicode="{" /><glyph d="M290 508Q290 565 269 591Q248 617 204 617H181V657H207Q277 657 305 615.5Q333 574 333 508V381Q333 290 417 285V233Q333 229 333 137V11Q333 -55 305 -96.5Q277 -138 207 -138H181V-98H204Q248 -98 269 -72Q290 -46 290 11V144Q290 189 309.5 220Q329 251 369 259Q329 267 309.5 297.5Q290 328 290 374Z" glyph-name="braceright" horiz-adv-x="580" unicode="}" /><glyph d="M243 617V-98H402V-138H200V657H402V617Z" glyph-name="bracketleft" horiz-adv-x="580" unicode="[" /><glyph d="M178 617V657H380V-138H178V-98H337V617Z" glyph-name="bracketright" horiz-adv-x="580" unicode="]" /><glyph d="M290 507Q239 507 206.5 538Q174 569 171 617L214 622Q217 592 237 569.5Q257 547 290 547Q323 547 343 569.5Q363 592 366 622L409 617Q406 569 373.5 538Q341 507 290 507Z" glyph-name="breve" horiz-adv-x="580" unicode="&#728;" /><glyph d="M312 211V-138H269V211ZM269 308V657H312V308Z" glyph-name="brokenbar" horiz-adv-x="580" unicode="&#166;" /><glyph d="M168 291Q168 316 177.5 338.5Q187 361 203.5 377.5Q220 394 242.5 403.5Q265 413 290 413Q315 413 337.5 403.5Q360 394 376.5 377.5Q393 361 402.5 338.5Q412 316 412 291Q412 266 402.5 243.5Q393 221 376.5 204.5Q360 188 337.5 178.5Q315 169 290 169Q265 169 242.5 178.5Q220 188 203.5 204.5Q187 221 177.5 243.5Q168 266 168 291Z" glyph-name="bullet" horiz-adv-x="580" unicode="&#8226;" /><glyph d="M452 265Q450 293 438 316.5Q426 340 405.5 357.5Q385 375 358.5 384.5Q332 394 302 394Q266 394 233.5 380Q201 366 176.5 341.5Q152 317 137.5 283Q123 249 123 209Q123 170 136.5 137Q150 104 174.5 79Q199 54 232.5 40Q266 26 306 26Q360 26 401.5 47.5Q443 69 472 101L503 71Q468 33 419.5 9.5Q371 -14 305 -14Q254 -14 212 3Q170 20 140 50Q110 80 93.5 121Q77 162 77 210Q77 259 94.5 300Q112 341 142 371Q172 401 213 417.5Q254 434 300 434Q354 434 392.5 413.5Q431 393 448 364V420H488V265Z" glyph-name="c" horiz-adv-x="580" unicode="c" /><glyph d="M452 265Q450 293 438 316.5Q426 340 405.5 357.5Q385 375 358.5 384.5Q332 394 302 394Q266 394 233.5 380Q201 366 176.5 341.5Q152 317 137.5 283Q123 249 123 209Q123 170 136.5 137Q150 104 174.5 79Q199 54 232.5 40Q266 26 306 26Q360 26 401.5 47.5Q443 69 472 101L503 71Q468 33 419.5 9.5Q371 -14 305 -14Q254 -14 212 3Q170 20 140 50Q110 80 93.5 121Q77 162 77 210Q77 259 94.5 300Q112 341 142 371Q172 401 213 417.5Q254 434 300 434Q354 434 392.5 413.5Q431 393 448 364V420H488V265ZM396 615 239 494 214 522 355 662Z" glyph-name="cacute" horiz-adv-x="580" unicode="&#263;" /><glyph d="M172 617 201 647 290 556 379 647 408 617 290 497Z" glyph-name="caron" horiz-adv-x="580" unicode="&#711;" /><glyph d="M350 647 265 485 231 499 293 671Z" glyph-name="caronSlovak" horiz-adv-x="580" unicode="&#58387;" /><glyph d="M452 265Q450 293 438 316.5Q426 340 405.5 357.5Q385 375 358.5 384.5Q332 394 302 394Q266 394 233.5 380Q201 366 176.5 341.5Q152 317 137.5 283Q123 249 123 209Q123 170 136.5 137Q150 104 174.5 79Q199 54 232.5 40Q266 26 306 26Q360 26 401.5 47.5Q443 69 472 101L503 71Q468 33 419.5 9.5Q371 -14 305 -14Q254 -14 212 3Q170 20 140 50Q110 80 93.5 121Q77 162 77 210Q77 259 94.5 300Q112 341 142 371Q172 401 213 417.5Q254 434 300 434Q354 434 392.5 413.5Q431 393 448 364V420H488V265ZM184 617 213 647 302 556 391 647 420 617 302 497Z" glyph-name="ccaron" horiz-adv-x="580" unicode="&#269;" /><glyph d="M233 -146Q248 -165 262.5 -176Q277 -187 301 -187Q327 -187 341.5 -175Q356 -163 356 -139Q356 -119 341.5 -106Q327 -93 307 -93Q291 -93 277 -100L249 -80L278 -13Q232 -9 195 9.5Q158 28 132 57.5Q106 87 91.5 126Q77 165 77 210Q77 259 94.5 300Q112 341 142 371Q172 401 213 417.5Q254 434 300 434Q354 434 392.5 413.5Q431 393 448 364V420H488V265H452Q450 293 438 316.5Q426 340 405.5 357.5Q385 375 358.5 384.5Q332 394 302 394Q266 394 233.5 380Q201 366 176.5 341.5Q152 317 137.5 283Q123 249 123 209Q123 170 136.5 137Q150 104 174.5 79Q199 54 232.5 40Q266 26 306 26Q360 26 401.5 47.5Q443 69 472 101L503 71Q469 34 422.5 11Q376 -12 313 -14L293 -62Q302 -59 314 -59Q347 -59 371.5 -82Q396 -105 396 -138Q396 -179 367.5 -201Q339 -223 301 -223Q266 -223 240.5 -206.5Q215 -190 203 -168Z" glyph-name="ccedilla" horiz-adv-x="580" unicode="&#231;" /><glyph d="M452 265Q450 293 438 316.5Q426 340 405.5 357.5Q385 375 358.5 384.5Q332 394 302 394Q266 394 233.5 380Q201 366 176.5 341.5Q152 317 137.5 283Q123 249 123 209Q123 170 136.5 137Q150 104 174.5 79Q199 54 232.5 40Q266 26 306 26Q360 26 401.5 47.5Q443 69 472 101L503 71Q468 33 419.5 9.5Q371 -14 305 -14Q254 -14 212 3Q170 20 140 50Q110 80 93.5 121Q77 162 77 210Q77 259 94.5 300Q112 341 142 371Q172 401 213 417.5Q254 434 300 434Q354 434 392.5 413.5Q431 393 448 364V420H488V265ZM302 647 420 527 391 497 302 588 213 497 184 527Z" glyph-name="ccircumflex" horiz-adv-x="580" unicode="&#265;" /><glyph d="M452 265Q450 293 438 316.5Q426 340 405.5 357.5Q385 375 358.5 384.5Q332 394 302 394Q266 394 233.5 380Q201 366 176.5 341.5Q152 317 137.5 283Q123 249 123 209Q123 170 136.5 137Q150 104 174.5 79Q199 54 232.5 40Q266 26 306 26Q360 26 401.5 47.5Q443 69 472 101L503 71Q468 33 419.5 9.5Q371 -14 305 -14Q254 -14 212 3Q170 20 140 50Q110 80 93.5 121Q77 162 77 210Q77 259 94.5 300Q112 341 142 371Q172 401 213 417.5Q254 434 300 434Q354 434 392.5 413.5Q431 393 448 364V420H488V265ZM356 564Q356 541 341 526.5Q326 512 304 512Q282 512 267 526.5Q252 541 252 564Q252 587 267 601.5Q282 616 304 616Q326 616 341 601.5Q356 587 356 564Z" glyph-name="cdotaccent" horiz-adv-x="580" unicode="&#267;" /><glyph d="M223 -146Q238 -165 252.5 -176Q267 -187 291 -187Q317 -187 331.5 -175Q346 -163 346 -139Q346 -119 331.5 -106Q317 -93 297 -93Q281 -93 267 -100L239 -80L274 0H309L283 -62Q292 -59 304 -59Q337 -59 361.5 -82Q386 -105 386 -138Q386 -179 357.5 -201Q329 -223 291 -223Q256 -223 230.5 -206.5Q205 -190 193 -168Z" glyph-name="cedilla" horiz-adv-x="580" unicode="&#184;" /><glyph d="M279 -54V65Q234 70 197.5 88.5Q161 107 135.5 136Q110 165 96 203.5Q82 242 82 286Q82 332 97 371.5Q112 411 138 440.5Q164 470 200.5 488.5Q237 507 279 511V616H320V511Q367 508 399 488.5Q431 469 446 442V498H486V343H450Q446 394 410 429.5Q374 465 320 471V104Q370 107 407.5 129.5Q445 152 468 179L499 149Q472 118 427.5 92.5Q383 67 320 64V-54ZM128 287Q128 252 139 221Q150 190 170 166Q190 142 217.5 126.5Q245 111 279 106V470Q248 466 220 450.5Q192 435 172 411Q152 387 140 355.5Q128 324 128 287Z" glyph-name="cent" horiz-adv-x="580" unicode="&#162;" /><glyph d="M290 647 408 527 379 497 290 588 201 497 172 527Z" glyph-name="circumflex" horiz-adv-x="580" unicode="&#710;" /><glyph d="M223 53Q223 82 242 101Q261 120 290 120Q319 120 338 101Q357 82 357 53Q357 24 338 5.5Q319 -13 290 -13Q261 -13 242 5.5Q223 24 223 53ZM223 351Q223 380 242 399Q261 418 290 418Q319 418 338 399Q357 380 357 351Q357 322 338 303.5Q319 285 290 285Q261 285 242 303.5Q223 322 223 351Z" glyph-name="colon" horiz-adv-x="580" unicode=":" /><glyph d="M368 91 269 -170H212L261 91Z" glyph-name="comma" horiz-adv-x="580" unicode="," /><glyph d="M341 -62 285 -216H239L271 -62Z" glyph-name="commaaccent" horiz-adv-x="580" unicode="&#58388;" /><glyph d="M290 -3Q233 -3 182.5 18.5Q132 40 94.5 79Q57 118 35 172Q13 226 13 290Q13 354 35 407.5Q57 461 94.5 500Q132 539 182.5 560.5Q233 582 290 582Q347 582 397.5 560.5Q448 539 485.5 500Q523 461 545 407.5Q567 354 567 290Q567 226 545 172Q523 118 485.5 79Q448 40 397.5 18.5Q347 -3 290 -3ZM290 37Q338 37 380.5 55.5Q423 74 454.5 108Q486 142 504.5 188.5Q523 235 523 290Q523 345 504.5 391.5Q486 438 454.5 471.5Q423 505 380.5 523.5Q338 542 290 542Q242 542 199.5 523.5Q157 505 125.5 471.5Q94 438 75.5 391.5Q57 345 57 290Q57 235 75.5 188.5Q94 142 125.5 108Q157 74 199.5 55.5Q242 37 290 37ZM291 443Q319 443 341.5 432.5Q364 422 375 405V436H409V332H378Q373 363 350 385Q327 407 292 407Q268 407 249.5 397.5Q231 388 218.5 371.5Q206 355 199.5 333Q193 311 193 287Q193 263 199.5 241Q206 219 219 202.5Q232 186 250.5 176Q269 166 294 166Q332 166 352.5 182.5Q373 199 384 217L415 196Q403 173 372.5 151.5Q342 130 294 130Q263 130 237 141.5Q211 153 192 174Q173 195 163 224Q153 253 153 287Q153 321 163 349.5Q173 378 191.5 399Q210 420 235.5 431.5Q261 443 291 443Z" glyph-name="copyright" horiz-adv-x="580" unicode="&#169;" /><glyph d="M362 576V616H471V40H541V0H428V82Q408 41 363 13.5Q318 -14 259 -14Q215 -14 177 3Q139 20 111.5 50Q84 80 68 121Q52 162 52 210Q52 258 68 299Q84 340 111.5 370Q139 400 177 417Q215 434 259 434Q318 434 363 406.5Q408 379 428 338V576ZM98 210Q98 171 110 138Q122 105 143 80Q164 55 193.5 41Q223 27 259 27Q295 27 326 40Q357 53 379.5 76Q402 99 415 130Q428 161 428 196V224Q428 259 415 290Q402 321 379.5 344Q357 367 326 380Q295 393 259 393Q223 393 193.5 379Q164 365 143 340Q122 315 110 282Q98 249 98 210Z" glyph-name="d" horiz-adv-x="580" unicode="d" /><glyph d="M143 420H269V616H312V420H438V380H312V-54H269V380H143Z" glyph-name="dagger" horiz-adv-x="580" unicode="&#8224;" /><glyph d="M438 156H312V-54H269V156H143V196H269V380H143V420H269V616H312V420H438V380H312V196H438Z" glyph-name="daggerdbl" horiz-adv-x="580" unicode="&#8225;" /><glyph d="M362 576V616H471V40H541V0H428V82Q408 41 363 13.5Q318 -14 259 -14Q215 -14 177 3Q139 20 111.5 50Q84 80 68 121Q52 162 52 210Q52 258 68 299Q84 340 111.5 370Q139 400 177 417Q215 434 259 434Q318 434 363 406.5Q408 379 428 338V576ZM98 210Q98 171 110 138Q122 105 143 80Q164 55 193.5 41Q223 27 259 27Q295 27 326 40Q357 53 379.5 76Q402 99 415 130Q428 161 428 196V224Q428 259 415 290Q402 321 379.5 344Q357 367 326 380Q295 393 259 393Q223 393 193.5 379Q164 365 143 340Q122 315 110 282Q98 249 98 210ZM646 647 561 485 527 499 589 671Z" glyph-name="dcaron" horiz-adv-x="580" unicode="&#271;" /><glyph d="M541 483H471V40H541V0H428V82Q408 41 363 13.5Q318 -14 259 -14Q215 -14 177 3Q139 20 111.5 50Q84 80 68 121Q52 162 52 210Q52 258 68 299Q84 340 111.5 370Q139 400 177 417Q215 434 259 434Q318 434 363 406.5Q408 379 428 338V483H259V521H428V576H362V616H471V521H541ZM98 210Q98 171 110 138Q122 105 143 80Q164 55 193.5 41Q223 27 259 27Q295 27 326 40Q357 53 379.5 76Q402 99 415 130Q428 161 428 196V224Q428 259 415 290Q402 321 379.5 344Q357 367 326 380Q295 393 259 393Q223 393 193.5 379Q164 365 143 340Q122 315 110 282Q98 249 98 210Z" glyph-name="dcroat" horiz-adv-x="580" unicode="&#273;" /><glyph d="M423 496Q423 468 413 443.5Q403 419 385 401Q367 383 343 372.5Q319 362 290 362Q262 362 237.5 372.5Q213 383 195 401Q177 419 167 443.5Q157 468 157 496Q157 525 167 549.5Q177 574 195 592Q213 610 237.5 620Q262 630 290 630Q319 630 343 620Q367 610 385 592Q403 574 413 549.5Q423 525 423 496ZM380 496Q380 535 355.5 562Q331 589 290 589Q249 589 224.5 562Q200 535 200 496Q200 457 224.5 430Q249 403 290 403Q331 403 355.5 430Q380 457 380 496Z" glyph-name="degree" horiz-adv-x="580" unicode="&#176;" /><glyph d="M240 564Q240 543 226 529.5Q212 516 192 516Q172 516 158 529.5Q144 543 144 564Q144 585 158 598.5Q172 612 192 612Q212 612 226 598.5Q240 585 240 564ZM436 564Q436 543 422 529.5Q408 516 388 516Q368 516 354 529.5Q340 543 340 564Q340 585 354 598.5Q368 612 388 612Q408 612 422 598.5Q436 585 436 564Z" glyph-name="dieresis" horiz-adv-x="580" unicode="&#168;" /><glyph d="M247 446Q247 464 259 475.5Q271 487 289 487Q307 487 319 475.5Q331 464 331 446Q331 428 319 416.5Q307 405 289 405Q271 405 259 416.5Q247 428 247 446ZM78 255V295H501V255ZM247 104Q247 122 259 133.5Q271 145 289 145Q307 145 319 133.5Q331 122 331 104Q331 86 319 74.5Q307 63 289 63Q271 63 259 74.5Q247 86 247 104Z" glyph-name="divide" horiz-adv-x="580" unicode="&#247;" /><glyph d="M272 -96V14Q228 18 195.5 34.5Q163 51 145 76V27H104V164H141Q143 117 180.5 88.5Q218 60 272 54V284Q241 293 211.5 303.5Q182 314 159.5 331Q137 348 123.5 373Q110 398 110 436Q110 471 123.5 496.5Q137 522 159.5 539Q182 556 211.5 565Q241 574 272 575V670H313V573Q349 568 376.5 552.5Q404 537 420 517V560H461V428H424Q421 468 390 496Q359 524 313 532V320Q346 311 376.5 300.5Q407 290 430 273Q453 256 466.5 230Q480 204 480 165Q480 94 433.5 55.5Q387 17 313 13V-96ZM435 164Q435 189 427 206.5Q419 224 403.5 236Q388 248 365.5 257Q343 266 313 274V53Q367 57 401 84.5Q435 112 435 164ZM155 437Q155 412 164 394.5Q173 377 189 365Q205 353 226 345Q247 337 272 331V535Q249 534 227.5 527.5Q206 521 190 509Q174 497 164.5 479Q155 461 155 437Z" glyph-name="dollar" horiz-adv-x="580" unicode="$" /><glyph d="M342 564Q342 541 327 526.5Q312 512 290 512Q268 512 253 526.5Q238 541 238 564Q238 587 253 601.5Q268 616 290 616Q312 616 327 601.5Q342 587 342 564Z" glyph-name="dotaccent" horiz-adv-x="580" unicode="&#729;" /><glyph d="M491 40V0H98V40H280V380H137V420H323V40Z" glyph-name="dotlessi" horiz-adv-x="580" unicode="&#305;" /><glyph d="M154 420H421V-11Q421 -53 407 -88.5Q393 -124 369.5 -149Q346 -174 315.5 -188Q285 -202 251 -202Q189 -202 142.5 -168Q96 -134 82 -71L124 -59Q137 -108 170 -135Q203 -162 251 -162Q276 -162 299 -150.5Q322 -139 339.5 -118.5Q357 -98 367.5 -69.5Q378 -41 378 -7V380H154Z" glyph-name="dotlessj" horiz-adv-x="580" unicode="&#567;" /><glyph d="M457 240Q454 273 440.5 301Q427 329 406 350Q385 371 357.5 382.5Q330 394 298 394Q265 394 236 382.5Q207 371 184.5 351Q162 331 146.5 302.5Q131 274 126 240ZM495 62Q462 28 413.5 7Q365 -14 305 -14Q255 -14 213 3.5Q171 21 141 51.5Q111 82 94 123Q77 164 77 212Q77 260 94 300.5Q111 341 140.5 370.5Q170 400 210.5 417Q251 434 298 434Q346 434 385 416Q424 398 451 367.5Q478 337 492.5 297Q507 257 507 213V201H124Q126 163 140.5 131Q155 99 179 75.5Q203 52 235 39Q267 26 305 26Q354 26 394.5 43.5Q435 61 464 92Z" glyph-name="e" horiz-adv-x="580" unicode="e" /><glyph d="M457 240Q454 273 440.5 301Q427 329 406 350Q385 371 357.5 382.5Q330 394 298 394Q265 394 236 382.5Q207 371 184.5 351Q162 331 146.5 302.5Q131 274 126 240ZM495 62Q462 28 413.5 7Q365 -14 305 -14Q255 -14 213 3.5Q171 21 141 51.5Q111 82 94 123Q77 164 77 212Q77 260 94 300.5Q111 341 140.5 370.5Q170 400 210.5 417Q251 434 298 434Q346 434 385 416Q424 398 451 367.5Q478 337 492.5 297Q507 257 507 213V201H124Q126 163 140.5 131Q155 99 179 75.5Q203 52 235 39Q267 26 305 26Q354 26 394.5 43.5Q435 61 464 92ZM388 615 231 494 206 522 347 662Z" glyph-name="eacute" horiz-adv-x="580" unicode="&#233;" /><glyph d="M457 240Q454 273 440.5 301Q427 329 406 350Q385 371 357.5 382.5Q330 394 298 394Q265 394 236 382.5Q207 371 184.5 351Q162 331 146.5 302.5Q131 274 126 240ZM495 62Q462 28 413.5 7Q365 -14 305 -14Q255 -14 213 3.5Q171 21 141 51.5Q111 82 94 123Q77 164 77 212Q77 260 94 300.5Q111 341 140.5 370.5Q170 400 210.5 417Q251 434 298 434Q346 434 385 416Q424 398 451 367.5Q478 337 492.5 297Q507 257 507 213V201H124Q126 163 140.5 131Q155 99 179 75.5Q203 52 235 39Q267 26 305 26Q354 26 394.5 43.5Q435 61 464 92ZM300 507Q249 507 216.5 538Q184 569 181 617L224 622Q227 592 247 569.5Q267 547 300 547Q333 547 353 569.5Q373 592 376 622L419 617Q416 569 383.5 538Q351 507 300 507Z" glyph-name="ebreve" horiz-adv-x="580" unicode="&#277;" /><glyph d="M457 240Q454 273 440.5 301Q427 329 406 350Q385 371 357.5 382.5Q330 394 298 394Q265 394 236 382.5Q207 371 184.5 351Q162 331 146.5 302.5Q131 274 126 240ZM495 62Q462 28 413.5 7Q365 -14 305 -14Q255 -14 213 3.5Q171 21 141 51.5Q111 82 94 123Q77 164 77 212Q77 260 94 300.5Q111 341 140.5 370.5Q170 400 210.5 417Q251 434 298 434Q346 434 385 416Q424 398 451 367.5Q478 337 492.5 297Q507 257 507 213V201H124Q126 163 140.5 131Q155 99 179 75.5Q203 52 235 39Q267 26 305 26Q354 26 394.5 43.5Q435 61 464 92ZM180 617 209 647 298 556 387 647 416 617 298 497Z" glyph-name="ecaron" horiz-adv-x="580" unicode="&#283;" /><glyph d="M457 240Q454 273 440.5 301Q427 329 406 350Q385 371 357.5 382.5Q330 394 298 394Q265 394 236 382.5Q207 371 184.5 351Q162 331 146.5 302.5Q131 274 126 240ZM495 62Q462 28 413.5 7Q365 -14 305 -14Q255 -14 213 3.5Q171 21 141 51.5Q111 82 94 123Q77 164 77 212Q77 260 94 300.5Q111 341 140.5 370.5Q170 400 210.5 417Q251 434 298 434Q346 434 385 416Q424 398 451 367.5Q478 337 492.5 297Q507 257 507 213V201H124Q126 163 140.5 131Q155 99 179 75.5Q203 52 235 39Q267 26 305 26Q354 26 394.5 43.5Q435 61 464 92ZM299 647 417 527 388 497 299 588 210 497 181 527Z" glyph-name="ecircumflex" horiz-adv-x="580" unicode="&#234;" /><glyph d="M457 240Q454 273 440.5 301Q427 329 406 350Q385 371 357.5 382.5Q330 394 298 394Q265 394 236 382.5Q207 371 184.5 351Q162 331 146.5 302.5Q131 274 126 240ZM495 62Q462 28 413.5 7Q365 -14 305 -14Q255 -14 213 3.5Q171 21 141 51.5Q111 82 94 123Q77 164 77 212Q77 260 94 300.5Q111 341 140.5 370.5Q170 400 210.5 417Q251 434 298 434Q346 434 385 416Q424 398 451 367.5Q478 337 492.5 297Q507 257 507 213V201H124Q126 163 140.5 131Q155 99 179 75.5Q203 52 235 39Q267 26 305 26Q354 26 394.5 43.5Q435 61 464 92ZM249 564Q249 543 235 529.5Q221 516 201 516Q181 516 167 529.5Q153 543 153 564Q153 585 167 598.5Q181 612 201 612Q221 612 235 598.5Q249 585 249 564ZM445 564Q445 543 431 529.5Q417 516 397 516Q377 516 363 529.5Q349 543 349 564Q349 585 363 598.5Q377 612 397 612Q417 612 431 598.5Q445 585 445 564Z" glyph-name="edieresis" horiz-adv-x="580" unicode="&#235;" /><glyph d="M457 240Q454 273 440.5 301Q427 329 406 350Q385 371 357.5 382.5Q330 394 298 394Q265 394 236 382.5Q207 371 184.5 351Q162 331 146.5 302.5Q131 274 126 240ZM495 62Q462 28 413.5 7Q365 -14 305 -14Q255 -14 213 3.5Q171 21 141 51.5Q111 82 94 123Q77 164 77 212Q77 260 94 300.5Q111 341 140.5 370.5Q170 400 210.5 417Q251 434 298 434Q346 434 385 416Q424 398 451 367.5Q478 337 492.5 297Q507 257 507 213V201H124Q126 163 140.5 131Q155 99 179 75.5Q203 52 235 39Q267 26 305 26Q354 26 394.5 43.5Q435 61 464 92ZM351 564Q351 541 336 526.5Q321 512 299 512Q277 512 262 526.5Q247 541 247 564Q247 587 262 601.5Q277 616 299 616Q321 616 336 601.5Q351 587 351 564Z" glyph-name="edotaccent" horiz-adv-x="580" unicode="&#279;" /><glyph d="M457 240Q454 273 440.5 301Q427 329 406 350Q385 371 357.5 382.5Q330 394 298 394Q265 394 236 382.5Q207 371 184.5 351Q162 331 146.5 302.5Q131 274 126 240ZM495 62Q462 28 413.5 7Q365 -14 305 -14Q255 -14 213 3.5Q171 21 141 51.5Q111 82 94 123Q77 164 77 212Q77 260 94 300.5Q111 341 140.5 370.5Q170 400 210.5 417Q251 434 298 434Q346 434 385 416Q424 398 451 367.5Q478 337 492.5 297Q507 257 507 213V201H124Q126 163 140.5 131Q155 99 179 75.5Q203 52 235 39Q267 26 305 26Q354 26 394.5 43.5Q435 61 464 92ZM240 662 381 523 356 494 199 615Z" glyph-name="egrave" horiz-adv-x="580" unicode="&#232;" /><glyph d="M110 438Q110 470 122 498Q134 526 157 547.5Q180 569 213.5 581.5Q247 594 290 594Q333 594 366.5 581.5Q400 569 423 547.5Q446 526 458 498Q470 470 470 438Q470 393 446 357Q422 321 374 301Q429 281 457 240.5Q485 200 485 152Q485 119 472 89Q459 59 434 36Q409 13 373 -0.5Q337 -14 290 -14Q244 -14 207.5 -0.5Q171 13 146 36Q121 59 108 89Q95 119 95 152Q95 200 123 240.5Q151 281 206 301Q158 321 134 357Q110 393 110 438ZM290 277Q256 277 228.5 267Q201 257 181.5 240Q162 223 152 200.5Q142 178 142 152Q142 127 152 104Q162 81 181.5 64Q201 47 228.5 37Q256 27 290 27Q325 27 352 37Q379 47 398.5 64Q418 81 428 104Q438 127 438 152Q438 178 428 200.5Q418 223 398.5 240Q379 257 352 267Q325 277 290 277ZM290 553Q227 553 192 519.5Q157 486 157 438Q157 390 192 356.5Q227 323 290 323Q353 323 388 356.5Q423 390 423 438Q423 486 388 519.5Q353 553 290 553Z" glyph-name="eight" horiz-adv-x="580" unicode="8" /><glyph d="M290 142Q342 142 370 115.5Q398 89 398 53Q398 28 385 9Q372 -10 346 -21Q376 -32 391.5 -53.5Q407 -75 407 -101Q407 -139 377 -167.5Q347 -196 290 -196Q233 -196 203 -167.5Q173 -139 173 -101Q173 -75 188.5 -53.5Q204 -32 234 -21Q208 -10 195 9Q182 28 182 53Q182 89 210 115.5Q238 142 290 142ZM367 -100Q367 -75 346.5 -57.5Q326 -40 290 -40Q254 -40 233.5 -57.5Q213 -75 213 -100Q213 -126 233.5 -143Q254 -160 290 -160Q326 -160 346.5 -143Q367 -126 367 -100ZM290 107Q258 107 240 91Q222 75 222 52Q222 29 240 13Q258 -3 290 -3Q322 -3 340 13Q358 29 358 52Q358 75 340 91Q322 107 290 107Z" glyph-name="eight.inf" horiz-adv-x="580" unicode="&#58745;" /><glyph d="M416 50Q416 78 434 96Q452 114 480 114Q508 114 526 96Q544 78 544 50Q544 22 526 4.5Q508 -13 480 -13Q452 -13 434 4.5Q416 22 416 50ZM36 50Q36 78 54 96Q72 114 100 114Q128 114 146 96Q164 78 164 50Q164 22 146 4.5Q128 -13 100 -13Q72 -13 54 4.5Q36 22 36 50ZM226 50Q226 78 244 96Q262 114 290 114Q318 114 336 96Q354 78 354 50Q354 22 336 4.5Q318 -13 290 -13Q262 -13 244 4.5Q226 22 226 50Z" glyph-name="ellipsis" horiz-adv-x="580" unicode="&#8230;" /><glyph d="M457 240Q454 273 440.5 301Q427 329 406 350Q385 371 357.5 382.5Q330 394 298 394Q265 394 236 382.5Q207 371 184.5 351Q162 331 146.5 302.5Q131 274 126 240ZM495 62Q462 28 413.5 7Q365 -14 305 -14Q255 -14 213 3.5Q171 21 141 51.5Q111 82 94 123Q77 164 77 212Q77 260 94 300.5Q111 341 140.5 370.5Q170 400 210.5 417Q251 434 298 434Q346 434 385 416Q424 398 451 367.5Q478 337 492.5 297Q507 257 507 213V201H124Q126 163 140.5 131Q155 99 179 75.5Q203 52 235 39Q267 26 305 26Q354 26 394.5 43.5Q435 61 464 92ZM179 556H417V515H179Z" glyph-name="emacron" horiz-adv-x="580" unicode="&#275;" /><glyph d="M521 247H59V293H521Z" glyph-name="emdash" horiz-adv-x="580" unicode="&#8212;" /><glyph d="M470 247H110V293H470Z" glyph-name="endash" horiz-adv-x="580" unicode="&#8211;" /><glyph d="M76 40H146V380H84V420H189V352Q212 390 254 412Q296 434 347 434Q412 434 451 395.5Q490 357 490 282V-50Q490 -83 479.5 -110.5Q469 -138 450 -158.5Q431 -179 405 -190.5Q379 -202 348 -202Q301 -202 264 -176Q227 -150 214 -104L254 -90Q267 -126 292.5 -144Q318 -162 348 -162Q393 -162 420 -128Q447 -94 447 -45V271Q447 333 418 363.5Q389 394 341 394Q315 394 288 384Q261 374 239 355.5Q217 337 203 311.5Q189 286 189 255V40H258V0H76Z" glyph-name="eng" horiz-adv-x="580" unicode="&#331;" /><glyph d="M496 62Q479 45 460 30.5Q441 16 417 1Q364 -32 334.5 -61Q305 -90 305 -119Q305 -137 316 -150Q327 -163 348 -163Q366 -163 385.5 -152.5Q405 -142 425 -122L449 -151Q426 -173 400.5 -187.5Q375 -202 344 -202Q305 -202 283 -179.5Q261 -157 261 -122Q261 -91 279 -63.5Q297 -36 331 -13Q323 -14 317.5 -14Q312 -14 305 -14Q255 -14 213 3.5Q171 21 141 51.5Q111 82 94 123Q77 164 77 212Q77 260 94 300.5Q111 341 140.5 370.5Q170 400 210.5 417Q251 434 298 434Q346 434 385 416Q424 398 451 367.5Q478 337 492.5 297Q507 257 507 213V201H124Q126 163 140.5 131Q155 99 179 75.5Q203 52 235.5 39Q268 26 306 26Q355 26 395 43.5Q435 61 465 91ZM457 240Q454 273 440.5 301Q427 329 406 350Q385 371 357.5 382.5Q330 394 298 394Q265 394 236 382.5Q207 371 184.5 351Q162 331 146.5 302.5Q131 274 126 240Z" glyph-name="eogonek" horiz-adv-x="580" unicode="&#281;" /><glyph d="M501 220V180H78V220ZM501 370V330H78V370Z" glyph-name="equal" horiz-adv-x="580" unicode="=" /><glyph d="M187 621Q229 607 264.5 588.5Q300 570 332 546L429 595L445 565L361 523Q427 462 462.5 381Q498 300 498 211Q498 158 482.5 116Q467 74 439.5 45Q412 16 373.5 1Q335 -14 290 -14Q245 -14 207 2Q169 18 141.5 45.5Q114 73 98 111.5Q82 150 82 195Q82 240 98 278.5Q114 317 141.5 345Q169 373 207 388.5Q245 404 290 404Q329 404 364 390Q399 376 424 347Q410 389 384 428Q358 467 320 501L204 443L188 473L291 524Q237 564 164 591ZM452 195Q452 231 440 261.5Q428 292 406.5 314.5Q385 337 355.5 350Q326 363 290 363Q254 363 224.5 350Q195 337 173.5 314.5Q152 292 140 261.5Q128 231 128 195Q128 160 140 129Q152 98 173.5 75.5Q195 53 224.5 40Q254 27 290 27Q326 27 355.5 40Q385 53 406.5 75.5Q428 98 440 129Q452 160 452 195Z" glyph-name="eth" horiz-adv-x="580" unicode="&#240;" /><glyph d="M231 45Q231 71 247.5 87.5Q264 104 290 104Q316 104 332.5 87.5Q349 71 349 45Q349 19 332.5 3Q316 -13 290 -13Q264 -13 247.5 3Q231 19 231 45ZM332 616 309 201H271L248 616Z" glyph-name="exclam" horiz-adv-x="580" unicode="!" /><glyph d="M349 411Q349 385 332.5 368.5Q316 352 290 352Q264 352 247.5 368.5Q231 385 231 411Q231 437 247.5 453Q264 469 290 469Q316 469 332.5 453Q349 437 349 411ZM248 -160 271 255H309L332 -160Z" glyph-name="exclamdown" horiz-adv-x="580" unicode="&#161;" /><glyph d="M450 380H258V40H437V0H100V40H215V380H100V420H215V440Q215 534 263.5 582Q312 630 390 630Q419 630 442.5 623.5Q466 617 485.5 607.5Q505 598 519.5 586.5Q534 575 544 564L514 534Q492 557 461 573.5Q430 590 390 590Q363 590 339 581Q315 572 297 553.5Q279 535 268.5 506.5Q258 478 258 438V420H450Z" glyph-name="f" horiz-adv-x="580" unicode="f" /><glyph d="M447 540H194L184 321Q202 338 231.5 350Q261 362 299 362Q334 362 366.5 349Q399 336 424 312Q449 288 463.5 254Q478 220 478 178Q478 140 465 105Q452 70 427.5 43.5Q403 17 368 1.5Q333 -14 289 -14Q231 -14 182.5 11.5Q134 37 103 82L138 109Q164 71 202.5 49.5Q241 28 288 28Q326 28 353 42Q380 56 397 78Q414 100 422 126.5Q430 153 430 178Q430 205 421 231Q412 257 395 276.5Q378 296 353.5 308Q329 320 299 320Q262 320 235.5 307Q209 294 190 277H140L153 580H447Z" glyph-name="five" horiz-adv-x="580" unicode="5" /><glyph d="M301 -21Q269 -21 249 -41H206L214 134H392V99H249L244 -6Q255 3 269.5 8.5Q284 14 304 14Q349 14 379.5 -15Q410 -44 410 -89Q410 -110 402 -129.5Q394 -149 379.5 -163.5Q365 -178 343.5 -187Q322 -196 295 -196Q261 -196 232.5 -182Q204 -168 186 -143L215 -119Q229 -137 249.5 -148.5Q270 -160 295 -160Q333 -160 351 -137Q369 -114 369 -88Q369 -62 351 -41.5Q333 -21 301 -21Z" glyph-name="five.inf" horiz-adv-x="580" unicode="&#58742;" /><glyph d="M273 266H163L167 306H277L291 432Q301 517 342.5 555.5Q384 594 445 594Q487 594 515 577Q543 560 557 540L527 512Q513 529 493.5 541.5Q474 554 445 554Q403 554 372.5 526Q342 498 334 432L320 306H430L426 266H316L288 0Q278 -85 236.5 -123.5Q195 -162 134 -162Q92 -162 64 -145Q36 -128 22 -108L52 -80Q66 -97 85.5 -109.5Q105 -122 134 -122Q176 -122 206.5 -94Q237 -66 245 0Z" glyph-name="florin" horiz-adv-x="580" unicode="&#402;" /><glyph d="M343 580H398V207H474V167H398V40H474V0H255V40H355V167H80V216ZM355 207V525L126 207Z" glyph-name="four" horiz-adv-x="580" unicode="4" /><glyph d="M322 134H368V-65H408V-100H368V-153H408V-188H276V-153H331V-100H175V-59ZM331 -65V90L213 -65Z" glyph-name="four.inf" horiz-adv-x="580" unicode="&#58741;" /><glyph d="M62 -22 32 3 518 602 548 576Z" glyph-name="fraction" horiz-adv-x="580" unicode="&#8260;" /><glyph d="M124 -107Q149 -130 186 -146Q223 -162 265 -162Q300 -162 329.5 -152.5Q359 -143 381 -123Q403 -103 415.5 -72.5Q428 -42 428 1V81Q408 42 362 16Q316 -10 259 -10Q215 -10 177 6.5Q139 23 111.5 53Q84 83 68 123.5Q52 164 52 212Q52 260 68 300.5Q84 341 111.5 371Q139 401 177 417.5Q215 434 259 434Q316 434 362 407Q408 380 428 342V420H541V380H471V1Q471 -102 416.5 -152Q362 -202 265 -202Q209 -202 163.5 -182Q118 -162 95 -139ZM98 212Q98 174 110 141Q122 108 143.5 83.5Q165 59 194.5 45Q224 31 259 31Q295 31 326 44Q357 57 379.5 79.5Q402 102 415 132.5Q428 163 428 198V226Q428 261 415 291.5Q402 322 379.5 344.5Q357 367 326 380Q295 393 259 393Q224 393 194.5 379Q165 365 143.5 340.5Q122 316 110 283Q98 250 98 212Z" glyph-name="g" horiz-adv-x="580" unicode="g" /><glyph d="M124 -107Q149 -130 186 -146Q223 -162 265 -162Q300 -162 329.5 -152.5Q359 -143 381 -123Q403 -103 415.5 -72.5Q428 -42 428 1V81Q408 42 362 16Q316 -10 259 -10Q215 -10 177 6.5Q139 23 111.5 53Q84 83 68 123.5Q52 164 52 212Q52 260 68 300.5Q84 341 111.5 371Q139 401 177 417.5Q215 434 259 434Q316 434 362 407Q408 380 428 342V420H541V380H471V1Q471 -102 416.5 -152Q362 -202 265 -202Q209 -202 163.5 -182Q118 -162 95 -139ZM98 212Q98 174 110 141Q122 108 143.5 83.5Q165 59 194.5 45Q224 31 259 31Q295 31 326 44Q357 57 379.5 79.5Q402 102 415 132.5Q428 163 428 198V226Q428 261 415 291.5Q402 322 379.5 344.5Q357 367 326 380Q295 393 259 393Q224 393 194.5 379Q165 365 143.5 340.5Q122 316 110 283Q98 250 98 212ZM263 507Q212 507 179.5 538Q147 569 144 617L187 622Q190 592 210 569.5Q230 547 263 547Q296 547 316 569.5Q336 592 339 622L382 617Q379 569 346.5 538Q314 507 263 507Z" glyph-name="gbreve" horiz-adv-x="580" unicode="&#287;" /><glyph d="M124 -107Q149 -130 186 -146Q223 -162 265 -162Q300 -162 329.5 -152.5Q359 -143 381 -123Q403 -103 415.5 -72.5Q428 -42 428 1V81Q408 42 362 16Q316 -10 259 -10Q215 -10 177 6.5Q139 23 111.5 53Q84 83 68 123.5Q52 164 52 212Q52 260 68 300.5Q84 341 111.5 371Q139 401 177 417.5Q215 434 259 434Q316 434 362 407Q408 380 428 342V420H541V380H471V1Q471 -102 416.5 -152Q362 -202 265 -202Q209 -202 163.5 -182Q118 -162 95 -139ZM98 212Q98 174 110 141Q122 108 143.5 83.5Q165 59 194.5 45Q224 31 259 31Q295 31 326 44Q357 57 379.5 79.5Q402 102 415 132.5Q428 163 428 198V226Q428 261 415 291.5Q402 322 379.5 344.5Q357 367 326 380Q295 393 259 393Q224 393 194.5 379Q165 365 143.5 340.5Q122 316 110 283Q98 250 98 212ZM261 647 379 527 350 497 261 588 172 497 143 527Z" glyph-name="gcircumflex" horiz-adv-x="580" unicode="&#285;" /><glyph d="M124 -107Q149 -130 186 -146Q223 -162 265 -162Q300 -162 329.5 -152.5Q359 -143 381 -123Q403 -103 415.5 -72.5Q428 -42 428 1V81Q408 42 362 16Q316 -10 259 -10Q215 -10 177 6.5Q139 23 111.5 53Q84 83 68 123.5Q52 164 52 212Q52 260 68 300.5Q84 341 111.5 371Q139 401 177 417.5Q215 434 259 434Q316 434 362 407Q408 380 428 342V420H541V380H471V1Q471 -102 416.5 -152Q362 -202 265 -202Q209 -202 163.5 -182Q118 -162 95 -139ZM98 212Q98 174 110 141Q122 108 143.5 83.5Q165 59 194.5 45Q224 31 259 31Q295 31 326 44Q357 57 379.5 79.5Q402 102 415 132.5Q428 163 428 198V226Q428 261 415 291.5Q402 322 379.5 344.5Q357 367 326 380Q295 393 259 393Q224 393 194.5 379Q165 365 143.5 340.5Q122 316 110 283Q98 250 98 212ZM223 500 279 654H325L293 500Z" glyph-name="gcommaaccent" horiz-adv-x="580" unicode="&#291;" /><glyph d="M124 -107Q149 -130 186 -146Q223 -162 265 -162Q300 -162 329.5 -152.5Q359 -143 381 -123Q403 -103 415.5 -72.5Q428 -42 428 1V81Q408 42 362 16Q316 -10 259 -10Q215 -10 177 6.5Q139 23 111.5 53Q84 83 68 123.5Q52 164 52 212Q52 260 68 300.5Q84 341 111.5 371Q139 401 177 417.5Q215 434 259 434Q316 434 362 407Q408 380 428 342V420H541V380H471V1Q471 -102 416.5 -152Q362 -202 265 -202Q209 -202 163.5 -182Q118 -162 95 -139ZM98 212Q98 174 110 141Q122 108 143.5 83.5Q165 59 194.5 45Q224 31 259 31Q295 31 326 44Q357 57 379.5 79.5Q402 102 415 132.5Q428 163 428 198V226Q428 261 415 291.5Q402 322 379.5 344.5Q357 367 326 380Q295 393 259 393Q224 393 194.5 379Q165 365 143.5 340.5Q122 316 110 283Q98 250 98 212ZM316 564Q316 541 301 526.5Q286 512 264 512Q242 512 227 526.5Q212 541 212 564Q212 587 227 601.5Q242 616 264 616Q286 616 301 601.5Q316 587 316 564Z" glyph-name="gdotaccent" horiz-adv-x="580" unicode="&#289;" /><glyph d="M307 618Q340 618 368 608.5Q396 599 416.5 582.5Q437 566 448.5 543Q460 520 460 493Q460 445 434 418.5Q408 392 372 378Q359 373 347 367.5Q335 362 326 354Q317 346 311.5 334.5Q306 323 306 305Q306 286 314.5 274Q323 262 336.5 254.5Q350 247 366.5 242.5Q383 238 398 234Q428 227 454 216.5Q480 206 499 190.5Q518 175 529 153.5Q540 132 540 103Q540 49 503 17.5Q466 -14 409 -14Q366 -14 333 4Q300 22 286 48V0H246V139H282Q282 114 292 93Q302 72 319 57Q336 42 358.5 34Q381 26 406 26Q444 26 469.5 45.5Q495 65 495 103Q495 145 465 163.5Q435 182 382 195Q361 200 339.5 207Q318 214 300.5 226Q283 238 272 257Q261 276 261 305Q261 334 271 352.5Q281 371 296 383Q311 395 329 403.5Q347 412 363 419Q387 430 401 446Q415 462 415 493Q415 532 384.5 555Q354 578 307 578Q255 578 218 540.5Q181 503 181 423V0H63V40H138V380H63V420H138V426Q138 520 185 569Q232 618 307 618Z" glyph-name="germandbls" horiz-adv-x="580" unicode="&#223;" /><glyph d="M240 662 381 523 356 494 199 615Z" glyph-name="grave" horiz-adv-x="580" unicode="`" /><glyph d="M515 280 99 44 80 80 431 280 80 479 99 516Z" glyph-name="greater" horiz-adv-x="580" unicode="&gt;" /><glyph d="M90 149 74 188 414 344 74 500 90 539 514 344ZM502 90V50H79V90Z" glyph-name="greaterequal" horiz-adv-x="580" unicode="&#8805;" /><glyph d="M322 217 465 75 434 44 261 217 434 390 465 359ZM159 217 302 75 271 44 98 217 271 390 302 359Z" glyph-name="guillemotleft" horiz-adv-x="580" unicode="&#171;" /><glyph d="M115 359 146 390 319 217 146 44 115 75 258 217ZM278 359 309 390 482 217 309 44 278 75 421 217Z" glyph-name="guillemotright" horiz-adv-x="580" unicode="&#187;" /><glyph d="M241 217 384 75 353 44 180 217 353 390 384 359Z" glyph-name="guilsinglleft" horiz-adv-x="580" unicode="&#8249;" /><glyph d="M196 359 227 390 400 217 227 44 196 75 339 217Z" glyph-name="guilsinglright" horiz-adv-x="580" unicode="&#8250;" /><glyph d="M56 40H126V576H58V616H169V352Q192 390 234 412Q276 434 327 434Q392 434 431 395.5Q470 357 470 282V40H540V0H358V40H427V271Q427 333 398 363.5Q369 394 321 394Q295 394 268 384Q241 374 219 355.5Q197 337 183 311.5Q169 286 169 255V40H238V0H56Z" glyph-name="h" horiz-adv-x="580" unicode="h" /><glyph d="M327 483H169V352Q192 390 234 412Q276 434 327 434Q392 434 431 395.5Q470 357 470 282V40H540V0H358V40H427V271Q427 333 398 363.5Q369 394 321 394Q295 394 268 384Q241 374 219 355.5Q197 337 183 311.5Q169 286 169 255V40H238V0H56V40H126V483H57V521H126V576H58V616H169V521H327Z" glyph-name="hbar" horiz-adv-x="580" unicode="&#295;" /><glyph d="M56 40H126V576H58V616H169V352Q192 390 234 412Q276 434 327 434Q392 434 431 395.5Q470 357 470 282V40H540V0H358V40H427V271Q427 333 398 363.5Q369 394 321 394Q295 394 268 384Q241 374 219 355.5Q197 337 183 311.5Q169 286 169 255V40H238V0H56ZM119 793 237 673 208 643 119 734 30 643 1 673Z" glyph-name="hcircumflex" horiz-adv-x="580" unicode="&#293;" /><glyph d="M301 615 144 494 119 522 260 662ZM461 615 304 494 279 522 420 662Z" glyph-name="hungarumlaut" horiz-adv-x="580" unicode="&#733;" /><glyph d="M441 245H139V295H441Z" glyph-name="hyphen" horiz-adv-x="580" unicode="-" /><glyph d="M491 40V0H98V40H280V380H137V420H323V40ZM323 532H264V614H323Z" glyph-name="i" horiz-adv-x="580" unicode="i" /><glyph d="M491 40V0H98V40H280V380H137V420H323V40ZM395 615 238 494 213 522 354 662Z" glyph-name="iacute" horiz-adv-x="580" unicode="&#237;" /><glyph d="M491 40V0H98V40H280V380H137V420H323V40ZM295 507Q244 507 211.5 538Q179 569 176 617L219 622Q222 592 242 569.5Q262 547 295 547Q328 547 348 569.5Q368 592 371 622L414 617Q411 569 378.5 538Q346 507 295 507Z" glyph-name="ibreve" horiz-adv-x="580" unicode="&#301;" /><glyph d="M491 40V0H98V40H280V380H137V420H323V40ZM298 647 416 527 387 497 298 588 209 497 180 527Z" glyph-name="icircumflex" horiz-adv-x="580" unicode="&#238;" /><glyph d="M491 40V0H98V40H280V380H137V420H323V40ZM247 564Q247 543 233 529.5Q219 516 199 516Q179 516 165 529.5Q151 543 151 564Q151 585 165 598.5Q179 612 199 612Q219 612 233 598.5Q247 585 247 564ZM443 564Q443 543 429 529.5Q415 516 395 516Q375 516 361 529.5Q347 543 347 564Q347 585 361 598.5Q375 612 395 612Q415 612 429 598.5Q443 585 443 564Z" glyph-name="idieresis" horiz-adv-x="580" unicode="&#239;" /><glyph d="M491 40V0H98V40H280V380H137V420H323V40ZM323 532H264V614H323Z" glyph-name="idotaccent" horiz-adv-x="580" unicode="&#59269;" /><glyph d="M491 40V0H98V40H280V380H137V420H323V40ZM227 662 368 523 343 494 186 615Z" glyph-name="igrave" horiz-adv-x="580" unicode="&#236;" /><glyph d="M363 40V0H25V40H172V380H53V420H215V40ZM215 532H156V614H215ZM315 420H516V-21Q516 -63 503.5 -96.5Q491 -130 469.5 -153.5Q448 -177 418.5 -189.5Q389 -202 356 -202Q300 -202 256.5 -169Q213 -136 198 -79L239 -65Q252 -108 282 -135Q312 -162 356 -162Q380 -162 401.5 -152Q423 -142 438.5 -123.5Q454 -105 463.5 -78Q473 -51 473 -18V380H315ZM457 614H516V532H457Z" glyph-name="ij" horiz-adv-x="580" unicode="&#307;" /><glyph d="M491 40V0H98V40H280V380H137V420H323V40ZM173 556H411V515H173Z" glyph-name="imacron" horiz-adv-x="580" unicode="&#299;" /><glyph d="M527 275Q527 247 517.5 224.5Q508 202 492 186.5Q476 171 455 163Q434 155 411 155Q374 155 345.5 177Q317 199 289 238Q262 198 234 176.5Q206 155 169 155Q146 155 125 163Q104 171 88 186.5Q72 202 62.5 224.5Q53 247 53 275Q53 303 62.5 325.5Q72 348 88 363.5Q104 379 125 387Q146 395 169 395Q206 395 234.5 373Q263 351 291 312Q319 351 346.5 373Q374 395 411 395Q434 395 455 387Q476 379 492 363.5Q508 348 517.5 325.5Q527 303 527 275ZM484 275Q484 310 463 332.5Q442 355 413 355Q378 355 354 330Q330 305 313 275Q330 245 354 220Q378 195 413 195Q442 195 463 217.5Q484 240 484 275ZM96 275Q96 240 116.5 217.5Q137 195 167 195Q202 195 226 220Q250 245 267 275Q250 305 226 330Q202 355 167 355Q137 355 116.5 332.5Q96 310 96 275Z" glyph-name="infinity" horiz-adv-x="580" unicode="&#8734;" /><glyph d="M268 482Q268 547 301 581.5Q334 616 385 616Q423 616 448.5 600Q474 584 489 566L460 537Q446 551 428 563.5Q410 576 386 576Q356 576 333.5 553.5Q311 531 311 479V-28Q311 -93 278 -127.5Q245 -162 194 -162Q156 -162 130.5 -146Q105 -130 90 -112L119 -83Q133 -97 151 -109.5Q169 -122 193 -122Q223 -122 245.5 -99.5Q268 -77 268 -25Z" glyph-name="integral" horiz-adv-x="580" unicode="&#8747;" /><glyph d="M98 0V40H280V380H137V420H323V40H491V0H365Q310 -31 280.5 -60.5Q251 -90 251 -119Q251 -137 262 -150Q273 -163 294 -163Q312 -163 331.5 -152.5Q351 -142 371 -122L395 -151Q372 -173 346.5 -187.5Q321 -202 290 -202Q251 -202 229 -179.5Q207 -157 207 -122Q207 -88 228.5 -58.5Q250 -29 295 0ZM323 532H264V614H323Z" glyph-name="iogonek" horiz-adv-x="580" unicode="&#303;" /><glyph d="M491 40V0H98V40H280V380H137V420H323V40ZM431 569Q430 558 424 545.5Q418 533 407.5 522.5Q397 512 382 505Q367 498 349 498Q328 498 312.5 505.5Q297 513 284.5 522.5Q272 532 260 539.5Q248 547 234 547Q213 547 202.5 533.5Q192 520 189 505L151 516Q152 527 158 539.5Q164 552 174.5 562.5Q185 573 200 580Q215 587 233 587Q254 587 269.5 579.5Q285 572 297.5 562.5Q310 553 322 545.5Q334 538 348 538Q369 538 379.5 551.5Q390 565 393 580Z" glyph-name="itilde" horiz-adv-x="580" unicode="&#297;" /><glyph d="M154 420H421V-11Q421 -53 407 -88.5Q393 -124 369.5 -149Q346 -174 315.5 -188Q285 -202 251 -202Q189 -202 142.5 -168Q96 -134 82 -71L124 -59Q137 -108 170 -135Q203 -162 251 -162Q276 -162 299 -150.5Q322 -139 339.5 -118.5Q357 -98 367.5 -69.5Q378 -41 378 -7V380H154ZM362 614H421V532H362Z" glyph-name="j" horiz-adv-x="580" unicode="j" /><glyph d="M154 420H421V-11Q421 -53 407 -88.5Q393 -124 369.5 -149Q346 -174 315.5 -188Q285 -202 251 -202Q189 -202 142.5 -168Q96 -134 82 -71L124 -59Q137 -108 170 -135Q203 -162 251 -162Q276 -162 299 -150.5Q322 -139 339.5 -118.5Q357 -98 367.5 -69.5Q378 -41 378 -7V380H154ZM389 647 507 527 478 497 389 588 300 497 271 527Z" glyph-name="jcircumflex" horiz-adv-x="580" unicode="&#309;" /><glyph d="M61 40H131V576H61V616H174V218L368 380H314V420H494V380H430L280 255L473 40H537V0H357V40H415L247 228L174 167V40H240V0H61Z" glyph-name="k" horiz-adv-x="580" unicode="k" /><glyph d="M61 40H131V576H61V616H174V218L368 380H314V420H494V380H430L280 255L473 40H537V0H357V40H415L247 228L174 167V40H240V0H61ZM341 -62 285 -216H239L271 -62Z" glyph-name="kcommaaccent" horiz-adv-x="580" unicode="&#311;" /><glyph d="M61 40H131V380H61V420H174V218L368 380H314V420H494V380H430L280 255L473 40H537V0H357V40H415L247 228L174 167V40H240V0H61Z" glyph-name="kgreenlandic" horiz-adv-x="580" unicode="&#312;" /><glyph d="M491 40V0H98V40H280V576H137V616H323V40Z" glyph-name="l" horiz-adv-x="580" unicode="l" /><glyph d="M491 40V0H98V40H280V576H137V616H323V40ZM390 783 233 662 208 690 349 830Z" glyph-name="lacute" horiz-adv-x="580" unicode="&#314;" /><glyph d="M491 40V0H98V40H280V576H137V616H323V40ZM498 647 413 485 379 499 441 671Z" glyph-name="lcaron" horiz-adv-x="580" unicode="&#318;" /><glyph d="M491 40V0H98V40H280V576H137V616H323V40ZM338 -62 282 -216H236L268 -62Z" glyph-name="lcommaaccent" horiz-adv-x="580" unicode="&#316;" /><glyph d="M491 40V0H98V40H280V576H137V616H323V40ZM495 334Q495 311 480 296.5Q465 282 443 282Q421 282 406 296.5Q391 311 391 334Q391 357 406 371.5Q421 386 443 386Q465 386 480 371.5Q495 357 495 334Z" glyph-name="ldot" horiz-adv-x="580" unicode="&#320;" /><glyph d="M65 280 481 516 500 480 149 280 500 81 481 44Z" glyph-name="less" horiz-adv-x="580" unicode="&lt;" /><glyph d="M66 344 490 539 506 500 166 344 506 188 490 149ZM501 90V50H78V90Z" glyph-name="lessequal" horiz-adv-x="580" unicode="&#8804;" /><glyph d="M458 170V330H78V370H501V170Z" glyph-name="logicalnot" horiz-adv-x="580" unicode="&#172;" /><glyph d="M262 0 101 290 262 580H318L479 290L318 0ZM430 290 290 543 150 290 290 36Z" glyph-name="lozenge" horiz-adv-x="580" unicode="&#9674;" /><glyph d="M145 264 280 341V576H137V616H323V365L422 422L443 386L323 317V40H491V0H98V40H280V293L166 228Z" glyph-name="lslash" horiz-adv-x="580" unicode="&#322;" /><glyph d="M26 40H77V380H25V420H119V368Q130 397 157.5 415.5Q185 434 217 434Q250 434 273 417.5Q296 401 306 368Q320 397 349 415.5Q378 434 411 434Q457 434 482 405Q507 376 507 316V40H559V0H465V307Q465 354 449 374.5Q433 395 404 395Q387 395 370.5 385.5Q354 376 341.5 359.5Q329 343 321 320.5Q313 298 313 272V40H365V0H271V307Q271 353 255 374Q239 395 210 395Q193 395 176.5 385Q160 375 147.5 357.5Q135 340 127 317Q119 294 119 268V40H170V0H26Z" glyph-name="m" horiz-adv-x="580" unicode="m" /><glyph d="M171 556H409V515H171Z" glyph-name="macron" horiz-adv-x="580" unicode="&#175;" /><glyph d="M501 295V255H78V295Z" glyph-name="minus" horiz-adv-x="580" unicode="&#8722;" /><glyph d="M286 -14Q242 -14 208 6.5Q174 27 157 62V-188H114V380H42V420H157V167Q157 136 169 110Q181 84 199.5 65.5Q218 47 241 36.5Q264 26 286 26Q308 26 331 36.5Q354 47 372.5 65.5Q391 84 403 110Q415 136 415 167V380H343V420H458V40H520V0H415V64Q398 28 364 7Q330 -14 286 -14Z" glyph-name="mu" horiz-adv-x="580" unicode="&#181;" /><glyph d="M290 303 440 453 468 425 318 275 468 126 440 98 290 247 141 98 113 126 262 275 113 425 141 453Z" glyph-name="multiply" horiz-adv-x="580" unicode="&#215;" /><glyph d="M56 40H126V380H64V420H169V352Q192 390 234 412Q276 434 327 434Q392 434 431 395.5Q470 357 470 282V40H540V0H358V40H427V271Q427 333 398 363.5Q369 394 321 394Q295 394 268 384Q241 374 219 355.5Q197 337 183 311.5Q169 286 169 255V40H238V0H56Z" glyph-name="n" horiz-adv-x="580" unicode="n" /><glyph d="M56 40H126V380H64V420H169V352Q192 390 234 412Q276 434 327 434Q392 434 431 395.5Q470 357 470 282V40H540V0H358V40H427V271Q427 333 398 363.5Q369 394 321 394Q295 394 268 384Q241 374 219 355.5Q197 337 183 311.5Q169 286 169 255V40H238V0H56ZM405 615 248 494 223 522 364 662Z" glyph-name="nacute" horiz-adv-x="580" unicode="&#324;" /><glyph d="M56 40H126V380H64V420H169V352Q192 390 234 412Q276 434 327 434Q392 434 431 395.5Q470 357 470 282V40H540V0H358V40H427V271Q427 333 398 363.5Q369 394 321 394Q295 394 268 384Q241 374 219 355.5Q197 337 183 311.5Q169 286 169 255V40H238V0H56ZM186 617 215 647 304 556 393 647 422 617 304 497Z" glyph-name="ncaron" horiz-adv-x="580" unicode="&#328;" /><glyph d="M56 40H126V380H64V420H169V352Q192 390 234 412Q276 434 327 434Q392 434 431 395.5Q470 357 470 282V40H540V0H358V40H427V271Q427 333 398 363.5Q369 394 321 394Q295 394 268 384Q241 374 219 355.5Q197 337 183 311.5Q169 286 169 255V40H238V0H56ZM339 -62 283 -216H237L269 -62Z" glyph-name="ncommaaccent" horiz-adv-x="580" unicode="&#326;" /><glyph d="M417 411Q416 440 405.5 465.5Q395 491 376 510.5Q357 530 330.5 541.5Q304 553 272 553Q240 553 214 542Q188 531 169.5 511.5Q151 492 141 466Q131 440 131 411Q131 349 169 309Q207 269 270 269Q302 269 328 280Q354 291 373 310Q392 329 403 355Q414 381 417 411ZM126 83Q145 60 172 44Q199 28 241 28Q282 28 317.5 46.5Q353 65 379 100.5Q405 136 419.5 187.5Q434 239 434 304Q434 307 434 312.5Q434 318 434 323Q433 330 433 337Q426 316 411.5 296.5Q397 277 375.5 261.5Q354 246 327 237Q300 228 267 228Q227 228 193.5 241Q160 254 135.5 278Q111 302 97.5 335.5Q84 369 84 410Q84 447 96.5 480Q109 513 133 538.5Q157 564 192 579Q227 594 272 594Q331 594 370.5 569.5Q410 545 434 505Q458 465 468 414Q478 363 478 310Q478 228 459 167Q440 106 408 66Q376 26 332.5 6Q289 -14 241 -14Q193 -14 155.5 4Q118 22 94 53Z" glyph-name="nine" horiz-adv-x="580" unicode="9" /><glyph d="M205 -135Q213 -145 227.5 -152.5Q242 -160 262 -160Q284 -160 302.5 -149.5Q321 -139 334.5 -120Q348 -101 355.5 -76Q363 -51 363 -21V-10Q357 -30 333 -48Q309 -66 274 -66Q226 -66 195 -37.5Q164 -9 164 37Q164 79 193.5 110.5Q223 142 276 142Q311 142 334.5 128Q358 114 373 91.5Q388 69 394.5 40Q401 11 401 -20Q401 -60 390 -92.5Q379 -125 360 -148Q341 -171 316 -183.5Q291 -196 262 -196Q236 -196 213.5 -186Q191 -176 177 -159ZM276 -31Q308 -31 328.5 -11.5Q349 8 349 38Q349 67 329 86.5Q309 106 276 106Q244 106 224 86.5Q204 67 204 38Q204 9 224 -11Q244 -31 276 -31Z" glyph-name="nine.inf" horiz-adv-x="580" unicode="&#58746;" /><glyph glyph-name="nonbreakingspace" horiz-adv-x="580" unicode="&#160;" /><glyph glyph-name="nonmarkingreturn" horiz-adv-x="250" unicode="" /><glyph d="M209 180H78V220H234L302 330H78V370H327L409 502L439 483L369 370H501V330H344L276 220H501V180H251L171 50L141 69Z" glyph-name="notequal" horiz-adv-x="580" unicode="&#8800;" /><glyph d="M56 40H126V380H64V420H169V352Q192 390 234 412Q276 434 327 434Q392 434 431 395.5Q470 357 470 282V40H540V0H358V40H427V271Q427 333 398 363.5Q369 394 321 394Q295 394 268 384Q241 374 219 355.5Q197 337 183 311.5Q169 286 169 255V40H238V0H56ZM435 569Q434 558 428 545.5Q422 533 411.5 522.5Q401 512 386 505Q371 498 353 498Q332 498 316.5 505.5Q301 513 288.5 522.5Q276 532 264 539.5Q252 547 238 547Q217 547 206.5 533.5Q196 520 193 505L155 516Q156 527 162 539.5Q168 552 178.5 562.5Q189 573 204 580Q219 587 237 587Q258 587 273.5 579.5Q289 572 301.5 562.5Q314 553 326 545.5Q338 538 352 538Q373 538 383.5 551.5Q394 565 397 580Z" glyph-name="ntilde" horiz-adv-x="580" unicode="&#241;" /><glyph d="M93 397H198L234 580H277L241 397H376L412 580H455L419 397H526L519 358H412L387 230H495L488 191H380L343 0H300L337 191H202L165 0H122L159 191H55L62 230H166L191 358H86ZM209 230H344L369 358H234Z" glyph-name="numbersign" horiz-adv-x="580" unicode="#" /><glyph d="M69 210Q69 258 85.5 299Q102 340 131.5 370Q161 400 201.5 417Q242 434 290 434Q338 434 378.5 417Q419 400 448.5 370Q478 340 494.5 299Q511 258 511 210Q511 162 494.5 121Q478 80 448.5 50Q419 20 378.5 3Q338 -14 290 -14Q242 -14 201.5 3Q161 20 131.5 50Q102 80 85.5 121Q69 162 69 210ZM465 210Q465 249 452 282Q439 315 416 340Q393 365 361 379Q329 393 290 393Q251 393 219 379Q187 365 164 340Q141 315 128 282Q115 249 115 210Q115 171 128 138Q141 105 164 80Q187 55 219 41Q251 27 290 27Q329 27 361 41Q393 55 416 80Q439 105 452 138Q465 171 465 210Z" glyph-name="o" horiz-adv-x="580" unicode="o" /><glyph d="M69 210Q69 258 85.5 299Q102 340 131.5 370Q161 400 201.5 417Q242 434 290 434Q338 434 378.5 417Q419 400 448.5 370Q478 340 494.5 299Q511 258 511 210Q511 162 494.5 121Q478 80 448.5 50Q419 20 378.5 3Q338 -14 290 -14Q242 -14 201.5 3Q161 20 131.5 50Q102 80 85.5 121Q69 162 69 210ZM465 210Q465 249 452 282Q439 315 416 340Q393 365 361 379Q329 393 290 393Q251 393 219 379Q187 365 164 340Q141 315 128 282Q115 249 115 210Q115 171 128 138Q141 105 164 80Q187 55 219 41Q251 27 290 27Q329 27 361 41Q393 55 416 80Q439 105 452 138Q465 171 465 210ZM385 615 228 494 203 522 344 662Z" glyph-name="oacute" horiz-adv-x="580" unicode="&#243;" /><glyph d="M69 210Q69 258 85.5 299Q102 340 131.5 370Q161 400 201.5 417Q242 434 290 434Q338 434 378.5 417Q419 400 448.5 370Q478 340 494.5 299Q511 258 511 210Q511 162 494.5 121Q478 80 448.5 50Q419 20 378.5 3Q338 -14 290 -14Q242 -14 201.5 3Q161 20 131.5 50Q102 80 85.5 121Q69 162 69 210ZM465 210Q465 249 452 282Q439 315 416 340Q393 365 361 379Q329 393 290 393Q251 393 219 379Q187 365 164 340Q141 315 128 282Q115 249 115 210Q115 171 128 138Q141 105 164 80Q187 55 219 41Q251 27 290 27Q329 27 361 41Q393 55 416 80Q439 105 452 138Q465 171 465 210ZM290 507Q239 507 206.5 538Q174 569 171 617L214 622Q217 592 237 569.5Q257 547 290 547Q323 547 343 569.5Q363 592 366 622L409 617Q406 569 373.5 538Q341 507 290 507Z" glyph-name="obreve" horiz-adv-x="580" unicode="&#335;" /><glyph d="M69 210Q69 258 85.5 299Q102 340 131.5 370Q161 400 201.5 417Q242 434 290 434Q338 434 378.5 417Q419 400 448.5 370Q478 340 494.5 299Q511 258 511 210Q511 162 494.5 121Q478 80 448.5 50Q419 20 378.5 3Q338 -14 290 -14Q242 -14 201.5 3Q161 20 131.5 50Q102 80 85.5 121Q69 162 69 210ZM465 210Q465 249 452 282Q439 315 416 340Q393 365 361 379Q329 393 290 393Q251 393 219 379Q187 365 164 340Q141 315 128 282Q115 249 115 210Q115 171 128 138Q141 105 164 80Q187 55 219 41Q251 27 290 27Q329 27 361 41Q393 55 416 80Q439 105 452 138Q465 171 465 210ZM290 647 408 527 379 497 290 588 201 497 172 527Z" glyph-name="ocircumflex" horiz-adv-x="580" unicode="&#244;" /><glyph d="M69 210Q69 258 85.5 299Q102 340 131.5 370Q161 400 201.5 417Q242 434 290 434Q338 434 378.5 417Q419 400 448.5 370Q478 340 494.5 299Q511 258 511 210Q511 162 494.5 121Q478 80 448.5 50Q419 20 378.5 3Q338 -14 290 -14Q242 -14 201.5 3Q161 20 131.5 50Q102 80 85.5 121Q69 162 69 210ZM465 210Q465 249 452 282Q439 315 416 340Q393 365 361 379Q329 393 290 393Q251 393 219 379Q187 365 164 340Q141 315 128 282Q115 249 115 210Q115 171 128 138Q141 105 164 80Q187 55 219 41Q251 27 290 27Q329 27 361 41Q393 55 416 80Q439 105 452 138Q465 171 465 210ZM240 564Q240 543 226 529.5Q212 516 192 516Q172 516 158 529.5Q144 543 144 564Q144 585 158 598.5Q172 612 192 612Q212 612 226 598.5Q240 585 240 564ZM436 564Q436 543 422 529.5Q408 516 388 516Q368 516 354 529.5Q340 543 340 564Q340 585 354 598.5Q368 612 388 612Q408 612 422 598.5Q436 585 436 564Z" glyph-name="odieresis" horiz-adv-x="580" unicode="&#246;" /><glyph d="M555 60Q536 30 504 8Q472 -14 429 -14Q380 -14 345.5 14.5Q311 43 294 93Q276 41 244 13.5Q212 -14 167 -14Q134 -14 107 2Q80 18 61 47.5Q42 77 31.5 118Q21 159 21 210Q21 261 31.5 302Q42 343 61 372.5Q80 402 107 418Q134 434 167 434Q212 434 245 405.5Q278 377 295 326Q313 377 346.5 405.5Q380 434 424 434Q458 434 484 416Q510 398 528 368Q546 338 555 298Q564 258 564 213V201H318Q320 163 329 131Q338 99 352.5 76Q367 53 386.5 40Q406 27 430 27Q460 27 482.5 43.5Q505 60 523 87ZM270 210Q270 249 262 282.5Q254 316 240.5 340.5Q227 365 208 379Q189 393 167 393Q145 393 126 379Q107 365 93.5 340.5Q80 316 72 282.5Q64 249 64 210Q64 171 72 137.5Q80 104 93.5 79.5Q107 55 126 41Q145 27 167 27Q189 27 208 41Q227 55 240.5 79.5Q254 104 262 137.5Q270 171 270 210ZM517 240Q515 272 507.5 300Q500 328 488 348.5Q476 369 459.5 381Q443 393 424 393Q404 393 386 381.5Q368 370 354.5 350Q341 330 332 301.5Q323 273 320 240Z" glyph-name="oe" horiz-adv-x="580" unicode="&#339;" /><glyph d="M354 0Q299 -31 269.5 -60.5Q240 -90 240 -119Q240 -137 251 -150Q262 -163 283 -163Q301 -163 320.5 -152.5Q340 -142 360 -122L384 -151Q361 -173 335.5 -187.5Q310 -202 279 -202Q240 -202 218 -179.5Q196 -157 196 -122Q196 -88 217.5 -58.5Q239 -29 284 0Z" glyph-name="ogonek" horiz-adv-x="580" unicode="&#731;" /><glyph d="M69 210Q69 258 85.5 299Q102 340 131.5 370Q161 400 201.5 417Q242 434 290 434Q338 434 378.5 417Q419 400 448.5 370Q478 340 494.5 299Q511 258 511 210Q511 162 494.5 121Q478 80 448.5 50Q419 20 378.5 3Q338 -14 290 -14Q242 -14 201.5 3Q161 20 131.5 50Q102 80 85.5 121Q69 162 69 210ZM465 210Q465 249 452 282Q439 315 416 340Q393 365 361 379Q329 393 290 393Q251 393 219 379Q187 365 164 340Q141 315 128 282Q115 249 115 210Q115 171 128 138Q141 105 164 80Q187 55 219 41Q251 27 290 27Q329 27 361 41Q393 55 416 80Q439 105 452 138Q465 171 465 210ZM235 662 376 523 351 494 194 615Z" glyph-name="ograve" horiz-adv-x="580" unicode="&#242;" /><glyph d="M95 324Q95 277 104.5 238.5Q114 200 132.5 166Q151 132 179 102.5Q207 73 244 44V0H59V40H188Q163 58 137.5 85Q112 112 92 148Q72 184 59.5 228Q47 272 47 324Q47 382 64.5 431.5Q82 481 113.5 517Q145 553 190 573.5Q235 594 290 594Q345 594 390 573.5Q435 553 466.5 517Q498 481 515.5 431.5Q533 382 533 324Q533 272 520.5 228Q508 184 487.5 148Q467 112 442 85Q417 58 392 40H521V0H336V44Q374 73 401.5 102.5Q429 132 448 166Q467 200 476 238.5Q485 277 485 324Q485 369 472.5 410Q460 451 435.5 482.5Q411 514 374.5 533Q338 552 290 552Q242 552 205.5 533Q169 514 144.5 482.5Q120 451 107.5 410Q95 369 95 324Z" glyph-name="ohm" horiz-adv-x="580" unicode="&#59425;" /><glyph d="M69 210Q69 258 85.5 299Q102 340 131.5 370Q161 400 201.5 417Q242 434 290 434Q338 434 378.5 417Q419 400 448.5 370Q478 340 494.5 299Q511 258 511 210Q511 162 494.5 121Q478 80 448.5 50Q419 20 378.5 3Q338 -14 290 -14Q242 -14 201.5 3Q161 20 131.5 50Q102 80 85.5 121Q69 162 69 210ZM465 210Q465 249 452 282Q439 315 416 340Q393 365 361 379Q329 393 290 393Q251 393 219 379Q187 365 164 340Q141 315 128 282Q115 249 115 210Q115 171 128 138Q141 105 164 80Q187 55 219 41Q251 27 290 27Q329 27 361 41Q393 55 416 80Q439 105 452 138Q465 171 465 210ZM351 615 194 494 169 522 310 662ZM511 615 354 494 329 522 470 662Z" glyph-name="ohungarumlaut" horiz-adv-x="580" unicode="&#337;" /><glyph d="M69 210Q69 258 85.5 299Q102 340 131.5 370Q161 400 201.5 417Q242 434 290 434Q338 434 378.5 417Q419 400 448.5 370Q478 340 494.5 299Q511 258 511 210Q511 162 494.5 121Q478 80 448.5 50Q419 20 378.5 3Q338 -14 290 -14Q242 -14 201.5 3Q161 20 131.5 50Q102 80 85.5 121Q69 162 69 210ZM465 210Q465 249 452 282Q439 315 416 340Q393 365 361 379Q329 393 290 393Q251 393 219 379Q187 365 164 340Q141 315 128 282Q115 249 115 210Q115 171 128 138Q141 105 164 80Q187 55 219 41Q251 27 290 27Q329 27 361 41Q393 55 416 80Q439 105 452 138Q465 171 465 210ZM171 556H409V515H171Z" glyph-name="omacron" horiz-adv-x="580" unicode="&#333;" /><glyph d="M116 446 277 580H320V40H490V0H97V40H277V526L142 414Z" glyph-name="one" horiz-adv-x="580" unicode="1" /><glyph d="M410 -153V-188H174V-153H277V88L206 31L184 59L276 134H315V-153Z" glyph-name="one.inf" horiz-adv-x="580" unicode="&#58738;" /><glyph d="M62 -22 32 3 518 602 548 576ZM233 380V348H33V380H119V581L60 532L41 558L118 622H154V380ZM353 37 459 128Q479 145 492.5 164.5Q506 184 506 201Q506 216 493.5 232Q481 248 452 248Q426 248 411 233Q396 218 385 197L353 211Q367 242 392 261Q417 280 452 280Q494 280 518.5 256Q543 232 543 202Q543 177 526.5 153.5Q510 130 480 104L393 31H512V75H544V0H353Z" glyph-name="onehalf" horiz-adv-x="580" unicode="&#189;" /><glyph d="M233 380V348H33V380H119V581L60 532L41 558L118 622H154V380ZM62 -22 32 3 518 602 548 576ZM446 274H491V106H525V74H491V32H525V0H410V32H457V74H323V110ZM457 106V237L359 106Z" glyph-name="onequarter" horiz-adv-x="580" unicode="&#188;" /><glyph d="M410 335V300H174V335H277V576L206 519L184 547L276 622H315V335Z" glyph-name="onesuperior" horiz-adv-x="580" unicode="&#185;" /><glyph d="M293 499Q320 499 343 494.5Q366 490 383 486V517Q383 556 357.5 574Q332 592 298 592Q268 592 244 580Q220 568 200 548L172 576Q189 595 220 612.5Q251 630 298 630Q354 630 389.5 601.5Q425 573 425 516V353H474V314H383V357Q369 332 336 318Q303 304 267 304Q219 304 185.5 328Q152 352 152 399Q152 427 164.5 446Q177 465 197.5 477Q218 489 243 494Q268 499 293 499ZM383 447Q365 454 342 458Q319 462 295 462Q276 462 257.5 459Q239 456 225.5 448.5Q212 441 203.5 429Q195 417 195 400Q195 370 217 355.5Q239 341 269 341Q290 341 310 347.5Q330 354 346.5 366Q363 378 373 395Q383 412 383 433Z" glyph-name="ordfeminine" horiz-adv-x="580" unicode="&#170;" /><glyph d="M290 304Q255 304 225 316.5Q195 329 173.5 350.5Q152 372 139.5 402Q127 432 127 467Q127 502 139.5 532Q152 562 173.5 584Q195 606 225 618Q255 630 290 630Q325 630 355 618Q385 606 407 584Q429 562 441 532Q453 502 453 467Q453 432 441 402Q429 372 407 350.5Q385 329 355 316.5Q325 304 290 304ZM290 343Q316 343 338 352.5Q360 362 376 378.5Q392 395 401 418Q410 441 410 467Q410 493 401 516Q392 539 376 555.5Q360 572 338 581.5Q316 591 290 591Q264 591 242 581.5Q220 572 204.5 555.5Q189 539 180 516Q171 493 171 467Q171 441 180 418Q189 395 204.5 378.5Q220 362 242 352.5Q264 343 290 343Z" glyph-name="ordmasculine" horiz-adv-x="580" unicode="&#186;" /><glyph d="M443 375Q475 345 493 303Q511 261 511 210Q511 162 494.5 121Q478 80 448.5 50Q419 20 378.5 3Q338 -14 290 -14Q256 -14 226.5 -5.5Q197 3 172 18L110 -63L81 -40L142 40Q107 70 88 113.5Q69 157 69 210Q69 258 85.5 299Q102 340 131.5 370Q161 400 201.5 417Q242 434 290 434Q359 434 414 398L476 480L505 456ZM115 210Q115 126 168 75L388 364Q367 378 342.5 385.5Q318 393 290 393Q251 393 219 379Q187 365 164 340Q141 315 128 282Q115 249 115 210ZM465 210Q465 248 452 281Q439 314 416 339L198 52Q239 27 290 27Q329 27 361 41Q393 55 416 80Q439 105 452 138Q465 171 465 210Z" glyph-name="oslash" horiz-adv-x="580" unicode="&#248;" /><glyph d="M69 210Q69 258 85.5 299Q102 340 131.5 370Q161 400 201.5 417Q242 434 290 434Q338 434 378.5 417Q419 400 448.5 370Q478 340 494.5 299Q511 258 511 210Q511 162 494.5 121Q478 80 448.5 50Q419 20 378.5 3Q338 -14 290 -14Q242 -14 201.5 3Q161 20 131.5 50Q102 80 85.5 121Q69 162 69 210ZM465 210Q465 249 452 282Q439 315 416 340Q393 365 361 379Q329 393 290 393Q251 393 219 379Q187 365 164 340Q141 315 128 282Q115 249 115 210Q115 171 128 138Q141 105 164 80Q187 55 219 41Q251 27 290 27Q329 27 361 41Q393 55 416 80Q439 105 452 138Q465 171 465 210ZM430 569Q429 558 423 545.5Q417 533 406.5 522.5Q396 512 381 505Q366 498 348 498Q327 498 311.5 505.5Q296 513 283.5 522.5Q271 532 259 539.5Q247 547 233 547Q212 547 201.5 533.5Q191 520 188 505L150 516Q151 527 157 539.5Q163 552 173.5 562.5Q184 573 199 580Q214 587 232 587Q253 587 268.5 579.5Q284 572 296.5 562.5Q309 553 321 545.5Q333 538 347 538Q368 538 378.5 551.5Q389 565 392 580Z" glyph-name="otilde" horiz-adv-x="580" unicode="&#245;" /><glyph d="M39 380V420H152V338Q172 379 217 406.5Q262 434 321 434Q365 434 403 417Q441 400 469 370Q497 340 512.5 299Q528 258 528 210Q528 162 512.5 121Q497 80 469 50Q441 20 403 3Q365 -14 321 -14Q262 -14 217 13.5Q172 41 152 82V-148H271V-188H39V-148H109V380ZM482 210Q482 249 470 282Q458 315 437 340Q416 365 386.5 379Q357 393 321 393Q285 393 254 380Q223 367 200.5 344Q178 321 165 290Q152 259 152 224V196Q152 161 165 130Q178 99 200.5 76Q223 53 254 40Q285 27 321 27Q357 27 386.5 41Q416 55 437 80Q458 105 470 138Q482 171 482 210Z" glyph-name="p" horiz-adv-x="580" unicode="p" /><glyph d="M252 290Q221 290 193.5 300Q166 310 145.5 329Q125 348 113 375Q101 402 101 435Q101 468 113 495Q125 522 145.5 541Q166 560 193.5 570Q221 580 252 580H503V540H444V-54H401V540H295V-54H252Z" glyph-name="paragraph" horiz-adv-x="580" unicode="&#182;" /><glyph d="M180 259Q180 329 195 387.5Q210 446 236 496Q262 546 297 587.5Q332 629 371 664L400 633Q364 600 332.5 561Q301 522 277 475.5Q253 429 239.5 375Q226 321 226 259Q226 197 239.5 143Q253 89 277 42.5Q301 -4 332.5 -43Q364 -82 400 -115L371 -146Q332 -111 297 -69.5Q262 -28 236 22Q210 72 195 130.5Q180 189 180 259Z" glyph-name="parenleft" horiz-adv-x="580" unicode="(" /><glyph d="M400 259Q400 189 385 130.5Q370 72 344 22Q318 -28 283 -69.5Q248 -111 209 -146L180 -115Q216 -82 247.5 -43Q279 -4 303 42.5Q327 89 340.5 143Q354 197 354 259Q354 321 340.5 375Q327 429 303 475.5Q279 522 247.5 561Q216 600 180 633L209 664Q248 629 283 587.5Q318 546 344 496Q370 446 385 387.5Q400 329 400 259Z" glyph-name="parenright" horiz-adv-x="580" unicode=")" /><glyph d="M151 529Q174 558 207 576Q240 594 282 594Q329 594 366 572Q403 550 428.5 511Q454 472 468 417.5Q482 363 482 298Q482 249 470.5 194.5Q459 140 433 93.5Q407 47 365.5 16.5Q324 -14 264 -14Q224 -14 193 -1Q162 12 141 35Q120 58 109 90Q98 122 98 159Q98 194 109.5 228.5Q121 263 144.5 291Q168 319 204 336Q240 353 289 353Q318 353 341.5 346Q365 339 383 328Q401 317 414 304Q427 291 434 278Q436 329 428 378Q420 427 401 466Q382 505 352 528.5Q322 552 279 552Q241 552 219.5 535.5Q198 519 184 502ZM287 312Q250 312 223.5 299Q197 286 179.5 264.5Q162 243 153.5 216Q145 189 145 162Q145 101 177 64Q209 27 264 27Q305 27 334.5 47.5Q364 68 384 97.5Q404 127 414.5 160Q425 193 428 218Q421 237 406.5 254Q392 271 372.5 284Q353 297 331 304.5Q309 312 287 312Z" glyph-name="partialdiff" horiz-adv-x="580" unicode="&#8706;" /><glyph d="M79 -16 50 7 500 596 529 573ZM30 475Q30 500 39.5 522Q49 544 65 560Q81 576 102.5 585Q124 594 148 594Q173 594 194.5 585Q216 576 232 560Q248 544 257.5 522Q267 500 267 475Q267 450 257.5 428Q248 406 232 390Q216 374 194.5 365Q173 356 148 356Q124 356 102.5 365Q81 374 65 390Q49 406 39.5 428Q30 450 30 475ZM73 475Q73 442 94.5 419Q116 396 148 396Q180 396 202 419Q224 442 224 475Q224 508 202 531Q180 554 148 554Q116 554 94.5 531Q73 508 73 475ZM313 105Q313 130 322.5 152Q332 174 348 190Q364 206 385.5 215Q407 224 431 224Q456 224 477.5 215Q499 206 515 190Q531 174 540.5 152Q550 130 550 105Q550 80 540.5 58Q531 36 515 20Q499 4 477.5 -5Q456 -14 431 -14Q407 -14 385.5 -5Q364 4 348 20Q332 36 322.5 58Q313 80 313 105ZM356 105Q356 72 377.5 49Q399 26 431 26Q463 26 485 49Q507 72 507 105Q507 138 485 161Q463 184 431 184Q399 184 377.5 161Q356 138 356 105Z" glyph-name="percent" horiz-adv-x="580" unicode="%" /><glyph d="M223 53Q223 82 242 101Q261 120 290 120Q319 120 338 101Q357 82 357 53Q357 24 338 5.5Q319 -13 290 -13Q261 -13 242 5.5Q223 24 223 53Z" glyph-name="period" horiz-adv-x="580" unicode="." /><glyph d="M223 290Q223 319 242 338Q261 357 290 357Q319 357 338 338Q357 319 357 290Q357 261 338 242.5Q319 224 290 224Q261 224 242 242.5Q223 261 223 290Z" glyph-name="periodcentered" horiz-adv-x="580" unicode="&#183;" /><glyph d="M29 -16 0 2 364 596 392 578ZM36 496Q36 517 43.5 534.5Q51 552 64.5 565.5Q78 579 95.5 586.5Q113 594 132 594Q152 594 169.5 586.5Q187 579 200 565.5Q213 552 221 534.5Q229 517 229 496Q229 475 221 457.5Q213 440 200 426.5Q187 413 169.5 405.5Q152 398 132 398Q113 398 95.5 405.5Q78 413 64.5 426.5Q51 440 43.5 457.5Q36 475 36 496ZM76 496Q76 470 92 452.5Q108 435 132 435Q155 435 172 452.5Q189 470 189 496Q189 522 172 539.5Q155 557 132 557Q108 557 92 539.5Q76 522 76 496ZM356 84Q356 63 348.5 45.5Q341 28 327.5 14.5Q314 1 297 -6.5Q280 -14 260 -14Q241 -14 223 -6.5Q205 1 192 14.5Q179 28 171 45.5Q163 63 163 84Q163 105 171 122.5Q179 140 192 153.5Q205 167 223 174.5Q241 182 260 182Q280 182 297 174.5Q314 167 327.5 153.5Q341 140 348.5 122.5Q356 105 356 84ZM316 84Q316 110 300 127.5Q284 145 260 145Q237 145 220 127.5Q203 110 203 84Q203 58 220 40.5Q237 23 260 23Q284 23 300 40.5Q316 58 316 84ZM574 84Q574 63 566.5 45.5Q559 28 545.5 14.5Q532 1 515 -6.5Q498 -14 478 -14Q459 -14 441 -6.5Q423 1 410 14.5Q397 28 389 45.5Q381 63 381 84Q381 105 389 122.5Q397 140 410 153.5Q423 167 441 174.5Q459 182 478 182Q498 182 515 174.5Q532 167 545.5 153.5Q559 140 566.5 122.5Q574 105 574 84ZM534 84Q534 110 518 127.5Q502 145 478 145Q455 145 438 127.5Q421 110 421 84Q421 58 438 40.5Q455 23 478 23Q502 23 518 40.5Q534 58 534 84Z" glyph-name="perthousand" horiz-adv-x="580" unicode="&#8240;" /><glyph d="M498 0H375V380H204V40H264V0H101V40H161V380H81V420H498V380H418V40H498Z" glyph-name="pi" horiz-adv-x="580" unicode="&#960;" /><glyph d="M309 486V295H501V255H309V63H269V255H78V295H269V486Z" glyph-name="plus" horiz-adv-x="580" unicode="+" /><glyph d="M309 519V358H501V318H309V156H269V318H78V358H269V519ZM501 90V50H78V90Z" glyph-name="plusminus" horiz-adv-x="580" unicode="&#177;" /><glyph d="M422 540H158V40H216V0H55V40H113V540H33V580H547V540H467V40H525V0H364V40H422Z" glyph-name="product" horiz-adv-x="580" unicode="&#8719;" /><glyph d="M471 380V-148H541V-188H309V-148H428V82Q408 41 363 13.5Q318 -14 259 -14Q215 -14 177 3Q139 20 111.5 50Q84 80 68 121Q52 162 52 210Q52 258 68 299Q84 340 111.5 370Q139 400 177 417Q215 434 259 434Q318 434 363 406.5Q408 379 428 338V420H541V380ZM98 210Q98 171 110 138Q122 105 143 80Q164 55 193.5 41Q223 27 259 27Q295 27 326 40Q357 53 379.5 76Q402 99 415 130Q428 161 428 196V224Q428 259 415 290Q402 321 379.5 344Q357 367 326 380Q295 393 259 393Q223 393 193.5 379Q164 365 143 340Q122 315 110 282Q98 249 98 210Z" glyph-name="q" horiz-adv-x="580" unicode="q" /><glyph d="M288 597Q330 597 364 584Q398 571 422 548.5Q446 526 459 497Q472 468 472 435Q472 398 457.5 368.5Q443 339 420 316.5Q397 294 367 278Q337 262 307 251V171H259V280Q292 289 321.5 303Q351 317 374 336.5Q397 356 410.5 380.5Q424 405 424 435Q424 457 415.5 478.5Q407 500 390.5 517Q374 534 348.5 544.5Q323 555 288 555Q256 555 231.5 545.5Q207 536 188.5 521.5Q170 507 156.5 488.5Q143 470 134 452L94 472Q106 495 123 517.5Q140 540 164 557.5Q188 575 219 586Q250 597 288 597ZM285 -13Q260 -13 244 3Q228 19 228 44Q228 69 244 85Q260 101 285 101Q310 101 326 85Q342 69 342 44Q342 19 326 3Q310 -13 285 -13Z" glyph-name="question" horiz-adv-x="580" unicode="?" /><glyph d="M292 -141Q250 -141 216 -128Q182 -115 158 -92.5Q134 -70 121 -41Q108 -12 108 21Q108 59 122.5 88.5Q137 118 160 140.5Q183 163 213 179Q243 195 273 205V285H321V176Q288 167 258.5 153Q229 139 206 119.5Q183 100 169.5 75.5Q156 51 156 21Q156 -1 164.5 -22.5Q173 -44 189.5 -61Q206 -78 232 -88.5Q258 -99 292 -99Q324 -99 348.5 -89.5Q373 -80 391.5 -65.5Q410 -51 423.5 -32.5Q437 -14 446 4L486 -16Q474 -39 457 -61.5Q440 -84 416 -101.5Q392 -119 361 -130Q330 -141 292 -141ZM295 469Q320 469 336 453Q352 437 352 412Q352 387 336 371Q320 355 295 355Q270 355 254 371Q238 387 238 412Q238 437 254 453Q270 469 295 469Z" glyph-name="questiondown" horiz-adv-x="580" unicode="&#191;" /><glyph d="M428 616 406 378H361L338 616ZM242 616 219 378H175L152 616Z" glyph-name="quotedbl" horiz-adv-x="580" unicode="&quot;" /><glyph d="M281 91 174 -126H120L188 91ZM461 91 354 -126H300L368 91Z" glyph-name="quotedblbase" horiz-adv-x="580" unicode="&#8222;" /><glyph d="M392 616 461 399H406L299 616ZM212 616 281 399H226L119 616Z" glyph-name="quotedblleft" horiz-adv-x="580" unicode="&#8220;" /><glyph d="M280 616 173 399H119L187 616ZM460 616 353 399H299L367 616Z" glyph-name="quotedblright" horiz-adv-x="580" unicode="&#8221;" /><glyph d="M302 616 371 399H316L209 616Z" glyph-name="quoteleft" horiz-adv-x="580" unicode="&#8216;" /><glyph d="M370 616 263 399H209L277 616Z" glyph-name="quoteright" horiz-adv-x="579" unicode="&#8217;" /><glyph d="M370 91 263 -126H209L277 91Z" glyph-name="quotesinglbase" horiz-adv-x="579" unicode="&#8218;" /><glyph d="M335 616 312 378H268L245 616Z" glyph-name="quotesingle" horiz-adv-x="580" unicode="&apos;" /><glyph d="M482 345Q464 395 407 395Q374 395 343 380Q312 365 287.5 342Q263 319 248.5 290Q234 261 234 234V40H413V0H70V40H191V380H92V420H234V336Q243 353 260 370.5Q277 388 299.5 402Q322 416 349.5 425Q377 434 407 434Q447 434 478 416Q509 398 521 360Z" glyph-name="r" horiz-adv-x="580" unicode="r" /><glyph d="M482 345Q464 395 407 395Q374 395 343 380Q312 365 287.5 342Q263 319 248.5 290Q234 261 234 234V40H413V0H70V40H191V380H92V420H234V336Q243 353 260 370.5Q277 388 299.5 402Q322 416 349.5 425Q377 434 407 434Q447 434 478 416Q509 398 521 360ZM423 615 266 494 241 522 382 662Z" glyph-name="racute" horiz-adv-x="580" unicode="&#341;" /><glyph d="M201 0 121 351H53V391H156L231 55L495 630H539L250 0Z" glyph-name="radical" horiz-adv-x="580" unicode="&#8730;" /><glyph d="M482 345Q464 395 407 395Q374 395 343 380Q312 365 287.5 342Q263 319 248.5 290Q234 261 234 234V40H413V0H70V40H191V380H92V420H234V336Q243 353 260 370.5Q277 388 299.5 402Q322 416 349.5 425Q377 434 407 434Q447 434 478 416Q509 398 521 360ZM195 617 224 647 313 556 402 647 431 617 313 497Z" glyph-name="rcaron" horiz-adv-x="580" unicode="&#345;" /><glyph d="M482 345Q464 395 407 395Q374 395 343 380Q312 365 287.5 342Q263 319 248.5 290Q234 261 234 234V40H413V0H70V40H191V380H92V420H234V336Q243 353 260 370.5Q277 388 299.5 402Q322 416 349.5 425Q377 434 407 434Q447 434 478 416Q509 398 521 360ZM256 -62 200 -216H154L186 -62Z" glyph-name="rcommaaccent" horiz-adv-x="580" unicode="&#343;" /><glyph d="M290 -3Q233 -3 182.5 18.5Q132 40 94.5 79Q57 118 35 172Q13 226 13 290Q13 354 35 407.5Q57 461 94.5 500Q132 539 182.5 560.5Q233 582 290 582Q347 582 397.5 560.5Q448 539 485.5 500Q523 461 545 407.5Q567 354 567 290Q567 226 545 172Q523 118 485.5 79Q448 40 397.5 18.5Q347 -3 290 -3ZM290 37Q338 37 380.5 55.5Q423 74 454.5 108Q486 142 504.5 188.5Q523 235 523 290Q523 345 504.5 391.5Q486 438 454.5 471.5Q423 505 380.5 523.5Q338 542 290 542Q242 542 199.5 523.5Q157 505 125.5 471.5Q94 438 75.5 391.5Q57 345 57 290Q57 235 75.5 188.5Q94 142 125.5 108Q157 74 199.5 55.5Q242 37 290 37ZM290 268H235V178H278V142H162V178H196V400H162V436H297Q342 436 372 414.5Q402 393 402 350Q402 318 382.5 299Q363 280 331 272L388 178H431V142H365ZM235 304H290Q326 304 344 316.5Q362 329 362 351Q362 375 343.5 387.5Q325 400 290 400H235Z" glyph-name="registered" horiz-adv-x="580" unicode="&#174;" /><glyph d="M385 581Q385 541 357.5 513Q330 485 290 485Q250 485 222.5 513Q195 541 195 581Q195 622 222.5 649.5Q250 677 290 677Q330 677 357.5 649.5Q385 622 385 581ZM344 581Q344 604 329 621Q314 638 290 638Q266 638 251 621Q236 604 236 581Q236 558 251 541Q266 524 290 524Q314 524 329 541Q344 558 344 581Z" glyph-name="ring" horiz-adv-x="580" unicode="&#730;" /><glyph d="M446 108Q446 129 434 143Q422 157 402.5 166Q383 175 357.5 180.5Q332 186 304 191Q270 197 235 204Q200 211 172.5 224.5Q145 238 127.5 260Q110 282 110 317Q110 348 123.5 370Q137 392 159.5 406.5Q182 421 210.5 427.5Q239 434 269 434Q325 434 364 416Q403 398 423 370V420H463V280H427Q426 306 412.5 327Q399 348 378 363Q357 378 329.5 386Q302 394 271 394Q251 394 230 390Q209 386 192.5 377Q176 368 165.5 354Q155 340 155 319Q155 296 168.5 281Q182 266 203.5 257Q225 248 253 242.5Q281 237 311 232Q343 227 375.5 219.5Q408 212 433.5 198.5Q459 185 475 163.5Q491 142 491 109Q491 81 478 58Q465 35 442 19Q419 3 387 -5.5Q355 -14 317 -14Q254 -14 211.5 4.5Q169 23 145 54V0H105V146H141Q143 117 157.5 94.5Q172 72 196 57Q220 42 251 34Q282 26 316 26Q370 26 408 47Q446 68 446 108Z" glyph-name="s" horiz-adv-x="580" unicode="s" /><glyph d="M446 108Q446 129 434 143Q422 157 402.5 166Q383 175 357.5 180.5Q332 186 304 191Q270 197 235 204Q200 211 172.5 224.5Q145 238 127.5 260Q110 282 110 317Q110 348 123.5 370Q137 392 159.5 406.5Q182 421 210.5 427.5Q239 434 269 434Q325 434 364 416Q403 398 423 370V420H463V280H427Q426 306 412.5 327Q399 348 378 363Q357 378 329.5 386Q302 394 271 394Q251 394 230 390Q209 386 192.5 377Q176 368 165.5 354Q155 340 155 319Q155 296 168.5 281Q182 266 203.5 257Q225 248 253 242.5Q281 237 311 232Q343 227 375.5 219.5Q408 212 433.5 198.5Q459 185 475 163.5Q491 142 491 109Q491 81 478 58Q465 35 442 19Q419 3 387 -5.5Q355 -14 317 -14Q254 -14 211.5 4.5Q169 23 145 54V0H105V146H141Q143 117 157.5 94.5Q172 72 196 57Q220 42 251 34Q282 26 316 26Q370 26 408 47Q446 68 446 108ZM384 615 227 494 202 522 343 662Z" glyph-name="sacute" horiz-adv-x="580" unicode="&#347;" /><glyph d="M446 108Q446 129 434 143Q422 157 402.5 166Q383 175 357.5 180.5Q332 186 304 191Q270 197 235 204Q200 211 172.5 224.5Q145 238 127.5 260Q110 282 110 317Q110 348 123.5 370Q137 392 159.5 406.5Q182 421 210.5 427.5Q239 434 269 434Q325 434 364 416Q403 398 423 370V420H463V280H427Q426 306 412.5 327Q399 348 378 363Q357 378 329.5 386Q302 394 271 394Q251 394 230 390Q209 386 192.5 377Q176 368 165.5 354Q155 340 155 319Q155 296 168.5 281Q182 266 203.5 257Q225 248 253 242.5Q281 237 311 232Q343 227 375.5 219.5Q408 212 433.5 198.5Q459 185 475 163.5Q491 142 491 109Q491 81 478 58Q465 35 442 19Q419 3 387 -5.5Q355 -14 317 -14Q254 -14 211.5 4.5Q169 23 145 54V0H105V146H141Q143 117 157.5 94.5Q172 72 196 57Q220 42 251 34Q282 26 316 26Q370 26 408 47Q446 68 446 108ZM172 617 201 647 290 556 379 647 408 617 290 497Z" glyph-name="scaron" horiz-adv-x="580" unicode="&#353;" /><glyph d="M232 -146Q247 -165 261.5 -176Q276 -187 300 -187Q326 -187 340.5 -175Q355 -163 355 -139Q355 -119 340.5 -106Q326 -93 306 -93Q290 -93 276 -100L248 -80L278 -12Q231 -7 198 10.5Q165 28 145 54V0H105V146H141Q143 117 157.5 94.5Q172 72 196 57Q220 42 251 34Q282 26 316 26Q370 26 408 47Q446 68 446 108Q446 129 434 143Q422 157 402.5 166Q383 175 357.5 180.5Q332 186 304 191Q270 197 235 204Q200 211 172.5 224.5Q145 238 127.5 260Q110 282 110 317Q110 348 123.5 370Q137 392 159.5 406.5Q182 421 210.5 427.5Q239 434 269 434Q325 434 364 416Q403 398 423 370V420H463V280H427Q426 306 412.5 327Q399 348 378 363Q357 378 329.5 386Q302 394 271 394Q251 394 230 390Q209 386 192.5 377Q176 368 165.5 354Q155 340 155 319Q155 296 168.5 281Q182 266 203.5 257Q225 248 253 242.5Q281 237 311 232Q343 227 375.5 219.5Q408 212 433.5 198.5Q459 185 475 163.5Q491 142 491 109Q491 81 478 58Q465 35 442 19Q419 3 387 -5.5Q355 -14 317 -14H312L292 -62Q301 -59 313 -59Q346 -59 370.5 -82Q395 -105 395 -138Q395 -179 366.5 -201Q338 -223 300 -223Q265 -223 239.5 -206.5Q214 -190 202 -168Z" glyph-name="scedilla" horiz-adv-x="580" unicode="&#351;" /><glyph d="M290 647 408 527 379 497 290 588 201 497 172 527ZM446 108Q446 129 434 143Q422 157 402.5 166Q383 175 357.5 180.5Q332 186 304 191Q270 197 235 204Q200 211 172.5 224.5Q145 238 127.5 260Q110 282 110 317Q110 348 123.5 370Q137 392 159.5 406.5Q182 421 210.5 427.5Q239 434 269 434Q325 434 364 416Q403 398 423 370V420H463V280H427Q426 306 412.5 327Q399 348 378 363Q357 378 329.5 386Q302 394 271 394Q251 394 230 390Q209 386 192.5 377Q176 368 165.5 354Q155 340 155 319Q155 296 168.5 281Q182 266 203.5 257Q225 248 253 242.5Q281 237 311 232Q343 227 375.5 219.5Q408 212 433.5 198.5Q459 185 475 163.5Q491 142 491 109Q491 81 478 58Q465 35 442 19Q419 3 387 -5.5Q355 -14 317 -14Q254 -14 211.5 4.5Q169 23 145 54V0H105V146H141Q143 117 157.5 94.5Q172 72 196 57Q220 42 251 34Q282 26 316 26Q370 26 408 47Q446 68 446 108Z" glyph-name="scircumflex" horiz-adv-x="580" unicode="&#349;" /><glyph d="M446 108Q446 129 434 143Q422 157 402.5 166Q383 175 357.5 180.5Q332 186 304 191Q270 197 235 204Q200 211 172.5 224.5Q145 238 127.5 260Q110 282 110 317Q110 348 123.5 370Q137 392 159.5 406.5Q182 421 210.5 427.5Q239 434 269 434Q325 434 364 416Q403 398 423 370V420H463V280H427Q426 306 412.5 327Q399 348 378 363Q357 378 329.5 386Q302 394 271 394Q251 394 230 390Q209 386 192.5 377Q176 368 165.5 354Q155 340 155 319Q155 296 168.5 281Q182 266 203.5 257Q225 248 253 242.5Q281 237 311 232Q343 227 375.5 219.5Q408 212 433.5 198.5Q459 185 475 163.5Q491 142 491 109Q491 81 478 58Q465 35 442 19Q419 3 387 -5.5Q355 -14 317 -14Q254 -14 211.5 4.5Q169 23 145 54V0H105V146H141Q143 117 157.5 94.5Q172 72 196 57Q220 42 251 34Q282 26 316 26Q370 26 408 47Q446 68 446 108ZM343 -62 287 -216H241L273 -62Z" glyph-name="scommaaccent" horiz-adv-x="580" unicode="&#537;" /><glyph d="M489 148Q489 112 469.5 89Q450 66 418 52Q430 36 437 17Q444 -2 444 -28Q444 -64 430.5 -89.5Q417 -115 396 -131Q375 -147 348 -154.5Q321 -162 294 -162Q228 -162 182 -124Q136 -86 122 -26L163 -13Q179 -64 211 -93Q243 -122 293 -122Q313 -122 332 -117Q351 -112 366 -100.5Q381 -89 390 -71.5Q399 -54 399 -29Q399 -8 392.5 7Q386 22 375.5 33.5Q365 45 351.5 53.5Q338 62 325 70L183 160Q135 191 113 220Q91 249 91 284Q91 319 110 342.5Q129 366 161 380Q150 395 143 414.5Q136 434 136 460Q136 496 149.5 521.5Q163 547 184 563Q205 579 232 586.5Q259 594 286 594Q352 594 398 556Q444 518 458 458L417 445Q401 496 369 525Q337 554 287 554Q267 554 248 549Q229 544 214 532.5Q199 521 190 503.5Q181 486 181 461Q181 440 187.5 425Q194 410 204.5 399Q215 388 228.5 379Q242 370 255 362L397 272Q445 241 467 212Q489 183 489 148ZM237 319Q213 333 192 349Q169 341 152.5 324.5Q136 308 136 285Q136 243 201 202L343 113Q354 105 365.5 97.5Q377 90 388 82Q411 91 427.5 107.5Q444 124 444 147Q444 189 379 230Z" glyph-name="section" horiz-adv-x="580" unicode="&#167;" /><glyph d="M236 351Q236 380 255 399Q274 418 303 418Q332 418 351 399Q370 380 370 351Q370 322 351 303.5Q332 285 303 285Q274 285 255 303.5Q236 322 236 351ZM358 91 259 -170H202L251 91Z" glyph-name="semicolon" horiz-adv-x="580" unicode=";" /><glyph d="M230 0 443 540H142V444H98V580H487V534L278 0Z" glyph-name="seven" horiz-adv-x="580" unicode="7" /><glyph d="M410 134V96L295 -188H254L372 99H218V54H181V134Z" glyph-name="seven.inf" horiz-adv-x="580" unicode="&#58744;" /><glyph d="M163 169Q164 141 174.5 115Q185 89 204 69.5Q223 50 249.5 38.5Q276 27 308 27Q340 27 366 38Q392 49 410.5 68.5Q429 88 439 114Q449 140 449 169Q449 231 411 271Q373 311 310 311Q278 311 252 300Q226 289 207 270Q188 251 177 225Q166 199 163 169ZM444 503Q427 523 401.5 537.5Q376 552 335 552Q295 552 260 533.5Q225 515 200 479.5Q175 444 160.5 392.5Q146 341 146 276Q146 273 146 267.5Q146 262 147 257Q147 250 147 243Q154 264 168.5 283.5Q183 303 204.5 318.5Q226 334 253 343Q280 352 313 352Q353 352 386.5 339Q420 326 444.5 302Q469 278 482.5 244.5Q496 211 496 170Q496 133 483.5 100Q471 67 447 41.5Q423 16 388 1Q353 -14 308 -14Q249 -14 209.5 10.5Q170 35 146 75Q122 115 112 166Q102 217 102 270Q102 352 120.5 413Q139 474 171 514Q203 554 245 574Q287 594 335 594Q381 594 415.5 577.5Q450 561 475 533Z" glyph-name="six" horiz-adv-x="580" unicode="6" /><glyph d="M375 81Q367 91 352.5 98.5Q338 106 318 106Q296 106 277.5 95.5Q259 85 245.5 66Q232 47 224.5 22Q217 -3 217 -33V-44Q223 -24 247 -6Q271 12 306 12Q354 12 385 -16.5Q416 -45 416 -91Q416 -133 386.5 -164.5Q357 -196 304 -196Q270 -196 246 -182Q222 -168 207 -145.5Q192 -123 185.5 -94Q179 -65 179 -34Q179 6 190 38.5Q201 71 220 94Q239 117 264.5 129.5Q290 142 318 142Q344 142 366.5 132Q389 122 403 105ZM304 -23Q272 -23 251.5 -42.5Q231 -62 231 -92Q231 -121 251 -140.5Q271 -160 304 -160Q336 -160 356 -140.5Q376 -121 376 -92Q376 -63 356 -43Q336 -23 304 -23Z" glyph-name="six.inf" horiz-adv-x="580" unicode="&#58743;" /><glyph d="M120 -116 81 -97 460 676 499 656Z" glyph-name="slash" horiz-adv-x="580" unicode="/" /><glyph glyph-name="space" horiz-adv-x="580" unicode=" " /><glyph d="M458 40V130H500V0H73V40H129Q142 57 150.5 82Q159 107 159 145V293H73V333H159V405Q159 449 172.5 484Q186 519 209.5 543.5Q233 568 265 581Q297 594 334 594Q394 594 437.5 566.5Q481 539 498 499L462 477Q444 511 411.5 532Q379 553 334 553Q307 553 283 542.5Q259 532 241 512.5Q223 493 212.5 464.5Q202 436 202 400V333H374V293H202V145Q202 108 195 81.5Q188 55 176 40Z" glyph-name="sterling" horiz-adv-x="580" unicode="&#163;" /><glyph d="M95 580H475V439H433V540H143L319 290L143 40H443V141H485V0H95V46L267 290L95 534Z" glyph-name="summation" horiz-adv-x="580" unicode="&#8721;" /><glyph d="M220 161Q220 127 230.5 101.5Q241 76 259 59Q277 42 300.5 34Q324 26 350 26Q374 26 395.5 32Q417 38 434.5 47.5Q452 57 465.5 68.5Q479 80 489 90L518 61Q507 50 491 37Q475 24 454 12.5Q433 1 407 -6.5Q381 -14 350 -14Q274 -14 225.5 29.5Q177 73 177 155V380H56V420H177V580H220V420H457V380H220Z" glyph-name="t" horiz-adv-x="580" unicode="t" /><glyph d="M177 281V380H56V420H177V580H220V420H457V380H220V281H457V241H220V161Q220 127 230.5 101.5Q241 76 259 59Q277 42 300.5 34Q324 26 350 26Q374 26 395.5 32Q417 38 434.5 47.5Q452 57 465.5 68.5Q479 80 489 90L518 61Q507 50 491 37Q475 24 454 12.5Q433 1 407 -6.5Q381 -14 350 -14Q274 -14 225.5 29.5Q177 73 177 155V241H56V281Z" glyph-name="tbar" horiz-adv-x="580" unicode="&#359;" /><glyph d="M220 161Q220 127 230.5 101.5Q241 76 259 59Q277 42 300.5 34Q324 26 350 26Q374 26 395.5 32Q417 38 434.5 47.5Q452 57 465.5 68.5Q479 80 489 90L518 61Q507 50 491 37Q475 24 454 12.5Q433 1 407 -6.5Q381 -14 350 -14Q274 -14 225.5 29.5Q177 73 177 155V380H56V420H177V580H220V420H457V380H220ZM448 647 363 485 329 499 391 671Z" glyph-name="tcaron" horiz-adv-x="580" unicode="&#357;" /><glyph d="M220 161Q220 127 230.5 101.5Q241 76 259 59Q277 42 300.5 34Q324 26 350 26Q374 26 395.5 32Q417 38 434.5 47.5Q452 57 465.5 68.5Q479 80 489 90L518 61Q507 50 491 37Q475 24 454 12.5Q433 1 407 -6.5Q381 -14 350 -14Q274 -14 225.5 29.5Q177 73 177 155V380H56V420H177V580H220V420H457V380H220ZM361 -62 305 -216H259L291 -62Z" glyph-name="tcommaaccent" horiz-adv-x="580" unicode="&#355;" /><glyph d="M39 576V616H152V338Q172 379 217 406.5Q262 434 321 434Q365 434 403 417Q441 400 469 370Q497 340 512.5 299Q528 258 528 210Q528 162 512.5 121Q497 80 469 50Q441 20 403 3Q365 -14 321 -14Q262 -14 217 13.5Q172 41 152 82V-148H271V-188H39V-148H109V576ZM482 210Q482 249 470 282Q458 315 437 340Q416 365 386.5 379Q357 393 321 393Q285 393 254 380Q223 367 200.5 344Q178 321 165 290Q152 259 152 224V196Q152 161 165 130Q178 99 200.5 76Q223 53 254 40Q285 27 321 27Q357 27 386.5 41Q416 55 437 80Q458 105 470 138Q482 171 482 210Z" glyph-name="thorn" horiz-adv-x="580" unicode="&#254;" /><glyph d="M186 336 392 540H117V580H440V530L247 340L248 339Q253 341 263 344.5Q273 348 292 348Q326 348 358 336Q390 324 415 301.5Q440 279 455 246.5Q470 214 470 172Q470 136 456.5 102.5Q443 69 418 43Q393 17 357 1.5Q321 -14 276 -14Q218 -14 169.5 11.5Q121 37 90 82L125 109Q151 71 189.5 49.5Q228 28 275 28Q314 28 342 42Q370 56 388 77Q406 98 414 123Q422 148 422 171Q422 198 413 223Q404 248 386.5 266.5Q369 285 344.5 296Q320 307 290 307Q264 307 246 303.5Q228 300 215 295Z" glyph-name="three" horiz-adv-x="580" unicode="3" /><glyph d="M232 -1 341 99H192V134H384V94L281 2L282 1Q287 3 291 3.5Q295 4 303 4Q323 4 341 -3.5Q359 -11 372.5 -23.5Q386 -36 394 -53.5Q402 -71 402 -91Q402 -112 394 -131Q386 -150 371 -164.5Q356 -179 335 -187.5Q314 -196 287 -196Q252 -196 223.5 -181.5Q195 -167 177 -142L206 -118Q220 -137 241 -148.5Q262 -160 288 -160Q325 -160 343.5 -138Q362 -116 362 -91Q362 -65 342.5 -45.5Q323 -26 292 -26Q283 -26 273.5 -27.5Q264 -29 256 -34Z" glyph-name="three.inf" horiz-adv-x="580" unicode="&#58740;" /><glyph d="M62 -22 32 3 518 602 548 576ZM446 274H491V106H525V74H491V32H525V0H410V32H457V74H323V110ZM457 106V237L359 106ZM91 508 183 590H58V622H221V585L135 511L136 510Q144 512 152 512Q185 512 210.5 489Q236 466 236 431Q236 396 210 369Q184 342 138 342Q109 342 84 354.5Q59 367 44 388L71 408Q83 393 100 383.5Q117 374 139 374Q169 374 184.5 392Q200 410 200 431Q200 453 183.5 469Q167 485 143 485Q135 485 126.5 484Q118 483 111 478Z" glyph-name="threequarters" horiz-adv-x="580" unicode="&#190;" /><glyph d="M232 487 341 587H192V622H384V582L281 490L282 489Q287 491 291 491.5Q295 492 303 492Q323 492 341 485Q359 478 372.5 465Q386 452 394 434.5Q402 417 402 397Q402 376 394 357Q386 338 371 323.5Q356 309 335 300.5Q314 292 287 292Q252 292 223.5 306.5Q195 321 177 346L206 370Q220 351 241 339.5Q262 328 288 328Q325 328 343.5 350Q362 372 362 397Q362 423 342.5 442.5Q323 462 292 462Q283 462 273.5 460.5Q264 459 256 454Z" glyph-name="threesuperior" horiz-adv-x="580" unicode="&#179;" /><glyph d="M430 569Q429 558 423 545.5Q417 533 406.5 522.5Q396 512 381 505Q366 498 348 498Q327 498 311.5 505.5Q296 513 283.5 522.5Q271 532 259 539.5Q247 547 233 547Q212 547 201.5 533.5Q191 520 188 505L150 516Q151 527 157 539.5Q163 552 173.5 562.5Q184 573 199 580Q214 587 232 587Q253 587 268.5 579.5Q284 572 296.5 562.5Q309 553 321 545.5Q333 538 347 538Q368 538 378.5 551.5Q389 565 392 580Z" glyph-name="tilde" horiz-adv-x="580" unicode="&#732;" /><glyph d="M262 490H228V548H163V333H223V300H66V333H127V548H62V490H28V580H262ZM356 580 421 427 486 580H552V548H529V333H552V300H457V333H495V523L437 389H405L347 523V333H385V300H290V333H314V548H290V580Z" glyph-name="trademark" horiz-adv-x="580" unicode="&#8482;" /><glyph d="M99 446Q127 513 174.5 553.5Q222 594 292 594Q333 594 366 579.5Q399 565 422 541.5Q445 518 457.5 487.5Q470 457 470 425Q470 371 436.5 325.5Q403 280 346 226L148 40H430V153H472V0H96V50L320 260Q364 302 393 341.5Q422 381 422 424Q422 445 414 467.5Q406 490 390 508.5Q374 527 349.5 539.5Q325 552 292 552Q235 552 199.5 516.5Q164 481 141 428Z" glyph-name="two" horiz-adv-x="580" unicode="2" /><glyph d="M177 -146 302 -38Q327 -16 343.5 6Q360 28 360 49Q360 68 344 87Q328 106 294 106Q262 106 243 87Q224 68 212 44L177 60Q194 97 223 119.5Q252 142 294 142Q318 142 338 134Q358 126 372 113.5Q386 101 393.5 84Q401 67 401 49Q401 20 381.5 -6.5Q362 -33 327 -64L224 -153H366V-100H402V-188H177Z" glyph-name="two.inf" horiz-adv-x="580" unicode="&#58739;" /><glyph d="M177 342 302 450Q327 472 343.5 494Q360 516 360 537Q360 556 344 575Q328 594 294 594Q262 594 243 575Q224 556 212 532L177 548Q194 585 223 607.5Q252 630 294 630Q318 630 338 622Q358 614 372 601.5Q386 589 393.5 572Q401 555 401 537Q401 508 381.5 481.5Q362 455 327 424L224 335H366V388H402V300H177Z" glyph-name="twosuperior" horiz-adv-x="580" unicode="&#178;" /><glyph d="M458 420V40H520V0H415V68Q392 30 350 8Q308 -14 257 -14Q192 -14 153 24.5Q114 63 114 138V380H42V420H157V149Q157 87 186 56.5Q215 26 263 26Q289 26 316 36Q343 46 365 64.5Q387 83 401 108.5Q415 134 415 165V380H335V420Z" glyph-name="u" horiz-adv-x="580" unicode="u" /><glyph d="M458 420V40H520V0H415V68Q392 30 350 8Q308 -14 257 -14Q192 -14 153 24.5Q114 63 114 138V380H42V420H157V149Q157 87 186 56.5Q215 26 263 26Q289 26 316 36Q343 46 365 64.5Q387 83 401 108.5Q415 134 415 165V380H335V420ZM387 615 230 494 205 522 346 662Z" glyph-name="uacute" horiz-adv-x="580" unicode="&#250;" /><glyph d="M458 420V40H520V0H415V68Q392 30 350 8Q308 -14 257 -14Q192 -14 153 24.5Q114 63 114 138V380H42V420H157V149Q157 87 186 56.5Q215 26 263 26Q289 26 316 36Q343 46 365 64.5Q387 83 401 108.5Q415 134 415 165V380H335V420ZM279 507Q228 507 195.5 538Q163 569 160 617L203 622Q206 592 226 569.5Q246 547 279 547Q312 547 332 569.5Q352 592 355 622L398 617Q395 569 362.5 538Q330 507 279 507Z" glyph-name="ubreve" horiz-adv-x="580" unicode="&#365;" /><glyph d="M458 420V40H520V0H415V68Q392 30 350 8Q308 -14 257 -14Q192 -14 153 24.5Q114 63 114 138V380H42V420H157V149Q157 87 186 56.5Q215 26 263 26Q289 26 316 36Q343 46 365 64.5Q387 83 401 108.5Q415 134 415 165V380H335V420ZM280 647 398 527 369 497 280 588 191 497 162 527Z" glyph-name="ucircumflex" horiz-adv-x="580" unicode="&#251;" /><glyph d="M458 420V40H520V0H415V68Q392 30 350 8Q308 -14 257 -14Q192 -14 153 24.5Q114 63 114 138V380H42V420H157V149Q157 87 186 56.5Q215 26 263 26Q289 26 316 36Q343 46 365 64.5Q387 83 401 108.5Q415 134 415 165V380H335V420ZM227 564Q227 543 213 529.5Q199 516 179 516Q159 516 145 529.5Q131 543 131 564Q131 585 145 598.5Q159 612 179 612Q199 612 213 598.5Q227 585 227 564ZM423 564Q423 543 409 529.5Q395 516 375 516Q355 516 341 529.5Q327 543 327 564Q327 585 341 598.5Q355 612 375 612Q395 612 409 598.5Q423 585 423 564Z" glyph-name="udieresis" horiz-adv-x="580" unicode="&#252;" /><glyph d="M458 420V40H520V0H415V68Q392 30 350 8Q308 -14 257 -14Q192 -14 153 24.5Q114 63 114 138V380H42V420H157V149Q157 87 186 56.5Q215 26 263 26Q289 26 316 36Q343 46 365 64.5Q387 83 401 108.5Q415 134 415 165V380H335V420ZM212 662 353 523 328 494 171 615Z" glyph-name="ugrave" horiz-adv-x="580" unicode="&#249;" /><glyph d="M458 420V40H520V0H415V68Q392 30 350 8Q308 -14 257 -14Q192 -14 153 24.5Q114 63 114 138V380H42V420H157V149Q157 87 186 56.5Q215 26 263 26Q289 26 316 36Q343 46 365 64.5Q387 83 401 108.5Q415 134 415 165V380H335V420ZM318 615 161 494 136 522 277 662ZM478 615 321 494 296 522 437 662Z" glyph-name="uhungarumlaut" horiz-adv-x="580" unicode="&#369;" /><glyph d="M458 420V40H520V0H415V68Q392 30 350 8Q308 -14 257 -14Q192 -14 153 24.5Q114 63 114 138V380H42V420H157V149Q157 87 186 56.5Q215 26 263 26Q289 26 316 36Q343 46 365 64.5Q387 83 401 108.5Q415 134 415 165V380H335V420ZM161 556H399V515H161Z" glyph-name="umacron" horiz-adv-x="580" unicode="&#363;" /><glyph d="M480 -76V-116H100V-76Z" glyph-name="underscore" horiz-adv-x="580" unicode="_" /><glyph d="M441 245H139V295H441Z" glyph-name="uni00AD" horiz-adv-x="580" unicode="&#173;" /><glyph d="M239 500 295 654H341L309 500Z" glyph-name="uni0312" horiz-adv-x="580" unicode="&#786;" /><glyph d="M277 -96V10H52V50H133V530H52V570H277V670H320V569Q397 564 441.5 529.5Q486 495 486 430Q486 379 460.5 346Q435 313 397 300Q453 288 487 251Q521 214 521 157Q521 84 468 48Q415 12 320 10V-96ZM475 157Q475 211 435 241Q395 271 320 276V50Q400 53 437.5 79.5Q475 106 475 157ZM176 50H277V277H176ZM176 317H277V530H176ZM440 429Q440 474 411 498.5Q382 523 320 528V318Q440 330 440 429Z" glyph-name="uni0E3F" horiz-adv-x="580" unicode="&#3647;" /><glyph d="M416 461Q416 385 381.5 338.5Q347 292 290 292Q233 292 198.5 338.5Q164 385 164 461Q164 537 198.5 583.5Q233 630 290 630Q347 630 381.5 583.5Q416 537 416 461ZM205 461Q205 425 214 395L352 557Q341 574 325.5 584Q310 594 290 594Q269 594 253 583.5Q237 573 226.5 555Q216 537 210.5 512.5Q205 488 205 461ZM375 461Q375 492 367 521L229 362Q240 346 255 337Q270 328 290 328Q311 328 327 338.5Q343 349 353.5 367Q364 385 369.5 409.5Q375 434 375 461Z" glyph-name="uni2070" horiz-adv-x="580" unicode="&#8304;" /><glyph d="M322 622H368V423H408V388H368V335H408V300H276V335H331V388H175V429ZM331 423V578L213 423Z" glyph-name="uni2074" horiz-adv-x="580" unicode="&#8308;" /><glyph d="M301 467Q269 467 249 447H206L214 622H392V587H249L244 482Q255 491 269.5 496.5Q284 502 304 502Q349 502 379.5 473Q410 444 410 399Q410 378 402 358.5Q394 339 379.5 324.5Q365 310 343.5 301Q322 292 295 292Q261 292 232.5 306Q204 320 186 345L215 369Q229 351 249.5 339.5Q270 328 295 328Q333 328 351 351Q369 374 369 400Q369 426 351 446.5Q333 467 301 467Z" glyph-name="uni2075" horiz-adv-x="580" unicode="&#8309;" /><glyph d="M375 569Q367 579 352.5 586.5Q338 594 318 594Q296 594 277.5 583.5Q259 573 245.5 554Q232 535 224.5 510Q217 485 217 455V444Q223 464 247 482Q271 500 306 500Q354 500 385 471.5Q416 443 416 397Q416 355 386.5 323.5Q357 292 304 292Q270 292 246 306Q222 320 207 342.5Q192 365 185.5 394Q179 423 179 454Q179 494 190 526.5Q201 559 220 582Q239 605 264.5 617.5Q290 630 318 630Q344 630 366.5 620Q389 610 403 593ZM304 465Q272 465 251.5 445.5Q231 426 231 396Q231 367 251 347.5Q271 328 304 328Q336 328 356 347.5Q376 367 376 396Q376 425 356 445Q336 465 304 465Z" glyph-name="uni2076" horiz-adv-x="580" unicode="&#8310;" /><glyph d="M410 622V584L295 300H254L372 587H218V542H181V622Z" glyph-name="uni2077" horiz-adv-x="580" unicode="&#8311;" /><glyph d="M290 630Q342 630 370 603.5Q398 577 398 541Q398 516 385 497Q372 478 346 467Q376 456 391.5 434.5Q407 413 407 387Q407 349 377 320.5Q347 292 290 292Q233 292 203 320.5Q173 349 173 387Q173 413 188.5 434.5Q204 456 234 467Q208 478 195 497Q182 516 182 541Q182 577 210 603.5Q238 630 290 630ZM367 388Q367 413 346.5 430.5Q326 448 290 448Q254 448 233.5 430.5Q213 413 213 388Q213 362 233.5 345Q254 328 290 328Q326 328 346.5 345Q367 362 367 388ZM290 595Q258 595 240 579Q222 563 222 540Q222 517 240 501Q258 485 290 485Q322 485 340 501Q358 517 358 540Q358 563 340 579Q322 595 290 595Z" glyph-name="uni2078" horiz-adv-x="580" unicode="&#8312;" /><glyph d="M205 353Q213 343 227.5 335.5Q242 328 262 328Q284 328 302.5 338.5Q321 349 334.5 368Q348 387 355.5 412Q363 437 363 467V478Q357 458 333 440Q309 422 274 422Q226 422 195 450.5Q164 479 164 525Q164 567 193.5 598.5Q223 630 276 630Q311 630 334.5 616Q358 602 373 579.5Q388 557 394.5 528Q401 499 401 468Q401 428 390 395.5Q379 363 360 340Q341 317 316 304.5Q291 292 262 292Q236 292 213.5 302Q191 312 177 329ZM276 457Q308 457 328.5 476.5Q349 496 349 526Q349 555 329 574.5Q309 594 276 594Q244 594 224 574.5Q204 555 204 526Q204 497 224 477Q244 457 276 457Z" glyph-name="uni2079" horiz-adv-x="580" unicode="&#8313;" /><glyph d="M416 161Q416 85 381.5 38.5Q347 -8 290 -8Q233 -8 198.5 38.5Q164 85 164 161Q164 237 198.5 283.5Q233 330 290 330Q347 330 381.5 283.5Q416 237 416 161ZM205 161Q205 125 214 95L352 257Q341 274 325.5 284Q310 294 290 294Q269 294 253 283.5Q237 273 226.5 255Q216 237 210.5 212.5Q205 188 205 161ZM375 161Q375 192 367 221L229 62Q240 46 255 37Q270 28 290 28Q311 28 327 38.5Q343 49 353.5 67Q364 85 369.5 109.5Q375 134 375 161Z" glyph-name="uni2080" horiz-adv-x="580" unicode="&#8320;" /><glyph d="M410 35V0H174V35H277V276L206 219L184 247L276 322H315V35Z" glyph-name="uni2081" horiz-adv-x="580" unicode="&#8321;" /><glyph d="M177 42 302 150Q327 172 343.5 194Q360 216 360 237Q360 256 344 275Q328 294 294 294Q262 294 243 275Q224 256 212 232L177 248Q194 285 223 307.5Q252 330 294 330Q318 330 338 322Q358 314 372 301.5Q386 289 393.5 272Q401 255 401 237Q401 208 381.5 181.5Q362 155 327 124L224 35H366V88H402V0H177Z" glyph-name="uni2082" horiz-adv-x="580" unicode="&#8322;" /><glyph d="M232 187 341 287H192V322H384V282L281 190L282 189Q287 191 291 191.5Q295 192 303 192Q323 192 341 185Q359 178 372.5 165Q386 152 394 134.5Q402 117 402 97Q402 76 394 57Q386 38 371 23.5Q356 9 335 0.5Q314 -8 287 -8Q252 -8 223.5 6.5Q195 21 177 46L206 70Q220 51 241 39.5Q262 28 288 28Q325 28 343.5 50Q362 72 362 97Q362 123 342.5 142.5Q323 162 292 162Q283 162 273.5 160.5Q264 159 256 154Z" glyph-name="uni2083" horiz-adv-x="580" unicode="&#8323;" /><glyph d="M322 322H368V123H408V88H368V35H408V0H276V35H331V88H175V129ZM331 123V278L213 123Z" glyph-name="uni2084" horiz-adv-x="580" unicode="&#8324;" /><glyph d="M301 167Q269 167 249 147H206L214 322H392V287H249L244 182Q255 191 269.5 196.5Q284 202 304 202Q349 202 379.5 173Q410 144 410 99Q410 78 402 58.5Q394 39 379.5 24.5Q365 10 343.5 1Q322 -8 295 -8Q261 -8 232.5 6Q204 20 186 45L215 69Q229 51 249.5 39.5Q270 28 295 28Q333 28 351 51Q369 74 369 100Q369 126 351 146.5Q333 167 301 167Z" glyph-name="uni2085" horiz-adv-x="580" unicode="&#8325;" /><glyph d="M375 269Q367 279 352.5 286.5Q338 294 318 294Q296 294 277.5 283.5Q259 273 245.5 254Q232 235 224.5 210Q217 185 217 155V144Q223 164 247 182Q271 200 306 200Q354 200 385 171.5Q416 143 416 97Q416 55 386.5 23.5Q357 -8 304 -8Q270 -8 246 6Q222 20 207 42.5Q192 65 185.5 94Q179 123 179 154Q179 194 190 226.5Q201 259 220 282Q239 305 264.5 317.5Q290 330 318 330Q344 330 366.5 320Q389 310 403 293ZM304 165Q272 165 251.5 145.5Q231 126 231 96Q231 67 251 47.5Q271 28 304 28Q336 28 356 47.5Q376 67 376 96Q376 125 356 145Q336 165 304 165Z" glyph-name="uni2086" horiz-adv-x="580" unicode="&#8326;" /><glyph d="M410 322V284L295 0H254L372 287H218V242H181V322Z" glyph-name="uni2087" horiz-adv-x="580" unicode="&#8327;" /><glyph d="M290 330Q342 330 370 303.5Q398 277 398 241Q398 216 385 197Q372 178 346 167Q376 156 391.5 134.5Q407 113 407 87Q407 49 377 20.5Q347 -8 290 -8Q233 -8 203 20.5Q173 49 173 87Q173 113 188.5 134.5Q204 156 234 167Q208 178 195 197Q182 216 182 241Q182 277 210 303.5Q238 330 290 330ZM367 88Q367 113 346.5 130.5Q326 148 290 148Q254 148 233.5 130.5Q213 113 213 88Q213 62 233.5 45Q254 28 290 28Q326 28 346.5 45Q367 62 367 88ZM290 295Q258 295 240 279Q222 263 222 240Q222 217 240 201Q258 185 290 185Q322 185 340 201Q358 217 358 240Q358 263 340 279Q322 295 290 295Z" glyph-name="uni2088" horiz-adv-x="580" unicode="&#8328;" /><glyph d="M205 53Q213 43 227.5 35.5Q242 28 262 28Q284 28 302.5 38.5Q321 49 334.5 68Q348 87 355.5 112Q363 137 363 167V178Q357 158 333 140Q309 122 274 122Q226 122 195 150.5Q164 179 164 225Q164 267 193.5 298.5Q223 330 276 330Q311 330 334.5 316Q358 302 373 279.5Q388 257 394.5 228Q401 199 401 168Q401 128 390 95.5Q379 63 360 40Q341 17 316 4.5Q291 -8 262 -8Q236 -8 213.5 2Q191 12 177 29ZM276 157Q308 157 328.5 176.5Q349 196 349 226Q349 255 329 274.5Q309 294 276 294Q244 294 224 274.5Q204 255 204 226Q204 197 224 177Q244 157 276 157Z" glyph-name="uni2089" horiz-adv-x="580" unicode="&#8329;" /><glyph d="M415 68Q392 30 350 8Q308 -14 257 -14Q192 -14 153 24.5Q114 63 114 138V380H42V420H157V149Q157 87 186 56.5Q215 26 263 26Q289 26 316 36Q343 46 365 64.5Q387 83 401 108.5Q415 134 415 165V380H335V420H458V40H520V0H485Q430 -31 400.5 -60.5Q371 -90 371 -119Q371 -137 382 -150Q393 -163 414 -163Q432 -163 451.5 -152.5Q471 -142 491 -122L515 -151Q492 -173 466.5 -187.5Q441 -202 410 -202Q371 -202 349 -179.5Q327 -157 327 -122Q327 -88 348.5 -58.5Q370 -29 415 0Z" glyph-name="uogonek" horiz-adv-x="580" unicode="&#371;" /><glyph d="M458 420V40H520V0H415V68Q392 30 350 8Q308 -14 257 -14Q192 -14 153 24.5Q114 63 114 138V380H42V420H157V149Q157 87 186 56.5Q215 26 263 26Q289 26 316 36Q343 46 365 64.5Q387 83 401 108.5Q415 134 415 165V380H335V420ZM375 581Q375 541 347.5 513Q320 485 280 485Q240 485 212.5 513Q185 541 185 581Q185 622 212.5 649.5Q240 677 280 677Q320 677 347.5 649.5Q375 622 375 581ZM334 581Q334 604 319 621Q304 638 280 638Q256 638 241 621Q226 604 226 581Q226 558 241 541Q256 524 280 524Q304 524 319 541Q334 558 334 581Z" glyph-name="uring" horiz-adv-x="580" unicode="&#367;" /><glyph d="M458 420V40H520V0H415V68Q392 30 350 8Q308 -14 257 -14Q192 -14 153 24.5Q114 63 114 138V380H42V420H157V149Q157 87 186 56.5Q215 26 263 26Q289 26 316 36Q343 46 365 64.5Q387 83 401 108.5Q415 134 415 165V380H335V420ZM420 569Q419 558 413 545.5Q407 533 396.5 522.5Q386 512 371 505Q356 498 338 498Q317 498 301.5 505.5Q286 513 273.5 522.5Q261 532 249 539.5Q237 547 223 547Q202 547 191.5 533.5Q181 520 178 505L140 516Q141 527 147 539.5Q153 552 163.5 562.5Q174 573 189 580Q204 587 222 587Q243 587 258.5 579.5Q274 572 286.5 562.5Q299 553 311 545.5Q323 538 337 538Q358 538 368.5 551.5Q379 565 382 580Z" glyph-name="utilde" horiz-adv-x="580" unicode="&#361;" /><glyph d="M264 0 89 380H30V420H222V380H137L290 42L445 380H358V420H550V380H491L316 0Z" glyph-name="v" horiz-adv-x="580" unicode="v" /><glyph d="M377 0 290 259 203 0H146L67 380H23V420H190V380H110L177 47L269 315H313L403 47L472 380H390V420H557V380H513L434 0Z" glyph-name="w" horiz-adv-x="580" unicode="w" /><glyph d="M377 0 290 259 203 0H146L67 380H23V420H190V380H110L177 47L269 315H313L403 47L472 380H390V420H557V380H513L434 0ZM402 615 245 494 220 522 361 662Z" glyph-name="wacute" horiz-adv-x="580" unicode="&#7811;" /><glyph d="M377 0 290 259 203 0H146L67 380H23V420H190V380H110L177 47L269 315H313L403 47L472 380H390V420H557V380H513L434 0ZM290 647 408 527 379 497 290 588 201 497 172 527Z" glyph-name="wcircumflex" horiz-adv-x="580" unicode="&#373;" /><glyph d="M377 0 290 259 203 0H146L67 380H23V420H190V380H110L177 47L269 315H313L403 47L472 380H390V420H557V380H513L434 0ZM240 564Q240 543 226 529.5Q212 516 192 516Q172 516 158 529.5Q144 543 144 564Q144 585 158 598.5Q172 612 192 612Q212 612 226 598.5Q240 585 240 564ZM436 564Q436 543 422 529.5Q408 516 388 516Q368 516 354 529.5Q340 543 340 564Q340 585 354 598.5Q368 612 388 612Q408 612 422 598.5Q436 585 436 564Z" glyph-name="wdieresis" horiz-adv-x="580" unicode="&#7813;" /><glyph d="M377 0 290 259 203 0H146L67 380H23V420H190V380H110L177 47L269 315H313L403 47L472 380H390V420H557V380H513L434 0ZM217 662 358 523 333 494 176 615Z" glyph-name="wgrave" horiz-adv-x="580" unicode="&#7809;" /><glyph d="M528 420V380H473L317 217L484 40H539V0H354V40H427L288 189L150 40H223V0H41V40H96L261 215L104 380H50V420H232V380H161L290 243L419 380H350V420Z" glyph-name="x" horiz-adv-x="580" unicode="x" /><glyph d="M87 -188V-149H205L269 -8L90 380H33V420H223V380H138L292 41L447 380H359V420H549V380H492L249 -149H329V-188Z" glyph-name="y" horiz-adv-x="580" unicode="y" /><glyph d="M87 -188V-149H205L269 -8L90 380H33V420H223V380H138L292 41L447 380H359V420H549V380H492L249 -149H329V-188ZM412 615 255 494 230 522 371 662Z" glyph-name="yacute" horiz-adv-x="580" unicode="&#253;" /><glyph d="M87 -188V-149H205L269 -8L90 380H33V420H223V380H138L292 41L447 380H359V420H549V380H492L249 -149H329V-188ZM293 647 411 527 382 497 293 588 204 497 175 527Z" glyph-name="ycircumflex" horiz-adv-x="580" unicode="&#375;" /><glyph d="M87 -188V-149H205L269 -8L90 380H33V420H223V380H138L292 41L447 380H359V420H549V380H492L249 -149H329V-188ZM244 564Q244 543 230 529.5Q216 516 196 516Q176 516 162 529.5Q148 543 148 564Q148 585 162 598.5Q176 612 196 612Q216 612 230 598.5Q244 585 244 564ZM440 564Q440 543 426 529.5Q412 516 392 516Q372 516 358 529.5Q344 543 344 564Q344 585 358 598.5Q372 612 392 612Q412 612 426 598.5Q440 585 440 564Z" glyph-name="ydieresis" horiz-adv-x="580" unicode="&#255;" /><glyph d="M269 206V255L256 274H86V312H231L82 540H23V580H213V540H134L291 297L448 540H368V580H558V540H499L349 312H493V274H324L312 255V206H493V168H312V40H440V0H141V40H269V168H86V206Z" glyph-name="yen" horiz-adv-x="580" unicode="&#165;" /><glyph d="M109 420H467V376L152 40H436V130H478V0H99V44L414 380H151V294H109Z" glyph-name="z" horiz-adv-x="580" unicode="z" /><glyph d="M109 420H467V376L152 40H436V130H478V0H99V44L414 380H151V294H109ZM411 615 254 494 229 522 370 662Z" glyph-name="zacute" horiz-adv-x="580" unicode="&#378;" /><glyph d="M109 420H467V376L152 40H436V130H478V0H99V44L414 380H151V294H109ZM176 617 205 647 294 556 383 647 412 617 294 497Z" glyph-name="zcaron" horiz-adv-x="580" unicode="&#382;" /><glyph d="M109 420H467V376L152 40H436V130H478V0H99V44L414 380H151V294H109ZM353 564Q353 541 338 526.5Q323 512 301 512Q279 512 264 526.5Q249 541 249 564Q249 587 264 601.5Q279 616 301 616Q323 616 338 601.5Q353 587 353 564Z" glyph-name="zdotaccent" horiz-adv-x="580" unicode="&#380;" /><glyph d="M76 290Q76 358 91.5 414Q107 470 135.5 510Q164 550 203.5 572Q243 594 290 594Q337 594 376.5 572Q416 550 444.5 510Q473 470 488.5 414Q504 358 504 290Q504 222 488.5 166Q473 110 444.5 70Q416 30 376.5 8Q337 -14 290 -14Q243 -14 203.5 8Q164 30 135.5 70Q107 110 91.5 166Q76 222 76 290ZM124 290Q124 207 149 141L416 469Q395 507 363.5 529.5Q332 552 290 552Q250 552 219 531.5Q188 511 167 475Q146 439 135 391.5Q124 344 124 290ZM456 290Q456 367 435 427L169 101Q190 67 220 47.5Q250 28 290 28Q331 28 362 48.5Q393 69 414 105Q435 141 445.5 188.5Q456 236 456 290Z" glyph-name="zero" horiz-adv-x="580" unicode="0" /><glyph d="M416 -27Q416 -103 381.5 -149.5Q347 -196 290 -196Q233 -196 198.5 -149.5Q164 -103 164 -27Q164 49 198.5 95.5Q233 142 290 142Q347 142 381.5 95.5Q416 49 416 -27ZM205 -27Q205 -63 214 -93L352 69Q341 86 325.5 96Q310 106 290 106Q269 106 253 95.5Q237 85 226.5 67Q216 49 210.5 24.5Q205 0 205 -27ZM375 -27Q375 4 367 33L229 -126Q240 -142 255 -151Q270 -160 290 -160Q311 -160 327 -149.5Q343 -139 353.5 -121Q364 -103 369.5 -78.5Q375 -54 375 -27Z" glyph-name="zero.inf" horiz-adv-x="580" unicode="&#58737;" /><glyph d="M76 290Q76 358 91.5 414Q107 470 135.5 510Q164 550 203.5 572Q243 594 290 594Q337 594 376.5 572Q416 550 444.5 510Q473 470 488.5 414Q504 358 504 290Q504 222 488.5 166Q473 110 444.5 70Q416 30 376.5 8Q337 -14 290 -14Q243 -14 203.5 8Q164 30 135.5 70Q107 110 91.5 166Q76 222 76 290ZM456 290Q456 344 445.5 391.5Q435 439 414 475Q393 511 362 531.5Q331 552 290 552Q250 552 219 531.5Q188 511 167 475Q146 439 135 391.5Q124 344 124 290Q124 236 135 188.5Q146 141 167 105Q188 69 219 48.5Q250 28 290 28Q331 28 362 48.5Q393 69 414 105Q435 141 445.5 188.5Q456 236 456 290Z" glyph-name="zero.noslash" horiz-adv-x="580" /></font>
</defs>
</svg>
