<?xml version="1.0" standalone="no"?><!DOCTYPE svg PUBLIC "-//W3C//DTD SVG 1.1//EN" "http://www.w3.org/Graphics/SVG/1.1/DTD/svg11.dtd" ><svg version="1.1" xmlns="http://www.w3.org/2000/svg"><defs><font horiz-adv-x="0" id="font"><font-face ascent="700" bbox="-27 -243 716 859" cap-height="580" descent="-300" font-family="bt_mono Bold" font-stretch="normal" font-style="normal" font-weight="600" units-per-em="1000" x-height="426" /><missing-glyph d="M526 580V0H54V580ZM146 420V160L237 290ZM198 85H381L290 215ZM434 160V420L342 290ZM290 365 381 495H199Z" horiz-adv-x="580" /><glyph glyph-name=".null" horiz-adv-x="0" /><glyph d="M418 85 390 174H186L157 85H231V0H14V85H65L227 580H353L514 85H566V0H346V85ZM213 258H363L288 494Z" glyph-name="A" horiz-adv-x="580" unicode="A" /><glyph d="M47 85 166 495H115V580H566V401H479V495H366V329H416V359H494V217H416V247H366V85H484V167H571V0H235V85H277V165H155L132 85H180V0H9V85ZM250 495 179 247H277V495Z" glyph-name="AE" horiz-adv-x="580" unicode="&#198;" /><glyph d="M416 741 224 625 178 690 350 835ZM418 85 390 174H186L157 85H231V0H14V85H65L227 580H353L514 85H566V0H346V85ZM213 258H363L288 494Z" glyph-name="Aacute" horiz-adv-x="580" unicode="&#193;" /><glyph d="M418 85 390 174H186L157 85H231V0H14V85H65L227 580H353L514 85H566V0H346V85ZM213 258H363L288 494ZM290 635Q229 635 188.5 670.5Q148 706 145 766L224 771Q226 744 243.5 725.5Q261 707 290 707Q318 707 336 725.5Q354 744 356 771L435 766Q432 706 391.5 670.5Q351 635 290 635Z" glyph-name="Abreve" horiz-adv-x="580" unicode="&#258;" /><glyph d="M418 85 390 174H186L157 85H231V0H14V85H65L227 580H353L514 85H566V0H346V85ZM213 258H363L288 494ZM290 819 434 692 381 629 290 709 199 629 146 692Z" glyph-name="Acircumflex" horiz-adv-x="580" unicode="&#194;" /><glyph d="M260 711Q260 680 239.5 660.5Q219 641 190 641Q161 641 140.5 660.5Q120 680 120 711Q120 742 140.5 761.5Q161 781 190 781Q219 781 239.5 761.5Q260 742 260 711ZM460 711Q460 680 439.5 660.5Q419 641 390 641Q361 641 340.5 660.5Q320 680 320 711Q320 742 340.5 761.5Q361 781 390 781Q419 781 439.5 761.5Q460 742 460 711ZM418 85 390 174H186L157 85H231V0H14V85H65L227 580H353L514 85H566V0H346V85ZM213 258H363L288 494Z" glyph-name="Adieresis" horiz-adv-x="580" unicode="&#196;" /><glyph d="M230 835 402 690 356 625 164 741ZM418 85 390 174H186L157 85H231V0H14V85H65L227 580H353L514 85H566V0H346V85ZM213 258H363L288 494Z" glyph-name="Agrave" horiz-adv-x="580" unicode="&#192;" /><glyph d="M418 85 390 174H186L157 85H231V0H14V85H65L227 580H353L514 85H566V0H346V85ZM213 258H363L288 494ZM161 729H419V645H161Z" glyph-name="Amacron" horiz-adv-x="580" unicode="&#256;" /><glyph d="M346 0V85H418L390 174H186L157 85H231V0H14V85H65L227 580H353L514 85H566V0H515Q465 -26 433.5 -56Q402 -86 402 -112Q402 -123 409.5 -130.5Q417 -138 434 -138Q454 -138 471.5 -128Q489 -118 506 -104L545 -153Q520 -178 490 -194.5Q460 -211 421 -211Q374 -211 348 -187Q322 -163 322 -124Q322 -56 412 0ZM213 258H363L288 494Z" glyph-name="Aogonek" horiz-adv-x="580" unicode="&#260;" /><glyph d="M418 85 390 174H186L157 85H231V0H14V85H65L227 580H353L514 85H566V0H346V85ZM213 258H363L288 494ZM400 736Q400 714 391.5 694Q383 674 368 659Q353 644 333 635.5Q313 627 290 627Q267 627 247 635.5Q227 644 212 659Q197 674 188.5 694Q180 714 180 736Q180 783 211.5 814Q243 845 290 845Q337 845 368.5 814Q400 783 400 736ZM331 736Q331 753 320.5 765.5Q310 778 290 778Q270 778 259.5 765.5Q249 753 249 736Q249 719 259.5 706.5Q270 694 290 694Q310 694 320.5 706.5Q331 719 331 736Z" glyph-name="Aring" horiz-adv-x="580" unicode="&#197;" /><glyph d="M418 85 390 174H186L157 85H231V0H14V85H65L227 580H353L514 85H566V0H346V85ZM213 258H363L288 494ZM451 719Q450 705 442.5 688.5Q435 672 422 658.5Q409 645 391 636Q373 627 351 627Q329 627 313 633.5Q297 640 284.5 648.5Q272 657 261 663.5Q250 670 237 670Q222 670 211.5 659Q201 648 199 633L128 657Q129 671 136.5 687.5Q144 704 157 717.5Q170 731 188 740Q206 749 228 749Q250 749 266 742.5Q282 736 294.5 727.5Q307 719 318 712.5Q329 706 342 706Q357 706 367.5 717Q378 728 380 743Z" glyph-name="Atilde" horiz-adv-x="580" unicode="&#195;" /><glyph d="M501 424Q501 375 476 344.5Q451 314 415 300Q467 286 500 251Q533 216 533 165Q533 85 475.5 42.5Q418 0 317 0H35V85H102V495H35V580H303Q396 580 448.5 539.5Q501 499 501 424ZM194 85H308Q440 85 440 170Q440 255 301 255H194ZM194 337H294Q408 337 408 416Q408 495 293 495H194Z" glyph-name="B" horiz-adv-x="580" unicode="B" /><glyph d="M303 594Q349 594 387 574Q425 554 441 525V580H527V366H448Q445 397 433 423Q421 449 402 467.5Q383 486 358 496.5Q333 507 305 507Q265 507 235 489.5Q205 472 184.5 442.5Q164 413 153.5 373.5Q143 334 143 290Q143 245 153.5 205.5Q164 166 185 136.5Q206 107 237 90Q268 73 309 73Q338 73 360.5 81.5Q383 90 401 104Q419 118 432.5 136.5Q446 155 458 174L536 127Q523 101 501.5 75.5Q480 50 451.5 30Q423 10 387 -2Q351 -14 309 -14Q251 -14 202.5 8Q154 30 119.5 70Q85 110 66 166Q47 222 47 290Q47 358 66 414Q85 470 119 510Q153 550 200 572Q247 594 303 594Z" glyph-name="C" horiz-adv-x="580" unicode="C" /><glyph d="M431 741 239 625 193 690 365 835ZM303 594Q349 594 387 574Q425 554 441 525V580H527V366H448Q445 397 433 423Q421 449 402 467.5Q383 486 358 496.5Q333 507 305 507Q265 507 235 489.5Q205 472 184.5 442.5Q164 413 153.5 373.5Q143 334 143 290Q143 245 153.5 205.5Q164 166 185 136.5Q206 107 237 90Q268 73 309 73Q338 73 360.5 81.5Q383 90 401 104Q419 118 432.5 136.5Q446 155 458 174L536 127Q523 101 501.5 75.5Q480 50 451.5 30Q423 10 387 -2Q351 -14 309 -14Q251 -14 202.5 8Q154 30 119.5 70Q85 110 66 166Q47 222 47 290Q47 358 66 414Q85 470 119 510Q153 550 200 572Q247 594 303 594Z" glyph-name="Cacute" horiz-adv-x="580" unicode="&#262;" /><glyph d="M159 758 212 821 303 741 394 821 447 758 303 631ZM303 594Q349 594 387 574Q425 554 441 525V580H527V366H448Q445 397 433 423Q421 449 402 467.5Q383 486 358 496.5Q333 507 305 507Q265 507 235 489.5Q205 472 184.5 442.5Q164 413 153.5 373.5Q143 334 143 290Q143 245 153.5 205.5Q164 166 185 136.5Q206 107 237 90Q268 73 309 73Q338 73 360.5 81.5Q383 90 401 104Q419 118 432.5 136.5Q446 155 458 174L536 127Q523 101 501.5 75.5Q480 50 451.5 30Q423 10 387 -2Q351 -14 309 -14Q251 -14 202.5 8Q154 30 119.5 70Q85 110 66 166Q47 222 47 290Q47 358 66 414Q85 470 119 510Q153 550 200 572Q247 594 303 594Z" glyph-name="Ccaron" horiz-adv-x="580" unicode="&#268;" /><glyph d="M232 -147Q246 -164 259 -174Q272 -184 292 -184Q313 -184 325.5 -173.5Q338 -163 338 -146Q338 -127 325 -118Q312 -109 295 -109Q283 -109 272 -113L227 -80L263 -10Q214 -2 174.5 22.5Q135 47 106.5 86Q78 125 62.5 177Q47 229 47 290Q47 358 66 414Q85 470 119 510Q153 550 200 572Q247 594 303 594Q349 594 387 574Q425 554 441 525V580H527V366H448Q445 397 433 423Q421 449 402 467.5Q383 486 358 496.5Q333 507 305 507Q265 507 235 489.5Q205 472 184.5 442.5Q164 413 153.5 373.5Q143 334 143 290Q143 245 153.5 205.5Q164 166 185 136.5Q206 107 237 90Q268 73 309 73Q338 73 360.5 81.5Q383 90 401 104Q419 118 432.5 136.5Q446 155 458 174L536 127Q523 102 503 77Q483 52 455.5 32.5Q428 13 394 0Q360 -13 319 -14L297 -55H301Q344 -55 372 -79.5Q400 -104 400 -146Q400 -189 368.5 -214.5Q337 -240 293 -240Q255 -240 228 -222Q201 -204 187 -181Z" glyph-name="Ccedilla" horiz-adv-x="580" unicode="&#199;" /><glyph d="M301 819 445 692 392 629 301 709 210 629 157 692ZM303 594Q349 594 387 574Q425 554 441 525V580H527V366H448Q445 397 433 423Q421 449 402 467.5Q383 486 358 496.5Q333 507 305 507Q265 507 235 489.5Q205 472 184.5 442.5Q164 413 153.5 373.5Q143 334 143 290Q143 245 153.5 205.5Q164 166 185 136.5Q206 107 237 90Q268 73 309 73Q338 73 360.5 81.5Q383 90 401 104Q419 118 432.5 136.5Q446 155 458 174L536 127Q523 101 501.5 75.5Q480 50 451.5 30Q423 10 387 -2Q351 -14 309 -14Q251 -14 202.5 8Q154 30 119.5 70Q85 110 66 166Q47 222 47 290Q47 358 66 414Q85 470 119 510Q153 550 200 572Q247 594 303 594Z" glyph-name="Ccircumflex" horiz-adv-x="580" unicode="&#264;" /><glyph d="M377 716Q377 683 355 662Q333 641 302 641Q271 641 249 662Q227 683 227 716Q227 749 249 770Q271 791 302 791Q333 791 355 770Q377 749 377 716ZM303 594Q349 594 387 574Q425 554 441 525V580H527V366H448Q445 397 433 423Q421 449 402 467.5Q383 486 358 496.5Q333 507 305 507Q265 507 235 489.5Q205 472 184.5 442.5Q164 413 153.5 373.5Q143 334 143 290Q143 245 153.5 205.5Q164 166 185 136.5Q206 107 237 90Q268 73 309 73Q338 73 360.5 81.5Q383 90 401 104Q419 118 432.5 136.5Q446 155 458 174L536 127Q523 101 501.5 75.5Q480 50 451.5 30Q423 10 387 -2Q351 -14 309 -14Q251 -14 202.5 8Q154 30 119.5 70Q85 110 66 166Q47 222 47 290Q47 358 66 414Q85 470 119 510Q153 550 200 572Q247 594 303 594Z" glyph-name="Cdotaccent" horiz-adv-x="580" unicode="&#266;" /><glyph d="M250 580Q324 580 380 558.5Q436 537 474 499Q512 461 531.5 407.5Q551 354 551 290Q551 226 531.5 172.5Q512 119 474 81Q436 43 380 21.5Q324 0 250 0H37V85H99V495H37V580ZM191 495V85H250Q350 85 402.5 140Q455 195 455 290Q455 382 402 438.5Q349 495 250 495Z" glyph-name="D" horiz-adv-x="580" unicode="D" /><glyph d="M250 580Q324 580 380 558.5Q436 537 474 499Q512 461 531.5 407.5Q551 354 551 290Q551 226 531.5 172.5Q512 119 474 81Q436 43 380 21.5Q324 0 250 0H37V85H99V495H37V580ZM191 495V85H250Q350 85 402.5 140Q455 195 455 290Q455 382 402 438.5Q349 495 250 495ZM134 758 187 821 278 741 369 821 422 758 278 631Z" glyph-name="Dcaron" horiz-adv-x="580" unicode="&#270;" /><glyph d="M250 580Q324 580 380 558.5Q436 537 474 499Q512 461 531.5 407.5Q551 354 551 290Q551 226 531.5 172.5Q512 119 474 81Q436 43 380 21.5Q324 0 250 0H37V85H99V262H30V347H99V495H37V580ZM316 262H191V85H250Q350 85 402.5 140Q455 195 455 290Q455 382 402 438.5Q349 495 250 495H191V347H316Z" glyph-name="Dcroat" horiz-adv-x="580" unicode="&#272;" /><glyph d="M227 580H353L544 0H36ZM158 85H422L290 491Z" glyph-name="Delta" horiz-adv-x="580" unicode="&#8710;" /><glyph d="M366 190H282V251H200V85H448V177H536V0H41V85H108V495H41V580H530V389H442V495H200V333H282V394H366Z" glyph-name="E" horiz-adv-x="580" unicode="E" /><glyph d="M366 190H282V251H200V85H448V177H536V0H41V85H108V495H41V580H530V389H442V495H200V333H282V394H366ZM431 741 239 625 193 690 365 835Z" glyph-name="Eacute" horiz-adv-x="580" unicode="&#201;" /><glyph d="M366 190H282V251H200V85H448V177H536V0H41V85H108V495H41V580H530V389H442V495H200V333H282V394H366ZM299 635Q238 635 197.5 670.5Q157 706 154 766L233 771Q235 744 252.5 725.5Q270 707 299 707Q327 707 345 725.5Q363 744 365 771L444 766Q441 706 400.5 670.5Q360 635 299 635Z" glyph-name="Ebreve" horiz-adv-x="580" unicode="&#276;" /><glyph d="M366 190H282V251H200V85H448V177H536V0H41V85H108V495H41V580H530V389H442V495H200V333H282V394H366ZM155 758 208 821 299 741 390 821 443 758 299 631Z" glyph-name="Ecaron" horiz-adv-x="580" unicode="&#282;" /><glyph d="M366 190H282V251H200V85H448V177H536V0H41V85H108V495H41V580H530V389H442V495H200V333H282V394H366ZM299 819 443 692 390 629 299 709 208 629 155 692Z" glyph-name="Ecircumflex" horiz-adv-x="580" unicode="&#202;" /><glyph d="M366 190H282V251H200V85H448V177H536V0H41V85H108V495H41V580H530V389H442V495H200V333H282V394H366ZM268 716Q268 685 247.5 665.5Q227 646 198 646Q169 646 148.5 665.5Q128 685 128 716Q128 747 148.5 766.5Q169 786 198 786Q227 786 247.5 766.5Q268 747 268 716ZM468 716Q468 685 447.5 665.5Q427 646 398 646Q369 646 348.5 665.5Q328 685 328 716Q328 747 348.5 766.5Q369 786 398 786Q427 786 447.5 766.5Q468 747 468 716Z" glyph-name="Edieresis" horiz-adv-x="580" unicode="&#203;" /><glyph d="M366 190H282V251H200V85H448V177H536V0H41V85H108V495H41V580H530V389H442V495H200V333H282V394H366ZM374 716Q374 683 352 662Q330 641 299 641Q268 641 246 662Q224 683 224 716Q224 749 246 770Q268 791 299 791Q330 791 352 770Q374 749 374 716Z" glyph-name="Edotaccent" horiz-adv-x="580" unicode="&#278;" /><glyph d="M366 190H282V251H200V85H448V177H536V0H41V85H108V495H41V580H530V389H442V495H200V333H282V394H366ZM237 835 409 690 363 625 171 741Z" glyph-name="Egrave" horiz-adv-x="580" unicode="&#200;" /><glyph d="M366 190H282V251H200V85H448V177H536V0H41V85H108V495H41V580H530V389H442V495H200V333H282V394H366ZM170 729H428V645H170Z" glyph-name="Emacron" horiz-adv-x="580" unicode="&#274;" /><glyph d="M498 -43Q498 -79 485.5 -108.5Q473 -138 451 -158.5Q429 -179 399.5 -190.5Q370 -202 335 -202Q275 -202 234 -173.5Q193 -145 175 -98L256 -63Q267 -88 287 -104.5Q307 -121 336 -121Q366 -121 388 -99Q410 -77 410 -41V-30L174 429V85H252V0H32V85H86V495H32V580H193L410 149V495H332V580H552V495H498Z" glyph-name="Eng" horiz-adv-x="580" unicode="&#330;" /><glyph d="M41 0V85H108V495H41V580H530V389H442V495H200V333H282V394H366V190H282V251H200V85H448V177H536V0H496Q446 -26 414.5 -56Q383 -86 383 -112Q383 -123 390.5 -130.5Q398 -138 415 -138Q435 -138 452.5 -128Q470 -118 487 -104L526 -153Q501 -178 471 -194.5Q441 -211 402 -211Q355 -211 329 -187Q303 -163 303 -124Q303 -56 393 0Z" glyph-name="Eogonek" horiz-adv-x="580" unicode="&#280;" /><glyph d="M250 580Q324 580 380 558.5Q436 537 474 499Q512 461 531.5 407.5Q551 354 551 290Q551 226 531.5 172.5Q512 119 474 81Q436 43 380 21.5Q324 0 250 0H37V85H99V262H30V347H99V495H37V580ZM316 262H191V85H250Q350 85 402.5 140Q455 195 455 290Q455 382 402 438.5Q349 495 250 495H191V347H316Z" glyph-name="Eth" horiz-adv-x="580" unicode="&#208;" /><glyph d="M84 390Q107 484 170 539Q233 594 322 594Q367 594 403.5 574.5Q440 555 455 528V580H541V374H462Q456 433 417 470Q378 507 324 507Q270 507 235 474.5Q200 442 183 390H352L331 312H170Q169 305 169 300Q169 295 169 289Q169 283 169 277.5Q169 272 170 265H323L302 187H185Q202 136 238 104.5Q274 73 328 73Q356 73 377.5 81.5Q399 90 416 104Q433 118 446.5 136Q460 154 471 174L552 127Q542 105 522 80Q502 55 474 34Q446 13 409.5 -0.5Q373 -14 328 -14Q237 -14 173 40Q109 94 85 187H23V265H74Q73 272 73 277.5Q73 283 73 289Q73 295 73 299.5Q73 304 74 312H23V390Z" glyph-name="Euro" horiz-adv-x="580" unicode="&#8364;" /><glyph d="M389 190H305V251H203V85H350V0H44V85H111V495H44V580H548V389H460V495H203V333H305V394H389Z" glyph-name="F" horiz-adv-x="580" unicode="F" /><glyph d="M285 507Q246 507 216.5 489.5Q187 472 166.5 442.5Q146 413 136 373.5Q126 334 126 290Q126 245 136 205.5Q146 166 165.5 136.5Q185 107 214 90Q243 73 281 73Q309 73 334 84.5Q359 96 378 115Q397 134 408.5 160Q420 186 420 214V217H314V302H555V217H508V0H420V61Q403 27 364 6.5Q325 -14 278 -14Q223 -14 177.5 8Q132 30 99 70Q66 110 48 166Q30 222 30 290Q30 358 48.5 414Q67 470 101 510Q135 550 181.5 572Q228 594 284 594Q329 594 366.5 575.5Q404 557 420 531V580H506V378H427Q424 406 412 429.5Q400 453 381 470.5Q362 488 337.5 497.5Q313 507 285 507Z" glyph-name="G" horiz-adv-x="580" unicode="G" /><glyph d="M284 635Q223 635 182.5 670.5Q142 706 139 766L218 771Q220 744 237.5 725.5Q255 707 284 707Q312 707 330 725.5Q348 744 350 771L429 766Q426 706 385.5 670.5Q345 635 284 635ZM285 507Q246 507 216.5 489.5Q187 472 166.5 442.5Q146 413 136 373.5Q126 334 126 290Q126 245 136 205.5Q146 166 165.5 136.5Q185 107 214 90Q243 73 281 73Q309 73 334 84.5Q359 96 378 115Q397 134 408.5 160Q420 186 420 214V217H314V302H555V217H508V0H420V61Q403 27 364 6.5Q325 -14 278 -14Q223 -14 177.5 8Q132 30 99 70Q66 110 48 166Q30 222 30 290Q30 358 48.5 414Q67 470 101 510Q135 550 181.5 572Q228 594 284 594Q329 594 366.5 575.5Q404 557 420 531V580H506V378H427Q424 406 412 429.5Q400 453 381 470.5Q362 488 337.5 497.5Q313 507 285 507Z" glyph-name="Gbreve" horiz-adv-x="580" unicode="&#286;" /><glyph d="M284 819 428 692 375 629 284 709 193 629 140 692ZM285 507Q246 507 216.5 489.5Q187 472 166.5 442.5Q146 413 136 373.5Q126 334 126 290Q126 245 136 205.5Q146 166 165.5 136.5Q185 107 214 90Q243 73 281 73Q309 73 334 84.5Q359 96 378 115Q397 134 408.5 160Q420 186 420 214V217H314V302H555V217H508V0H420V61Q403 27 364 6.5Q325 -14 278 -14Q223 -14 177.5 8Q132 30 99 70Q66 110 48 166Q30 222 30 290Q30 358 48.5 414Q67 470 101 510Q135 550 181.5 572Q228 594 284 594Q329 594 366.5 575.5Q404 557 420 531V580H506V378H427Q424 406 412 429.5Q400 453 381 470.5Q362 488 337.5 497.5Q313 507 285 507Z" glyph-name="Gcircumflex" horiz-adv-x="580" unicode="&#284;" /><glyph d="M336 -59 266 -243H192L224 -59ZM285 507Q246 507 216.5 489.5Q187 472 166.5 442.5Q146 413 136 373.5Q126 334 126 290Q126 245 136 205.5Q146 166 165.5 136.5Q185 107 214 90Q243 73 281 73Q309 73 334 84.5Q359 96 378 115Q397 134 408.5 160Q420 186 420 214V217H314V302H555V217H508V0H420V61Q403 27 364 6.5Q325 -14 278 -14Q223 -14 177.5 8Q132 30 99 70Q66 110 48 166Q30 222 30 290Q30 358 48.5 414Q67 470 101 510Q135 550 181.5 572Q228 594 284 594Q329 594 366.5 575.5Q404 557 420 531V580H506V378H427Q424 406 412 429.5Q400 453 381 470.5Q362 488 337.5 497.5Q313 507 285 507Z" glyph-name="Gcommaaccent" horiz-adv-x="580" unicode="&#290;" /><glyph d="M358 716Q358 683 336 662Q314 641 283 641Q252 641 230 662Q208 683 208 716Q208 749 230 770Q252 791 283 791Q314 791 336 770Q358 749 358 716ZM285 507Q246 507 216.5 489.5Q187 472 166.5 442.5Q146 413 136 373.5Q126 334 126 290Q126 245 136 205.5Q146 166 165.5 136.5Q185 107 214 90Q243 73 281 73Q309 73 334 84.5Q359 96 378 115Q397 134 408.5 160Q420 186 420 214V217H314V302H555V217H508V0H420V61Q403 27 364 6.5Q325 -14 278 -14Q223 -14 177.5 8Q132 30 99 70Q66 110 48 166Q30 222 30 290Q30 358 48.5 414Q67 470 101 510Q135 550 181.5 572Q228 594 284 594Q329 594 366.5 575.5Q404 557 420 531V580H506V378H427Q424 406 412 429.5Q400 453 381 470.5Q362 488 337.5 497.5Q313 507 285 507Z" glyph-name="Gdotaccent" horiz-adv-x="580" unicode="&#288;" /><glyph d="M248 580V495H177V339H403V495H332V580H557V495H495V85H557V0H332V85H403V254H177V85H248V0H23V85H85V495H23V580Z" glyph-name="H" horiz-adv-x="580" unicode="H" /><glyph d="M557 366H495V85H557V0H332V85H403V230H177V85H248V0H23V85H85V366H23V443H85V495H23V580H248V495H177V443H403V495H332V580H557V495H495V443H557ZM403 307V366H177V307Z" glyph-name="Hbar" horiz-adv-x="580" unicode="&#294;" /><glyph d="M248 580V495H177V339H403V495H332V580H557V495H495V85H557V0H332V85H403V254H177V85H248V0H23V85H85V495H23V580ZM290 819 434 692 381 629 290 709 199 629 146 692Z" glyph-name="Hcircumflex" horiz-adv-x="580" unicode="&#292;" /><glyph d="M492 580V495H337V85H492V0H88V85H243V495H88V580Z" glyph-name="I" horiz-adv-x="580" unicode="I" /><glyph d="M241 580V495H170V85H241V0H7V85H78V495H7V580ZM331 580H566V173Q566 89 529 37.5Q492 -14 415 -14Q349 -14 311.5 28Q274 70 263 133L352 154Q360 117 374 94.5Q388 72 415 72Q450 72 462 100Q474 128 474 179V495H331Z" glyph-name="IJ" horiz-adv-x="580" unicode="&#306;" /><glyph d="M492 580V495H337V85H492V0H88V85H243V495H88V580ZM421 741 229 625 183 690 355 835Z" glyph-name="Iacute" horiz-adv-x="580" unicode="&#205;" /><glyph d="M492 580V495H337V85H492V0H88V85H243V495H88V580ZM290 635Q229 635 188.5 670.5Q148 706 145 766L224 771Q226 744 243.5 725.5Q261 707 290 707Q318 707 336 725.5Q354 744 356 771L435 766Q432 706 391.5 670.5Q351 635 290 635Z" glyph-name="Ibreve" horiz-adv-x="580" unicode="&#300;" /><glyph d="M492 580V495H337V85H492V0H88V85H243V495H88V580ZM290 819 434 692 381 629 290 709 199 629 146 692Z" glyph-name="Icircumflex" horiz-adv-x="580" unicode="&#206;" /><glyph d="M492 580V495H337V85H492V0H88V85H243V495H88V580ZM260 716Q260 685 239.5 665.5Q219 646 190 646Q161 646 140.5 665.5Q120 685 120 716Q120 747 140.5 766.5Q161 786 190 786Q219 786 239.5 766.5Q260 747 260 716ZM460 716Q460 685 439.5 665.5Q419 646 390 646Q361 646 340.5 665.5Q320 685 320 716Q320 747 340.5 766.5Q361 786 390 786Q419 786 439.5 766.5Q460 747 460 716Z" glyph-name="Idieresis" horiz-adv-x="580" unicode="&#207;" /><glyph d="M492 580V495H337V85H492V0H88V85H243V495H88V580ZM365 716Q365 683 343 662Q321 641 290 641Q259 641 237 662Q215 683 215 716Q215 749 237 770Q259 791 290 791Q321 791 343 770Q365 749 365 716Z" glyph-name="Idotaccent" horiz-adv-x="580" unicode="&#304;" /><glyph d="M492 580V495H337V85H492V0H88V85H243V495H88V580ZM225 835 397 690 351 625 159 741Z" glyph-name="Igrave" horiz-adv-x="580" unicode="&#204;" /><glyph d="M492 580V495H337V85H492V0H88V85H243V495H88V580ZM161 729H419V645H161Z" glyph-name="Imacron" horiz-adv-x="580" unicode="&#298;" /><glyph d="M88 0V85H243V495H88V580H492V495H337V85H492V0H447Q397 -26 365.5 -56Q334 -86 334 -112Q334 -123 341.5 -130.5Q349 -138 366 -138Q386 -138 403.5 -128Q421 -118 438 -104L477 -153Q452 -178 422 -194.5Q392 -211 353 -211Q306 -211 280 -187Q254 -163 254 -124Q254 -56 344 0Z" glyph-name="Iogonek" horiz-adv-x="580" unicode="&#302;" /><glyph d="M492 580V495H337V85H492V0H88V85H243V495H88V580ZM451 719Q450 705 442.5 688.5Q435 672 422 658.5Q409 645 391 636Q373 627 351 627Q329 627 313 633.5Q297 640 284.5 648.5Q272 657 261 663.5Q250 670 237 670Q222 670 211.5 659Q201 648 199 633L128 657Q129 671 136.5 687.5Q144 704 157 717.5Q170 731 188 740Q206 749 228 749Q250 749 266 742.5Q282 736 294.5 727.5Q307 719 318 712.5Q329 706 342 706Q357 706 367.5 717Q378 728 380 743Z" glyph-name="Itilde" horiz-adv-x="580" unicode="&#296;" /><glyph d="M172 580H493V200Q493 149 475.5 109Q458 69 429 42Q400 15 361.5 0.5Q323 -14 281 -14Q241 -14 205.5 -2.5Q170 9 142 31.5Q114 54 95 87Q76 120 69 162L158 180Q167 128 200 100Q233 72 281 72Q305 72 326.5 81Q348 90 364.5 107Q381 124 390.5 148.5Q400 173 400 204V495H172Z" glyph-name="J" horiz-adv-x="580" unicode="J" /><glyph d="M172 580H493V200Q493 149 475.5 109Q458 69 429 42Q400 15 361.5 0.5Q323 -14 281 -14Q241 -14 205.5 -2.5Q170 9 142 31.5Q114 54 95 87Q76 120 69 162L158 180Q167 128 200 100Q233 72 281 72Q305 72 326.5 81Q348 90 364.5 107Q381 124 390.5 148.5Q400 173 400 204V495H172ZM439 819 583 692 530 629 439 709 348 629 295 692Z" glyph-name="Jcircumflex" horiz-adv-x="580" unicode="&#308;" /><glyph d="M394 85 270 277 177 186V85H243V0H23V85H85V495H23V580H243V495H177V303L372 495H317V580H542V495H492L335 340L501 85H559V0H329V85Z" glyph-name="K" horiz-adv-x="580" unicode="K" /><glyph d="M394 85 270 277 177 186V85H243V0H23V85H85V495H23V580H243V495H177V303L372 495H317V580H542V495H492L335 340L501 85H559V0H329V85ZM348 -59 278 -243H204L236 -59Z" glyph-name="Kcommaaccent" horiz-adv-x="580" unicode="&#310;" /><glyph d="M42 85H121V495H42V580H310V495H213V85H444V189H532V0H42Z" glyph-name="L" horiz-adv-x="580" unicode="L" /><glyph d="M42 85H121V495H42V580H310V495H213V85H444V189H532V0H42ZM359 741 167 625 121 690 293 835Z" glyph-name="Lacute" horiz-adv-x="580" unicode="&#313;" /><glyph d="M42 85H121V495H42V580H310V495H213V85H444V189H532V0H42ZM527 616 433 429 357 457 417 657Z" glyph-name="Lcaron" horiz-adv-x="580" unicode="&#317;" /><glyph d="M42 85H121V495H42V580H310V495H213V85H444V189H532V0H42ZM359 -59 289 -243H215L247 -59Z" glyph-name="Lcommaaccent" horiz-adv-x="580" unicode="&#315;" /><glyph d="M42 85H121V495H42V580H310V495H213V85H444V189H532V0H42ZM439 326Q439 293 417 272Q395 251 364 251Q333 251 311 272Q289 293 289 326Q289 359 311 380Q333 401 364 401Q395 401 417 380Q439 359 439 326Z" glyph-name="Ldot" horiz-adv-x="580" unicode="&#319;" /><glyph d="M25 263 121 312V495H42V580H310V495H213V360L349 430L390 352L213 261V85H444V189H532V0H42V85H121V213L66 185Z" glyph-name="Lslash" horiz-adv-x="580" unicode="&#321;" /><glyph d="M251 187 146 421V85H221V0H13V85H59V495H13V580H163L291 287L419 580H567V495H521V85H567V0H359V85H434V421L329 187Z" glyph-name="M" horiz-adv-x="580" unicode="M" /><glyph d="M395 0 174 429V85H252V0H32V85H86V495H32V580H193L410 153V495H332V580H552V495H498V0Z" glyph-name="N" horiz-adv-x="580" unicode="N" /><glyph d="M395 0 174 429V85H252V0H32V85H86V495H32V580H193L410 153V495H332V580H552V495H498V0ZM428 741 236 625 190 690 362 835Z" glyph-name="Nacute" horiz-adv-x="580" unicode="&#323;" /><glyph d="M395 0 174 429V85H252V0H32V85H86V495H32V580H193L410 153V495H332V580H552V495H498V0ZM145 758 198 821 289 741 380 821 433 758 289 631Z" glyph-name="Ncaron" horiz-adv-x="580" unicode="&#327;" /><glyph d="M395 0 174 429V85H252V0H32V85H86V495H32V580H193L410 153V495H332V580H552V495H498V0ZM361 -59 291 -243H217L249 -59Z" glyph-name="Ncommaaccent" horiz-adv-x="580" unicode="&#325;" /><glyph d="M395 0 174 429V85H252V0H32V85H86V495H32V580H193L410 153V495H332V580H552V495H498V0ZM450 719Q449 705 441.5 688.5Q434 672 421 658.5Q408 645 390 636Q372 627 350 627Q328 627 312 633.5Q296 640 283.5 648.5Q271 657 260 663.5Q249 670 236 670Q221 670 210.5 659Q200 648 198 633L127 657Q128 671 135.5 687.5Q143 704 156 717.5Q169 731 187 740Q205 749 227 749Q249 749 265 742.5Q281 736 293.5 727.5Q306 719 317 712.5Q328 706 341 706Q356 706 366.5 717Q377 728 379 743Z" glyph-name="Ntilde" horiz-adv-x="580" unicode="&#209;" /><glyph d="M35 290Q35 358 54 414Q73 470 106.5 510Q140 550 187 572Q234 594 290 594Q346 594 393 572Q440 550 474 510Q508 470 526.5 414Q545 358 545 290Q545 222 526.5 166Q508 110 474 70Q440 30 393 8Q346 -14 290 -14Q234 -14 187 8Q140 30 106.5 70Q73 110 54 166Q35 222 35 290ZM449 290Q449 334 439 373.5Q429 413 408.5 442.5Q388 472 358.5 489.5Q329 507 290 507Q251 507 221.5 489.5Q192 472 171.5 442.5Q151 413 141 373.5Q131 334 131 290Q131 245 141 205.5Q151 166 171.5 136.5Q192 107 221.5 90Q251 73 290 73Q329 73 358.5 90Q388 107 408.5 136.5Q429 166 439 205.5Q449 245 449 290Z" glyph-name="O" horiz-adv-x="580" unicode="O" /><glyph d="M9 290Q9 355 27.5 408.5Q46 462 79.5 500Q113 538 159 559Q205 580 260 580H566V401H479V495H365V329H415V359H493V217H415V247H365V85H484V167H571V0H260Q205 0 159 21Q113 42 79.5 80Q46 118 27.5 171.5Q9 225 9 290ZM276 495H263Q224 495 194.5 478.5Q165 462 145 434.5Q125 407 115 369.5Q105 332 105 290Q105 248 115 210.5Q125 173 145 145.5Q165 118 194.5 101.5Q224 85 263 85H276Z" glyph-name="OE" horiz-adv-x="580" unicode="&#338;" /><glyph d="M35 290Q35 358 54 414Q73 470 106.5 510Q140 550 187 572Q234 594 290 594Q346 594 393 572Q440 550 474 510Q508 470 526.5 414Q545 358 545 290Q545 222 526.5 166Q508 110 474 70Q440 30 393 8Q346 -14 290 -14Q234 -14 187 8Q140 30 106.5 70Q73 110 54 166Q35 222 35 290ZM449 290Q449 334 439 373.5Q429 413 408.5 442.5Q388 472 358.5 489.5Q329 507 290 507Q251 507 221.5 489.5Q192 472 171.5 442.5Q151 413 141 373.5Q131 334 131 290Q131 245 141 205.5Q151 166 171.5 136.5Q192 107 221.5 90Q251 73 290 73Q329 73 358.5 90Q388 107 408.5 136.5Q429 166 439 205.5Q449 245 449 290ZM413 741 221 625 175 690 347 835Z" glyph-name="Oacute" horiz-adv-x="580" unicode="&#211;" /><glyph d="M35 290Q35 358 54 414Q73 470 106.5 510Q140 550 187 572Q234 594 290 594Q346 594 393 572Q440 550 474 510Q508 470 526.5 414Q545 358 545 290Q545 222 526.5 166Q508 110 474 70Q440 30 393 8Q346 -14 290 -14Q234 -14 187 8Q140 30 106.5 70Q73 110 54 166Q35 222 35 290ZM449 290Q449 334 439 373.5Q429 413 408.5 442.5Q388 472 358.5 489.5Q329 507 290 507Q251 507 221.5 489.5Q192 472 171.5 442.5Q151 413 141 373.5Q131 334 131 290Q131 245 141 205.5Q151 166 171.5 136.5Q192 107 221.5 90Q251 73 290 73Q329 73 358.5 90Q388 107 408.5 136.5Q429 166 439 205.5Q449 245 449 290ZM290 649Q229 649 188.5 684.5Q148 720 145 780L224 785Q226 758 243.5 739.5Q261 721 290 721Q318 721 336 739.5Q354 758 356 785L435 780Q432 720 391.5 684.5Q351 649 290 649Z" glyph-name="Obreve" horiz-adv-x="580" unicode="&#334;" /><glyph d="M35 290Q35 358 54 414Q73 470 106.5 510Q140 550 187 572Q234 594 290 594Q346 594 393 572Q440 550 474 510Q508 470 526.5 414Q545 358 545 290Q545 222 526.5 166Q508 110 474 70Q440 30 393 8Q346 -14 290 -14Q234 -14 187 8Q140 30 106.5 70Q73 110 54 166Q35 222 35 290ZM449 290Q449 334 439 373.5Q429 413 408.5 442.5Q388 472 358.5 489.5Q329 507 290 507Q251 507 221.5 489.5Q192 472 171.5 442.5Q151 413 141 373.5Q131 334 131 290Q131 245 141 205.5Q151 166 171.5 136.5Q192 107 221.5 90Q251 73 290 73Q329 73 358.5 90Q388 107 408.5 136.5Q429 166 439 205.5Q449 245 449 290ZM290 819 434 692 381 629 290 709 199 629 146 692Z" glyph-name="Ocircumflex" horiz-adv-x="580" unicode="&#212;" /><glyph d="M35 290Q35 358 54 414Q73 470 106.5 510Q140 550 187 572Q234 594 290 594Q346 594 393 572Q440 550 474 510Q508 470 526.5 414Q545 358 545 290Q545 222 526.5 166Q508 110 474 70Q440 30 393 8Q346 -14 290 -14Q234 -14 187 8Q140 30 106.5 70Q73 110 54 166Q35 222 35 290ZM449 290Q449 334 439 373.5Q429 413 408.5 442.5Q388 472 358.5 489.5Q329 507 290 507Q251 507 221.5 489.5Q192 472 171.5 442.5Q151 413 141 373.5Q131 334 131 290Q131 245 141 205.5Q151 166 171.5 136.5Q192 107 221.5 90Q251 73 290 73Q329 73 358.5 90Q388 107 408.5 136.5Q429 166 439 205.5Q449 245 449 290ZM260 716Q260 685 239.5 665.5Q219 646 190 646Q161 646 140.5 665.5Q120 685 120 716Q120 747 140.5 766.5Q161 786 190 786Q219 786 239.5 766.5Q260 747 260 716ZM460 716Q460 685 439.5 665.5Q419 646 390 646Q361 646 340.5 665.5Q320 685 320 716Q320 747 340.5 766.5Q361 786 390 786Q419 786 439.5 766.5Q460 747 460 716Z" glyph-name="Odieresis" horiz-adv-x="580" unicode="&#214;" /><glyph d="M35 290Q35 358 54 414Q73 470 106.5 510Q140 550 187 572Q234 594 290 594Q346 594 393 572Q440 550 474 510Q508 470 526.5 414Q545 358 545 290Q545 222 526.5 166Q508 110 474 70Q440 30 393 8Q346 -14 290 -14Q234 -14 187 8Q140 30 106.5 70Q73 110 54 166Q35 222 35 290ZM449 290Q449 334 439 373.5Q429 413 408.5 442.5Q388 472 358.5 489.5Q329 507 290 507Q251 507 221.5 489.5Q192 472 171.5 442.5Q151 413 141 373.5Q131 334 131 290Q131 245 141 205.5Q151 166 171.5 136.5Q192 107 221.5 90Q251 73 290 73Q329 73 358.5 90Q388 107 408.5 136.5Q429 166 439 205.5Q449 245 449 290ZM233 835 405 690 359 625 167 741Z" glyph-name="Ograve" horiz-adv-x="580" unicode="&#210;" /><glyph d="M35 290Q35 358 54 414Q73 470 106.5 510Q140 550 187 572Q234 594 290 594Q346 594 393 572Q440 550 474 510Q508 470 526.5 414Q545 358 545 290Q545 222 526.5 166Q508 110 474 70Q440 30 393 8Q346 -14 290 -14Q234 -14 187 8Q140 30 106.5 70Q73 110 54 166Q35 222 35 290ZM449 290Q449 334 439 373.5Q429 413 408.5 442.5Q388 472 358.5 489.5Q329 507 290 507Q251 507 221.5 489.5Q192 472 171.5 442.5Q151 413 141 373.5Q131 334 131 290Q131 245 141 205.5Q151 166 171.5 136.5Q192 107 221.5 90Q251 73 290 73Q329 73 358.5 90Q388 107 408.5 136.5Q429 166 439 205.5Q449 245 449 290ZM354 751 170 629 125 687 288 837ZM576 751 392 629 347 687 510 837Z" glyph-name="Ohungarumlaut" horiz-adv-x="580" unicode="&#336;" /><glyph d="M35 290Q35 358 54 414Q73 470 106.5 510Q140 550 187 572Q234 594 290 594Q346 594 393 572Q440 550 474 510Q508 470 526.5 414Q545 358 545 290Q545 222 526.5 166Q508 110 474 70Q440 30 393 8Q346 -14 290 -14Q234 -14 187 8Q140 30 106.5 70Q73 110 54 166Q35 222 35 290ZM449 290Q449 334 439 373.5Q429 413 408.5 442.5Q388 472 358.5 489.5Q329 507 290 507Q251 507 221.5 489.5Q192 472 171.5 442.5Q151 413 141 373.5Q131 334 131 290Q131 245 141 205.5Q151 166 171.5 136.5Q192 107 221.5 90Q251 73 290 73Q329 73 358.5 90Q388 107 408.5 136.5Q429 166 439 205.5Q449 245 449 290ZM161 729H419V645H161Z" glyph-name="Omacron" horiz-adv-x="580" unicode="&#332;" /><glyph d="M479 504Q511 464 528 410Q545 356 545 290Q545 222 526.5 166Q508 110 474 70Q440 30 393 8Q346 -14 290 -14Q227 -14 174 14L120 -72L51 -29L110 65Q74 106 54.5 162.5Q35 219 35 290Q35 358 54 414Q73 470 106.5 510Q140 550 187 572Q234 594 290 594Q361 594 417 559L467 640L536 596ZM131 290Q131 209 163 151L369 483Q334 507 290 507Q251 507 221.5 489.5Q192 472 171.5 442.5Q151 413 141 373.5Q131 334 131 290ZM449 290Q449 360 424 415L221 90Q252 73 290 73Q329 73 358.5 90Q388 107 408.5 136.5Q429 166 439 205.5Q449 245 449 290Z" glyph-name="Oslash" horiz-adv-x="580" unicode="&#216;" /><glyph d="M35 290Q35 358 54 414Q73 470 106.5 510Q140 550 187 572Q234 594 290 594Q346 594 393 572Q440 550 474 510Q508 470 526.5 414Q545 358 545 290Q545 222 526.5 166Q508 110 474 70Q440 30 393 8Q346 -14 290 -14Q234 -14 187 8Q140 30 106.5 70Q73 110 54 166Q35 222 35 290ZM449 290Q449 334 439 373.5Q429 413 408.5 442.5Q388 472 358.5 489.5Q329 507 290 507Q251 507 221.5 489.5Q192 472 171.5 442.5Q151 413 141 373.5Q131 334 131 290Q131 245 141 205.5Q151 166 171.5 136.5Q192 107 221.5 90Q251 73 290 73Q329 73 358.5 90Q388 107 408.5 136.5Q429 166 439 205.5Q449 245 449 290ZM451 719Q450 705 442.5 688.5Q435 672 422 658.5Q409 645 391 636Q373 627 351 627Q329 627 313 633.5Q297 640 284.5 648.5Q272 657 261 663.5Q250 670 237 670Q222 670 211.5 659Q201 648 199 633L128 657Q129 671 136.5 687.5Q144 704 157 717.5Q170 731 188 740Q206 749 228 749Q250 749 266 742.5Q282 736 294.5 727.5Q307 719 318 712.5Q329 706 342 706Q357 706 367.5 717Q378 728 380 743Z" glyph-name="Otilde" horiz-adv-x="580" unicode="&#213;" /><glyph d="M209 85H360V0H47V85H117V495H47V580H330Q428 580 484.5 538.5Q541 497 541 410Q541 366 525.5 333.5Q510 301 482 279.5Q454 258 415.5 247.5Q377 237 330 237H209ZM209 322H317Q447 322 447 409Q447 495 317 495H209Z" glyph-name="P" horiz-adv-x="580" unicode="P" /><glyph d="M534 -69Q504 -93 456 -93Q414 -93 387.5 -67.5Q361 -42 348 -7Q321 -14 290 -14Q234 -14 187 8Q140 30 106.5 70Q73 110 54 166Q35 222 35 290Q35 358 54 414Q73 470 106.5 510Q140 550 187 572Q234 594 290 594Q346 594 393 572Q440 550 474 510Q508 470 526.5 414Q545 358 545 290Q545 196 511 126.5Q477 57 417 21Q422 4 431 -8.5Q440 -21 458 -21Q480 -21 502 -5ZM449 290Q449 334 439 373.5Q429 413 408.5 442.5Q388 472 358.5 489.5Q329 507 290 507Q251 507 221.5 489.5Q192 472 171.5 442.5Q151 413 141 373.5Q131 334 131 290Q131 245 141 205.5Q151 166 171.5 136.5Q192 107 221.5 90Q251 73 290 73Q313 73 332 79Q328 100 318 119Q308 138 285 138Q273 138 262.5 133Q252 128 244 122L212 187Q226 198 246 205Q266 212 289 212Q331 212 357.5 186.5Q384 161 398 123Q423 153 436 196Q449 239 449 290Z" glyph-name="Q" horiz-adv-x="580" unicode="Q" /><glyph d="M272 242H175V85H260V0H18V85H83V495H18V580H291Q385 580 442.5 538Q500 496 500 411Q500 345 465.5 305.5Q431 266 371 251L471 85H563V0H414ZM175 327H278Q406 327 406 411Q406 495 278 495H175Z" glyph-name="R" horiz-adv-x="580" unicode="R" /><glyph d="M407 741 215 625 169 690 341 835ZM272 242H175V85H260V0H18V85H83V495H18V580H291Q385 580 442.5 538Q500 496 500 411Q500 345 465.5 305.5Q431 266 371 251L471 85H563V0H414ZM175 327H278Q406 327 406 411Q406 495 278 495H175Z" glyph-name="Racute" horiz-adv-x="580" unicode="&#340;" /><glyph d="M141 758 194 821 285 741 376 821 429 758 285 631ZM272 242H175V85H260V0H18V85H83V495H18V580H291Q385 580 442.5 538Q500 496 500 411Q500 345 465.5 305.5Q431 266 371 251L471 85H563V0H414ZM175 327H278Q406 327 406 411Q406 495 278 495H175Z" glyph-name="Rcaron" horiz-adv-x="580" unicode="&#344;" /><glyph d="M370 -59 300 -243H226L258 -59ZM272 242H175V85H260V0H18V85H83V495H18V580H291Q385 580 442.5 538Q500 496 500 411Q500 345 465.5 305.5Q431 266 371 251L471 85H563V0H414ZM175 327H278Q406 327 406 411Q406 495 278 495H175Z" glyph-name="Rcommaaccent" horiz-adv-x="580" unicode="&#342;" /><glyph d="M424 153Q424 176 413.5 192Q403 208 384.5 219Q366 230 340.5 238Q315 246 284 254Q244 264 206.5 277Q169 290 140 310.5Q111 331 94 361.5Q77 392 77 438Q77 480 93 510Q109 540 134.5 558.5Q160 577 192.5 585.5Q225 594 258 594Q312 594 348 575Q384 556 401 532V580H487V381H408Q405 403 395 425.5Q385 448 367 466.5Q349 485 322.5 496.5Q296 508 261 508Q245 508 228 505Q211 502 198 494.5Q185 487 176.5 474Q168 461 168 442Q168 418 180 401.5Q192 385 211.5 373.5Q231 362 257.5 354Q284 346 312 338Q348 328 384 316.5Q420 305 449 285.5Q478 266 496.5 235Q515 204 515 156Q515 114 500.5 82Q486 50 460 29Q434 8 399 -3Q364 -14 323 -14Q263 -14 220.5 5.5Q178 25 158 53V0H72V212H151Q153 186 165.5 160.5Q178 135 199.5 115.5Q221 96 251 84Q281 72 317 72Q361 72 392.5 91Q424 110 424 153Z" glyph-name="S" horiz-adv-x="580" unicode="S" /><glyph d="M429 741 237 625 191 690 363 835ZM424 153Q424 176 413.5 192Q403 208 384.5 219Q366 230 340.5 238Q315 246 284 254Q244 264 206.5 277Q169 290 140 310.5Q111 331 94 361.5Q77 392 77 438Q77 480 93 510Q109 540 134.5 558.5Q160 577 192.5 585.5Q225 594 258 594Q312 594 348 575Q384 556 401 532V580H487V381H408Q405 403 395 425.5Q385 448 367 466.5Q349 485 322.5 496.5Q296 508 261 508Q245 508 228 505Q211 502 198 494.5Q185 487 176.5 474Q168 461 168 442Q168 418 180 401.5Q192 385 211.5 373.5Q231 362 257.5 354Q284 346 312 338Q348 328 384 316.5Q420 305 449 285.5Q478 266 496.5 235Q515 204 515 156Q515 114 500.5 82Q486 50 460 29Q434 8 399 -3Q364 -14 323 -14Q263 -14 220.5 5.5Q178 25 158 53V0H72V212H151Q153 186 165.5 160.5Q178 135 199.5 115.5Q221 96 251 84Q281 72 317 72Q361 72 392.5 91Q424 110 424 153Z" glyph-name="Sacute" horiz-adv-x="580" unicode="&#346;" /><glyph d="M127 758 180 821 271 741 362 821 415 758 271 631ZM424 153Q424 176 413.5 192Q403 208 384.5 219Q366 230 340.5 238Q315 246 284 254Q244 264 206.5 277Q169 290 140 310.5Q111 331 94 361.5Q77 392 77 438Q77 480 93 510Q109 540 134.5 558.5Q160 577 192.5 585.5Q225 594 258 594Q312 594 348 575Q384 556 401 532V580H487V381H408Q405 403 395 425.5Q385 448 367 466.5Q349 485 322.5 496.5Q296 508 261 508Q245 508 228 505Q211 502 198 494.5Q185 487 176.5 474Q168 461 168 442Q168 418 180 401.5Q192 385 211.5 373.5Q231 362 257.5 354Q284 346 312 338Q348 328 384 316.5Q420 305 449 285.5Q478 266 496.5 235Q515 204 515 156Q515 114 500.5 82Q486 50 460 29Q434 8 399 -3Q364 -14 323 -14Q263 -14 220.5 5.5Q178 25 158 53V0H72V212H151Q153 186 165.5 160.5Q178 135 199.5 115.5Q221 96 251 84Q281 72 317 72Q361 72 392.5 91Q424 110 424 153Z" glyph-name="Scaron" horiz-adv-x="580" unicode="&#352;" /><glyph d="M225 -147Q239 -164 252 -174Q265 -184 285 -184Q306 -184 318.5 -173.5Q331 -163 331 -146Q331 -127 318 -118Q305 -109 288 -109Q276 -109 265 -113L220 -80L258 -6Q223 2 197.5 17.5Q172 33 158 53V0H72V212H151Q153 186 165.5 160.5Q178 135 199.5 115.5Q221 96 251 84Q281 72 317 72Q361 72 392.5 91Q424 110 424 153Q424 176 413.5 192Q403 208 384.5 219Q366 230 340.5 238Q315 246 284 254Q244 264 206.5 277Q169 290 140 310.5Q111 331 94 361.5Q77 392 77 438Q77 480 93 510Q109 540 134.5 558.5Q160 577 192.5 585.5Q225 594 258 594Q312 594 348 575Q384 556 401 532V580H487V381H408Q405 403 395 425.5Q385 448 367 466.5Q349 485 322.5 496.5Q296 508 261 508Q245 508 228 505Q211 502 198 494.5Q185 487 176.5 474Q168 461 168 442Q168 418 180 401.5Q192 385 211.5 373.5Q231 362 257.5 354Q284 346 312 338Q348 328 384 316.5Q420 305 449 285.5Q478 266 496.5 235Q515 204 515 156Q515 114 500.5 82Q486 50 460 29Q434 8 399 -3Q364 -14 323 -14H312L290 -55H294Q337 -55 365 -79.5Q393 -104 393 -146Q393 -189 361.5 -214.5Q330 -240 286 -240Q248 -240 221 -222Q194 -204 180 -181Z" glyph-name="Scedilla" horiz-adv-x="580" unicode="&#350;" /><glyph d="M271 831 415 704 362 641 271 721 180 641 127 704ZM424 153Q424 176 413.5 192Q403 208 384.5 219Q366 230 340.5 238Q315 246 284 254Q244 264 206.5 277Q169 290 140 310.5Q111 331 94 361.5Q77 392 77 438Q77 480 93 510Q109 540 134.5 558.5Q160 577 192.5 585.5Q225 594 258 594Q312 594 348 575Q384 556 401 532V580H487V381H408Q405 403 395 425.5Q385 448 367 466.5Q349 485 322.5 496.5Q296 508 261 508Q245 508 228 505Q211 502 198 494.5Q185 487 176.5 474Q168 461 168 442Q168 418 180 401.5Q192 385 211.5 373.5Q231 362 257.5 354Q284 346 312 338Q348 328 384 316.5Q420 305 449 285.5Q478 266 496.5 235Q515 204 515 156Q515 114 500.5 82Q486 50 460 29Q434 8 399 -3Q364 -14 323 -14Q263 -14 220.5 5.5Q178 25 158 53V0H72V212H151Q153 186 165.5 160.5Q178 135 199.5 115.5Q221 96 251 84Q281 72 317 72Q361 72 392.5 91Q424 110 424 153Z" glyph-name="Scircumflex" horiz-adv-x="580" unicode="&#348;" /><glyph d="M366 -59 296 -243H222L254 -59ZM424 153Q424 176 413.5 192Q403 208 384.5 219Q366 230 340.5 238Q315 246 284 254Q244 264 206.5 277Q169 290 140 310.5Q111 331 94 361.5Q77 392 77 438Q77 480 93 510Q109 540 134.5 558.5Q160 577 192.5 585.5Q225 594 258 594Q312 594 348 575Q384 556 401 532V580H487V381H408Q405 403 395 425.5Q385 448 367 466.5Q349 485 322.5 496.5Q296 508 261 508Q245 508 228 505Q211 502 198 494.5Q185 487 176.5 474Q168 461 168 442Q168 418 180 401.5Q192 385 211.5 373.5Q231 362 257.5 354Q284 346 312 338Q348 328 384 316.5Q420 305 449 285.5Q478 266 496.5 235Q515 204 515 156Q515 114 500.5 82Q486 50 460 29Q434 8 399 -3Q364 -14 323 -14Q263 -14 220.5 5.5Q178 25 158 53V0H72V212H151Q153 186 165.5 160.5Q178 135 199.5 115.5Q221 96 251 84Q281 72 317 72Q361 72 392.5 91Q424 110 424 153Z" glyph-name="Scommaaccent" horiz-adv-x="580" unicode="&#536;" /><glyph d="M450 391V495H336V85H458V0H122V85H244V495H130V391H42V580H538V391Z" glyph-name="T" horiz-adv-x="580" unicode="T" /><glyph d="M244 324V495H130V391H42V580H538V391H450V495H336V324H435V239H336V85H458V0H122V85H244V239H145V324Z" glyph-name="Tbar" horiz-adv-x="580" unicode="&#358;" /><glyph d="M450 391V495H336V85H458V0H122V85H244V495H130V391H42V580H538V391ZM146 758 199 821 290 741 381 821 434 758 290 631Z" glyph-name="Tcaron" horiz-adv-x="580" unicode="&#356;" /><glyph d="M450 391V495H336V85H458V0H122V85H244V495H130V391H42V580H538V391ZM348 -59 278 -243H204L236 -59Z" glyph-name="Tcommaaccent" horiz-adv-x="580" unicode="&#354;" /><glyph d="M209 451H320Q423 451 482 413Q541 375 541 295Q541 254 525 224Q509 194 479.5 174.5Q450 155 409.5 145.5Q369 136 320 136H209V85H360V0H47V85H117V495H47V580H360V495H209ZM209 366V221H317Q447 221 447 294Q447 366 317 366Z" glyph-name="Thorn" horiz-adv-x="580" unicode="&#222;" /><glyph d="M10 580H235V495H164V194Q164 165 174 142.5Q184 120 201.5 104Q219 88 242 80Q265 72 290 72Q316 72 338.5 80Q361 88 378.5 104Q396 120 406 142.5Q416 165 416 194V495H345V580H570V495H508V191Q508 142 490.5 104Q473 66 443 40Q413 14 373.5 0Q334 -14 290 -14Q247 -14 207.5 0Q168 14 138 40Q108 66 90 104Q72 142 72 191V495H10Z" glyph-name="U" horiz-adv-x="580" unicode="U" /><glyph d="M10 580H235V495H164V194Q164 165 174 142.5Q184 120 201.5 104Q219 88 242 80Q265 72 290 72Q316 72 338.5 80Q361 88 378.5 104Q396 120 406 142.5Q416 165 416 194V495H345V580H570V495H508V191Q508 142 490.5 104Q473 66 443 40Q413 14 373.5 0Q334 -14 290 -14Q247 -14 207.5 0Q168 14 138 40Q108 66 90 104Q72 142 72 191V495H10ZM429 741 237 625 191 690 363 835Z" glyph-name="Uacute" horiz-adv-x="580" unicode="&#218;" /><glyph d="M10 580H235V495H164V194Q164 165 174 142.5Q184 120 201.5 104Q219 88 242 80Q265 72 290 72Q316 72 338.5 80Q361 88 378.5 104Q396 120 406 142.5Q416 165 416 194V495H345V580H570V495H508V191Q508 142 490.5 104Q473 66 443 40Q413 14 373.5 0Q334 -14 290 -14Q247 -14 207.5 0Q168 14 138 40Q108 66 90 104Q72 142 72 191V495H10ZM290 635Q229 635 188.5 670.5Q148 706 145 766L224 771Q226 744 243.5 725.5Q261 707 290 707Q318 707 336 725.5Q354 744 356 771L435 766Q432 706 391.5 670.5Q351 635 290 635Z" glyph-name="Ubreve" horiz-adv-x="580" unicode="&#364;" /><glyph d="M10 580H235V495H164V194Q164 165 174 142.5Q184 120 201.5 104Q219 88 242 80Q265 72 290 72Q316 72 338.5 80Q361 88 378.5 104Q396 120 406 142.5Q416 165 416 194V495H345V580H570V495H508V191Q508 142 490.5 104Q473 66 443 40Q413 14 373.5 0Q334 -14 290 -14Q247 -14 207.5 0Q168 14 138 40Q108 66 90 104Q72 142 72 191V495H10ZM290 821 434 694 381 631 290 711 199 631 146 694Z" glyph-name="Ucircumflex" horiz-adv-x="580" unicode="&#219;" /><glyph d="M10 580H235V495H164V194Q164 165 174 142.5Q184 120 201.5 104Q219 88 242 80Q265 72 290 72Q316 72 338.5 80Q361 88 378.5 104Q396 120 406 142.5Q416 165 416 194V495H345V580H570V495H508V191Q508 142 490.5 104Q473 66 443 40Q413 14 373.5 0Q334 -14 290 -14Q247 -14 207.5 0Q168 14 138 40Q108 66 90 104Q72 142 72 191V495H10ZM260 716Q260 685 239.5 665.5Q219 646 190 646Q161 646 140.5 665.5Q120 685 120 716Q120 747 140.5 766.5Q161 786 190 786Q219 786 239.5 766.5Q260 747 260 716ZM460 716Q460 685 439.5 665.5Q419 646 390 646Q361 646 340.5 665.5Q320 685 320 716Q320 747 340.5 766.5Q361 786 390 786Q419 786 439.5 766.5Q460 747 460 716Z" glyph-name="Udieresis" horiz-adv-x="580" unicode="&#220;" /><glyph d="M10 580H235V495H164V194Q164 165 174 142.5Q184 120 201.5 104Q219 88 242 80Q265 72 290 72Q316 72 338.5 80Q361 88 378.5 104Q396 120 406 142.5Q416 165 416 194V495H345V580H570V495H508V191Q508 142 490.5 104Q473 66 443 40Q413 14 373.5 0Q334 -14 290 -14Q247 -14 207.5 0Q168 14 138 40Q108 66 90 104Q72 142 72 191V495H10ZM217 835 389 690 343 625 151 741Z" glyph-name="Ugrave" horiz-adv-x="580" unicode="&#217;" /><glyph d="M10 580H235V495H164V194Q164 165 174 142.5Q184 120 201.5 104Q219 88 242 80Q265 72 290 72Q316 72 338.5 80Q361 88 378.5 104Q396 120 406 142.5Q416 165 416 194V495H345V580H570V495H508V191Q508 142 490.5 104Q473 66 443 40Q413 14 373.5 0Q334 -14 290 -14Q247 -14 207.5 0Q168 14 138 40Q108 66 90 104Q72 142 72 191V495H10ZM344 751 160 629 115 687 278 837ZM566 751 382 629 337 687 500 837Z" glyph-name="Uhungarumlaut" horiz-adv-x="580" unicode="&#368;" /><glyph d="M10 580H235V495H164V194Q164 165 174 142.5Q184 120 201.5 104Q219 88 242 80Q265 72 290 72Q316 72 338.5 80Q361 88 378.5 104Q396 120 406 142.5Q416 165 416 194V495H345V580H570V495H508V191Q508 142 490.5 104Q473 66 443 40Q413 14 373.5 0Q334 -14 290 -14Q247 -14 207.5 0Q168 14 138 40Q108 66 90 104Q72 142 72 191V495H10ZM161 729H419V645H161Z" glyph-name="Umacron" horiz-adv-x="580" unicode="&#362;" /><glyph d="M10 580H235V495H164V194Q164 165 174 142.5Q184 120 201.5 104Q219 88 242 80Q265 72 290 72Q316 72 338.5 80Q361 88 378.5 104Q396 120 406 142.5Q416 165 416 194V495H345V580H570V495H508V192Q508 156 498 126Q488 96 471.5 72.5Q455 49 433.5 31.5Q412 14 389 2Q367 -10 346 -24.5Q325 -39 309.5 -54Q294 -69 284.5 -84Q275 -99 275 -112Q275 -123 282.5 -130.5Q290 -138 307 -138Q327 -138 344.5 -128Q362 -118 379 -104L418 -153Q393 -178 363 -194.5Q333 -211 294 -211Q247 -211 221 -187Q195 -163 195 -124Q195 -64 265 -13Q226 -9 190.5 6Q155 21 129 47.5Q103 74 87.5 110Q72 146 72 192V495H10Z" glyph-name="Uogonek" horiz-adv-x="580" unicode="&#370;" /><glyph d="M10 580H235V495H164V194Q164 165 174 142.5Q184 120 201.5 104Q219 88 242 80Q265 72 290 72Q316 72 338.5 80Q361 88 378.5 104Q396 120 406 142.5Q416 165 416 194V495H345V580H570V495H508V191Q508 142 490.5 104Q473 66 443 40Q413 14 373.5 0Q334 -14 290 -14Q247 -14 207.5 0Q168 14 138 40Q108 66 90 104Q72 142 72 191V495H10ZM400 736Q400 714 391.5 694Q383 674 368 659Q353 644 333 635.5Q313 627 290 627Q267 627 247 635.5Q227 644 212 659Q197 674 188.5 694Q180 714 180 736Q180 783 211.5 814Q243 845 290 845Q337 845 368.5 814Q400 783 400 736ZM331 736Q331 753 320.5 765.5Q310 778 290 778Q270 778 259.5 765.5Q249 753 249 736Q249 719 259.5 706.5Q270 694 290 694Q310 694 320.5 706.5Q331 719 331 736Z" glyph-name="Uring" horiz-adv-x="580" unicode="&#366;" /><glyph d="M10 580H235V495H164V194Q164 165 174 142.5Q184 120 201.5 104Q219 88 242 80Q265 72 290 72Q316 72 338.5 80Q361 88 378.5 104Q396 120 406 142.5Q416 165 416 194V495H345V580H570V495H508V191Q508 142 490.5 104Q473 66 443 40Q413 14 373.5 0Q334 -14 290 -14Q247 -14 207.5 0Q168 14 138 40Q108 66 90 104Q72 142 72 191V495H10ZM451 719Q450 705 442.5 688.5Q435 672 422 658.5Q409 645 391 636Q373 627 351 627Q329 627 313 633.5Q297 640 284.5 648.5Q272 657 261 663.5Q250 670 237 670Q222 670 211.5 659Q201 648 199 633L128 657Q129 671 136.5 687.5Q144 704 157 717.5Q170 731 188 740Q206 749 228 749Q250 749 266 742.5Q282 736 294.5 727.5Q307 719 318 712.5Q329 706 342 706Q357 706 367.5 717Q378 728 380 743Z" glyph-name="Utilde" horiz-adv-x="580" unicode="&#360;" /><glyph d="M416 495H349V580H566V495H508L351 0H229L71 495H14V580H234V495H169L292 100Z" glyph-name="V" horiz-adv-x="580" unicode="V" /><glyph d="M380 0 290 297 200 0H98L47 495H9V580H210V495H141L173 162L247 409H335L408 162L440 495H370V580H571V495H532L482 0Z" glyph-name="W" horiz-adv-x="580" unicode="W" /><glyph d="M380 0 290 297 200 0H98L47 495H9V580H210V495H141L173 162L247 409H335L408 162L440 495H370V580H571V495H532L482 0ZM428 741 236 625 190 690 362 835Z" glyph-name="Wacute" horiz-adv-x="580" unicode="&#7810;" /><glyph d="M380 0 290 297 200 0H98L47 495H9V580H210V495H141L173 162L247 409H335L408 162L440 495H370V580H571V495H532L482 0ZM290 819 434 692 381 629 290 709 199 629 146 692Z" glyph-name="Wcircumflex" horiz-adv-x="580" unicode="&#372;" /><glyph d="M380 0 290 297 200 0H98L47 495H9V580H210V495H141L173 162L247 409H335L408 162L440 495H370V580H571V495H532L482 0ZM260 716Q260 685 239.5 665.5Q219 646 190 646Q161 646 140.5 665.5Q120 685 120 716Q120 747 140.5 766.5Q161 786 190 786Q219 786 239.5 766.5Q260 747 260 716ZM460 716Q460 685 439.5 665.5Q419 646 390 646Q361 646 340.5 665.5Q320 685 320 716Q320 747 340.5 766.5Q361 786 390 786Q419 786 439.5 766.5Q460 747 460 716Z" glyph-name="Wdieresis" horiz-adv-x="580" unicode="&#7812;" /><glyph d="M380 0 290 297 200 0H98L47 495H9V580H210V495H141L173 162L247 409H335L408 162L440 495H370V580H571V495H532L482 0ZM218 835 390 690 344 625 152 741Z" glyph-name="Wgrave" horiz-adv-x="580" unicode="&#7808;" /><glyph d="M15 0V85H55L231 297L66 495H26V580H237V495H185L291 367L396 495H345V580H553V495H513L349 297L524 85H564V0H346V85H406L289 227L172 85H230V0Z" glyph-name="X" horiz-adv-x="580" unicode="X" /><glyph d="M563 580V495H514L336 229V85H459V0H121V85H244V229L66 495H17V580H235V495H176L292 316L408 495H345V580Z" glyph-name="Y" horiz-adv-x="580" unicode="Y" /><glyph d="M563 580V495H514L336 229V85H459V0H121V85H244V229L66 495H17V580H235V495H176L292 316L408 495H345V580ZM439 741 247 625 201 690 373 835Z" glyph-name="Yacute" horiz-adv-x="580" unicode="&#221;" /><glyph d="M563 580V495H514L336 229V85H459V0H121V85H244V229L66 495H17V580H235V495H176L292 316L408 495H345V580ZM290 821 434 694 381 631 290 711 199 631 146 694Z" glyph-name="Ycircumflex" horiz-adv-x="580" unicode="&#374;" /><glyph d="M563 580V495H514L336 229V85H459V0H121V85H244V229L66 495H17V580H235V495H176L292 316L408 495H345V580ZM260 716Q260 685 239.5 665.5Q219 646 190 646Q161 646 140.5 665.5Q120 685 120 716Q120 747 140.5 766.5Q161 786 190 786Q219 786 239.5 766.5Q260 747 260 716ZM460 716Q460 685 439.5 665.5Q419 646 390 646Q361 646 340.5 665.5Q320 685 320 716Q320 747 340.5 766.5Q361 786 390 786Q419 786 439.5 766.5Q460 747 460 716Z" glyph-name="Ydieresis" horiz-adv-x="580" unicode="&#376;" /><glyph d="M65 0V101L396 495H174V401H86V580H499V480L166 85H427V188H515V0Z" glyph-name="Z" horiz-adv-x="580" unicode="Z" /><glyph d="M65 0V101L396 495H174V401H86V580H499V480L166 85H427V188H515V0ZM425 741 233 625 187 690 359 835Z" glyph-name="Zacute" horiz-adv-x="580" unicode="&#377;" /><glyph d="M65 0V101L396 495H174V401H86V580H499V480L166 85H427V188H515V0ZM149 758 202 821 293 741 384 821 437 758 293 631Z" glyph-name="Zcaron" horiz-adv-x="580" unicode="&#381;" /><glyph d="M65 0V101L396 495H174V401H86V580H499V480L166 85H427V188H515V0ZM368 716Q368 683 346 662Q324 641 293 641Q262 641 240 662Q218 683 218 716Q218 749 240 770Q262 791 293 791Q324 791 346 770Q368 749 368 716Z" glyph-name="Zdotaccent" horiz-adv-x="580" unicode="&#379;" /><glyph d="M465 85H527V0H375V45Q358 17 316.5 1.5Q275 -14 229 -14Q196 -14 166.5 -5.5Q137 3 114.5 19.5Q92 36 78.5 61.5Q65 87 65 120Q65 159 82.5 187Q100 215 128 232Q156 249 191.5 257Q227 265 262 265Q297 265 325 259.5Q353 254 375 248V272Q375 317 344.5 337Q314 357 275 357Q238 357 207 343Q176 329 150 306L92 369Q122 397 166 418.5Q210 440 275 440Q315 440 350 429.5Q385 419 410.5 398Q436 377 450.5 346.5Q465 316 465 275ZM375 172Q354 180 324.5 185Q295 190 266 190Q245 190 225 186.5Q205 183 190 174.5Q175 166 165.5 153Q156 140 156 121Q156 92 179 78.5Q202 65 237 65Q261 65 286 71.5Q311 78 330.5 90Q350 102 362.5 120Q375 138 375 160Z" glyph-name="a" horiz-adv-x="580" unicode="a" /><glyph d="M465 85H527V0H375V45Q358 17 316.5 1.5Q275 -14 229 -14Q196 -14 166.5 -5.5Q137 3 114.5 19.5Q92 36 78.5 61.5Q65 87 65 120Q65 159 82.5 187Q100 215 128 232Q156 249 191.5 257Q227 265 262 265Q297 265 325 259.5Q353 254 375 248V272Q375 317 344.5 337Q314 357 275 357Q238 357 207 343Q176 329 150 306L92 369Q122 397 166 418.5Q210 440 275 440Q315 440 350 429.5Q385 419 410.5 398Q436 377 450.5 346.5Q465 316 465 275ZM375 172Q354 180 324.5 185Q295 190 266 190Q245 190 225 186.5Q205 183 190 174.5Q175 166 165.5 153Q156 140 156 121Q156 92 179 78.5Q202 65 237 65Q261 65 286 71.5Q311 78 330.5 90Q350 102 362.5 120Q375 138 375 160ZM405 597 213 481 167 546 339 691Z" glyph-name="aacute" horiz-adv-x="580" unicode="&#225;" /><glyph d="M465 85H527V0H375V45Q358 17 316.5 1.5Q275 -14 229 -14Q196 -14 166.5 -5.5Q137 3 114.5 19.5Q92 36 78.5 61.5Q65 87 65 120Q65 159 82.5 187Q100 215 128 232Q156 249 191.5 257Q227 265 262 265Q297 265 325 259.5Q353 254 375 248V272Q375 317 344.5 337Q314 357 275 357Q238 357 207 343Q176 329 150 306L92 369Q122 397 166 418.5Q210 440 275 440Q315 440 350 429.5Q385 419 410.5 398Q436 377 450.5 346.5Q465 316 465 275ZM375 172Q354 180 324.5 185Q295 190 266 190Q245 190 225 186.5Q205 183 190 174.5Q175 166 165.5 153Q156 140 156 121Q156 92 179 78.5Q202 65 237 65Q261 65 286 71.5Q311 78 330.5 90Q350 102 362.5 120Q375 138 375 160ZM280 495Q219 495 178.5 530.5Q138 566 135 626L214 631Q216 604 233.5 585.5Q251 567 280 567Q308 567 326 585.5Q344 604 346 631L425 626Q422 566 381.5 530.5Q341 495 280 495Z" glyph-name="abreve" horiz-adv-x="580" unicode="&#259;" /><glyph d="M465 85H527V0H375V45Q358 17 316.5 1.5Q275 -14 229 -14Q196 -14 166.5 -5.5Q137 3 114.5 19.5Q92 36 78.5 61.5Q65 87 65 120Q65 159 82.5 187Q100 215 128 232Q156 249 191.5 257Q227 265 262 265Q297 265 325 259.5Q353 254 375 248V272Q375 317 344.5 337Q314 357 275 357Q238 357 207 343Q176 329 150 306L92 369Q122 397 166 418.5Q210 440 275 440Q315 440 350 429.5Q385 419 410.5 398Q436 377 450.5 346.5Q465 316 465 275ZM375 172Q354 180 324.5 185Q295 190 266 190Q245 190 225 186.5Q205 183 190 174.5Q175 166 165.5 153Q156 140 156 121Q156 92 179 78.5Q202 65 237 65Q261 65 286 71.5Q311 78 330.5 90Q350 102 362.5 120Q375 138 375 160ZM280 677 424 550 371 487 280 567 189 487 136 550Z" glyph-name="acircumflex" horiz-adv-x="580" unicode="&#226;" /><glyph d="M409 597 217 481 171 546 343 691Z" glyph-name="acute" horiz-adv-x="580" unicode="&#180;" /><glyph d="M465 85H527V0H375V45Q358 17 316.5 1.5Q275 -14 229 -14Q196 -14 166.5 -5.5Q137 3 114.5 19.5Q92 36 78.5 61.5Q65 87 65 120Q65 159 82.5 187Q100 215 128 232Q156 249 191.5 257Q227 265 262 265Q297 265 325 259.5Q353 254 375 248V272Q375 317 344.5 337Q314 357 275 357Q238 357 207 343Q176 329 150 306L92 369Q122 397 166 418.5Q210 440 275 440Q315 440 350 429.5Q385 419 410.5 398Q436 377 450.5 346.5Q465 316 465 275ZM375 172Q354 180 324.5 185Q295 190 266 190Q245 190 225 186.5Q205 183 190 174.5Q175 166 165.5 153Q156 140 156 121Q156 92 179 78.5Q202 65 237 65Q261 65 286 71.5Q311 78 330.5 90Q350 102 362.5 120Q375 138 375 160ZM250 576Q250 545 229.5 525.5Q209 506 180 506Q151 506 130.5 525.5Q110 545 110 576Q110 607 130.5 626.5Q151 646 180 646Q209 646 229.5 626.5Q250 607 250 576ZM450 576Q450 545 429.5 525.5Q409 506 380 506Q351 506 330.5 525.5Q310 545 310 576Q310 607 330.5 626.5Q351 646 380 646Q409 646 429.5 626.5Q450 607 450 576Z" glyph-name="adieresis" horiz-adv-x="580" unicode="&#228;" /><glyph d="M556 62Q530 27 493.5 6.5Q457 -14 413 -14Q371 -14 338.5 4.5Q306 23 284 61Q271 38 254.5 23.5Q238 9 219.5 0.5Q201 -8 182.5 -11Q164 -14 147 -14Q121 -14 97.5 -5.5Q74 3 56 19.5Q38 36 27.5 60Q17 84 17 116Q17 153 31.5 179.5Q46 206 70 223Q94 240 123.5 248Q153 256 183 256H239V272Q239 318 220 338Q201 358 175 358Q150 358 127.5 345Q105 332 89 310L32 369Q57 398 91.5 419Q126 440 175 440Q214 440 244.5 422Q275 404 292 369Q309 401 338 420.5Q367 440 407 440Q443 440 472.5 422.5Q502 405 522 372.5Q542 340 553 295.5Q564 251 564 197V182H327Q331 129 354.5 98.5Q378 68 415 68Q440 68 463.5 83.5Q487 99 502 120ZM239 182H191Q158 182 131 167.5Q104 153 104 117Q104 92 119 79.5Q134 67 156 67Q170 67 185 73Q200 79 212 91Q224 103 231.5 120Q239 137 239 158ZM470 256Q468 301 450 329.5Q432 358 407 358Q375 358 355 329Q335 300 331 256Z" glyph-name="ae" horiz-adv-x="580" unicode="&#230;" /><glyph d="M465 85H527V0H375V45Q358 17 316.5 1.5Q275 -14 229 -14Q196 -14 166.5 -5.5Q137 3 114.5 19.5Q92 36 78.5 61.5Q65 87 65 120Q65 159 82.5 187Q100 215 128 232Q156 249 191.5 257Q227 265 262 265Q297 265 325 259.5Q353 254 375 248V272Q375 317 344.5 337Q314 357 275 357Q238 357 207 343Q176 329 150 306L92 369Q122 397 166 418.5Q210 440 275 440Q315 440 350 429.5Q385 419 410.5 398Q436 377 450.5 346.5Q465 316 465 275ZM375 172Q354 180 324.5 185Q295 190 266 190Q245 190 225 186.5Q205 183 190 174.5Q175 166 165.5 153Q156 140 156 121Q156 92 179 78.5Q202 65 237 65Q261 65 286 71.5Q311 78 330.5 90Q350 102 362.5 120Q375 138 375 160ZM226 691 398 546 352 481 160 597Z" glyph-name="agrave" horiz-adv-x="580" unicode="&#224;" /><glyph d="M465 85H527V0H375V45Q358 17 316.5 1.5Q275 -14 229 -14Q196 -14 166.5 -5.5Q137 3 114.5 19.5Q92 36 78.5 61.5Q65 87 65 120Q65 159 82.5 187Q100 215 128 232Q156 249 191.5 257Q227 265 262 265Q297 265 325 259.5Q353 254 375 248V272Q375 317 344.5 337Q314 357 275 357Q238 357 207 343Q176 329 150 306L92 369Q122 397 166 418.5Q210 440 275 440Q315 440 350 429.5Q385 419 410.5 398Q436 377 450.5 346.5Q465 316 465 275ZM375 172Q354 180 324.5 185Q295 190 266 190Q245 190 225 186.5Q205 183 190 174.5Q175 166 165.5 153Q156 140 156 121Q156 92 179 78.5Q202 65 237 65Q261 65 286 71.5Q311 78 330.5 90Q350 102 362.5 120Q375 138 375 160ZM151 589H409V505H151Z" glyph-name="amacron" horiz-adv-x="580" unicode="&#257;" /><glyph d="M362 310H539V228H491Q484 188 469 152.5Q454 117 437 95L445 85H559V0H402L375 33Q333 5 291 -4.5Q249 -14 216 -14Q176 -14 140.5 -3Q105 8 79 29.5Q53 51 38 82Q23 113 23 153Q23 214 57.5 251.5Q92 289 144 317L131 333Q113 356 99.5 386.5Q86 417 86 452Q86 484 97.5 510Q109 536 129 555Q149 574 177 584Q205 594 238 594Q268 594 295 584.5Q322 575 342 556.5Q362 538 374 511.5Q386 485 386 451Q386 422 377 398Q368 374 352.5 354.5Q337 335 317.5 319.5Q298 304 277 292L380 164Q388 178 394.5 193.5Q401 209 404 228H362ZM230 72Q262 72 283 79.5Q304 87 321 99L197 251Q160 231 139 209.5Q118 188 118 155Q118 118 145.5 95Q173 72 230 72ZM178 453Q178 436 184.5 417Q191 398 205 381L224 357Q256 374 275 396.5Q294 419 294 451Q294 479 278.5 495.5Q263 512 240 512Q214 512 196 495.5Q178 479 178 453Z" glyph-name="ampersand" horiz-adv-x="580" unicode="&amp;" /><glyph d="M375 45Q358 17 316.5 1.5Q275 -14 229 -14Q196 -14 166.5 -5.5Q137 3 114.5 19.5Q92 36 78.5 61.5Q65 87 65 120Q65 159 82.5 187Q100 215 128 232Q156 249 191.5 257Q227 265 262 265Q297 265 325 259.5Q353 254 375 248V272Q375 317 344.5 337Q314 357 275 357Q238 357 207 343Q176 329 150 306L92 369Q122 397 166 418.5Q210 440 275 440Q315 440 350 429.5Q385 419 410.5 398Q436 377 450.5 346.5Q465 316 465 275V85H527V0H478Q428 -26 396.5 -56Q365 -86 365 -112Q365 -123 372.5 -130.5Q380 -138 397 -138Q417 -138 434.5 -128Q452 -118 469 -104L508 -153Q483 -178 453 -194.5Q423 -211 384 -211Q337 -211 311 -187Q285 -163 285 -124Q285 -56 375 0ZM375 172Q354 180 324.5 185Q295 190 266 190Q245 190 225 186.5Q205 183 190 174.5Q175 166 165.5 153Q156 140 156 121Q156 92 179 78.5Q202 65 237 65Q261 65 286 71.5Q311 78 330.5 90Q350 102 362.5 120Q375 138 375 160Z" glyph-name="aogonek" horiz-adv-x="580" unicode="&#261;" /><glyph d="M521 426Q520 406 510 383Q500 360 482 340.5Q464 321 439 308Q414 295 381 295Q349 295 324 306.5Q299 318 278 332Q257 346 238 357.5Q219 369 199 369Q183 369 172.5 362Q162 355 155.5 344.5Q149 334 145 322.5Q141 311 139 301L59 325Q61 345 70.5 368Q80 391 98 410.5Q116 430 141 443Q166 456 199 456Q231 456 256 444.5Q281 433 302 419Q323 405 342 393.5Q361 382 381 382Q397 382 407.5 389Q418 396 424.5 406Q431 416 435 428Q439 440 441 450ZM521 226Q520 206 510 183Q500 160 482 140.5Q464 121 439 108Q414 95 381 95Q349 95 324 106.5Q299 118 278 132Q257 146 238 157.5Q219 169 199 169Q183 169 172.5 162Q162 155 155.5 144.5Q149 134 145 122.5Q141 111 139 101L59 125Q61 145 70.5 168Q80 191 98 210.5Q116 230 141 243Q166 256 199 256Q231 256 256 244.5Q281 233 302 219Q323 205 342 193.5Q361 182 381 182Q397 182 407.5 189Q418 196 424.5 206Q431 216 435 228Q439 240 441 250Z" glyph-name="approxequal" horiz-adv-x="580" unicode="&#8776;" /><glyph d="M465 85H527V0H375V45Q358 17 316.5 1.5Q275 -14 229 -14Q196 -14 166.5 -5.5Q137 3 114.5 19.5Q92 36 78.5 61.5Q65 87 65 120Q65 159 82.5 187Q100 215 128 232Q156 249 191.5 257Q227 265 262 265Q297 265 325 259.5Q353 254 375 248V272Q375 317 344.5 337Q314 357 275 357Q238 357 207 343Q176 329 150 306L92 369Q122 397 166 418.5Q210 440 275 440Q315 440 350 429.5Q385 419 410.5 398Q436 377 450.5 346.5Q465 316 465 275ZM375 172Q354 180 324.5 185Q295 190 266 190Q245 190 225 186.5Q205 183 190 174.5Q175 166 165.5 153Q156 140 156 121Q156 92 179 78.5Q202 65 237 65Q261 65 286 71.5Q311 78 330.5 90Q350 102 362.5 120Q375 138 375 160ZM390 588Q390 566 381.5 546Q373 526 358 511Q343 496 323 487.5Q303 479 280 479Q257 479 237 487.5Q217 496 202 511Q187 526 178.5 546Q170 566 170 588Q170 635 201.5 666Q233 697 280 697Q327 697 358.5 666Q390 635 390 588ZM321 588Q321 605 310.5 617.5Q300 630 280 630Q260 630 249.5 617.5Q239 605 239 588Q239 571 249.5 558.5Q260 546 280 546Q300 546 310.5 558.5Q321 571 321 588Z" glyph-name="aring" horiz-adv-x="580" unicode="&#229;" /><glyph d="M290 607 477 386 412 331 290 474 168 331 103 386Z" glyph-name="asciicircum" horiz-adv-x="580" unicode="^" /><glyph d="M521 321Q520 300 510 276.5Q500 253 482 232.5Q464 212 439 199Q414 186 381 186Q349 186 324 199Q299 212 278 227Q257 242 238 255Q219 268 199 268Q183 268 173 260.5Q163 253 156 242Q149 231 145.5 218.5Q142 206 139 196L59 220Q61 241 70.5 264.5Q80 288 98 308.5Q116 329 141 342Q166 355 199 355Q231 355 256 342Q281 329 302 314Q323 299 342 286Q361 273 381 273Q397 273 407 280.5Q417 288 424 299Q431 310 434.5 322.5Q438 335 441 345Z" glyph-name="asciitilde" horiz-adv-x="580" unicode="~" /><glyph d="M252 656H329V529L450 569L474 496L352 456L427 353L365 307L290 410L215 307L153 353L228 456L107 496L131 569L252 529Z" glyph-name="asterisk" horiz-adv-x="580" unicode="*" /><glyph d="M285 -43Q229 -43 186 -25Q143 -7 113.5 25.5Q84 58 69 102.5Q54 147 54 199V386Q54 438 69.5 482.5Q85 527 114.5 560Q144 593 186.5 611.5Q229 630 283 630Q335 630 375.5 612Q416 594 443.5 564.5Q471 535 485.5 496.5Q500 458 500 417V237H550V156H417V198Q406 177 382 162.5Q358 148 320 148Q296 148 274.5 157Q253 166 236.5 182.5Q220 199 210.5 222.5Q201 246 201 276Q201 315 214.5 341.5Q228 368 249.5 385Q271 402 299 409.5Q327 417 355 417Q372 417 387 413.5Q402 410 415 405V421Q415 445 407 468Q399 491 382.5 509Q366 527 341.5 538Q317 549 283 549Q249 549 222.5 536.5Q196 524 178 502Q160 480 151 450Q142 420 142 385V200Q142 166 151.5 136.5Q161 107 179 85Q197 63 224 50.5Q251 38 285 38Q325 38 354 53.5Q383 69 407 92L468 37Q436 -1 390.5 -22Q345 -43 285 -43ZM415 329Q406 334 390 337.5Q374 341 357 341Q328 341 306.5 327Q285 313 285 282Q285 256 299.5 241.5Q314 227 335 227Q349 227 363.5 232.5Q378 238 389.5 248.5Q401 259 408 275Q415 291 415 312Z" glyph-name="at" horiz-adv-x="580" unicode="@" /><glyph d="M465 85H527V0H375V45Q358 17 316.5 1.5Q275 -14 229 -14Q196 -14 166.5 -5.5Q137 3 114.5 19.5Q92 36 78.5 61.5Q65 87 65 120Q65 159 82.5 187Q100 215 128 232Q156 249 191.5 257Q227 265 262 265Q297 265 325 259.5Q353 254 375 248V272Q375 317 344.5 337Q314 357 275 357Q238 357 207 343Q176 329 150 306L92 369Q122 397 166 418.5Q210 440 275 440Q315 440 350 429.5Q385 419 410.5 398Q436 377 450.5 346.5Q465 316 465 275ZM375 172Q354 180 324.5 185Q295 190 266 190Q245 190 225 186.5Q205 183 190 174.5Q175 166 165.5 153Q156 140 156 121Q156 92 179 78.5Q202 65 237 65Q261 65 286 71.5Q311 78 330.5 90Q350 102 362.5 120Q375 138 375 160ZM443 577Q442 563 434.5 546.5Q427 530 414 516.5Q401 503 383 494Q365 485 343 485Q321 485 305 491.5Q289 498 276.5 506.5Q264 515 253 521.5Q242 528 229 528Q214 528 203.5 517Q193 506 191 491L120 515Q121 529 128.5 545.5Q136 562 149 575.5Q162 589 180 598Q198 607 220 607Q242 607 258 600.5Q274 594 286.5 585.5Q299 577 310 570.5Q321 564 334 564Q349 564 359.5 575Q370 586 372 601Z" glyph-name="atilde" horiz-adv-x="580" unicode="&#227;" /><glyph d="M26 85H87V531H26V616H175V374Q193 397 231 418.5Q269 440 327 440Q373 440 412.5 423Q452 406 480.5 376Q509 346 525.5 304.5Q542 263 542 213Q542 164 525.5 122Q509 80 480.5 50Q452 20 412.5 3Q373 -14 327 -14Q269 -14 231 7.5Q193 29 175 52V0H26ZM451 213Q451 244 440.5 270.5Q430 297 412 316Q394 335 369 346Q344 357 315 357Q286 357 260.5 347Q235 337 216 318.5Q197 300 186 274.5Q175 249 175 219V207Q175 177 186 151.5Q197 126 216 107.5Q235 89 260.5 79Q286 69 315 69Q344 69 369 80Q394 91 412 110Q430 129 440.5 155.5Q451 182 451 213Z" glyph-name="b" horiz-adv-x="580" unicode="b" /><glyph d="M65 640 143 679 516 -83 438 -121Z" glyph-name="backslash" horiz-adv-x="580" unicode="\" /><glyph d="M334 657V-138H246V657Z" glyph-name="bar" horiz-adv-x="580" unicode="|" /><glyph d="M496 422Q496 374 471 344Q446 314 411 300Q462 286 495 251.5Q528 217 528 167Q528 96 481 54.5Q434 13 351 5V-96H272V4H198V-96H119V4H41V89H108V491H41V576H119V670H198V576H272V670H351V572Q420 561 458 522.5Q496 484 496 422ZM198 89H304Q436 89 436 172Q436 255 297 255H198ZM198 337H290Q404 337 404 414Q404 491 289 491H198Z" glyph-name="bitcoin" horiz-adv-x="580" unicode="&#62136;" /><glyph d="M327 14Q327 -53 382 -53H417V-137H379Q340 -137 313.5 -126Q287 -115 270.5 -95Q254 -75 246.5 -47Q239 -19 239 14V133Q239 171 218 192Q197 213 155 213V307Q197 307 218 328Q239 349 239 387V506Q239 539 246.5 567Q254 595 270.5 615Q287 635 313.5 646Q340 657 379 657H417V573H382Q327 573 327 506V381Q327 333 307 300.5Q287 268 245 260Q287 252 307 220.5Q327 189 327 139Z" glyph-name="braceleft" horiz-adv-x="580" unicode="{" /><glyph d="M253 506Q253 573 198 573H163V657H201Q240 657 266.5 646Q293 635 309.5 615Q326 595 333.5 567Q341 539 341 506V387Q341 349 362 328Q383 307 425 307V213Q383 213 362 192Q341 171 341 133V14Q341 -19 333.5 -47Q326 -75 309.5 -95Q293 -115 266.5 -126Q240 -137 201 -137H163V-53H198Q253 -53 253 14V139Q253 189 273 220.5Q293 252 335 260Q293 268 273 300.5Q253 333 253 381Z" glyph-name="braceright" horiz-adv-x="580" unicode="}" /><glyph d="M263 572V-53H422V-138H175V657H422V572Z" glyph-name="bracketleft" horiz-adv-x="580" unicode="[" /><glyph d="M158 572V657H405V-138H158V-53H317V572Z" glyph-name="bracketright" horiz-adv-x="580" unicode="]" /><glyph d="M290 495Q229 495 188.5 530.5Q148 566 145 626L224 631Q226 604 243.5 585.5Q261 567 290 567Q318 567 336 585.5Q354 604 356 631L435 626Q432 566 391.5 530.5Q351 495 290 495Z" glyph-name="breve" horiz-adv-x="580" unicode="&#728;" /><glyph d="M334 201V-138H246V201ZM246 318V657H334V318Z" glyph-name="brokenbar" horiz-adv-x="580" unicode="&#166;" /><glyph d="M137 287Q137 319 149 346.5Q161 374 182 395Q203 416 231 428Q259 440 290 440Q322 440 349.5 428Q377 416 398 395Q419 374 431 346.5Q443 319 443 287Q443 256 431 228Q419 200 398 179Q377 158 349.5 146Q322 134 290 134Q259 134 231 146Q203 158 182 179Q161 200 149 228Q137 256 137 287Z" glyph-name="bullet" horiz-adv-x="580" unicode="&#8226;" /><glyph d="M437 258Q431 299 395.5 327.5Q360 356 303 356Q272 356 245 345Q218 334 198.5 315Q179 296 168 270.5Q157 245 157 216Q157 183 168.5 156.5Q180 130 200.5 110.5Q221 91 248.5 80.5Q276 70 308 70Q358 70 397 89.5Q436 109 462 138L522 77Q487 36 431 11Q375 -14 308 -14Q254 -14 209 3Q164 20 131.5 50.5Q99 81 81.5 123.5Q64 166 64 216Q64 264 82 305Q100 346 131.5 376Q163 406 206 423Q249 440 299 440Q350 440 382 421.5Q414 403 427 385V426H510V258Z" glyph-name="c" horiz-adv-x="580" unicode="c" /><glyph d="M437 258Q431 299 395.5 327.5Q360 356 303 356Q272 356 245 345Q218 334 198.5 315Q179 296 168 270.5Q157 245 157 216Q157 183 168.5 156.5Q180 130 200.5 110.5Q221 91 248.5 80.5Q276 70 308 70Q358 70 397 89.5Q436 109 462 138L522 77Q487 36 431 11Q375 -14 308 -14Q254 -14 209 3Q164 20 131.5 50.5Q99 81 81.5 123.5Q64 166 64 216Q64 264 82 305Q100 346 131.5 376Q163 406 206 423Q249 440 299 440Q350 440 382 421.5Q414 403 427 385V426H510V258ZM423 597 231 481 185 546 357 691Z" glyph-name="cacute" horiz-adv-x="580" unicode="&#263;" /><glyph d="M146 614 199 677 290 597 381 677 434 614 290 487Z" glyph-name="caron" horiz-adv-x="580" unicode="&#711;" /><glyph d="M375 652 281 465 205 493 265 693Z" glyph-name="caronSlovak" horiz-adv-x="580" unicode="&#58387;" /><glyph d="M437 258Q431 299 395.5 327.5Q360 356 303 356Q272 356 245 345Q218 334 198.5 315Q179 296 168 270.5Q157 245 157 216Q157 183 168.5 156.5Q180 130 200.5 110.5Q221 91 248.5 80.5Q276 70 308 70Q358 70 397 89.5Q436 109 462 138L522 77Q487 36 431 11Q375 -14 308 -14Q254 -14 209 3Q164 20 131.5 50.5Q99 81 81.5 123.5Q64 166 64 216Q64 264 82 305Q100 346 131.5 376Q163 406 206 423Q249 440 299 440Q350 440 382 421.5Q414 403 427 385V426H510V258ZM155 614 208 677 299 597 390 677 443 614 299 487Z" glyph-name="ccaron" horiz-adv-x="580" unicode="&#269;" /><glyph d="M231 -147Q245 -164 258 -174Q271 -184 291 -184Q312 -184 324.5 -173.5Q337 -163 337 -146Q337 -127 324 -118Q311 -109 294 -109Q282 -109 271 -113L226 -80L262 -10Q217 -4 180.5 15.5Q144 35 118 64.5Q92 94 78 132.5Q64 171 64 216Q64 264 82 305Q100 346 131.5 376Q163 406 206 423Q249 440 299 440Q350 440 382 421.5Q414 403 427 385V426H510V258H437Q431 299 395.5 327.5Q360 356 303 356Q272 356 245 345Q218 334 198.5 315Q179 296 168 270.5Q157 245 157 216Q157 183 168.5 156.5Q180 130 200.5 110.5Q221 91 248.5 80.5Q276 70 308 70Q358 70 397 89.5Q436 109 462 138L522 77Q489 38 435.5 13Q382 -12 318 -14L296 -55H300Q343 -55 371 -79.5Q399 -104 399 -146Q399 -189 367.5 -214.5Q336 -240 292 -240Q254 -240 227 -222Q200 -204 186 -181Z" glyph-name="ccedilla" horiz-adv-x="580" unicode="&#231;" /><glyph d="M437 258Q431 299 395.5 327.5Q360 356 303 356Q272 356 245 345Q218 334 198.5 315Q179 296 168 270.5Q157 245 157 216Q157 183 168.5 156.5Q180 130 200.5 110.5Q221 91 248.5 80.5Q276 70 308 70Q358 70 397 89.5Q436 109 462 138L522 77Q487 36 431 11Q375 -14 308 -14Q254 -14 209 3Q164 20 131.5 50.5Q99 81 81.5 123.5Q64 166 64 216Q64 264 82 305Q100 346 131.5 376Q163 406 206 423Q249 440 299 440Q350 440 382 421.5Q414 403 427 385V426H510V258ZM299 677 443 550 390 487 299 567 208 487 155 550Z" glyph-name="ccircumflex" horiz-adv-x="580" unicode="&#265;" /><glyph d="M437 258Q431 299 395.5 327.5Q360 356 303 356Q272 356 245 345Q218 334 198.5 315Q179 296 168 270.5Q157 245 157 216Q157 183 168.5 156.5Q180 130 200.5 110.5Q221 91 248.5 80.5Q276 70 308 70Q358 70 397 89.5Q436 109 462 138L522 77Q487 36 431 11Q375 -14 308 -14Q254 -14 209 3Q164 20 131.5 50.5Q99 81 81.5 123.5Q64 166 64 216Q64 264 82 305Q100 346 131.5 376Q163 406 206 423Q249 440 299 440Q350 440 382 421.5Q414 403 427 385V426H510V258ZM374 576Q374 543 352 522Q330 501 299 501Q268 501 246 522Q224 543 224 576Q224 609 246 630Q268 651 299 651Q330 651 352 630Q374 609 374 576Z" glyph-name="cdotaccent" horiz-adv-x="580" unicode="&#267;" /><glyph d="M228 -147Q242 -164 255 -174Q268 -184 288 -184Q309 -184 321.5 -173.5Q334 -163 334 -146Q334 -127 321 -118Q308 -109 291 -109Q279 -109 268 -113L223 -80L265 0H323L293 -55H297Q340 -55 368 -79.5Q396 -104 396 -146Q396 -189 364.5 -214.5Q333 -240 289 -240Q251 -240 224 -222Q197 -204 183 -181Z" glyph-name="cedilla" horiz-adv-x="580" unicode="&#184;" /><glyph d="M264 -54V61Q220 68 183.5 87.5Q147 107 121.5 136.5Q96 166 82 204.5Q68 243 68 288Q68 331 82.5 369Q97 407 123.5 436Q150 465 186 484Q222 503 264 509V616H343V507Q374 499 394 485Q414 471 423 457V498H506V330H432Q428 361 404.5 386.5Q381 412 343 423V145Q379 151 408.5 168Q438 185 458 208L517 147Q488 112 442.5 89Q397 66 343 60V-54ZM161 288Q161 234 189.5 197Q218 160 264 148V423Q218 411 189.5 374Q161 337 161 288Z" glyph-name="cent" horiz-adv-x="580" unicode="&#162;" /><glyph d="M290 677 434 550 381 487 290 567 199 487 146 550Z" glyph-name="circumflex" horiz-adv-x="580" unicode="&#710;" /><glyph d="M196 78Q196 118 222 144Q248 170 290 170Q332 170 358 144Q384 118 384 78Q384 38 358 12.5Q332 -13 290 -13Q248 -13 222 12.5Q196 38 196 78ZM196 342Q196 382 222 408Q248 434 290 434Q332 434 358 408Q384 382 384 342Q384 302 358 276.5Q332 251 290 251Q248 251 222 276.5Q196 302 196 342Z" glyph-name="colon" horiz-adv-x="580" unicode=":" /><glyph d="M399 102 283 -176H181L229 102Z" glyph-name="comma" horiz-adv-x="580" unicode="," /><glyph d="M362 -59 292 -243H218L250 -59Z" glyph-name="commaaccent" horiz-adv-x="580" unicode="&#58388;" /><glyph d="M290 -3Q233 -3 182.5 18.5Q132 40 94.5 79Q57 118 35 172Q13 226 13 290Q13 354 35 407.5Q57 461 94.5 500Q132 539 182.5 560.5Q233 582 290 582Q347 582 397.5 560.5Q448 539 485.5 500Q523 461 545 407.5Q567 354 567 290Q567 226 545 172Q523 118 485.5 79Q448 40 397.5 18.5Q347 -3 290 -3ZM290 58Q334 58 372.5 75.5Q411 93 439.5 123.5Q468 154 485 196.5Q502 239 502 290Q502 340 485 382.5Q468 425 439.5 456Q411 487 372.5 504Q334 521 290 521Q247 521 208 504Q169 487 140.5 456Q112 425 95 382.5Q78 340 78 290Q78 239 95 196.5Q112 154 140.5 123.5Q169 93 208 75.5Q247 58 290 58ZM289 443Q314 443 334 432.5Q354 422 362 408V436H415V322H367Q364 350 342 367.5Q320 385 291 385Q250 385 229 356Q208 327 208 286Q208 245 230 216.5Q252 188 293 188Q325 188 343 202.5Q361 217 374 235L422 202Q405 176 374.5 153Q344 130 293 130Q227 130 186 173Q145 216 145 286Q145 357 185.5 400Q226 443 289 443Z" glyph-name="copyright" horiz-adv-x="580" unicode="&#169;" /><glyph d="M345 531V616H493V85H554V0H405V52Q387 29 349 7.5Q311 -14 253 -14Q207 -14 167.5 3Q128 20 99.5 50Q71 80 54.5 122Q38 164 38 213Q38 263 54.5 304.5Q71 346 99.5 376Q128 406 167.5 423Q207 440 253 440Q311 440 349 418.5Q387 397 405 374V531ZM129 213Q129 182 139.5 155.5Q150 129 168 110Q186 91 211 80Q236 69 265 69Q294 69 319.5 79Q345 89 364 107.5Q383 126 394 151.5Q405 177 405 207V219Q405 249 394 274.5Q383 300 364 318.5Q345 337 319.5 347Q294 357 265 357Q236 357 211 346Q186 335 168 316Q150 297 139.5 270.5Q129 244 129 213Z" glyph-name="d" horiz-adv-x="580" unicode="d" /><glyph d="M122 443H246V616H334V443H458V358H334V-54H246V358H122Z" glyph-name="dagger" horiz-adv-x="580" unicode="&#8224;" /><glyph d="M458 132H334V-54H246V132H122V217H246V358H122V443H246V616H334V443H458V358H334V217H458Z" glyph-name="daggerdbl" horiz-adv-x="580" unicode="&#8225;" /><glyph d="M345 531V616H493V85H554V0H405V52Q387 29 349 7.5Q311 -14 253 -14Q207 -14 167.5 3Q128 20 99.5 50Q71 80 54.5 122Q38 164 38 213Q38 263 54.5 304.5Q71 346 99.5 376Q128 406 167.5 423Q207 440 253 440Q311 440 349 418.5Q387 397 405 374V531ZM129 213Q129 182 139.5 155.5Q150 129 168 110Q186 91 211 80Q236 69 265 69Q294 69 319.5 79Q345 89 364 107.5Q383 126 394 151.5Q405 177 405 207V219Q405 249 394 274.5Q383 300 364 318.5Q345 337 319.5 347Q294 357 265 357Q236 357 211 346Q186 335 168 316Q150 297 139.5 270.5Q129 244 129 213ZM716 652 622 465 546 493 606 693Z" glyph-name="dcaron" horiz-adv-x="580" unicode="&#271;" /><glyph d="M253 564H405V616H493V564H556V481H493V85H554V0H405V52Q387 29 349 7.5Q311 -14 253 -14Q207 -14 167.5 3Q128 20 99.5 50Q71 80 54.5 122Q38 164 38 213Q38 263 54.5 304.5Q71 346 99.5 376Q128 406 167.5 423Q207 440 253 440Q311 440 349 418.5Q387 397 405 374V481H253ZM129 213Q129 182 139.5 155.5Q150 129 168 110Q186 91 211 80Q236 69 265 69Q294 69 319.5 79Q345 89 364 107.5Q383 126 394 151.5Q405 177 405 207V219Q405 249 394 274.5Q383 300 364 318.5Q345 337 319.5 347Q294 357 265 357Q236 357 211 346Q186 335 168 316Q150 297 139.5 270.5Q129 244 129 213Z" glyph-name="dcroat" horiz-adv-x="580" unicode="&#273;" /><glyph d="M443 476Q443 444 431 416Q419 388 398.5 367Q378 346 350 334Q322 322 290 322Q258 322 230 334Q202 346 181.5 367Q161 388 149 416Q137 444 137 476Q137 508 149 536Q161 564 181.5 585Q202 606 230 618Q258 630 290 630Q322 630 350 618Q378 606 398.5 585Q419 564 431 536Q443 508 443 476ZM361 476Q361 508 340.5 529.5Q320 551 290 551Q260 551 239.5 529.5Q219 508 219 476Q219 444 239.5 422.5Q260 401 290 401Q320 401 340.5 422.5Q361 444 361 476Z" glyph-name="degree" horiz-adv-x="580" unicode="&#176;" /><glyph d="M260 576Q260 545 239.5 525.5Q219 506 190 506Q161 506 140.5 525.5Q120 545 120 576Q120 607 140.5 626.5Q161 646 190 646Q219 646 239.5 626.5Q260 607 260 576ZM460 576Q460 545 439.5 525.5Q419 506 390 506Q361 506 340.5 525.5Q320 545 320 576Q320 607 340.5 626.5Q361 646 390 646Q419 646 439.5 626.5Q460 607 460 576Z" glyph-name="dieresis" horiz-adv-x="580" unicode="&#168;" /><glyph d="M228 446Q228 473 245.5 490Q263 507 290 507Q317 507 334.5 490Q352 473 352 446Q352 419 334.5 402Q317 385 290 385Q263 385 245.5 402Q228 419 228 446ZM68 233V318H512V233ZM228 105Q228 132 245.5 149Q263 166 290 166Q317 166 334.5 149Q352 132 352 105Q352 78 334.5 61Q317 44 290 44Q263 44 245.5 61Q228 78 228 105Z" glyph-name="divide" horiz-adv-x="580" unicode="&#247;" /><glyph d="M254 -96V0Q200 12 166 49V8H83V189H160Q163 143 188.5 116.5Q214 90 254 81V263Q223 271 193 283.5Q163 296 139 315.5Q115 335 100.5 363Q86 391 86 430Q86 467 100.5 494.5Q115 522 138.5 541Q162 560 192.5 570.5Q223 581 254 584V670H333V579Q379 565 406 534V570H489V397H413Q411 440 389.5 464.5Q368 489 333 498V334Q369 324 400 311.5Q431 299 454.5 279.5Q478 260 491.5 232Q505 204 505 163Q505 124 491.5 94Q478 64 454.5 43Q431 22 399.5 10Q368 -2 333 -5V-96ZM415 161Q415 196 395 214Q375 232 333 244V78Q371 84 393 105Q415 126 415 161ZM176 432Q176 400 198 383Q220 366 254 355V502Q222 497 199 481Q176 465 176 432Z" glyph-name="dollar" horiz-adv-x="580" unicode="$" /><glyph d="M365 576Q365 543 343 522Q321 501 290 501Q259 501 237 522Q215 543 215 576Q215 609 237 630Q259 651 290 651Q321 651 343 630Q365 609 365 576Z" glyph-name="dotaccent" horiz-adv-x="580" unicode="&#729;" /><glyph d="M508 85V0H78V85H256V341H120V426H344V85Z" glyph-name="dotlessi" horiz-adv-x="580" unicode="&#305;" /><glyph d="M159 426H449V-8Q449 -52 432.5 -87.5Q416 -123 388.5 -148.5Q361 -174 324.5 -188Q288 -202 248 -202Q174 -202 120.5 -162Q67 -122 52 -50L136 -28Q147 -72 177 -96.5Q207 -121 248 -121Q271 -121 291 -112.5Q311 -104 327 -88.5Q343 -73 352 -51Q361 -29 361 -3V341H159Z" glyph-name="dotlessj" horiz-adv-x="580" unicode="&#567;" /><glyph d="M421 257Q411 303 375 331Q339 359 294 359Q243 359 206.5 330.5Q170 302 159 257ZM514 65Q481 30 426 8Q371 -14 305 -14Q251 -14 206.5 3Q162 20 130 50.5Q98 81 80 122.5Q62 164 62 213Q62 262 79.5 303.5Q97 345 127.5 375.5Q158 406 200.5 423Q243 440 294 440Q344 440 386 421.5Q428 403 458 371Q488 339 505 294.5Q522 250 522 197V182H155Q166 128 207 98Q248 68 306 68Q354 68 393 85Q432 102 455 127Z" glyph-name="e" horiz-adv-x="580" unicode="e" /><glyph d="M421 257Q411 303 375 331Q339 359 294 359Q243 359 206.5 330.5Q170 302 159 257ZM514 65Q481 30 426 8Q371 -14 305 -14Q251 -14 206.5 3Q162 20 130 50.5Q98 81 80 122.5Q62 164 62 213Q62 262 79.5 303.5Q97 345 127.5 375.5Q158 406 200.5 423Q243 440 294 440Q344 440 386 421.5Q428 403 458 371Q488 339 505 294.5Q522 250 522 197V182H155Q166 128 207 98Q248 68 306 68Q354 68 393 85Q432 102 455 127ZM411 597 219 481 173 546 345 691Z" glyph-name="eacute" horiz-adv-x="580" unicode="&#233;" /><glyph d="M421 257Q411 303 375 331Q339 359 294 359Q243 359 206.5 330.5Q170 302 159 257ZM514 65Q481 30 426 8Q371 -14 305 -14Q251 -14 206.5 3Q162 20 130 50.5Q98 81 80 122.5Q62 164 62 213Q62 262 79.5 303.5Q97 345 127.5 375.5Q158 406 200.5 423Q243 440 294 440Q344 440 386 421.5Q428 403 458 371Q488 339 505 294.5Q522 250 522 197V182H155Q166 128 207 98Q248 68 306 68Q354 68 393 85Q432 102 455 127ZM295 495Q234 495 193.5 530.5Q153 566 150 626L229 631Q231 604 248.5 585.5Q266 567 295 567Q323 567 341 585.5Q359 604 361 631L440 626Q437 566 396.5 530.5Q356 495 295 495Z" glyph-name="ebreve" horiz-adv-x="580" unicode="&#277;" /><glyph d="M421 257Q411 303 375 331Q339 359 294 359Q243 359 206.5 330.5Q170 302 159 257ZM514 65Q481 30 426 8Q371 -14 305 -14Q251 -14 206.5 3Q162 20 130 50.5Q98 81 80 122.5Q62 164 62 213Q62 262 79.5 303.5Q97 345 127.5 375.5Q158 406 200.5 423Q243 440 294 440Q344 440 386 421.5Q428 403 458 371Q488 339 505 294.5Q522 250 522 197V182H155Q166 128 207 98Q248 68 306 68Q354 68 393 85Q432 102 455 127ZM152 614 205 677 296 597 387 677 440 614 296 487Z" glyph-name="ecaron" horiz-adv-x="580" unicode="&#283;" /><glyph d="M421 257Q411 303 375 331Q339 359 294 359Q243 359 206.5 330.5Q170 302 159 257ZM514 65Q481 30 426 8Q371 -14 305 -14Q251 -14 206.5 3Q162 20 130 50.5Q98 81 80 122.5Q62 164 62 213Q62 262 79.5 303.5Q97 345 127.5 375.5Q158 406 200.5 423Q243 440 294 440Q344 440 386 421.5Q428 403 458 371Q488 339 505 294.5Q522 250 522 197V182H155Q166 128 207 98Q248 68 306 68Q354 68 393 85Q432 102 455 127ZM295 677 439 550 386 487 295 567 204 487 151 550Z" glyph-name="ecircumflex" horiz-adv-x="580" unicode="&#234;" /><glyph d="M421 257Q411 303 375 331Q339 359 294 359Q243 359 206.5 330.5Q170 302 159 257ZM514 65Q481 30 426 8Q371 -14 305 -14Q251 -14 206.5 3Q162 20 130 50.5Q98 81 80 122.5Q62 164 62 213Q62 262 79.5 303.5Q97 345 127.5 375.5Q158 406 200.5 423Q243 440 294 440Q344 440 386 421.5Q428 403 458 371Q488 339 505 294.5Q522 250 522 197V182H155Q166 128 207 98Q248 68 306 68Q354 68 393 85Q432 102 455 127ZM265 576Q265 545 244.5 525.5Q224 506 195 506Q166 506 145.5 525.5Q125 545 125 576Q125 607 145.5 626.5Q166 646 195 646Q224 646 244.5 626.5Q265 607 265 576ZM465 576Q465 545 444.5 525.5Q424 506 395 506Q366 506 345.5 525.5Q325 545 325 576Q325 607 345.5 626.5Q366 646 395 646Q424 646 444.5 626.5Q465 607 465 576Z" glyph-name="edieresis" horiz-adv-x="580" unicode="&#235;" /><glyph d="M421 257Q411 303 375 331Q339 359 294 359Q243 359 206.5 330.5Q170 302 159 257ZM514 65Q481 30 426 8Q371 -14 305 -14Q251 -14 206.5 3Q162 20 130 50.5Q98 81 80 122.5Q62 164 62 213Q62 262 79.5 303.5Q97 345 127.5 375.5Q158 406 200.5 423Q243 440 294 440Q344 440 386 421.5Q428 403 458 371Q488 339 505 294.5Q522 250 522 197V182H155Q166 128 207 98Q248 68 306 68Q354 68 393 85Q432 102 455 127ZM370 576Q370 543 348 522Q326 501 295 501Q264 501 242 522Q220 543 220 576Q220 609 242 630Q264 651 295 651Q326 651 348 630Q370 609 370 576Z" glyph-name="edotaccent" horiz-adv-x="580" unicode="&#279;" /><glyph d="M421 257Q411 303 375 331Q339 359 294 359Q243 359 206.5 330.5Q170 302 159 257ZM514 65Q481 30 426 8Q371 -14 305 -14Q251 -14 206.5 3Q162 20 130 50.5Q98 81 80 122.5Q62 164 62 213Q62 262 79.5 303.5Q97 345 127.5 375.5Q158 406 200.5 423Q243 440 294 440Q344 440 386 421.5Q428 403 458 371Q488 339 505 294.5Q522 250 522 197V182H155Q166 128 207 98Q248 68 306 68Q354 68 393 85Q432 102 455 127ZM239 691 411 546 365 481 173 597Z" glyph-name="egrave" horiz-adv-x="580" unicode="&#232;" /><glyph d="M96 431Q96 464 109 493.5Q122 523 146.5 545.5Q171 568 207.5 581Q244 594 290 594Q337 594 373 581Q409 568 433.5 545.5Q458 523 471 493.5Q484 464 484 431Q484 386 463 352.5Q442 319 400 301Q449 281 474.5 244Q500 207 500 159Q500 124 486 92.5Q472 61 445 37.5Q418 14 379 0Q340 -14 290 -14Q240 -14 201 0Q162 14 135 37.5Q108 61 94 92.5Q80 124 80 159Q80 207 105.5 244Q131 281 180 301Q138 319 117 352.5Q96 386 96 431ZM290 257Q235 257 204.5 229.5Q174 202 174 163Q174 122 204 96Q234 70 290 70Q346 70 376 96Q406 122 406 163Q406 202 375.5 229.5Q345 257 290 257ZM290 510Q241 510 215 486.5Q189 463 189 427Q189 391 215.5 367Q242 343 290 343Q338 343 364.5 367Q391 391 391 427Q391 463 365 486.5Q339 510 290 510Z" glyph-name="eight" horiz-adv-x="580" unicode="8" /><glyph d="M290 142Q344 142 375.5 114Q407 86 407 49Q407 1 359 -21Q386 -32 401.5 -51.5Q417 -71 417 -100Q417 -139 382 -167.5Q347 -196 290 -196Q233 -196 198 -167.5Q163 -139 163 -100Q163 -71 178.5 -51.5Q194 -32 221 -21Q173 1 173 49Q173 86 204.5 114Q236 142 290 142ZM344 -92Q344 -75 329 -64Q314 -53 290 -53Q266 -53 251 -64Q236 -75 236 -92Q236 -109 250.5 -119.5Q265 -130 290 -130Q315 -130 329.5 -119.5Q344 -109 344 -92ZM290 76Q270 76 258 66.5Q246 57 246 43Q246 29 258 20Q270 11 290 11Q310 11 322 20Q334 29 334 43Q334 57 322 66.5Q310 76 290 76Z" glyph-name="eight.inf" horiz-adv-x="580" unicode="&#58745;" /><glyph d="M402 60Q402 92 422.5 112.5Q443 133 475 133Q507 133 527.5 112.5Q548 92 548 60Q548 28 527.5 7.5Q507 -13 475 -13Q443 -13 422.5 7.5Q402 28 402 60ZM32 60Q32 92 52.5 112.5Q73 133 105 133Q137 133 157.5 112.5Q178 92 178 60Q178 28 157.5 7.5Q137 -13 105 -13Q73 -13 52.5 7.5Q32 28 32 60ZM217 60Q217 92 237.5 112.5Q258 133 290 133Q322 133 342.5 112.5Q363 92 363 60Q363 28 342.5 7.5Q322 -13 290 -13Q258 -13 237.5 7.5Q217 28 217 60Z" glyph-name="ellipsis" horiz-adv-x="580" unicode="&#8230;" /><glyph d="M421 257Q411 303 375 331Q339 359 294 359Q243 359 206.5 330.5Q170 302 159 257ZM514 65Q481 30 426 8Q371 -14 305 -14Q251 -14 206.5 3Q162 20 130 50.5Q98 81 80 122.5Q62 164 62 213Q62 262 79.5 303.5Q97 345 127.5 375.5Q158 406 200.5 423Q243 440 294 440Q344 440 386 421.5Q428 403 458 371Q488 339 505 294.5Q522 250 522 197V182H155Q166 128 207 98Q248 68 306 68Q354 68 393 85Q432 102 455 127ZM163 589H421V505H163Z" glyph-name="emacron" horiz-adv-x="580" unicode="&#275;" /><glyph d="M521 224H59V316H521Z" glyph-name="emdash" horiz-adv-x="580" unicode="&#8212;" /><glyph d="M470 224H110V316H470Z" glyph-name="endash" horiz-adv-x="580" unicode="&#8211;" /><glyph d="M50 85H115V341H54V426H202V371Q222 403 260 421.5Q298 440 348 440Q384 440 413.5 429Q443 418 465 398Q487 378 499 348.5Q511 319 511 283V-43Q511 -79 498.5 -108.5Q486 -138 464 -158.5Q442 -179 412.5 -190.5Q383 -202 348 -202Q288 -202 247 -173.5Q206 -145 188 -98L269 -63Q280 -88 300 -104.5Q320 -121 349 -121Q379 -121 401 -99Q423 -77 423 -41V259Q423 287 415.5 305Q408 323 395.5 334Q383 345 367.5 349.5Q352 354 337 354Q312 354 288 345Q264 336 245 319.5Q226 303 214.5 279.5Q203 256 203 227V85H271V0H50Z" glyph-name="eng" horiz-adv-x="580" unicode="&#331;" /><glyph d="M514 65Q494 45 471 30Q448 15 428 3Q380 -26 347.5 -55Q315 -84 315 -112Q315 -123 322.5 -130.5Q330 -138 347 -138Q367 -138 384.5 -128Q402 -118 419 -104L458 -153Q433 -178 403 -194.5Q373 -211 334 -211Q287 -211 261 -187Q235 -163 235 -124Q235 -62 304 -14Q250 -14 205.5 3.5Q161 21 129 51Q97 81 79.5 122.5Q62 164 62 213Q62 262 79.5 303.5Q97 345 127.5 375.5Q158 406 200.5 423Q243 440 294 440Q344 440 386 421.5Q428 403 458 371Q488 339 505 294.5Q522 250 522 197V182H155Q166 128 207 98Q248 68 306 68Q354 68 393 85Q432 102 455 127ZM294 359Q243 359 206.5 330.5Q170 302 159 257H421Q411 303 375 331Q339 359 294 359Z" glyph-name="eogonek" horiz-adv-x="580" unicode="&#281;" /><glyph d="M512 230V145H68V230ZM512 405V320H68V405Z" glyph-name="equal" horiz-adv-x="580" unicode="=" /><glyph d="M180 623Q261 597 328 552L422 599L450 545L380 510Q440 453 474 376.5Q508 300 508 207Q508 156 491.5 115Q475 74 445.5 45.5Q416 17 375.5 1.5Q335 -14 287 -14Q240 -14 199.5 1.5Q159 17 129.5 44.5Q100 72 83 109.5Q66 147 66 191Q66 237 83 275Q100 313 129.5 340.5Q159 368 198 383Q237 398 280 398Q315 398 342 388Q369 378 388 360Q373 390 350.5 417.5Q328 445 299 470L204 422L176 476L244 510Q195 541 137 561ZM415 191Q415 217 405.5 239.5Q396 262 378.5 278.5Q361 295 337.5 304Q314 313 287 313Q260 313 236.5 303.5Q213 294 195.5 277.5Q178 261 168.5 239Q159 217 159 191Q159 166 168.5 144Q178 122 195.5 106Q213 90 236.5 80.5Q260 71 287 71Q314 71 337.5 80.5Q361 90 378.5 106Q396 122 405.5 144Q415 166 415 191Z" glyph-name="eth" horiz-adv-x="580" unicode="&#240;" /><glyph d="M210 64Q210 98 232.5 120Q255 142 290 142Q325 142 347.5 120Q370 98 370 64Q370 30 347.5 8.5Q325 -13 290 -13Q255 -13 232.5 8.5Q210 30 210 64ZM354 616 324 209H256L226 616Z" glyph-name="exclam" horiz-adv-x="580" unicode="!" /><glyph d="M370 392Q370 358 347.5 336Q325 314 290 314Q255 314 232.5 336Q210 358 210 392Q210 426 232.5 447.5Q255 469 290 469Q325 469 347.5 447.5Q370 426 370 392ZM226 -160 256 247H324L354 -160Z" glyph-name="exclamdown" horiz-adv-x="580" unicode="&#161;" /><glyph d="M445 341H280V85H433V0H101V85H192V341H101V426H192V443Q192 490 206.5 525Q221 560 247 583Q273 606 308 618Q343 630 383 630Q443 630 485.5 605.5Q528 581 552 550L491 494Q470 517 445 532.5Q420 548 384 548Q364 548 345 542.5Q326 537 311.5 525Q297 513 288.5 493Q280 473 280 443V426H445Z" glyph-name="f" horiz-adv-x="580" unicode="f" /><glyph d="M461 495H219L210 333Q229 350 250.5 358Q272 366 300 366Q342 366 377 351Q412 336 437 310.5Q462 285 476 251.5Q490 218 490 180Q490 142 476 107Q462 72 435 45Q408 18 369.5 2Q331 -14 282 -14Q221 -14 170.5 11Q120 36 87 80L155 139Q178 110 210.5 91Q243 72 282 72Q335 72 365 104Q395 136 395 181Q395 223 368 252.5Q341 282 296 282Q249 282 220 252H120L135 580H461Z" glyph-name="five" horiz-adv-x="580" unicode="5" /><glyph d="M291 -45Q283 -45 273.5 -47.5Q264 -50 256 -56H185L195 134H391V67H256L253 6Q276 18 303 18Q323 18 342 11Q361 4 376 -9Q391 -22 400 -41Q409 -60 409 -84Q409 -106 400.5 -126.5Q392 -147 375.5 -162.5Q359 -178 335.5 -187Q312 -196 282 -196Q241 -196 211 -178.5Q181 -161 164 -138L218 -95Q230 -110 246 -119Q262 -128 282 -128Q302 -128 318.5 -117.5Q335 -107 335 -85Q335 -65 321.5 -55Q308 -45 291 -45Z" glyph-name="five.inf" horiz-adv-x="580" unicode="&#58742;" /><glyph d="M248 241H158L167 326H257L268 429Q277 510 323 552Q369 594 432 594Q460 594 482 587Q504 580 521 570Q538 560 550 548Q562 536 569 525L506 470Q494 487 476.5 499.5Q459 512 432 512Q405 512 383 494Q361 476 356 429L345 326H435L426 241H336L311 0Q303 -81 256.5 -123Q210 -165 147 -165Q119 -165 97 -158Q75 -151 58 -141Q41 -131 29.5 -119Q18 -107 10 -96L73 -41Q85 -58 102.5 -70.5Q120 -83 147 -83Q174 -83 196 -65Q218 -47 223 0Z" glyph-name="florin" horiz-adv-x="580" unicode="&#402;" /><glyph d="M317 580H427V234H490V152H427V85H490V0H248V85H340V152H72V246ZM340 234V475L163 234Z" glyph-name="four" horiz-adv-x="580" unicode="4" /><glyph d="M284 134H372V-37H406V-94H372V-125H406V-188H250V-125H305V-94H161V-29ZM305 -37V62L230 -37Z" glyph-name="four.inf" horiz-adv-x="580" unicode="&#58741;" /><glyph d="M82 -21 28 24 499 602 553 556Z" glyph-name="fraction" horiz-adv-x="580" unicode="&#8260;" /><glyph d="M135 -64Q164 -88 195.5 -104.5Q227 -121 270 -121Q297 -121 321 -114Q345 -107 364 -93Q383 -79 394 -57Q405 -35 405 -5V58Q387 35 349 13.5Q311 -8 253 -8Q207 -8 167.5 8.5Q128 25 99.5 55Q71 85 54.5 126Q38 167 38 216Q38 265 54.5 306Q71 347 99.5 377Q128 407 167.5 423.5Q207 440 253 440Q311 440 349 418.5Q387 397 405 374V426H554V341H493V-3Q493 -53 476.5 -90.5Q460 -128 431 -152.5Q402 -177 361 -189.5Q320 -202 270 -202Q198 -202 151.5 -179Q105 -156 76 -128ZM129 216Q129 185 139.5 159.5Q150 134 168 115Q186 96 211 85.5Q236 75 265 75Q294 75 319.5 85Q345 95 364 113Q383 131 394 155.5Q405 180 405 210V222Q405 252 394 276.5Q383 301 364 319Q345 337 319.5 347Q294 357 265 357Q236 357 211 346.5Q186 336 168 317Q150 298 139.5 272Q129 246 129 216Z" glyph-name="g" horiz-adv-x="580" unicode="g" /><glyph d="M135 -64Q164 -88 195.5 -104.5Q227 -121 270 -121Q297 -121 321 -114Q345 -107 364 -93Q383 -79 394 -57Q405 -35 405 -5V58Q387 35 349 13.5Q311 -8 253 -8Q207 -8 167.5 8.5Q128 25 99.5 55Q71 85 54.5 126Q38 167 38 216Q38 265 54.5 306Q71 347 99.5 377Q128 407 167.5 423.5Q207 440 253 440Q311 440 349 418.5Q387 397 405 374V426H554V341H493V-3Q493 -53 476.5 -90.5Q460 -128 431 -152.5Q402 -177 361 -189.5Q320 -202 270 -202Q198 -202 151.5 -179Q105 -156 76 -128ZM129 216Q129 185 139.5 159.5Q150 134 168 115Q186 96 211 85.5Q236 75 265 75Q294 75 319.5 85Q345 95 364 113Q383 131 394 155.5Q405 180 405 210V222Q405 252 394 276.5Q383 301 364 319Q345 337 319.5 347Q294 357 265 357Q236 357 211 346.5Q186 336 168 317Q150 298 139.5 272Q129 246 129 216ZM258 495Q197 495 156.5 530.5Q116 566 113 626L192 631Q194 604 211.5 585.5Q229 567 258 567Q286 567 304 585.5Q322 604 324 631L403 626Q400 566 359.5 530.5Q319 495 258 495Z" glyph-name="gbreve" horiz-adv-x="580" unicode="&#287;" /><glyph d="M135 -64Q164 -88 195.5 -104.5Q227 -121 270 -121Q297 -121 321 -114Q345 -107 364 -93Q383 -79 394 -57Q405 -35 405 -5V58Q387 35 349 13.5Q311 -8 253 -8Q207 -8 167.5 8.5Q128 25 99.5 55Q71 85 54.5 126Q38 167 38 216Q38 265 54.5 306Q71 347 99.5 377Q128 407 167.5 423.5Q207 440 253 440Q311 440 349 418.5Q387 397 405 374V426H554V341H493V-3Q493 -53 476.5 -90.5Q460 -128 431 -152.5Q402 -177 361 -189.5Q320 -202 270 -202Q198 -202 151.5 -179Q105 -156 76 -128ZM129 216Q129 185 139.5 159.5Q150 134 168 115Q186 96 211 85.5Q236 75 265 75Q294 75 319.5 85Q345 95 364 113Q383 131 394 155.5Q405 180 405 210V222Q405 252 394 276.5Q383 301 364 319Q345 337 319.5 347Q294 357 265 357Q236 357 211 346.5Q186 336 168 317Q150 298 139.5 272Q129 246 129 216ZM258 677 402 550 349 487 258 567 167 487 114 550Z" glyph-name="gcircumflex" horiz-adv-x="580" unicode="&#285;" /><glyph d="M135 -64Q164 -88 195.5 -104.5Q227 -121 270 -121Q297 -121 321 -114Q345 -107 364 -93Q383 -79 394 -57Q405 -35 405 -5V58Q387 35 349 13.5Q311 -8 253 -8Q207 -8 167.5 8.5Q128 25 99.5 55Q71 85 54.5 126Q38 167 38 216Q38 265 54.5 306Q71 347 99.5 377Q128 407 167.5 423.5Q207 440 253 440Q311 440 349 418.5Q387 397 405 374V426H554V341H493V-3Q493 -53 476.5 -90.5Q460 -128 431 -152.5Q402 -177 361 -189.5Q320 -202 270 -202Q198 -202 151.5 -179Q105 -156 76 -128ZM129 216Q129 185 139.5 159.5Q150 134 168 115Q186 96 211 85.5Q236 75 265 75Q294 75 319.5 85Q345 95 364 113Q383 131 394 155.5Q405 180 405 210V222Q405 252 394 276.5Q383 301 364 319Q345 337 319.5 347Q294 357 265 357Q236 357 211 346.5Q186 336 168 317Q150 298 139.5 272Q129 246 129 216ZM203 492 273 676H347L315 492Z" glyph-name="gcommaaccent" horiz-adv-x="580" unicode="&#291;" /><glyph d="M135 -64Q164 -88 195.5 -104.5Q227 -121 270 -121Q297 -121 321 -114Q345 -107 364 -93Q383 -79 394 -57Q405 -35 405 -5V58Q387 35 349 13.5Q311 -8 253 -8Q207 -8 167.5 8.5Q128 25 99.5 55Q71 85 54.5 126Q38 167 38 216Q38 265 54.5 306Q71 347 99.5 377Q128 407 167.5 423.5Q207 440 253 440Q311 440 349 418.5Q387 397 405 374V426H554V341H493V-3Q493 -53 476.5 -90.5Q460 -128 431 -152.5Q402 -177 361 -189.5Q320 -202 270 -202Q198 -202 151.5 -179Q105 -156 76 -128ZM129 216Q129 185 139.5 159.5Q150 134 168 115Q186 96 211 85.5Q236 75 265 75Q294 75 319.5 85Q345 95 364 113Q383 131 394 155.5Q405 180 405 210V222Q405 252 394 276.5Q383 301 364 319Q345 337 319.5 347Q294 357 265 357Q236 357 211 346.5Q186 336 168 317Q150 298 139.5 272Q129 246 129 216ZM333 576Q333 543 311 522Q289 501 258 501Q227 501 205 522Q183 543 183 576Q183 609 205 630Q227 651 258 651Q289 651 311 630Q333 609 333 576Z" glyph-name="gdotaccent" horiz-adv-x="580" unicode="&#289;" /><glyph d="M282 620Q319 620 351.5 610Q384 600 408.5 581Q433 562 447 535Q461 508 461 474Q461 429 444 405.5Q427 382 407 368Q394 359 380.5 353Q367 347 356.5 340Q346 333 339.5 325.5Q333 318 333 306Q333 294 341.5 286Q350 278 363.5 272.5Q377 267 395 262Q413 257 432 251Q455 244 477 234Q499 224 516.5 208Q534 192 545 169Q556 146 556 113Q556 53 520.5 19.5Q485 -14 431 -14Q396 -14 364 -1Q332 12 312 38V0H233V146H305Q307 127 317.5 111.5Q328 96 343.5 85.5Q359 75 377.5 69.5Q396 64 413 64Q438 64 452.5 76Q467 88 467 111Q467 142 441.5 155.5Q416 169 381 179Q357 185 333 193Q309 201 289 214.5Q269 228 256.5 249.5Q244 271 244 305Q244 334 253 353Q262 372 275.5 384.5Q289 397 305.5 405Q322 413 336 421Q352 429 362.5 441Q373 453 373 475Q373 507 345 522.5Q317 538 282 538Q262 538 244 532.5Q226 527 212.5 514.5Q199 502 191.5 480.5Q184 459 184 426V0H40V85H96V341H40V426H96V427Q97 523 148.5 571.5Q200 620 282 620Z" glyph-name="germandbls" horiz-adv-x="580" unicode="&#223;" /><glyph d="M237 691 409 546 363 481 171 597Z" glyph-name="grave" horiz-adv-x="580" unicode="`" /><glyph d="M520 288 105 44 67 120 353 288 67 454 105 531Z" glyph-name="greater" horiz-adv-x="580" unicode="&gt;" /><glyph d="M100 179 64 257 326 377 64 497 100 575 525 377ZM513 130V45H69V130Z" glyph-name="greaterequal" horiz-adv-x="580" unicode="&#8805;" /><glyph d="M401 217 528 91 465 29 279 217 465 405 528 343ZM174 217 301 91 238 29 52 217 238 405 301 343Z" glyph-name="guillemotleft" horiz-adv-x="580" unicode="&#171;" /><glyph d="M52 343 115 405 301 217 115 29 52 91 179 217ZM279 343 342 405 528 217 342 29 279 91 406 217Z" glyph-name="guillemotright" horiz-adv-x="580" unicode="&#187;" /><glyph d="M287 217 414 91 351 29 165 217 351 405 414 343Z" glyph-name="guilsinglleft" horiz-adv-x="580" unicode="&#8249;" /><glyph d="M166 343 229 405 415 217 229 29 166 91 293 217Z" glyph-name="guilsinglright" horiz-adv-x="580" unicode="&#8250;" /><glyph d="M34 85H99V531H38V616H186V371Q206 403 244 421.5Q282 440 332 440Q368 440 397.5 429Q427 418 449 398Q471 378 483 348.5Q495 319 495 283V85H560V0H339V85H407V259Q407 287 399.5 305Q392 323 379.5 334Q367 345 351.5 349.5Q336 354 321 354Q296 354 272 345Q248 336 229 319.5Q210 303 198.5 279.5Q187 256 187 227V85H255V0H34Z" glyph-name="h" horiz-adv-x="580" unicode="h" /><glyph d="M327 481H186V371Q206 403 244 421.5Q282 440 332 440Q368 440 397.5 429Q427 418 449 398Q471 378 483 348.5Q495 319 495 283V85H560V0H339V85H407V259Q407 287 399.5 305Q392 323 379.5 334Q367 345 351.5 349.5Q336 354 321 354Q296 354 272 345Q248 336 229 319.5Q210 303 198.5 279.5Q187 256 187 227V85H255V0H34V85H99V481H36V564H99V616H186V564H327Z" glyph-name="hbar" horiz-adv-x="580" unicode="&#295;" /><glyph d="M34 85H99V531H38V616H186V371Q206 403 244 421.5Q282 440 332 440Q368 440 397.5 429Q427 418 449 398Q471 378 483 348.5Q495 319 495 283V85H560V0H339V85H407V259Q407 287 399.5 305Q392 323 379.5 334Q367 345 351.5 349.5Q336 354 321 354Q296 354 272 345Q248 336 229 319.5Q210 303 198.5 279.5Q187 256 187 227V85H255V0H34ZM117 833 261 706 208 643 117 723 26 643 -27 706Z" glyph-name="hcircumflex" horiz-adv-x="580" unicode="&#293;" /><glyph d="M294 607 110 485 65 543 228 693ZM516 607 332 485 287 543 450 693Z" glyph-name="hungarumlaut" horiz-adv-x="580" unicode="&#733;" /><glyph d="M441 221H139V319H441Z" glyph-name="hyphen" horiz-adv-x="580" unicode="-" /><glyph d="M508 85V0H78V85H256V341H120V426H344V85ZM344 511H245V641H344Z" glyph-name="i" horiz-adv-x="580" unicode="i" /><glyph d="M508 85V0H78V85H256V341H120V426H344V85ZM416 597 224 481 178 546 350 691Z" glyph-name="iacute" horiz-adv-x="580" unicode="&#237;" /><glyph d="M508 85V0H78V85H256V341H120V426H344V85ZM292 495Q231 495 190.5 530.5Q150 566 147 626L226 631Q228 604 245.5 585.5Q263 567 292 567Q320 567 338 585.5Q356 604 358 631L437 626Q434 566 393.5 530.5Q353 495 292 495Z" glyph-name="ibreve" horiz-adv-x="580" unicode="&#301;" /><glyph d="M508 85V0H78V85H256V341H120V426H344V85ZM294 677 438 550 385 487 294 567 203 487 150 550Z" glyph-name="icircumflex" horiz-adv-x="580" unicode="&#238;" /><glyph d="M508 85V0H78V85H256V341H120V426H344V85ZM265 576Q265 545 244.5 525.5Q224 506 195 506Q166 506 145.5 525.5Q125 545 125 576Q125 607 145.5 626.5Q166 646 195 646Q224 646 244.5 626.5Q265 607 265 576ZM465 576Q465 545 444.5 525.5Q424 506 395 506Q366 506 345.5 525.5Q325 545 325 576Q325 607 345.5 626.5Q366 646 395 646Q424 646 444.5 626.5Q465 607 465 576Z" glyph-name="idieresis" horiz-adv-x="580" unicode="&#239;" /><glyph d="M508 85V0H78V85H256V341H120V426H344V85ZM344 511H245V641H344Z" glyph-name="idotaccent" horiz-adv-x="580" unicode="&#59269;" /><glyph d="M508 85V0H78V85H256V341H120V426H344V85ZM223 691 395 546 349 481 157 597Z" glyph-name="igrave" horiz-adv-x="580" unicode="&#236;" /><glyph d="M360 85V0H22V85H146V341H50V426H234V85ZM234 511H135V641H234ZM307 426H530V-17Q530 -60 515.5 -94.5Q501 -129 475.5 -153Q450 -177 416.5 -189.5Q383 -202 345 -202Q277 -202 228 -167Q179 -132 164 -70L247 -43Q256 -80 283 -100.5Q310 -121 345 -121Q385 -121 413.5 -92.5Q442 -64 442 -12V341H307ZM431 641H530V511H431Z" glyph-name="ij" horiz-adv-x="580" unicode="&#307;" /><glyph d="M508 85V0H78V85H256V341H120V426H344V85ZM164 589H422V505H164Z" glyph-name="imacron" horiz-adv-x="580" unicode="&#299;" /><glyph d="M556 275Q556 241 544.5 214.5Q533 188 514.5 169.5Q496 151 471.5 141Q447 131 420 131Q377 131 347.5 153.5Q318 176 290 214Q262 176 232.5 153.5Q203 131 160 131Q133 131 108.5 141Q84 151 65.5 169.5Q47 188 35.5 214.5Q24 241 24 275Q24 309 35.5 335.5Q47 362 65.5 380.5Q84 399 108.5 409Q133 419 160 419Q203 419 232.5 396.5Q262 374 290 336Q318 374 347.5 396.5Q377 419 420 419Q447 419 471.5 409Q496 399 514.5 380.5Q533 362 544.5 335.5Q556 309 556 275ZM469 275Q469 301 454 318Q439 335 415 335Q389 335 369.5 316Q350 297 335 275Q349 252 369 233.5Q389 215 415 215Q439 215 454 232Q469 249 469 275ZM111 275Q111 249 126 232Q141 215 165 215Q191 215 210.5 233.5Q230 252 245 275Q229 297 210 316Q191 335 165 335Q141 335 126 318Q111 301 111 275Z" glyph-name="infinity" horiz-adv-x="580" unicode="&#8734;" /><glyph d="M245 479Q245 545 284.5 580.5Q324 616 382 616Q424 616 456 596Q488 576 510 545L447 489Q435 506 419.5 518.5Q404 531 384 531Q365 531 350 517Q335 503 335 474V-25Q335 -91 295.5 -126.5Q256 -162 198 -162Q156 -162 124 -142Q92 -122 70 -91L133 -35Q145 -52 160.5 -64.5Q176 -77 196 -77Q215 -77 230 -63Q245 -49 245 -20Z" glyph-name="integral" horiz-adv-x="580" unicode="&#8747;" /><glyph d="M78 0V85H256V341H120V426H344V85H508V0H382Q332 -26 300.5 -56Q269 -86 269 -112Q269 -123 276.5 -130.5Q284 -138 301 -138Q321 -138 338.5 -128Q356 -118 373 -104L412 -153Q387 -178 357 -194.5Q327 -211 288 -211Q241 -211 215 -187Q189 -163 189 -124Q189 -56 279 0ZM344 511H245V641H344Z" glyph-name="iogonek" horiz-adv-x="580" unicode="&#303;" /><glyph d="M508 85V0H78V85H256V341H120V426H344V85ZM452 577Q451 563 443.5 546.5Q436 530 423 516.5Q410 503 392 494Q374 485 352 485Q330 485 314 491.5Q298 498 285.5 506.5Q273 515 262 521.5Q251 528 238 528Q223 528 212.5 517Q202 506 200 491L129 515Q130 529 137.5 545.5Q145 562 158 575.5Q171 589 189 598Q207 607 229 607Q251 607 267 600.5Q283 594 295.5 585.5Q308 577 319 570.5Q330 564 343 564Q358 564 368.5 575Q379 586 381 601Z" glyph-name="itilde" horiz-adv-x="580" unicode="&#297;" /><glyph d="M159 426H449V-8Q449 -52 432.5 -87.5Q416 -123 388.5 -148.5Q361 -174 324.5 -188Q288 -202 248 -202Q174 -202 120.5 -162Q67 -122 52 -50L136 -28Q147 -72 177 -96.5Q207 -121 248 -121Q271 -121 291 -112.5Q311 -104 327 -88.5Q343 -73 352 -51Q361 -29 361 -3V341H159ZM350 641H449V511H350Z" glyph-name="j" horiz-adv-x="580" unicode="j" /><glyph d="M159 426H449V-8Q449 -52 432.5 -87.5Q416 -123 388.5 -148.5Q361 -174 324.5 -188Q288 -202 248 -202Q174 -202 120.5 -162Q67 -122 52 -50L136 -28Q147 -72 177 -96.5Q207 -121 248 -121Q271 -121 291 -112.5Q311 -104 327 -88.5Q343 -73 352 -51Q361 -29 361 -3V341H159ZM405 677 549 550 496 487 405 567 314 487 261 550Z" glyph-name="jcircumflex" horiz-adv-x="580" unicode="&#309;" /><glyph d="M43 85H101V531H43V616H189V228L337 341H288V426H510V341H453L335 251L485 85H544V0H335V85H371L267 199L189 139V85H242V0H43Z" glyph-name="k" horiz-adv-x="580" unicode="k" /><glyph d="M43 85H101V531H43V616H189V228L337 341H288V426H510V341H453L335 251L485 85H544V0H335V85H371L267 199L189 139V85H242V0H43ZM350 -59 280 -243H206L238 -59Z" glyph-name="kcommaaccent" horiz-adv-x="580" unicode="&#311;" /><glyph d="M43 85H101V341H43V426H189V228L337 341H288V426H510V341H453L335 251L485 85H544V0H335V85H371L267 199L189 139V85H242V0H43Z" glyph-name="kgreenlandic" horiz-adv-x="580" unicode="&#312;" /><glyph d="M508 85V0H78V85H256V531H120V616H344V85Z" glyph-name="l" horiz-adv-x="580" unicode="l" /><glyph d="M508 85V0H78V85H256V531H120V616H344V85ZM430 765 238 649 192 714 364 859Z" glyph-name="lacute" horiz-adv-x="580" unicode="&#314;" /><glyph d="M508 85V0H78V85H256V531H120V616H344V85ZM567 652 473 465 397 493 457 693Z" glyph-name="lcaron" horiz-adv-x="580" unicode="&#318;" /><glyph d="M508 85V0H78V85H256V531H120V616H344V85ZM354 -59 284 -243H210L242 -59Z" glyph-name="lcommaaccent" horiz-adv-x="580" unicode="&#316;" /><glyph d="M508 85V0H78V85H256V531H120V616H344V85ZM558 346Q558 313 536 292Q514 271 483 271Q452 271 430 292Q408 313 408 346Q408 379 430 400Q452 421 483 421Q514 421 536 400Q558 379 558 346Z" glyph-name="ldot" horiz-adv-x="580" unicode="&#320;" /><glyph d="M60 287 475 531 513 455 227 287 513 121 475 44Z" glyph-name="less" horiz-adv-x="580" unicode="&lt;" /><glyph d="M55 377 480 575 516 497 254 377 516 257 480 179ZM511 130V45H67V130Z" glyph-name="lessequal" horiz-adv-x="580" unicode="&#8804;" /><glyph d="M424 135V320H68V405H512V135Z" glyph-name="logicalnot" horiz-adv-x="580" unicode="&#172;" /><glyph d="M232 0 74 290 232 580H348L506 290L348 0ZM406 290 290 504 174 290 290 75Z" glyph-name="lozenge" horiz-adv-x="580" unicode="&#9674;" /><glyph d="M113 269 256 351V531H120V616H344V401L427 449L470 374L344 302V85H508V0H78V85H256V251L156 194Z" glyph-name="lslash" horiz-adv-x="580" unicode="&#322;" /><glyph d="M23 85H65V341H23V426H147V381Q159 408 184.5 424Q210 440 239 440Q265 440 289 426.5Q313 413 326 384Q340 410 365 425Q390 440 426 440Q464 440 491 413Q518 386 518 321V85H561V0H433V310Q433 338 422 346Q411 354 397 354Q373 354 353.5 330.5Q334 307 334 265V85H373V0H249V310Q249 338 238 346Q227 354 213 354Q188 354 169 329.5Q150 305 150 265V85H189V0H23Z" glyph-name="m" horiz-adv-x="580" unicode="m" /><glyph d="M161 589H419V505H161Z" glyph-name="macron" horiz-adv-x="580" unicode="&#175;" /><glyph d="M512 318V233H68V318Z" glyph-name="minus" horiz-adv-x="580" unicode="&#8722;" /><glyph d="M297 -14Q259 -14 228.5 1Q198 16 184 42V-188H97V341H25V426H185V189Q185 164 194.5 142.5Q204 121 220 105Q236 89 256 80.5Q276 72 297 72Q318 72 338 80.5Q358 89 374 105Q390 121 399.5 142.5Q409 164 409 189V341H336V426H497V85H558V0H410V49Q396 20 365.5 3Q335 -14 297 -14Z" glyph-name="mu" horiz-adv-x="580" unicode="&#181;" /><glyph d="M290 337 426 473 486 413 350 277 486 141 426 81 290 217 154 81 94 141 230 277 94 413 154 473Z" glyph-name="multiply" horiz-adv-x="580" unicode="&#215;" /><glyph d="M34 85H99V341H38V426H186V371Q206 403 244 421.5Q282 440 332 440Q368 440 397.5 429Q427 418 449 398Q471 378 483 348.5Q495 319 495 283V85H560V0H339V85H407V259Q407 287 399.5 305Q392 323 379.5 334Q367 345 351.5 349.5Q336 354 321 354Q296 354 272 345Q248 336 229 319.5Q210 303 198.5 279.5Q187 256 187 227V85H255V0H34Z" glyph-name="n" horiz-adv-x="580" unicode="n" /><glyph d="M34 85H99V341H38V426H186V371Q206 403 244 421.5Q282 440 332 440Q368 440 397.5 429Q427 418 449 398Q471 378 483 348.5Q495 319 495 283V85H560V0H339V85H407V259Q407 287 399.5 305Q392 323 379.5 334Q367 345 351.5 349.5Q336 354 321 354Q296 354 272 345Q248 336 229 319.5Q210 303 198.5 279.5Q187 256 187 227V85H255V0H34ZM439 597 247 481 201 546 373 691Z" glyph-name="nacute" horiz-adv-x="580" unicode="&#324;" /><glyph d="M34 85H99V341H38V426H186V371Q206 403 244 421.5Q282 440 332 440Q368 440 397.5 429Q427 418 449 398Q471 378 483 348.5Q495 319 495 283V85H560V0H339V85H407V259Q407 287 399.5 305Q392 323 379.5 334Q367 345 351.5 349.5Q336 354 321 354Q296 354 272 345Q248 336 229 319.5Q210 303 198.5 279.5Q187 256 187 227V85H255V0H34ZM167 614 220 677 311 597 402 677 455 614 311 487Z" glyph-name="ncaron" horiz-adv-x="580" unicode="&#328;" /><glyph d="M34 85H99V341H38V426H186V371Q206 403 244 421.5Q282 440 332 440Q368 440 397.5 429Q427 418 449 398Q471 378 483 348.5Q495 319 495 283V85H560V0H339V85H407V259Q407 287 399.5 305Q392 323 379.5 334Q367 345 351.5 349.5Q336 354 321 354Q296 354 272 345Q248 336 229 319.5Q210 303 198.5 279.5Q187 256 187 227V85H255V0H34ZM355 -59 285 -243H211L243 -59Z" glyph-name="ncommaaccent" horiz-adv-x="580" unicode="&#326;" /><glyph d="M383 402Q383 447 351.5 478.5Q320 510 269 510Q220 510 191 479Q162 448 162 403Q162 358 191.5 327Q221 296 271 296Q322 296 350 327Q378 358 383 402ZM146 126Q163 103 188.5 87Q214 71 246 71Q281 71 311 89.5Q341 108 363 139Q385 170 397.5 212Q410 254 410 300V310Q406 295 393.5 277.5Q381 260 362.5 245.5Q344 231 318.5 221.5Q293 212 263 212Q222 212 186.5 226Q151 240 124.5 265.5Q98 291 83 326Q68 361 68 403Q68 441 82 476Q96 511 122 537Q148 563 185 578.5Q222 594 269 594Q329 594 372.5 571.5Q416 549 444 509.5Q472 470 485.5 417Q499 364 499 303Q499 233 479 174.5Q459 116 424.5 74Q390 32 344 9Q298 -14 246 -14Q189 -14 147.5 9.5Q106 33 80 69Z" glyph-name="nine" horiz-adv-x="580" unicode="9" /><glyph d="M216 -107Q223 -115 236 -122.5Q249 -130 266 -130Q284 -130 299 -121Q314 -112 325.5 -97Q337 -82 343.5 -63.5Q350 -45 350 -27Q346 -40 327 -56.5Q308 -73 270 -73Q248 -73 227.5 -65.5Q207 -58 191 -44.5Q175 -31 166 -11.5Q157 8 157 31Q157 77 190.5 109.5Q224 142 280 142Q316 142 342.5 127Q369 112 386 88.5Q403 65 411 36Q419 7 419 -22Q419 -59 406 -91Q393 -123 372 -146Q351 -169 323.5 -182.5Q296 -196 266 -196Q231 -196 206 -182Q181 -168 167 -149ZM279 -13Q302 -13 315.5 1Q329 15 329 32Q329 49 315.5 63Q302 77 279 77Q256 77 242.5 63.5Q229 50 229 32Q229 14 242.5 0.5Q256 -13 279 -13Z" glyph-name="nine.inf" horiz-adv-x="580" unicode="&#58746;" /><glyph glyph-name="nonbreakingspace" horiz-adv-x="580" unicode="&#160;" /><glyph glyph-name="nonmarkingreturn" horiz-adv-x="250" unicode="" /><glyph d="M171 145H68V230H220L272 320H68V405H321L386 516L451 476L410 405H512V320H360L308 230H512V145H259L196 35L131 75Z" glyph-name="notequal" horiz-adv-x="580" unicode="&#8800;" /><glyph d="M34 85H99V341H38V426H186V371Q206 403 244 421.5Q282 440 332 440Q368 440 397.5 429Q427 418 449 398Q471 378 483 348.5Q495 319 495 283V85H560V0H339V85H407V259Q407 287 399.5 305Q392 323 379.5 334Q367 345 351.5 349.5Q336 354 321 354Q296 354 272 345Q248 336 229 319.5Q210 303 198.5 279.5Q187 256 187 227V85H255V0H34ZM463 577Q462 563 454.5 546.5Q447 530 434 516.5Q421 503 403 494Q385 485 363 485Q341 485 325 491.5Q309 498 296.5 506.5Q284 515 273 521.5Q262 528 249 528Q234 528 223.5 517Q213 506 211 491L140 515Q141 529 148.5 545.5Q156 562 169 575.5Q182 589 200 598Q218 607 240 607Q262 607 278 600.5Q294 594 306.5 585.5Q319 577 330 570.5Q341 564 354 564Q369 564 379.5 575Q390 586 392 601Z" glyph-name="ntilde" horiz-adv-x="580" unicode="&#241;" /><glyph d="M81 431H168L197 580H289L260 431H371L400 580H492L463 431H550L534 347H447L426 241H515L499 157H410L380 0H288L318 157H207L177 0H85L115 157H30L46 241H131L152 347H65ZM223 241H334L355 347H244Z" glyph-name="numbersign" horiz-adv-x="580" unicode="#" /><glyph d="M56 213Q56 262 73.5 303.5Q91 345 122.5 375.5Q154 406 197 423Q240 440 290 440Q340 440 383 423Q426 406 457.5 375.5Q489 345 506.5 303.5Q524 262 524 213Q524 164 506.5 122.5Q489 81 457.5 50.5Q426 20 383 3Q340 -14 290 -14Q240 -14 197 3Q154 20 122.5 50.5Q91 81 73.5 122.5Q56 164 56 213ZM431 213Q431 243 420.5 269Q410 295 391 314Q372 333 346 344Q320 355 290 355Q260 355 234 344Q208 333 189 314Q170 295 159.5 269Q149 243 149 213Q149 183 159.5 157Q170 131 189 112Q208 93 234 82Q260 71 290 71Q320 71 346 82Q372 93 391 112Q410 131 420.5 157Q431 183 431 213Z" glyph-name="o" horiz-adv-x="580" unicode="o" /><glyph d="M56 213Q56 262 73.5 303.5Q91 345 122.5 375.5Q154 406 197 423Q240 440 290 440Q340 440 383 423Q426 406 457.5 375.5Q489 345 506.5 303.5Q524 262 524 213Q524 164 506.5 122.5Q489 81 457.5 50.5Q426 20 383 3Q340 -14 290 -14Q240 -14 197 3Q154 20 122.5 50.5Q91 81 73.5 122.5Q56 164 56 213ZM431 213Q431 243 420.5 269Q410 295 391 314Q372 333 346 344Q320 355 290 355Q260 355 234 344Q208 333 189 314Q170 295 159.5 269Q149 243 149 213Q149 183 159.5 157Q170 131 189 112Q208 93 234 82Q260 71 290 71Q320 71 346 82Q372 93 391 112Q410 131 420.5 157Q431 183 431 213ZM416 597 224 481 178 546 350 691Z" glyph-name="oacute" horiz-adv-x="580" unicode="&#243;" /><glyph d="M56 213Q56 262 73.5 303.5Q91 345 122.5 375.5Q154 406 197 423Q240 440 290 440Q340 440 383 423Q426 406 457.5 375.5Q489 345 506.5 303.5Q524 262 524 213Q524 164 506.5 122.5Q489 81 457.5 50.5Q426 20 383 3Q340 -14 290 -14Q240 -14 197 3Q154 20 122.5 50.5Q91 81 73.5 122.5Q56 164 56 213ZM431 213Q431 243 420.5 269Q410 295 391 314Q372 333 346 344Q320 355 290 355Q260 355 234 344Q208 333 189 314Q170 295 159.5 269Q149 243 149 213Q149 183 159.5 157Q170 131 189 112Q208 93 234 82Q260 71 290 71Q320 71 346 82Q372 93 391 112Q410 131 420.5 157Q431 183 431 213ZM290 495Q229 495 188.5 530.5Q148 566 145 626L224 631Q226 604 243.5 585.5Q261 567 290 567Q318 567 336 585.5Q354 604 356 631L435 626Q432 566 391.5 530.5Q351 495 290 495Z" glyph-name="obreve" horiz-adv-x="580" unicode="&#335;" /><glyph d="M56 213Q56 262 73.5 303.5Q91 345 122.5 375.5Q154 406 197 423Q240 440 290 440Q340 440 383 423Q426 406 457.5 375.5Q489 345 506.5 303.5Q524 262 524 213Q524 164 506.5 122.5Q489 81 457.5 50.5Q426 20 383 3Q340 -14 290 -14Q240 -14 197 3Q154 20 122.5 50.5Q91 81 73.5 122.5Q56 164 56 213ZM431 213Q431 243 420.5 269Q410 295 391 314Q372 333 346 344Q320 355 290 355Q260 355 234 344Q208 333 189 314Q170 295 159.5 269Q149 243 149 213Q149 183 159.5 157Q170 131 189 112Q208 93 234 82Q260 71 290 71Q320 71 346 82Q372 93 391 112Q410 131 420.5 157Q431 183 431 213ZM290 677 434 550 381 487 290 567 199 487 146 550Z" glyph-name="ocircumflex" horiz-adv-x="580" unicode="&#244;" /><glyph d="M56 213Q56 262 73.5 303.5Q91 345 122.5 375.5Q154 406 197 423Q240 440 290 440Q340 440 383 423Q426 406 457.5 375.5Q489 345 506.5 303.5Q524 262 524 213Q524 164 506.5 122.5Q489 81 457.5 50.5Q426 20 383 3Q340 -14 290 -14Q240 -14 197 3Q154 20 122.5 50.5Q91 81 73.5 122.5Q56 164 56 213ZM431 213Q431 243 420.5 269Q410 295 391 314Q372 333 346 344Q320 355 290 355Q260 355 234 344Q208 333 189 314Q170 295 159.5 269Q149 243 149 213Q149 183 159.5 157Q170 131 189 112Q208 93 234 82Q260 71 290 71Q320 71 346 82Q372 93 391 112Q410 131 420.5 157Q431 183 431 213ZM260 576Q260 545 239.5 525.5Q219 506 190 506Q161 506 140.5 525.5Q120 545 120 576Q120 607 140.5 626.5Q161 646 190 646Q219 646 239.5 626.5Q260 607 260 576ZM460 576Q460 545 439.5 525.5Q419 506 390 506Q361 506 340.5 525.5Q320 545 320 576Q320 607 340.5 626.5Q361 646 390 646Q419 646 439.5 626.5Q460 607 460 576Z" glyph-name="odieresis" horiz-adv-x="580" unicode="&#246;" /><glyph d="M561 62Q535 27 499 6.5Q463 -14 419 -14Q332 -14 290 62Q272 24 242.5 5Q213 -14 175 -14Q139 -14 110 2Q81 18 60.5 48Q40 78 28.5 120Q17 162 17 213Q17 264 28.5 306Q40 348 60.5 378Q81 408 110 424Q139 440 175 440Q251 440 293 363Q335 440 413 440Q449 440 478 422.5Q507 405 527 372.5Q547 340 558 295.5Q569 251 569 197V182H334Q338 129 361.5 98.5Q385 68 421 68Q446 68 469 83.5Q492 99 507 120ZM246 213Q246 276 226.5 315.5Q207 355 175 355Q143 355 123.5 315.5Q104 276 104 213Q104 150 123.5 110.5Q143 71 175 71Q206 71 226 110.5Q246 150 246 213ZM475 256Q473 301 455 329.5Q437 358 413 358Q381 358 361.5 329Q342 300 338 256Z" glyph-name="oe" horiz-adv-x="580" unicode="&#339;" /><glyph d="M372 0Q322 -26 290.5 -56Q259 -86 259 -112Q259 -123 266.5 -130.5Q274 -138 291 -138Q311 -138 328.5 -128Q346 -118 363 -104L402 -153Q377 -178 347 -194.5Q317 -211 278 -211Q231 -211 205 -187Q179 -163 179 -124Q179 -56 269 0Z" glyph-name="ogonek" horiz-adv-x="580" unicode="&#731;" /><glyph d="M56 213Q56 262 73.5 303.5Q91 345 122.5 375.5Q154 406 197 423Q240 440 290 440Q340 440 383 423Q426 406 457.5 375.5Q489 345 506.5 303.5Q524 262 524 213Q524 164 506.5 122.5Q489 81 457.5 50.5Q426 20 383 3Q340 -14 290 -14Q240 -14 197 3Q154 20 122.5 50.5Q91 81 73.5 122.5Q56 164 56 213ZM431 213Q431 243 420.5 269Q410 295 391 314Q372 333 346 344Q320 355 290 355Q260 355 234 344Q208 333 189 314Q170 295 159.5 269Q149 243 149 213Q149 183 159.5 157Q170 131 189 112Q208 93 234 82Q260 71 290 71Q320 71 346 82Q372 93 391 112Q410 131 420.5 157Q431 183 431 213ZM230 691 402 546 356 481 164 597Z" glyph-name="ograve" horiz-adv-x="580" unicode="&#242;" /><glyph d="M134 320Q134 281 143 249Q152 217 168 189.5Q184 162 205.5 138Q227 114 252 91V0H50V85H153Q133 99 112.5 121.5Q92 144 75.5 173.5Q59 203 48.5 240Q38 277 38 320Q38 382 56.5 432.5Q75 483 108.5 519Q142 555 188.5 574.5Q235 594 290 594Q346 594 392 574.5Q438 555 471.5 519Q505 483 523.5 432.5Q542 382 542 320Q542 277 531.5 240Q521 203 504.5 173.5Q488 144 467.5 121.5Q447 99 427 85H530V0H328V91Q353 114 374.5 138Q396 162 412 189.5Q428 217 437 249Q446 281 446 320Q446 359 436 393Q426 427 406.5 452.5Q387 478 357.5 492.5Q328 507 290 507Q252 507 222.5 492.5Q193 478 173.5 452.5Q154 427 144 393Q134 359 134 320Z" glyph-name="ohm" horiz-adv-x="580" unicode="&#59425;" /><glyph d="M56 213Q56 262 73.5 303.5Q91 345 122.5 375.5Q154 406 197 423Q240 440 290 440Q340 440 383 423Q426 406 457.5 375.5Q489 345 506.5 303.5Q524 262 524 213Q524 164 506.5 122.5Q489 81 457.5 50.5Q426 20 383 3Q340 -14 290 -14Q240 -14 197 3Q154 20 122.5 50.5Q91 81 73.5 122.5Q56 164 56 213ZM431 213Q431 243 420.5 269Q410 295 391 314Q372 333 346 344Q320 355 290 355Q260 355 234 344Q208 333 189 314Q170 295 159.5 269Q149 243 149 213Q149 183 159.5 157Q170 131 189 112Q208 93 234 82Q260 71 290 71Q320 71 346 82Q372 93 391 112Q410 131 420.5 157Q431 183 431 213ZM352 607 168 485 123 543 286 693ZM574 607 390 485 345 543 508 693Z" glyph-name="ohungarumlaut" horiz-adv-x="580" unicode="&#337;" /><glyph d="M56 213Q56 262 73.5 303.5Q91 345 122.5 375.5Q154 406 197 423Q240 440 290 440Q340 440 383 423Q426 406 457.5 375.5Q489 345 506.5 303.5Q524 262 524 213Q524 164 506.5 122.5Q489 81 457.5 50.5Q426 20 383 3Q340 -14 290 -14Q240 -14 197 3Q154 20 122.5 50.5Q91 81 73.5 122.5Q56 164 56 213ZM431 213Q431 243 420.5 269Q410 295 391 314Q372 333 346 344Q320 355 290 355Q260 355 234 344Q208 333 189 314Q170 295 159.5 269Q149 243 149 213Q149 183 159.5 157Q170 131 189 112Q208 93 234 82Q260 71 290 71Q320 71 346 82Q372 93 391 112Q410 131 420.5 157Q431 183 431 213ZM161 589H419V505H161Z" glyph-name="omacron" horiz-adv-x="580" unicode="&#333;" /><glyph d="M94 442 250 580H346V85H508V0H78V85H256V471L147 374Z" glyph-name="one" horiz-adv-x="580" unicode="1" /><glyph d="M422 -120V-188H158V-120H260V48L208 1L166 56L254 134H332V-120Z" glyph-name="one.inf" horiz-adv-x="580" unicode="&#58738;" /><glyph d="M85 -21 31 24 502 602 556 556ZM248 407V348H24V407H110V549L66 512L31 559L105 622H174V407ZM346 65 451 145Q466 157 477.5 168.5Q489 180 489 194Q489 206 479 213.5Q469 221 453 221Q432 221 420.5 210Q409 199 399 186L346 212Q361 241 386.5 260.5Q412 280 452 280Q498 280 525.5 254.5Q553 229 553 194Q553 172 541 154Q529 136 503 116L423 56H501V85H556V0H346Z" glyph-name="onehalf" horiz-adv-x="580" unicode="&#189;" /><glyph d="M248 407V348H24V407H110V549L66 512L31 559L105 622H174V407ZM85 -21 31 24 502 602 556 556ZM431 274H509V129H541V80H509V55H541V0H404V55H451V80H328V135ZM451 129V213L388 129Z" glyph-name="onequarter" horiz-adv-x="580" unicode="&#188;" /><glyph d="M422 368V300H158V368H260V536L208 489L166 544L254 622H332V368Z" glyph-name="onesuperior" horiz-adv-x="580" unicode="&#185;" /><glyph d="M269 507Q292 507 311.5 503Q331 499 346 494V506Q347 535 326.5 549Q306 563 273 563Q250 563 229.5 555Q209 547 189 533L141 583Q164 602 196.5 617Q229 632 274 632Q338 632 381 601Q424 570 424 509V387H466V314H346V345Q330 325 302 314Q274 303 240 303Q218 303 197.5 309.5Q177 316 161 328.5Q145 341 136 359Q127 377 127 400Q127 428 139.5 448Q152 468 172 481Q192 494 217.5 500.5Q243 507 269 507ZM346 438Q332 443 311.5 446.5Q291 450 274 450Q247 450 226.5 439Q206 428 206 405Q206 385 221 377.5Q236 370 258 370Q292 370 319 386Q346 402 346 428Z" glyph-name="ordfeminine" horiz-adv-x="580" unicode="&#170;" /><glyph d="M290 303Q253 303 221.5 315.5Q190 328 166.5 349.5Q143 371 130 401Q117 431 117 467Q117 503 130 533Q143 563 166.5 585Q190 607 221.5 619.5Q253 632 290 632Q327 632 358.5 619.5Q390 607 413 585Q436 563 449 533Q462 503 462 467Q462 431 449 401Q436 371 413 349.5Q390 328 358.5 315.5Q327 303 290 303ZM290 378Q328 378 354 403.5Q380 429 380 467Q380 505 354 530.5Q328 556 290 556Q252 556 225.5 530.5Q199 505 199 467Q199 429 225.5 403.5Q252 378 290 378Z" glyph-name="ordmasculine" horiz-adv-x="580" unicode="&#186;" /><glyph d="M463 370Q492 340 508 300Q524 260 524 213Q524 164 506.5 122.5Q489 81 457.5 50.5Q426 20 383 3Q340 -14 290 -14Q261 -14 235.5 -8.5Q210 -3 187 7L128 -70L66 -22L122 51Q91 82 73.5 123Q56 164 56 213Q56 262 73.5 303.5Q91 345 122.5 375.5Q154 406 197 423Q240 440 290 440Q349 440 399 415L454 487L515 439ZM149 213Q149 162 178 125L345 344Q318 355 290 355Q260 355 234 344Q208 333 189 314Q170 295 159.5 269Q149 243 149 213ZM431 213Q431 259 406 295L241 79Q265 71 290 71Q320 71 346 82Q372 93 391 112Q410 131 420.5 157Q431 183 431 213Z" glyph-name="oslash" horiz-adv-x="580" unicode="&#248;" /><glyph d="M56 213Q56 262 73.5 303.5Q91 345 122.5 375.5Q154 406 197 423Q240 440 290 440Q340 440 383 423Q426 406 457.5 375.5Q489 345 506.5 303.5Q524 262 524 213Q524 164 506.5 122.5Q489 81 457.5 50.5Q426 20 383 3Q340 -14 290 -14Q240 -14 197 3Q154 20 122.5 50.5Q91 81 73.5 122.5Q56 164 56 213ZM431 213Q431 243 420.5 269Q410 295 391 314Q372 333 346 344Q320 355 290 355Q260 355 234 344Q208 333 189 314Q170 295 159.5 269Q149 243 149 213Q149 183 159.5 157Q170 131 189 112Q208 93 234 82Q260 71 290 71Q320 71 346 82Q372 93 391 112Q410 131 420.5 157Q431 183 431 213ZM451 577Q450 563 442.5 546.5Q435 530 422 516.5Q409 503 391 494Q373 485 351 485Q329 485 313 491.5Q297 498 284.5 506.5Q272 515 261 521.5Q250 528 237 528Q222 528 211.5 517Q201 506 199 491L128 515Q129 529 136.5 545.5Q144 562 157 575.5Q170 589 188 598Q206 607 228 607Q250 607 266 600.5Q282 594 294.5 585.5Q307 577 318 570.5Q329 564 342 564Q357 564 367.5 575Q378 586 380 601Z" glyph-name="otilde" horiz-adv-x="580" unicode="&#245;" /><glyph d="M26 341V426H175V374Q193 397 231 418.5Q269 440 327 440Q373 440 412.5 423Q452 406 480.5 376Q509 346 525.5 304.5Q542 263 542 213Q542 164 525.5 122Q509 80 480.5 50Q452 20 412.5 3Q373 -14 327 -14Q269 -14 231 7.5Q193 29 175 52V-103H269V-188H26V-103H87V341ZM451 213Q451 244 440.5 270.5Q430 297 412 316Q394 335 369 346Q344 357 315 357Q286 357 260.5 347Q235 337 216 318.5Q197 300 186 274.5Q175 249 175 219V207Q175 177 186 151.5Q197 126 216 107.5Q235 89 260.5 79Q286 69 315 69Q344 69 369 80Q394 91 412 110Q430 129 440.5 155.5Q451 182 451 213Z" glyph-name="p" horiz-adv-x="580" unicode="p" /><glyph d="M223 256Q186 256 153.5 267.5Q121 279 96 300Q71 321 56.5 351Q42 381 42 418Q42 455 56.5 485Q71 515 96 536Q121 557 153.5 568.5Q186 580 223 580H536V495H478V-54H390V495H311V-54H223Z" glyph-name="paragraph" horiz-adv-x="580" unicode="&#182;" /><glyph d="M168 259Q168 327 183.5 385Q199 443 225.5 493Q252 543 287.5 585.5Q323 628 363 664L423 600Q389 568 359.5 531Q330 494 308 451.5Q286 409 273 361Q260 313 260 259Q260 205 273 157Q286 109 308 66.5Q330 24 359.5 -13Q389 -50 423 -82L363 -146Q323 -110 287.5 -67.5Q252 -25 225.5 25Q199 75 183.5 133Q168 191 168 259Z" glyph-name="parenleft" horiz-adv-x="580" unicode="(" /><glyph d="M412 259Q412 191 396.5 133Q381 75 354.5 25Q328 -25 292.5 -67.5Q257 -110 217 -146L157 -82Q191 -50 220.5 -13Q250 24 272 66.5Q294 109 307 157Q320 205 320 259Q320 313 307 361Q294 409 272 451.5Q250 494 220.5 531Q191 568 157 600L217 664Q257 628 292.5 585.5Q328 543 354.5 493Q381 443 396.5 385Q412 327 412 259Z" glyph-name="parenright" horiz-adv-x="580" unicode=")" /><glyph d="M118 525Q144 555 183.5 574.5Q223 594 273 594Q325 594 366 572Q407 550 435.5 510Q464 470 479.5 414.5Q495 359 495 293Q495 239 481 184.5Q467 130 438 85.5Q409 41 363.5 13.5Q318 -14 255 -14Q211 -14 177 -0.5Q143 13 119.5 36.5Q96 60 84 93Q72 126 72 165Q72 202 84.5 238Q97 274 122.5 302.5Q148 331 187.5 349Q227 367 280 367Q331 367 364 344Q397 321 407 296Q408 335 401 373.5Q394 412 378 442.5Q362 473 335.5 491.5Q309 510 270 510Q237 510 216.5 497.5Q196 485 182 471ZM280 283Q251 283 229.5 273Q208 263 194 246.5Q180 230 173 209.5Q166 189 166 168Q166 123 190.5 96.5Q215 70 257 70Q290 70 316 84.5Q342 99 360 120Q378 141 387.5 165.5Q397 190 398 209Q387 241 352.5 262Q318 283 280 283Z" glyph-name="partialdiff" horiz-adv-x="580" unicode="&#8706;" /><glyph d="M98 -18 46 25 482 597 534 554ZM23 461Q23 490 33 514Q43 538 61 556Q79 574 103.5 584Q128 594 156 594Q184 594 208.5 584Q233 574 251 556Q269 538 279 514Q289 490 289 461Q289 433 279 408.5Q269 384 251 366Q233 348 208.5 338Q184 328 156 328Q128 328 103.5 338Q79 348 61 366Q43 384 33 408.5Q23 433 23 461ZM98 461Q98 435 115.5 417.5Q133 400 156 400Q179 400 196.5 417.5Q214 435 214 461Q214 487 196.5 504.5Q179 522 156 522Q133 522 115.5 504.5Q98 487 98 461ZM291 118Q291 147 301 171Q311 195 329 213Q347 231 371.5 241Q396 251 424 251Q452 251 476.5 241Q501 231 519 213Q537 195 547 171Q557 147 557 118Q557 90 547 65.5Q537 41 519 23Q501 5 476.5 -5Q452 -15 424 -15Q396 -15 371.5 -5Q347 5 329 23Q311 41 301 65.5Q291 90 291 118ZM366 118Q366 92 383.5 74.5Q401 57 424 57Q447 57 464.5 74.5Q482 92 482 118Q482 144 464.5 161.5Q447 179 424 179Q401 179 383.5 161.5Q366 144 366 118Z" glyph-name="percent" horiz-adv-x="580" unicode="%" /><glyph d="M196 78Q196 118 222 144Q248 170 290 170Q332 170 358 144Q384 118 384 78Q384 38 358 12.5Q332 -13 290 -13Q248 -13 222 12.5Q196 38 196 78Z" glyph-name="period" horiz-adv-x="580" unicode="." /><glyph d="M196 290Q196 330 222 356Q248 382 290 382Q332 382 358 356Q384 330 384 290Q384 250 358 224.5Q332 199 290 199Q248 199 222 224.5Q196 250 196 290Z" glyph-name="periodcentered" horiz-adv-x="580" unicode="&#183;" /><glyph d="M55 -18 2 16 348 598 401 564ZM44 498Q44 538 71.5 565Q99 592 138 592Q177 592 204.5 565Q232 538 232 498Q232 458 204.5 431Q177 404 138 404Q99 404 71.5 431Q44 458 44 498ZM103 498Q103 483 113.5 472Q124 461 138 461Q152 461 162.5 472Q173 483 173 498Q173 513 162.5 524Q152 535 138 535Q124 535 113.5 524Q103 513 103 498ZM360 83Q360 43 332.5 16Q305 -11 266 -11Q227 -11 199.5 16Q172 43 172 83Q172 123 199.5 150Q227 177 266 177Q305 177 332.5 150Q360 123 360 83ZM301 83Q301 98 290.5 109Q280 120 266 120Q252 120 241.5 109Q231 98 231 83Q231 68 241.5 57Q252 46 266 46Q280 46 290.5 57Q301 68 301 83ZM576 83Q576 43 548.5 16Q521 -11 482 -11Q443 -11 415.5 16Q388 43 388 83Q388 123 415.5 150Q443 177 482 177Q521 177 548.5 150Q576 123 576 83ZM517 83Q517 98 506.5 109Q496 120 482 120Q468 120 457.5 109Q447 98 447 83Q447 68 457.5 57Q468 46 482 46Q496 46 506.5 57Q517 68 517 83Z" glyph-name="perthousand" horiz-adv-x="580" unicode="&#8240;" /><glyph d="M516 0H360V341H215V85H263V0H79V85H127V341H59V426H516V341H448V85H516Z" glyph-name="pi" horiz-adv-x="580" unicode="&#960;" /><glyph d="M332 490V318H506V233H332V59H247V233H74V318H247V490Z" glyph-name="plus" horiz-adv-x="580" unicode="+" /><glyph d="M332 556V415H506V330H332V188H247V330H74V415H247V556ZM512 130V45H68V130Z" glyph-name="plusminus" horiz-adv-x="580" unicode="&#177;" /><glyph d="M392 495H188V85H235V0H45V85H96V495H23V580H557V495H484V85H535V0H345V85H392Z" glyph-name="product" horiz-adv-x="580" unicode="&#8719;" /><glyph d="M493 341V-103H554V-188H303V-103H405V52Q387 29 349 7.5Q311 -14 253 -14Q207 -14 167.5 3Q128 20 99.5 50Q71 80 54.5 122Q38 164 38 213Q38 263 54.5 304.5Q71 346 99.5 376Q128 406 167.5 423Q207 440 253 440Q311 440 349 418.5Q387 397 405 374V426H554V341ZM129 213Q129 182 139.5 155.5Q150 129 168 110Q186 91 211 80Q236 69 265 69Q294 69 319.5 79Q345 89 364 107.5Q383 126 394 151.5Q405 177 405 207V219Q405 249 394 274.5Q383 300 364 318.5Q345 337 319.5 347Q294 357 265 357Q236 357 211 346Q186 335 168 316Q150 297 139.5 270.5Q129 244 129 213Z" glyph-name="q" horiz-adv-x="580" unicode="q" /><glyph d="M281 597Q329 597 367 583Q405 569 431.5 545Q458 521 472 489Q486 457 486 422Q486 385 472.5 356Q459 327 437 305Q415 283 387.5 267.5Q360 252 332 242V179H244V293Q274 300 300.5 311.5Q327 323 347.5 339.5Q368 356 379.5 376.5Q391 397 391 422Q391 460 361.5 485.5Q332 511 281 511Q232 511 202 485Q172 459 151 426L75 474Q88 497 107.5 519.5Q127 542 152.5 559Q178 576 210 586.5Q242 597 281 597ZM290 -13Q258 -13 237 7.5Q216 28 216 60Q216 91 237 112Q258 133 290 133Q322 133 343 112Q364 91 364 60Q364 28 343 7.5Q322 -13 290 -13Z" glyph-name="question" horiz-adv-x="580" unicode="?" /><glyph d="M282 -141Q234 -141 196 -127Q158 -113 131.5 -89Q105 -65 91 -33Q77 -1 77 34Q77 71 90.5 100Q104 129 126 151Q148 173 175.5 188.5Q203 204 231 214V277H319V163Q289 156 262.5 144.5Q236 133 215.5 116.5Q195 100 183.5 79.5Q172 59 172 34Q172 -4 201.5 -29.5Q231 -55 282 -55Q331 -55 361 -29Q391 -3 412 30L488 -18Q475 -41 455.5 -63.5Q436 -86 410.5 -103Q385 -120 353 -130.5Q321 -141 282 -141ZM273 469Q305 469 326 448.5Q347 428 347 396Q347 365 326 344Q305 323 273 323Q241 323 220 344Q199 365 199 396Q199 428 220 448.5Q241 469 273 469Z" glyph-name="questiondown" horiz-adv-x="580" unicode="&#191;" /><glyph d="M459 616 431 362H351L323 616ZM257 616 229 362H149L121 616Z" glyph-name="quotedbl" horiz-adv-x="580" unicode="&quot;" /><glyph d="M291 102 162 -132H65L139 102ZM516 102 387 -132H290L364 102Z" glyph-name="quotedblbase" horiz-adv-x="580" unicode="&#8222;" /><glyph d="M441 616 516 382H418L289 616ZM216 616 291 382H193L64 616Z" glyph-name="quotedblleft" horiz-adv-x="580" unicode="&#8220;" /><glyph d="M291 616 162 382H65L139 616ZM516 616 387 382H290L364 616Z" glyph-name="quotedblright" horiz-adv-x="580" unicode="&#8221;" /><glyph d="M328 616 403 382H305L176 616Z" glyph-name="quoteleft" horiz-adv-x="580" unicode="&#8216;" /><glyph d="M403 616 274 382H177L251 616Z" glyph-name="quoteright" horiz-adv-x="580" unicode="&#8217;" /><glyph d="M403 102 274 -132H177L251 102Z" glyph-name="quotesinglbase" horiz-adv-x="580" unicode="&#8218;" /><glyph d="M358 616 330 362H250L222 616Z" glyph-name="quotesingle" horiz-adv-x="580" unicode="&apos;" /><glyph d="M460 302Q452 328 434.5 342Q417 356 392 356Q363 356 336 345.5Q309 335 288 314.5Q267 294 254.5 264Q242 234 242 195V85H390V0H60V85H154V341H80V426H241V354Q261 392 301 416Q341 440 396 440Q458 440 495.5 408.5Q533 377 544 326Z" glyph-name="r" horiz-adv-x="580" unicode="r" /><glyph d="M460 302Q452 328 434.5 342Q417 356 392 356Q363 356 336 345.5Q309 335 288 314.5Q267 294 254.5 264Q242 234 242 195V85H390V0H60V85H154V341H80V426H241V354Q261 392 301 416Q341 440 396 440Q458 440 495.5 408.5Q533 377 544 326ZM451 597 259 481 213 546 385 691Z" glyph-name="racute" horiz-adv-x="580" unicode="&#341;" /><glyph d="M172 0 102 306H31V391H174L238 102L471 630H565L286 0Z" glyph-name="radical" horiz-adv-x="580" unicode="&#8730;" /><glyph d="M460 302Q452 328 434.5 342Q417 356 392 356Q363 356 336 345.5Q309 335 288 314.5Q267 294 254.5 264Q242 234 242 195V85H390V0H60V85H154V341H80V426H241V354Q261 392 301 416Q341 440 396 440Q458 440 495.5 408.5Q533 377 544 326ZM168 614 221 677 312 597 403 677 456 614 312 487Z" glyph-name="rcaron" horiz-adv-x="580" unicode="&#345;" /><glyph d="M460 302Q452 328 434.5 342Q417 356 392 356Q363 356 336 345.5Q309 335 288 314.5Q267 294 254.5 264Q242 234 242 195V85H390V0H60V85H154V341H80V426H241V354Q261 392 301 416Q341 440 396 440Q458 440 495.5 408.5Q533 377 544 326ZM259 -59 189 -243H115L147 -59Z" glyph-name="rcommaaccent" horiz-adv-x="580" unicode="&#343;" /><glyph d="M290 -3Q233 -3 182.5 18.5Q132 40 94.5 79Q57 118 35 172Q13 226 13 290Q13 354 35 407.5Q57 461 94.5 500Q132 539 182.5 560.5Q233 582 290 582Q347 582 397.5 560.5Q448 539 485.5 500Q523 461 545 407.5Q567 354 567 290Q567 226 545 172Q523 118 485.5 79Q448 40 397.5 18.5Q347 -3 290 -3ZM290 58Q334 58 372.5 75.5Q411 93 439.5 123.5Q468 154 485 196.5Q502 239 502 290Q502 340 485 382.5Q468 425 439.5 456Q411 487 372.5 504Q334 521 290 521Q247 521 208 504Q169 487 140.5 456Q112 425 95 382.5Q78 340 78 290Q78 239 95 196.5Q112 154 140.5 123.5Q169 93 208 75.5Q247 58 290 58ZM284 259H245V198H278V142H156V198H186V380H156V436H300Q349 436 379.5 414.5Q410 393 410 349Q410 317 392.5 296Q375 275 347 266L387 197H429V142H351ZM245 314H301Q322 314 335.5 322.5Q349 331 349 348Q349 369 333 374.5Q317 380 282 380H245Z" glyph-name="registered" horiz-adv-x="580" unicode="&#174;" /><glyph d="M400 588Q400 566 391.5 546Q383 526 368 511Q353 496 333 487.5Q313 479 290 479Q267 479 247 487.5Q227 496 212 511Q197 526 188.5 546Q180 566 180 588Q180 635 211.5 666Q243 697 290 697Q337 697 368.5 666Q400 635 400 588ZM331 588Q331 605 320.5 617.5Q310 630 290 630Q270 630 259.5 617.5Q249 605 249 588Q249 571 259.5 558.5Q270 546 290 546Q310 546 320.5 558.5Q331 571 331 588Z" glyph-name="ring" horiz-adv-x="580" unicode="&#730;" /><glyph d="M415 111Q415 125 405 134.5Q395 144 378.5 150.5Q362 157 340 162Q318 167 293 172Q258 179 221.5 187.5Q185 196 155.5 211Q126 226 107 250.5Q88 275 88 314Q88 346 101.5 369.5Q115 393 137.5 409Q160 425 189.5 432.5Q219 440 252 440Q305 440 340 423.5Q375 407 392 391V426H475V279H401Q398 298 385.5 313.5Q373 329 353.5 339.5Q334 350 308.5 355.5Q283 361 256 361Q221 361 200 350Q179 339 179 317Q179 303 190 293.5Q201 284 219.5 277.5Q238 271 262 266Q286 261 313 256Q347 250 381.5 240.5Q416 231 443.5 215.5Q471 200 488.5 175.5Q506 151 506 114Q506 53 458 19.5Q410 -14 333 -14Q287 -14 241.5 -2Q196 10 167 39V0H84V154H158Q161 132 177.5 115.5Q194 99 218.5 88Q243 77 272.5 71Q302 65 330 65Q369 65 392 76.5Q415 88 415 111Z" glyph-name="s" horiz-adv-x="580" unicode="s" /><glyph d="M415 111Q415 125 405 134.5Q395 144 378.5 150.5Q362 157 340 162Q318 167 293 172Q258 179 221.5 187.5Q185 196 155.5 211Q126 226 107 250.5Q88 275 88 314Q88 346 101.5 369.5Q115 393 137.5 409Q160 425 189.5 432.5Q219 440 252 440Q305 440 340 423.5Q375 407 392 391V426H475V279H401Q398 298 385.5 313.5Q373 329 353.5 339.5Q334 350 308.5 355.5Q283 361 256 361Q221 361 200 350Q179 339 179 317Q179 303 190 293.5Q201 284 219.5 277.5Q238 271 262 266Q286 261 313 256Q347 250 381.5 240.5Q416 231 443.5 215.5Q471 200 488.5 175.5Q506 151 506 114Q506 53 458 19.5Q410 -14 333 -14Q287 -14 241.5 -2Q196 10 167 39V0H84V154H158Q161 132 177.5 115.5Q194 99 218.5 88Q243 77 272.5 71Q302 65 330 65Q369 65 392 76.5Q415 88 415 111ZM411 597 219 481 173 546 345 691Z" glyph-name="sacute" horiz-adv-x="580" unicode="&#347;" /><glyph d="M415 111Q415 125 405 134.5Q395 144 378.5 150.5Q362 157 340 162Q318 167 293 172Q258 179 221.5 187.5Q185 196 155.5 211Q126 226 107 250.5Q88 275 88 314Q88 346 101.5 369.5Q115 393 137.5 409Q160 425 189.5 432.5Q219 440 252 440Q305 440 340 423.5Q375 407 392 391V426H475V279H401Q398 298 385.5 313.5Q373 329 353.5 339.5Q334 350 308.5 355.5Q283 361 256 361Q221 361 200 350Q179 339 179 317Q179 303 190 293.5Q201 284 219.5 277.5Q238 271 262 266Q286 261 313 256Q347 250 381.5 240.5Q416 231 443.5 215.5Q471 200 488.5 175.5Q506 151 506 114Q506 53 458 19.5Q410 -14 333 -14Q287 -14 241.5 -2Q196 10 167 39V0H84V154H158Q161 132 177.5 115.5Q194 99 218.5 88Q243 77 272.5 71Q302 65 330 65Q369 65 392 76.5Q415 88 415 111ZM134 614 187 677 278 597 369 677 422 614 278 487Z" glyph-name="scaron" horiz-adv-x="580" unicode="&#353;" /><glyph d="M224 -147Q238 -164 251 -174Q264 -184 284 -184Q305 -184 317.5 -173.5Q330 -163 330 -146Q330 -127 317 -118Q304 -109 287 -109Q275 -109 264 -113L219 -80L258 -6Q231 0 207.5 11Q184 22 167 39V0H84V154H158Q161 132 177.5 115.5Q194 99 218.5 88Q243 77 272.5 71Q302 65 330 65Q369 65 392 76.5Q415 88 415 111Q415 125 405 134.5Q395 144 378.5 150.5Q362 157 340 162Q318 167 293 172Q258 179 221.5 187.5Q185 196 155.5 211Q126 226 107 250.5Q88 275 88 314Q88 346 101.5 369.5Q115 393 137.5 409Q160 425 189.5 432.5Q219 440 252 440Q305 440 340 423.5Q375 407 392 391V426H475V279H401Q398 298 385.5 313.5Q373 329 353.5 339.5Q334 350 308.5 355.5Q283 361 256 361Q221 361 200 350Q179 339 179 317Q179 303 190 293.5Q201 284 219.5 277.5Q238 271 262 266Q286 261 313 256Q347 250 381.5 240.5Q416 231 443.5 215.5Q471 200 488.5 175.5Q506 151 506 114Q506 53 458 19.5Q410 -14 333 -14Q328 -14 322 -14Q316 -14 311 -13L289 -55H293Q336 -55 364 -79.5Q392 -104 392 -146Q392 -189 360.5 -214.5Q329 -240 285 -240Q247 -240 220 -222Q193 -204 179 -181Z" glyph-name="scedilla" horiz-adv-x="580" unicode="&#351;" /><glyph d="M275 677 419 550 366 487 275 567 184 487 131 550ZM415 111Q415 125 405 134.5Q395 144 378.5 150.5Q362 157 340 162Q318 167 293 172Q258 179 221.5 187.5Q185 196 155.5 211Q126 226 107 250.5Q88 275 88 314Q88 346 101.5 369.5Q115 393 137.5 409Q160 425 189.5 432.5Q219 440 252 440Q305 440 340 423.5Q375 407 392 391V426H475V279H401Q398 298 385.5 313.5Q373 329 353.5 339.5Q334 350 308.5 355.5Q283 361 256 361Q221 361 200 350Q179 339 179 317Q179 303 190 293.5Q201 284 219.5 277.5Q238 271 262 266Q286 261 313 256Q347 250 381.5 240.5Q416 231 443.5 215.5Q471 200 488.5 175.5Q506 151 506 114Q506 53 458 19.5Q410 -14 333 -14Q287 -14 241.5 -2Q196 10 167 39V0H84V154H158Q161 132 177.5 115.5Q194 99 218.5 88Q243 77 272.5 71Q302 65 330 65Q369 65 392 76.5Q415 88 415 111Z" glyph-name="scircumflex" horiz-adv-x="580" unicode="&#349;" /><glyph d="M415 111Q415 125 405 134.5Q395 144 378.5 150.5Q362 157 340 162Q318 167 293 172Q258 179 221.5 187.5Q185 196 155.5 211Q126 226 107 250.5Q88 275 88 314Q88 346 101.5 369.5Q115 393 137.5 409Q160 425 189.5 432.5Q219 440 252 440Q305 440 340 423.5Q375 407 392 391V426H475V279H401Q398 298 385.5 313.5Q373 329 353.5 339.5Q334 350 308.5 355.5Q283 361 256 361Q221 361 200 350Q179 339 179 317Q179 303 190 293.5Q201 284 219.5 277.5Q238 271 262 266Q286 261 313 256Q347 250 381.5 240.5Q416 231 443.5 215.5Q471 200 488.5 175.5Q506 151 506 114Q506 53 458 19.5Q410 -14 333 -14Q287 -14 241.5 -2Q196 10 167 39V0H84V154H158Q161 132 177.5 115.5Q194 99 218.5 88Q243 77 272.5 71Q302 65 330 65Q369 65 392 76.5Q415 88 415 111ZM366 -59 296 -243H222L254 -59Z" glyph-name="scommaaccent" horiz-adv-x="580" unicode="&#537;" /><glyph d="M507 156Q507 121 491.5 95.5Q476 70 447 52Q455 37 460 20Q465 3 465 -18Q465 -57 450 -85Q435 -113 411 -130.5Q387 -148 356.5 -156.5Q326 -165 294 -165Q219 -165 168 -124.5Q117 -84 101 -20L182 3Q194 -34 221 -59Q248 -84 293 -84Q326 -84 351 -68.5Q376 -53 376 -21Q376 9 356 24.5Q336 40 313 53L184 125Q128 156 100.5 191Q73 226 73 273Q73 340 132 377Q115 406 115 447Q115 486 130 514Q145 542 169 559.5Q193 577 224 585.5Q255 594 286 594Q361 594 412 553.5Q463 513 479 449L398 426Q386 463 359 488Q332 513 287 513Q254 513 229 497.5Q204 482 204 450Q204 420 224 404.5Q244 389 267 376L396 304Q452 273 479.5 238Q507 203 507 156ZM225 299Q214 305 203.5 311Q193 317 183 324Q162 305 162 278Q162 259 175.5 240Q189 221 222 203L355 130Q366 124 376.5 118Q387 112 396 105Q418 124 418 151Q418 170 404.5 189Q391 208 358 226Z" glyph-name="section" horiz-adv-x="580" unicode="&#167;" /><glyph d="M204 342Q204 382 230 408Q256 434 298 434Q340 434 366 408Q392 382 392 342Q392 302 366 276.5Q340 251 298 251Q256 251 230 276.5Q204 302 204 342ZM384 102 268 -176H166L214 102Z" glyph-name="semicolon" horiz-adv-x="580" unicode=";" /><glyph d="M204 0 400 495H170V426H82V580H495V488L304 0Z" glyph-name="seven" horiz-adv-x="580" unicode="7" /><glyph d="M416 134V61L315 -188H236L343 67H235V33H167V134Z" glyph-name="seven.inf" horiz-adv-x="580" unicode="&#58744;" /><glyph d="M197 178Q197 133 228.5 101.5Q260 70 311 70Q360 70 389 101Q418 132 418 177Q418 222 388.5 253Q359 284 309 284Q258 284 230 253Q202 222 197 178ZM426 462Q412 482 388 495.5Q364 509 335 509Q300 509 269.5 490.5Q239 472 217 441Q195 410 182.5 368.5Q170 327 170 280V270Q175 285 187 302.5Q199 320 217.5 334.5Q236 349 261.5 358.5Q287 368 317 368Q358 368 394 354Q430 340 456 314.5Q482 289 497 254Q512 219 512 177Q512 139 498 104.5Q484 70 458 43.5Q432 17 395 1.5Q358 -14 311 -14Q251 -14 207.5 8.5Q164 31 136 70.5Q108 110 94.5 163Q81 216 81 277Q81 348 101 406Q121 464 155.5 506Q190 548 236.5 571Q283 594 335 594Q386 594 427 572.5Q468 551 492 519Z" glyph-name="six" horiz-adv-x="580" unicode="6" /><glyph d="M364 53Q357 61 344 68.5Q331 76 314 76Q296 76 281 67Q266 58 254.5 43Q243 28 236.5 9.5Q230 -9 230 -27Q234 -14 253 2.5Q272 19 310 19Q333 19 353 11.5Q373 4 389 -9.5Q405 -23 414 -42.5Q423 -62 423 -85Q423 -131 389.5 -163.5Q356 -196 300 -196Q264 -196 237.5 -181Q211 -166 194 -142.5Q177 -119 169 -90Q161 -61 161 -32Q161 5 174 37Q187 69 208 92Q229 115 256.5 128.5Q284 142 314 142Q349 142 374 128Q399 114 413 95ZM301 -41Q278 -41 264.5 -55Q251 -69 251 -86Q251 -103 264.5 -117Q278 -131 301 -131Q324 -131 337.5 -117.5Q351 -104 351 -86Q351 -68 337.5 -54.5Q324 -41 301 -41Z" glyph-name="six.inf" horiz-adv-x="580" unicode="&#58743;" /><glyph d="M142 -121 64 -83 437 679 515 640Z" glyph-name="slash" horiz-adv-x="580" unicode="/" /><glyph glyph-name="space" horiz-adv-x="580" unicode=" " /><glyph d="M429 85V152H513V0H69V85H114Q126 100 134 122Q142 144 142 177V267H69V352H142V404Q142 449 157.5 484Q173 519 199 543.5Q225 568 260.5 581Q296 594 336 594Q370 594 399 584.5Q428 575 451 559.5Q474 544 490 523Q506 502 514 478L442 439Q426 472 399.5 492Q373 512 336 512Q294 512 262 484.5Q230 457 230 402V352H382V267H230V163Q227 109 206 85Z" glyph-name="sterling" horiz-adv-x="580" unicode="&#163;" /><glyph d="M72 580H486V409H398V495H177L317 290L177 85H409V171H497V0H72V93L206 290L72 487Z" glyph-name="summation" horiz-adv-x="580" unicode="&#8721;" /><glyph d="M249 162Q249 113 278.5 91Q308 69 348 69Q386 69 417 87Q448 105 471 128L530 67Q501 35 456 10.5Q411 -14 348 -14Q308 -14 273.5 -3Q239 8 214 30Q189 52 175 84Q161 116 161 159V341H50V426H161V580H249V426H456V341H249Z" glyph-name="t" horiz-adv-x="580" unicode="t" /><glyph d="M161 281V343H50V426H161V580H249V426H446V343H249V281H446V198H249V162Q249 113 278.5 91Q308 69 348 69Q386 69 417 87Q448 105 471 128L530 67Q501 35 456 10.5Q411 -14 348 -14Q308 -14 273.5 -3Q239 8 214 30Q189 52 175 84Q161 116 161 159V198H50V281Z" glyph-name="tbar" horiz-adv-x="580" unicode="&#359;" /><glyph d="M249 162Q249 113 278.5 91Q308 69 348 69Q386 69 417 87Q448 105 471 128L530 67Q501 35 456 10.5Q411 -14 348 -14Q308 -14 273.5 -3Q239 8 214 30Q189 52 175 84Q161 116 161 159V341H50V426H161V580H249V426H456V341H249ZM488 652 394 465 318 493 378 693Z" glyph-name="tcaron" horiz-adv-x="580" unicode="&#357;" /><glyph d="M249 162Q249 113 278.5 91Q308 69 348 69Q386 69 417 87Q448 105 471 128L530 67Q501 35 456 10.5Q411 -14 348 -14Q308 -14 273.5 -3Q239 8 214 30Q189 52 175 84Q161 116 161 159V341H50V426H161V580H249V426H456V341H249ZM378 -59 308 -243H234L266 -59Z" glyph-name="tcommaaccent" horiz-adv-x="580" unicode="&#355;" /><glyph d="M26 531V616H175V374Q193 397 231 418.5Q269 440 327 440Q373 440 412.5 423Q452 406 480.5 376Q509 346 525.5 304.5Q542 263 542 213Q542 164 525.5 122Q509 80 480.5 50Q452 20 412.5 3Q373 -14 327 -14Q269 -14 231 7.5Q193 29 175 52V-103H269V-188H26V-103H87V531ZM451 213Q451 244 440.5 270.5Q430 297 412 316Q394 335 369 346Q344 357 315 357Q286 357 260.5 347Q235 337 216 318.5Q197 300 186 274.5Q175 249 175 219V207Q175 177 186 151.5Q197 126 216 107.5Q235 89 260.5 79Q286 69 315 69Q344 69 369 80Q394 91 412 110Q430 129 440.5 155.5Q451 182 451 213Z" glyph-name="thorn" horiz-adv-x="580" unicode="&#254;" /><glyph d="M174 337 354 495H113V580H456V482L293 344L294 343Q305 346 315 346Q350 346 381.5 333.5Q413 321 437.5 298.5Q462 276 476.5 244.5Q491 213 491 175Q491 138 476.5 104Q462 70 435 43.5Q408 17 369.5 1.5Q331 -14 283 -14Q222 -14 171 11.5Q120 37 87 82L155 141Q178 111 211 91.5Q244 72 283 72Q335 72 365.5 103Q396 134 396 177Q396 219 367 247Q338 275 290 275Q275 275 259.5 271.5Q244 268 233 261Z" glyph-name="three" horiz-adv-x="580" unicode="3" /><glyph d="M288 -128Q305 -128 321.5 -118.5Q338 -109 338 -86Q338 -66 323.5 -55Q309 -44 288 -44Q280 -44 273.5 -45.5Q267 -47 257 -50L219 4L311 67H186V134H390V62L306 6Q327 7 346 0.5Q365 -6 379.5 -18.5Q394 -31 403 -48.5Q412 -66 412 -87Q412 -108 403 -127.5Q394 -147 378 -162.5Q362 -178 339.5 -187Q317 -196 289 -196Q248 -196 217 -178Q186 -160 169 -135L223 -92Q235 -109 252 -118.5Q269 -128 288 -128Z" glyph-name="three.inf" horiz-adv-x="580" unicode="&#58740;" /><glyph d="M82 -21 28 24 499 602 553 556ZM428 274H506V129H538V80H506V55H538V0H401V55H448V80H325V135ZM448 129V213L385 129ZM137 401Q151 401 165 408.5Q179 416 179 435Q179 452 167 461Q155 470 137 470Q123 470 111 465L77 512L156 564H50V622H224V560L153 514Q188 516 215.5 493.5Q243 471 243 435Q243 417 235.5 400Q228 383 214 370.5Q200 358 181 350Q162 342 138 342Q103 342 76 357.5Q49 373 35 394L81 430Q91 417 106 409Q121 401 137 401Z" glyph-name="threequarters" horiz-adv-x="580" unicode="&#190;" /><glyph d="M288 360Q305 360 321.5 369.5Q338 379 338 402Q338 422 323.5 433Q309 444 288 444Q280 444 273.5 442.5Q267 441 257 438L219 492L311 555H186V622H390V550L306 494Q327 495 346 488.5Q365 482 379.5 469.5Q394 457 403 439.5Q412 422 412 401Q412 380 403 360.5Q394 341 378 325.5Q362 310 339.5 301Q317 292 289 292Q248 292 217 310Q186 328 169 353L223 396Q235 379 252 369.5Q269 360 288 360Z" glyph-name="threesuperior" horiz-adv-x="580" unicode="&#179;" /><glyph d="M451 577Q450 563 442.5 546.5Q435 530 422 516.5Q409 503 391 494Q373 485 351 485Q329 485 313 491.5Q297 498 284.5 506.5Q272 515 261 521.5Q250 528 237 528Q222 528 211.5 517Q201 506 199 491L128 515Q129 529 136.5 545.5Q144 562 157 575.5Q170 589 188 598Q206 607 228 607Q250 607 266 600.5Q282 594 294.5 585.5Q307 577 318 570.5Q329 564 342 564Q357 564 367.5 575Q378 586 380 601Z" glyph-name="tilde" horiz-adv-x="580" unicode="&#732;" /><glyph d="M258 487H210V531H169V350H223V300H61V350H115V531H74V487H26V580H258ZM367 580 420 446 473 580H554V530H531V352H554V302H448V352H482V495L441 396H397L356 495V352H390V302H284V352H307V530H284V580Z" glyph-name="trademark" horiz-adv-x="580" unicode="&#8482;" /><glyph d="M80 446Q110 512 162 553Q214 594 292 594Q336 594 372 579.5Q408 565 433.5 541Q459 517 472.5 485.5Q486 454 486 420Q486 365 452.5 321Q419 277 355 221L197 85H405V164H488V0H82V99L291 279Q331 314 360.5 350Q390 386 390 422Q390 437 384 452Q378 467 365.5 479.5Q353 492 334.5 500Q316 508 292 508Q267 508 247.5 500Q228 492 212.5 478Q197 464 185 446Q173 428 162 408Z" glyph-name="two" horiz-adv-x="580" unicode="2" /><glyph d="M166 -113 290 -17Q309 -3 322.5 10.5Q336 24 336 41Q336 56 324 65Q312 74 292 74Q267 74 253.5 60.5Q240 47 229 31L167 62Q184 97 214 119.5Q244 142 291 142Q345 142 377.5 112.5Q410 83 410 41Q410 15 395.5 -6.5Q381 -28 351 -51L257 -123H350V-88H414V-188H166Z" glyph-name="two.inf" horiz-adv-x="580" unicode="&#58739;" /><glyph d="M166 375 290 471Q309 485 322.5 498.5Q336 512 336 529Q336 544 324 553Q312 562 292 562Q267 562 253.5 548.5Q240 535 229 519L167 550Q184 585 214 607.5Q244 630 291 630Q345 630 377.5 600.5Q410 571 410 529Q410 503 395.5 481.5Q381 460 351 437L257 365H350V400H414V300H166Z" glyph-name="twosuperior" horiz-adv-x="580" unicode="&#178;" /><glyph d="M491 426V85H552V0H404V55Q384 23 346 4.5Q308 -14 258 -14Q222 -14 192.5 -3Q163 8 141 28Q119 48 107 77.5Q95 107 95 143V341H22V426H183V167Q183 139 190.5 121Q198 103 210.5 92Q223 81 238.5 76.5Q254 72 269 72Q294 72 318 81Q342 90 361 106.5Q380 123 391.5 146.5Q403 170 403 199V341H320V426Z" glyph-name="u" horiz-adv-x="580" unicode="u" /><glyph d="M491 426V85H552V0H404V55Q384 23 346 4.5Q308 -14 258 -14Q222 -14 192.5 -3Q163 8 141 28Q119 48 107 77.5Q95 107 95 143V341H22V426H183V167Q183 139 190.5 121Q198 103 210.5 92Q223 81 238.5 76.5Q254 72 269 72Q294 72 318 81Q342 90 361 106.5Q380 123 391.5 146.5Q403 170 403 199V341H320V426ZM419 597 227 481 181 546 353 691Z" glyph-name="uacute" horiz-adv-x="580" unicode="&#250;" /><glyph d="M491 426V85H552V0H404V55Q384 23 346 4.5Q308 -14 258 -14Q222 -14 192.5 -3Q163 8 141 28Q119 48 107 77.5Q95 107 95 143V341H22V426H183V167Q183 139 190.5 121Q198 103 210.5 92Q223 81 238.5 76.5Q254 72 269 72Q294 72 318 81Q342 90 361 106.5Q380 123 391.5 146.5Q403 170 403 199V341H320V426ZM283 495Q222 495 181.5 530.5Q141 566 138 626L217 631Q219 604 236.5 585.5Q254 567 283 567Q311 567 329 585.5Q347 604 349 631L428 626Q425 566 384.5 530.5Q344 495 283 495Z" glyph-name="ubreve" horiz-adv-x="580" unicode="&#365;" /><glyph d="M491 426V85H552V0H404V55Q384 23 346 4.5Q308 -14 258 -14Q222 -14 192.5 -3Q163 8 141 28Q119 48 107 77.5Q95 107 95 143V341H22V426H183V167Q183 139 190.5 121Q198 103 210.5 92Q223 81 238.5 76.5Q254 72 269 72Q294 72 318 81Q342 90 361 106.5Q380 123 391.5 146.5Q403 170 403 199V341H320V426ZM283 677 427 550 374 487 283 567 192 487 139 550Z" glyph-name="ucircumflex" horiz-adv-x="580" unicode="&#251;" /><glyph d="M491 426V85H552V0H404V55Q384 23 346 4.5Q308 -14 258 -14Q222 -14 192.5 -3Q163 8 141 28Q119 48 107 77.5Q95 107 95 143V341H22V426H183V167Q183 139 190.5 121Q198 103 210.5 92Q223 81 238.5 76.5Q254 72 269 72Q294 72 318 81Q342 90 361 106.5Q380 123 391.5 146.5Q403 170 403 199V341H320V426ZM251 576Q251 545 230.5 525.5Q210 506 181 506Q152 506 131.5 525.5Q111 545 111 576Q111 607 131.5 626.5Q152 646 181 646Q210 646 230.5 626.5Q251 607 251 576ZM451 576Q451 545 430.5 525.5Q410 506 381 506Q352 506 331.5 525.5Q311 545 311 576Q311 607 331.5 626.5Q352 646 381 646Q410 646 430.5 626.5Q451 607 451 576Z" glyph-name="udieresis" horiz-adv-x="580" unicode="&#252;" /><glyph d="M491 426V85H552V0H404V55Q384 23 346 4.5Q308 -14 258 -14Q222 -14 192.5 -3Q163 8 141 28Q119 48 107 77.5Q95 107 95 143V341H22V426H183V167Q183 139 190.5 121Q198 103 210.5 92Q223 81 238.5 76.5Q254 72 269 72Q294 72 318 81Q342 90 361 106.5Q380 123 391.5 146.5Q403 170 403 199V341H320V426ZM208 691 380 546 334 481 142 597Z" glyph-name="ugrave" horiz-adv-x="580" unicode="&#249;" /><glyph d="M491 426V85H552V0H404V55Q384 23 346 4.5Q308 -14 258 -14Q222 -14 192.5 -3Q163 8 141 28Q119 48 107 77.5Q95 107 95 143V341H22V426H183V167Q183 139 190.5 121Q198 103 210.5 92Q223 81 238.5 76.5Q254 72 269 72Q294 72 318 81Q342 90 361 106.5Q380 123 391.5 146.5Q403 170 403 199V341H320V426ZM314 607 130 485 85 543 248 693ZM536 607 352 485 307 543 470 693Z" glyph-name="uhungarumlaut" horiz-adv-x="580" unicode="&#369;" /><glyph d="M491 426V85H552V0H404V55Q384 23 346 4.5Q308 -14 258 -14Q222 -14 192.5 -3Q163 8 141 28Q119 48 107 77.5Q95 107 95 143V341H22V426H183V167Q183 139 190.5 121Q198 103 210.5 92Q223 81 238.5 76.5Q254 72 269 72Q294 72 318 81Q342 90 361 106.5Q380 123 391.5 146.5Q403 170 403 199V341H320V426ZM151 589H409V505H151Z" glyph-name="umacron" horiz-adv-x="580" unicode="&#363;" /><glyph d="M492 -50V-135H88V-50Z" glyph-name="underscore" horiz-adv-x="580" unicode="_" /><glyph d="M441 221H139V319H441Z" glyph-name="uni00AD" horiz-adv-x="580" unicode="&#173;" /><glyph d="M218 492 288 676H362L330 492Z" glyph-name="uni0312" horiz-adv-x="580" unicode="&#786;" /><glyph d="M496 422Q496 374 471 344Q446 314 411 300Q462 286 495 251.5Q528 217 528 167Q528 93 477 51Q426 9 336 4V-96H257V4H39V89H106V491H39V576H257V670H336V574Q411 566 453.5 526.5Q496 487 496 422ZM436 172Q436 241 336 253V90Q436 101 436 172ZM195 89H257V255H195ZM195 337H257V491H195ZM404 414Q404 472 336 486V341Q404 355 404 414Z" glyph-name="uni0E3F" horiz-adv-x="580" unicode="&#3647;" /><glyph d="M424 461Q424 385 389 338.5Q354 292 290 292Q226 292 191 338.5Q156 385 156 461Q156 537 191 583.5Q226 630 290 630Q354 630 389 583.5Q424 537 424 461ZM230 461Q230 453 230 445.5Q230 438 231 431L330 542Q315 562 290 562Q258 562 244 533Q230 504 230 461ZM350 461Q350 467 350 473.5Q350 480 349 486L252 377Q267 360 290 360Q322 360 336 389Q350 418 350 461Z" glyph-name="uni2070" horiz-adv-x="580" unicode="&#8304;" /><glyph d="M284 622H372V451H406V394H372V363H406V300H250V363H305V394H161V459ZM305 451V550L230 451Z" glyph-name="uni2074" horiz-adv-x="580" unicode="&#8308;" /><glyph d="M291 443Q283 443 273.5 440.5Q264 438 256 432H185L195 622H391V555H256L253 494Q276 506 303 506Q323 506 342 499Q361 492 376 479Q391 466 400 447Q409 428 409 404Q409 382 400.5 361.5Q392 341 375.5 325.5Q359 310 335.5 301Q312 292 282 292Q241 292 211 309.5Q181 327 164 350L218 393Q230 378 246 369Q262 360 282 360Q302 360 318.5 370.5Q335 381 335 403Q335 423 321.5 433Q308 443 291 443Z" glyph-name="uni2075" horiz-adv-x="580" unicode="&#8309;" /><glyph d="M364 541Q357 549 344 556.5Q331 564 314 564Q296 564 281 555Q266 546 254.5 531Q243 516 236.5 497.5Q230 479 230 461Q234 474 253 490.5Q272 507 310 507Q333 507 353 499.5Q373 492 389 478.5Q405 465 414 445.5Q423 426 423 403Q423 357 389.5 324.5Q356 292 300 292Q264 292 237.5 307Q211 322 194 345.5Q177 369 169 398Q161 427 161 456Q161 493 174 525Q187 557 208 580Q229 603 256.5 616.5Q284 630 314 630Q349 630 374 616Q399 602 413 583ZM301 447Q278 447 264.5 433Q251 419 251 402Q251 385 264.5 371Q278 357 301 357Q324 357 337.5 370.5Q351 384 351 402Q351 420 337.5 433.5Q324 447 301 447Z" glyph-name="uni2076" horiz-adv-x="580" unicode="&#8310;" /><glyph d="M416 622V549L315 300H236L343 555H235V521H167V622Z" glyph-name="uni2077" horiz-adv-x="580" unicode="&#8311;" /><glyph d="M290 630Q344 630 375.5 602Q407 574 407 537Q407 489 359 467Q386 456 401.5 436.5Q417 417 417 388Q417 349 382 320.5Q347 292 290 292Q233 292 198 320.5Q163 349 163 388Q163 417 178.5 436.5Q194 456 221 467Q173 489 173 537Q173 574 204.5 602Q236 630 290 630ZM344 396Q344 413 329 424Q314 435 290 435Q266 435 251 424Q236 413 236 396Q236 379 250.5 368.5Q265 358 290 358Q315 358 329.5 368.5Q344 379 344 396ZM290 564Q270 564 258 554.5Q246 545 246 531Q246 517 258 508Q270 499 290 499Q310 499 322 508Q334 517 334 531Q334 545 322 554.5Q310 564 290 564Z" glyph-name="uni2078" horiz-adv-x="580" unicode="&#8312;" /><glyph d="M216 381Q223 373 236 365.5Q249 358 266 358Q284 358 299 367Q314 376 325.5 391Q337 406 343.5 424.5Q350 443 350 461Q346 448 327 431.5Q308 415 270 415Q248 415 227.5 422.5Q207 430 191 443.5Q175 457 166 476.5Q157 496 157 519Q157 565 190.5 597.5Q224 630 280 630Q316 630 342.5 615Q369 600 386 576.5Q403 553 411 524Q419 495 419 466Q419 429 406 397Q393 365 372 342Q351 319 323.5 305.5Q296 292 266 292Q231 292 206 306Q181 320 167 339ZM279 475Q302 475 315.5 489Q329 503 329 520Q329 537 315.5 551Q302 565 279 565Q256 565 242.5 551.5Q229 538 229 520Q229 502 242.5 488.5Q256 475 279 475Z" glyph-name="uni2079" horiz-adv-x="580" unicode="&#8313;" /><glyph d="M424 161Q424 85 389 38.5Q354 -8 290 -8Q226 -8 191 38.5Q156 85 156 161Q156 237 191 283.5Q226 330 290 330Q354 330 389 283.5Q424 237 424 161ZM230 161Q230 153 230 145.5Q230 138 231 131L330 242Q315 262 290 262Q258 262 244 233Q230 204 230 161ZM350 161Q350 167 350 173.5Q350 180 349 186L252 77Q267 60 290 60Q322 60 336 89Q350 118 350 161Z" glyph-name="uni2080" horiz-adv-x="580" unicode="&#8320;" /><glyph d="M422 68V0H158V68H260V236L208 189L166 244L254 322H332V68Z" glyph-name="uni2081" horiz-adv-x="580" unicode="&#8321;" /><glyph d="M166 75 290 171Q309 185 322.5 198.5Q336 212 336 229Q336 244 324 253Q312 262 292 262Q267 262 253.5 248.5Q240 235 229 219L167 250Q184 285 214 307.5Q244 330 291 330Q345 330 377.5 300.5Q410 271 410 229Q410 203 395.5 181.5Q381 160 351 137L257 65H350V100H414V0H166Z" glyph-name="uni2082" horiz-adv-x="580" unicode="&#8322;" /><glyph d="M288 60Q305 60 321.5 69.5Q338 79 338 102Q338 122 323.5 133Q309 144 288 144Q280 144 273.5 142.5Q267 141 257 138L219 192L311 255H186V322H390V250L306 194Q327 195 346 188.5Q365 182 379.5 169.5Q394 157 403 139.5Q412 122 412 101Q412 80 403 60.5Q394 41 378 25.5Q362 10 339.5 1Q317 -8 289 -8Q248 -8 217 10Q186 28 169 53L223 96Q235 79 252 69.5Q269 60 288 60Z" glyph-name="uni2083" horiz-adv-x="580" unicode="&#8323;" /><glyph d="M284 322H372V151H406V94H372V63H406V0H250V63H305V94H161V159ZM305 151V250L230 151Z" glyph-name="uni2084" horiz-adv-x="580" unicode="&#8324;" /><glyph d="M291 143Q283 143 273.5 140.5Q264 138 256 132H185L195 322H391V255H256L253 194Q276 206 303 206Q323 206 342 199Q361 192 376 179Q391 166 400 147Q409 128 409 104Q409 82 400.5 61.5Q392 41 375.5 25.5Q359 10 335.5 1Q312 -8 282 -8Q241 -8 211 9.5Q181 27 164 50L218 93Q230 78 246 69Q262 60 282 60Q302 60 318.5 70.5Q335 81 335 103Q335 123 321.5 133Q308 143 291 143Z" glyph-name="uni2085" horiz-adv-x="580" unicode="&#8325;" /><glyph d="M364 241Q357 249 344 256.5Q331 264 314 264Q296 264 281 255Q266 246 254.5 231Q243 216 236.5 197.5Q230 179 230 161Q234 174 253 190.5Q272 207 310 207Q333 207 353 199.5Q373 192 389 178.5Q405 165 414 145.5Q423 126 423 103Q423 57 389.5 24.5Q356 -8 300 -8Q264 -8 237.5 7Q211 22 194 45.5Q177 69 169 98Q161 127 161 156Q161 193 174 225Q187 257 208 280Q229 303 256.5 316.5Q284 330 314 330Q349 330 374 316Q399 302 413 283ZM301 147Q278 147 264.5 133Q251 119 251 102Q251 85 264.5 71Q278 57 301 57Q324 57 337.5 70.5Q351 84 351 102Q351 120 337.5 133.5Q324 147 301 147Z" glyph-name="uni2086" horiz-adv-x="580" unicode="&#8326;" /><glyph d="M416 322V249L315 0H236L343 255H235V221H167V322Z" glyph-name="uni2087" horiz-adv-x="580" unicode="&#8327;" /><glyph d="M290 330Q344 330 375.5 302Q407 274 407 237Q407 189 359 167Q386 156 401.5 136.5Q417 117 417 88Q417 49 382 20.5Q347 -8 290 -8Q233 -8 198 20.5Q163 49 163 88Q163 117 178.5 136.5Q194 156 221 167Q173 189 173 237Q173 274 204.5 302Q236 330 290 330ZM344 96Q344 113 329 124Q314 135 290 135Q266 135 251 124Q236 113 236 96Q236 79 250.5 68.5Q265 58 290 58Q315 58 329.5 68.5Q344 79 344 96ZM290 264Q270 264 258 254.5Q246 245 246 231Q246 217 258 208Q270 199 290 199Q310 199 322 208Q334 217 334 231Q334 245 322 254.5Q310 264 290 264Z" glyph-name="uni2088" horiz-adv-x="580" unicode="&#8328;" /><glyph d="M216 81Q223 73 236 65.5Q249 58 266 58Q284 58 299 67Q314 76 325.5 91Q337 106 343.5 124.5Q350 143 350 161Q346 148 327 131.5Q308 115 270 115Q248 115 227.5 122.5Q207 130 191 143.5Q175 157 166 176.5Q157 196 157 219Q157 265 190.5 297.5Q224 330 280 330Q316 330 342.5 315Q369 300 386 276.5Q403 253 411 224Q419 195 419 166Q419 129 406 97Q393 65 372 42Q351 19 323.5 5.5Q296 -8 266 -8Q231 -8 206 6Q181 20 167 39ZM279 175Q302 175 315.5 189Q329 203 329 220Q329 237 315.5 251Q302 265 279 265Q256 265 242.5 251.5Q229 238 229 220Q229 202 242.5 188.5Q256 175 279 175Z" glyph-name="uni2089" horiz-adv-x="580" unicode="&#8329;" /><glyph d="M404 55Q384 23 346 4.5Q308 -14 258 -14Q222 -14 192.5 -3Q163 8 141 28Q119 48 107 77.5Q95 107 95 143V341H22V426H183V167Q183 139 190.5 121Q198 103 210.5 92Q223 81 238.5 76.5Q254 72 269 72Q294 72 318 81Q342 90 361 106.5Q380 123 391.5 146.5Q403 170 403 199V341H320V426H491V85H552V0H507Q457 -26 425.5 -56Q394 -86 394 -112Q394 -123 401.5 -130.5Q409 -138 426 -138Q446 -138 463.5 -128Q481 -118 498 -104L537 -153Q512 -178 482 -194.5Q452 -211 413 -211Q366 -211 340 -187Q314 -163 314 -124Q314 -56 404 0Z" glyph-name="uogonek" horiz-adv-x="580" unicode="&#371;" /><glyph d="M491 426V85H552V0H404V55Q384 23 346 4.5Q308 -14 258 -14Q222 -14 192.5 -3Q163 8 141 28Q119 48 107 77.5Q95 107 95 143V341H22V426H183V167Q183 139 190.5 121Q198 103 210.5 92Q223 81 238.5 76.5Q254 72 269 72Q294 72 318 81Q342 90 361 106.5Q380 123 391.5 146.5Q403 170 403 199V341H320V426ZM391 588Q391 566 382.5 546Q374 526 359 511Q344 496 324 487.5Q304 479 281 479Q258 479 238 487.5Q218 496 203 511Q188 526 179.5 546Q171 566 171 588Q171 635 202.5 666Q234 697 281 697Q328 697 359.5 666Q391 635 391 588ZM322 588Q322 605 311.5 617.5Q301 630 281 630Q261 630 250.5 617.5Q240 605 240 588Q240 571 250.5 558.5Q261 546 281 546Q301 546 311.5 558.5Q322 571 322 588Z" glyph-name="uring" horiz-adv-x="580" unicode="&#367;" /><glyph d="M491 426V85H552V0H404V55Q384 23 346 4.5Q308 -14 258 -14Q222 -14 192.5 -3Q163 8 141 28Q119 48 107 77.5Q95 107 95 143V341H22V426H183V167Q183 139 190.5 121Q198 103 210.5 92Q223 81 238.5 76.5Q254 72 269 72Q294 72 318 81Q342 90 361 106.5Q380 123 391.5 146.5Q403 170 403 199V341H320V426ZM440 577Q439 563 431.5 546.5Q424 530 411 516.5Q398 503 380 494Q362 485 340 485Q318 485 302 491.5Q286 498 273.5 506.5Q261 515 250 521.5Q239 528 226 528Q211 528 200.5 517Q190 506 188 491L117 515Q118 529 125.5 545.5Q133 562 146 575.5Q159 589 177 598Q195 607 217 607Q239 607 255 600.5Q271 594 283.5 585.5Q296 577 307 570.5Q318 564 331 564Q346 564 356.5 575Q367 586 369 601Z" glyph-name="utilde" horiz-adv-x="580" unicode="&#361;" /><glyph d="M239 0 76 341H23V426H232V341H175L290 94L404 341H348V426H557V341H502L339 0Z" glyph-name="v" horiz-adv-x="580" unicode="v" /><glyph d="M361 0 290 194 219 0H120L53 341H11V426H203V341H140L183 109L250 295H334L401 109L444 341H378V426H569V341H527L460 0Z" glyph-name="w" horiz-adv-x="580" unicode="w" /><glyph d="M361 0 290 194 219 0H120L53 341H11V426H203V341H140L183 109L250 295H334L401 109L444 341H378V426H569V341H527L460 0ZM429 597 237 481 191 546 363 691Z" glyph-name="wacute" horiz-adv-x="580" unicode="&#7811;" /><glyph d="M361 0 290 194 219 0H120L53 341H11V426H203V341H140L183 109L250 295H334L401 109L444 341H378V426H569V341H527L460 0ZM290 677 434 550 381 487 290 567 199 487 146 550Z" glyph-name="wcircumflex" horiz-adv-x="580" unicode="&#373;" /><glyph d="M361 0 290 194 219 0H120L53 341H11V426H203V341H140L183 109L250 295H334L401 109L444 341H378V426H569V341H527L460 0ZM260 576Q260 545 239.5 525.5Q219 506 190 506Q161 506 140.5 525.5Q120 545 120 576Q120 607 140.5 626.5Q161 646 190 646Q219 646 239.5 626.5Q260 607 260 576ZM460 576Q460 545 439.5 525.5Q419 506 390 506Q361 506 340.5 525.5Q320 545 320 576Q320 607 340.5 626.5Q361 646 390 646Q419 646 439.5 626.5Q460 607 460 576Z" glyph-name="wdieresis" horiz-adv-x="580" unicode="&#7813;" /><glyph d="M361 0 290 194 219 0H120L53 341H11V426H203V341H140L183 109L250 295H334L401 109L444 341H378V426H569V341H527L460 0ZM217 691 389 546 343 481 151 597Z" glyph-name="wgrave" horiz-adv-x="580" unicode="&#7809;" /><glyph d="M537 426V341H499L347 218L510 85H548V0H341V85H392L287 170L183 85H235V0H32V85H70L232 215L78 341H41V426H244V341H197L292 263L387 341H339V426Z" glyph-name="x" horiz-adv-x="580" unicode="x" /><glyph d="M76 -188V-104H196L242 -6L76 341H23V426H232V341H175L290 94L404 341H348V426H557V341H502L290 -104H352V-188Z" glyph-name="y" horiz-adv-x="580" unicode="y" /><glyph d="M76 -188V-104H196L242 -6L76 341H23V426H232V341H175L290 94L404 341H348V426H557V341H502L290 -104H352V-188ZM439 597 247 481 201 546 373 691Z" glyph-name="yacute" horiz-adv-x="580" unicode="&#253;" /><glyph d="M76 -188V-104H196L242 -6L76 341H23V426H232V341H175L290 94L404 341H348V426H557V341H502L290 -104H352V-188ZM290 677 434 550 381 487 290 567 199 487 146 550Z" glyph-name="ycircumflex" horiz-adv-x="580" unicode="&#375;" /><glyph d="M76 -188V-104H196L242 -6L76 341H23V426H232V341H175L290 94L404 341H348V426H557V341H502L290 -104H352V-188ZM260 576Q260 545 239.5 525.5Q219 506 190 506Q161 506 140.5 525.5Q120 545 120 576Q120 607 140.5 626.5Q161 646 190 646Q219 646 239.5 626.5Q260 607 260 576ZM460 576Q460 545 439.5 525.5Q419 506 390 506Q361 506 340.5 525.5Q320 545 320 576Q320 607 340.5 626.5Q361 646 390 646Q419 646 439.5 626.5Q460 607 460 576Z" glyph-name="ydieresis" horiz-adv-x="580" unicode="&#255;" /><glyph d="M245 224V227L213 274H68V344H167L66 495H17V580H235V495H176L292 316L408 495H345V580H563V495H514L413 344H512V274H366L335 227V224H512V154H335V85H449V0H131V85H245V154H68V224Z" glyph-name="yen" horiz-adv-x="580" unicode="&#165;" /><glyph d="M100 426H484V333L203 85H411V150H495V0H90V93L368 341H184V280H100Z" glyph-name="z" horiz-adv-x="580" unicode="z" /><glyph d="M100 426H484V333L203 85H411V150H495V0H90V93L368 341H184V280H100ZM433 597 241 481 195 546 367 691Z" glyph-name="zacute" horiz-adv-x="580" unicode="&#378;" /><glyph d="M100 426H484V333L203 85H411V150H495V0H90V93L368 341H184V280H100ZM154 614 207 677 298 597 389 677 442 614 298 487Z" glyph-name="zcaron" horiz-adv-x="580" unicode="&#382;" /><glyph d="M100 426H484V333L203 85H411V150H495V0H90V93L368 341H184V280H100ZM373 576Q373 543 351 522Q329 501 298 501Q267 501 245 522Q223 543 223 576Q223 609 245 630Q267 651 298 651Q329 651 351 630Q373 609 373 576Z" glyph-name="zdotaccent" horiz-adv-x="580" unicode="&#380;" /><glyph d="M65 290Q65 358 80.5 414Q96 470 125.5 510Q155 550 196.5 572Q238 594 290 594Q342 594 383.5 572Q425 550 454.5 510Q484 470 499.5 414Q515 358 515 290Q515 222 499.5 166Q484 110 454.5 70Q425 30 383.5 8Q342 -14 290 -14Q238 -14 196.5 8Q155 30 125.5 70Q96 110 80.5 166Q65 222 65 290ZM161 290Q161 241 170 199L379 455Q363 479 341 493Q319 507 290 507Q257 507 233 490Q209 473 193 443.5Q177 414 169 374.5Q161 335 161 290ZM419 290Q419 311 417.5 331Q416 351 412 370L205 117Q238 73 290 73Q322 73 346.5 90Q371 107 387 136.5Q403 166 411 205.5Q419 245 419 290Z" glyph-name="zero" horiz-adv-x="580" unicode="0" /><glyph d="M424 -27Q424 -103 389 -149.5Q354 -196 290 -196Q226 -196 191 -149.5Q156 -103 156 -27Q156 49 191 95.5Q226 142 290 142Q354 142 389 95.5Q424 49 424 -27ZM230 -27Q230 -35 230 -42.5Q230 -50 231 -57L330 54Q315 74 290 74Q258 74 244 45Q230 16 230 -27ZM350 -27Q350 -21 350 -14.5Q350 -8 349 -2L252 -111Q267 -128 290 -128Q322 -128 336 -99Q350 -70 350 -27Z" glyph-name="zero.inf" horiz-adv-x="580" unicode="&#58737;" /><glyph d="M65 290Q65 358 80.5 414Q96 470 125.5 510Q155 550 196.5 572Q238 594 290 594Q342 594 383.5 572Q425 550 454.5 510Q484 470 499.5 414Q515 358 515 290Q515 222 499.5 166Q484 110 454.5 70Q425 30 383.5 8Q342 -14 290 -14Q238 -14 196.5 8Q155 30 125.5 70Q96 110 80.5 166Q65 222 65 290ZM419 290Q419 335 411 374.5Q403 414 387 443.5Q371 473 346.5 490Q322 507 290 507Q257 507 233 490Q209 473 193 443.5Q177 414 169 374.5Q161 335 161 290Q161 245 169 205.5Q177 166 193 136.5Q209 107 233 90Q257 73 290 73Q322 73 346.5 90Q371 107 387 136.5Q403 166 411 205.5Q419 245 419 290Z" glyph-name="zero.noslash" horiz-adv-x="580" /></font>
</defs>
</svg>
